<?xml version="1.0" encoding="UTF-8" standalone="no"?><svg xmlns="http://www.w3.org/2000/svg" xmlns:xlink="http://www.w3.org/1999/xlink" contentScriptType="application/ecmascript" contentStyleType="text/css" height="395px" preserveAspectRatio="none" style="width:1603px;height:395px;" version="1.1" viewBox="0 0 1603 395" width="1603px" zoomAndPan="magnify"><defs><filter height="300%" id="fdz1bmvs5ai0a" width="300%" x="-1" y="-1"><feGaussianBlur result="blurOut" stdDeviation="2.0"/><feColorMatrix in="blurOut" result="blurOut2" type="matrix" values="0 0 0 0 0 0 0 0 0 0 0 0 0 0 0 0 0 0 .4 0"/><feOffset dx="4.0" dy="4.0" in="blurOut2" result="blurOut3"/><feBlend in="SourceGraphic" in2="blurOut3" mode="normal"/></filter></defs><g><rect fill="#FEFECE" filter="url(#fdz1bmvs5ai0a)" height="376.4883" rx="12.5" ry="12.5" style="stroke: #A80036; stroke-width: 1.5;" width="1585" x="6" y="8"/><rect fill="#FFFFFF" height="344" rx="12.5" ry="12.5" style="stroke: #FFFFFF; stroke-width: 1.0;" width="1579" x="9" y="37.4883"/><line style="stroke: #A80036; stroke-width: 1.5;" x1="6" x2="1591" y1="34.4883" y2="34.4883"/><text fill="#000000" font-family="sans-serif" font-size="14" lengthAdjust="spacingAndGlyphs" textLength="32" x="782.5" y="26.5352">Root</text><ellipse cx="590.5" cy="57.4883" fill="#000000" filter="url(#fdz1bmvs5ai0a)" rx="10" ry="10" style="stroke: none; stroke-width: 1.0;"/><rect fill="#FEFECE" filter="url(#fdz1bmvs5ai0a)" height="40" rx="12.5" ry="12.5" style="stroke: #A80036; stroke-width: 1.5;" width="50" x="565.5" y="216.9883"/><text fill="#000000" font-family="sans-serif" font-size="14" lengthAdjust="spacingAndGlyphs" textLength="21" x="580" y="242.2793">Off</text><rect fill="#FEFECE" filter="url(#fdz1bmvs5ai0a)" height="40" rx="12.5" ry="12.5" style="stroke: #A80036; stroke-width: 1.5;" width="97" x="17" y="216.9883"/><text fill="#000000" font-family="sans-serif" font-size="14" lengthAdjust="spacingAndGlyphs" textLength="87" x="22" y="242.2793">Maintenance</text><rect fill="#FEFECE" filter="url(#fdz1bmvs5ai0a)" height="265.4883" rx="12.5" ry="12.5" style="stroke: #A80036; stroke-width: 1.5;" width="658" x="899.5" y="104.4883"/><rect fill="#FFFFFF" height="233" rx="12.5" ry="12.5" style="stroke: #FFFFFF; stroke-width: 1.0;" width="652" x="902.5" y="133.9766"/><line style="stroke: #A80036; stroke-width: 1.5;" x1="899.5" x2="1557.5" y1="130.9766" y2="130.9766"/><text fill="#000000" font-family="sans-serif" font-size="14" lengthAdjust="spacingAndGlyphs" textLength="20" x="1218.5" y="123.0234">On</text><ellipse cx="935.5" cy="153.9766" fill="#000000" filter="url(#fdz1bmvs5ai0a)" rx="10" ry="10" style="stroke: none; stroke-width: 1.0;"/><rect fill="#FEFECE" filter="url(#fdz1bmvs5ai0a)" height="40" rx="12.5" ry="12.5" style="stroke: #A80036; stroke-width: 1.5;" width="50" x="910.5" y="257.9766"/><text fill="#000000" font-family="sans-serif" font-size="14" lengthAdjust="spacingAndGlyphs" textLength="28" x="921.5" y="283.2676">DAB</text><rect fill="#FEFECE" filter="url(#fdz1bmvs5ai0a)" height="154.4883" rx="12.5" ry="12.5" style="stroke: #A80036; stroke-width: 1.5;" width="392" x="1132.5" y="200.9766"/><rect fill="#FFFFFF" height="122" rx="12.5" ry="12.5" style="stroke: #FFFFFF; stroke-width: 1.0;" width="386" x="1135.5" y="230.4648"/><line style="stroke: #A80036; stroke-width: 1.5;" x1="1132.5" x2="1524.5" y1="227.4648" y2="227.4648"/><text fill="#000000" font-family="sans-serif" font-size="14" lengthAdjust="spacingAndGlyphs" textLength="20" x="1318.5" y="219.5117">FM</text><ellipse cx="1168.5" cy="250.1748" fill="#000000" filter="url(#fdz1bmvs5ai0a)" rx="10" ry="10" style="stroke: none; stroke-width: 1.0;"/><rect fill="#FEFECE" filter="url(#fdz1bmvs5ai0a)" height="40" rx="12.5" ry="12.5" style="stroke: #A80036; stroke-width: 1.5;" width="50" x="1143.5" y="297.1748"/><text fill="#000000" font-family="sans-serif" font-size="14" lengthAdjust="spacingAndGlyphs" textLength="27" x="1155" y="322.4659">Play</text><rect fill="#FEFECE" filter="url(#fdz1bmvs5ai0a)" height="40" rx="12.5" ry="12.5" style="stroke: #A80036; stroke-width: 1.5;" width="78" x="1413.5" y="297.1748"/><text fill="#000000" font-family="sans-serif" font-size="14" lengthAdjust="spacingAndGlyphs" textLength="68" x="1418.5" y="322.4659">AutoTune</text><!--MD5=[7515f2e79ab7cd8d7f04f77b9e72bc41]
link *start*FM to Play--><path d="M1168.5,260.2148 C1168.5,268.3748 1168.5,280.7448 1168.5,291.7848 " fill="none" id="*start*FM-&gt;Play" style="stroke: #A80036; stroke-width: 1.0;"/><polygon fill="#A80036" points="1168.5,297.0748,1172.5,288.0748,1168.5,292.0748,1164.5,288.0748,1168.5,297.0748" style="stroke: #A80036; stroke-width: 1.0;"/><!--MD5=[24e313438bb94a0f3204fe2ff2ea6e7f]
link Play to AutoTune--><path d="M1193.65,331.9348 C1198.44,334.1048 1203.51,336.0048 1208.5,337.1748 C1229.05,342.0248 1377.72,340.9048 1398.5,337.1748 C1401.73,336.6048 1405.02,335.8448 1408.3,334.9548 " fill="none" id="Play-&gt;AutoTune" style="stroke: #A80036; stroke-width: 1.0;"/><polygon fill="#A80036" points="1413.43,333.4748,1403.6737,332.1281,1408.6262,334.8617,1405.8926,339.8142,1413.43,333.4748" style="stroke: #A80036; stroke-width: 1.0;"/><text fill="#000000" font-family="sans-serif" font-size="13" lengthAdjust="spacingAndGlyphs" textLength="188" x="1209.5" y="333.7432">StationLost / PlayToAutoTune</text><!--MD5=[2a0d1a6dbf747265bd60fb465a4e2f0e]
link AutoTune to Play--><path d="M1413.49,317.1748 C1356.25,317.1748 1250.7,317.1748 1198.85,317.1748 " fill="none" id="AutoTune-&gt;Play" style="stroke: #A80036; stroke-width: 1.0;"/><polygon fill="#A80036" points="1193.7,317.1748,1202.7,321.1748,1198.7,317.1748,1202.7,313.1748,1193.7,317.1748" style="stroke: #A80036; stroke-width: 1.0;"/><text fill="#000000" font-family="sans-serif" font-size="13" lengthAdjust="spacingAndGlyphs" textLength="200" x="1203.5" y="310.7432">StationFound / AutoTuneToPlay</text><!--MD5=[9201ae958ec7df689b4d900fa63e49e4]
link *start*On to DAB--><path d="M935.5,164.1466 C935.5,182.7466 935.5,225.4466 935.5,252.6566 " fill="none" id="*start*On-&gt;DAB" style="stroke: #A80036; stroke-width: 1.0;"/><polygon fill="#A80036" points="935.5,257.8766,939.5,248.8766,935.5,252.8766,931.5,248.8766,935.5,257.8766" style="stroke: #A80036; stroke-width: 1.0;"/><!--MD5=[75aa4dc84c25e4041e455874bc44d375]
link DAB to FM--><path d="M960.68,277.9766 C995.27,277.9766 1060.77,277.9766 1127.02,277.9766 " fill="none" id="DAB-&gt;FM" style="stroke: #A80036; stroke-width: 1.0;"/><polygon fill="#A80036" points="1132.2,277.9766,1123.2,273.9766,1127.2,277.9766,1123.2,281.9766,1132.2,277.9766" style="stroke: #A80036; stroke-width: 1.0;"/><text fill="#000000" font-family="sans-serif" font-size="13" lengthAdjust="spacingAndGlyphs" textLength="152" x="970.5" y="271.5449">ToggleMode / DABToFM</text><!--MD5=[91edb0b2e0762ca5166578cae950692f]
link FM to DAB--><path d="M1132.23,299.7766 C1065.94,304.8066 1000.82,306.5066 969.5,297.9766 C968.23,297.6266 966.96,297.2266 965.69,296.7666 " fill="none" id="FM-&gt;DAB" style="stroke: #A80036; stroke-width: 1.0;"/><polygon fill="#A80036" points="960.85,294.7766,967.6568,301.8946,965.4755,296.6753,970.6948,294.4939,960.85,294.7766" style="stroke: #A80036; stroke-width: 1.0;"/><text fill="#000000" font-family="sans-serif" font-size="13" lengthAdjust="spacingAndGlyphs" textLength="152" x="970.5" y="294.5449">ToggleMode / FMToDAB</text><!--MD5=[5e02d77f6b28d241328b243d1ee07daa]
link *start*Root to Off--><path d="M590.5,67.5383 C590.5,93.9683 590.5,171.7483 590.5,211.6983 " fill="none" id="*start*Root-&gt;Off" style="stroke: #A80036; stroke-width: 1.0;"/><polygon fill="#A80036" points="590.5,216.8383,594.5,207.8383,590.5,211.8383,586.5,207.8383,590.5,216.8383" style="stroke: #A80036; stroke-width: 1.0;"/><!--MD5=[cd122c272ee5d74388aa0f7aceda6507]
link Maintenance to Off--><path d="M114.28,244.1383 C148.93,248.8383 196.58,254.5583 238.75,256.9883 C328.38,262.1483 351.17,262.9483 440.75,256.9883 C482.44,254.2183 530.22,247.1483 560.38,242.2083 " fill="none" id="Maintenance-&gt;Off" style="stroke: #A80036; stroke-width: 1.0;"/><polygon fill="#A80036" points="565.43,241.3683,555.8995,238.8844,560.4965,242.181,557.1999,246.778,565.43,241.3683" style="stroke: #A80036; stroke-width: 1.0;"/><text fill="#000000" font-family="sans-serif" font-size="13" lengthAdjust="spacingAndGlyphs" textLength="200" x="239.75" y="253.5566">TogglePower / MaintainedToOff</text><!--MD5=[ed930b7d048129966bb74c6cff0f6d58]
link Off to Maintenance--><path d="M565.35,236.9883 C484.74,236.9883 231.58,236.9883 119.64,236.9883 " fill="none" id="Off-&gt;Maintenance" style="stroke: #A80036; stroke-width: 1.0;"/><polygon fill="#A80036" points="114.42,236.9883,123.42,240.9883,119.42,236.9883,123.42,232.9883,114.42,236.9883" style="stroke: #A80036; stroke-width: 1.0;"/><text fill="#000000" font-family="sans-serif" font-size="13" lengthAdjust="spacingAndGlyphs" textLength="432" x="123.75" y="230.5566">TogglePower [Maintenance is On] / log transition Off to Maintenance</text><!--MD5=[88d9d84fc04544578402cf3b742eaaec]
link Off to On--><path d="M615.51,236.9883 C664.37,236.9883 777.95,236.9883 894.23,236.9883 " fill="none" id="Off-&gt;On" style="stroke: #A80036; stroke-width: 1.0;"/><polygon fill="#A80036" points="899.42,236.9883,890.42,232.9883,894.42,236.9883,890.42,240.9883,899.42,236.9883" style="stroke: #A80036; stroke-width: 1.0;"/><text fill="#000000" font-family="sans-serif" font-size="13" lengthAdjust="spacingAndGlyphs" textLength="264" x="625.5" y="230.5566">TogglePower [Maintenance Off] / OffToOn</text><!--MD5=[2ee57ebca22bdc8713f173619aa2ce0d]
link On to Off--><path d="M899.35,256.7583 C810.02,260.3883 725.89,261.7283 682,256.9883 C661.16,254.7383 638.12,249.6883 620.36,245.2183 " fill="none" id="On-&gt;Off" style="stroke: #A80036; stroke-width: 1.0;"/><polygon fill="#A80036" points="615.5,243.9783,623.2401,250.0685,620.3465,245.2078,625.2073,242.3142,615.5,243.9783" style="stroke: #A80036; stroke-width: 1.0;"/><text fill="#000000" font-family="sans-serif" font-size="13" lengthAdjust="spacingAndGlyphs" textLength="149" x="683" y="253.5566">TogglePower / OnToOff</text><!--MD5=[c4aca573ff2e4b7681309f7da84b2495]
@startuml
hide empty description

state Root {
    [*] - -> Off
    state Maintenance
    Maintenance -> Off : TogglePower / MaintainedToOff

    state Off
    Off -> Maintenance : TogglePower [Maintenance is On] / log transition Off to Maintenance
    Off -> On : TogglePower [Maintenance Off] / OffToOn


    state On {
        [*] - -> DAB
        state DAB
        DAB -> FM : ToggleMode / DABToFM

        state FM {
            [*] - -> Play
            state Play
            Play -> AutoTune : StationLost / PlayToAutoTune

            state AutoTune
            AutoTune -> Play : StationFound / AutoTuneToPlay

            FM -> DAB : ToggleMode / FMToDAB
        }

        On -> Off : TogglePower / OnToOff
    }
}
@enduml

PlantUML version 1.2020.06(Sun Apr 05 14:38:32 CEST 2020)
(APACHE source distribution)
Java Runtime: OpenJDK Runtime Environment
JVM: OpenJDK 64-Bit Server VM
Java Version: 19+36-2238
Operating System: Mac OS X
Default Encoding: UTF-8
Language: en
Country: CH
--></g></svg>