<?xml version="1.0" encoding="UTF-8" standalone="no"?><svg xmlns="http://www.w3.org/2000/svg" xmlns:xlink="http://www.w3.org/1999/xlink" contentScriptType="application/ecmascript" contentStyleType="text/css" height="175px" preserveAspectRatio="none" style="width:1684px;height:175px;" version="1.1" viewBox="0 0 1684 175" width="1684px" zoomAndPan="magnify"><defs><filter height="300%" id="f1a78b175e70nd" width="300%" x="-1" y="-1"><feGaussianBlur result="blurOut" stdDeviation="2.0"/><feColorMatrix in="blurOut" result="blurOut2" type="matrix" values="0 0 0 0 0 0 0 0 0 0 0 0 0 0 0 0 0 0 .4 0"/><feOffset dx="4.0" dy="4.0" in="blurOut2" result="blurOut3"/><feBlend in="SourceGraphic" in2="blurOut3" mode="normal"/></filter></defs><g><!--MD5=[9c43efd581787900745d5aa4607e29a2]
class StateBuilder--><rect fill="#FEFECE" filter="url(#f1a78b175e70nd)" height="48" id="StateBuilder" style="stroke: #A80036; stroke-width: 1.5;" width="366" x="6" y="116"/><ellipse cx="21" cy="132" fill="#B4A7E5" rx="11" ry="11" style="stroke: #A80036; stroke-width: 1.0;"/><path d="M17.4277,128.2651 L17.4277,126.1069 L24.8071,126.1069 L24.8071,128.2651 L22.3418,128.2651 L22.3418,136.3418 L24.8071,136.3418 L24.8071,138.5 L17.4277,138.5 L17.4277,136.3418 L19.8931,136.3418 L19.8931,128.2651 Z "/><text fill="#000000" font-family="sans-serif" font-size="12" font-style="italic" lengthAdjust="spacingAndGlyphs" textLength="68" x="35" y="136.5352">StateBuilder</text><rect fill="#FFFFFF" height="16.1328" style="stroke: #000000; stroke-width: 1.0; stroke-dasharray: 2.0,2.0;" width="264" x="111" y="113"/><text fill="#000000" font-family="sans-serif" font-size="12" font-style="italic" lengthAdjust="spacingAndGlyphs" textLength="262" x="112" y="125.6016">O, S extends Enum&lt;?&gt;, E extends Enum&lt;E&gt;</text><line style="stroke: #A80036; stroke-width: 1.5;" x1="7" x2="371" y1="148" y2="148"/><line style="stroke: #A80036; stroke-width: 1.5;" x1="7" x2="371" y1="156" y2="156"/><!--MD5=[833296e6228d29db66eb02c65956121d]
class SubStateBuilder--><rect fill="#FEFECE" filter="url(#f1a78b175e70nd)" height="48" id="SubStateBuilder" style="stroke: #A80036; stroke-width: 1.5;" width="387" x="407.5" y="116"/><ellipse cx="422.5" cy="132" fill="#B4A7E5" rx="11" ry="11" style="stroke: #A80036; stroke-width: 1.0;"/><path d="M418.9277,128.2651 L418.9277,126.1069 L426.3071,126.1069 L426.3071,128.2651 L423.8418,128.2651 L423.8418,136.3418 L426.3071,136.3418 L426.3071,138.5 L418.9277,138.5 L418.9277,136.3418 L421.3931,136.3418 L421.3931,128.2651 Z "/><text fill="#000000" font-family="sans-serif" font-size="12" font-style="italic" lengthAdjust="spacingAndGlyphs" textLength="89" x="436.5" y="136.5352">SubStateBuilder</text><rect fill="#FFFFFF" height="16.1328" style="stroke: #000000; stroke-width: 1.0; stroke-dasharray: 2.0,2.0;" width="264" x="533.5" y="113"/><text fill="#000000" font-family="sans-serif" font-size="12" font-style="italic" lengthAdjust="spacingAndGlyphs" textLength="262" x="534.5" y="125.6016">O, S extends Enum&lt;?&gt;, E extends Enum&lt;E&gt;</text><line style="stroke: #A80036; stroke-width: 1.5;" x1="408.5" x2="793.5" y1="148" y2="148"/><line style="stroke: #A80036; stroke-width: 1.5;" x1="408.5" x2="793.5" y1="156" y2="156"/><!--MD5=[e4d89c89240cfaac1e2abed6c9c88a5e]
class ToTransitionBuilder--><rect fill="#FEFECE" filter="url(#f1a78b175e70nd)" height="48" id="ToTransitionBuilder" style="stroke: #A80036; stroke-width: 1.5;" width="410" x="830" y="116"/><ellipse cx="845" cy="132" fill="#B4A7E5" rx="11" ry="11" style="stroke: #A80036; stroke-width: 1.0;"/><path d="M841.4277,128.2651 L841.4277,126.1069 L848.8071,126.1069 L848.8071,128.2651 L846.3418,128.2651 L846.3418,136.3418 L848.8071,136.3418 L848.8071,138.5 L841.4277,138.5 L841.4277,136.3418 L843.8931,136.3418 L843.8931,128.2651 Z "/><text fill="#000000" font-family="sans-serif" font-size="12" font-style="italic" lengthAdjust="spacingAndGlyphs" textLength="112" x="859" y="136.5352">ToTransitionBuilder</text><rect fill="#FFFFFF" height="16.1328" style="stroke: #000000; stroke-width: 1.0; stroke-dasharray: 2.0,2.0;" width="264" x="979" y="113"/><text fill="#000000" font-family="sans-serif" font-size="12" font-style="italic" lengthAdjust="spacingAndGlyphs" textLength="262" x="980" y="125.6016">O, S extends Enum&lt;?&gt;, E extends Enum&lt;E&gt;</text><line style="stroke: #A80036; stroke-width: 1.5;" x1="831" x2="1239" y1="148" y2="148"/><line style="stroke: #A80036; stroke-width: 1.5;" x1="831" x2="1239" y1="156" y2="156"/><!--MD5=[c9764cbceb8d7e7595b182454364c40a]
class TransitionBuilder--><rect fill="#FEFECE" filter="url(#f1a78b175e70nd)" height="48" id="TransitionBuilder" style="stroke: #A80036; stroke-width: 1.5;" width="395" x="1275.5" y="116"/><ellipse cx="1290.5" cy="132" fill="#B4A7E5" rx="11" ry="11" style="stroke: #A80036; stroke-width: 1.0;"/><path d="M1286.9277,128.2651 L1286.9277,126.1069 L1294.3071,126.1069 L1294.3071,128.2651 L1291.8418,128.2651 L1291.8418,136.3418 L1294.3071,136.3418 L1294.3071,138.5 L1286.9277,138.5 L1286.9277,136.3418 L1289.3931,136.3418 L1289.3931,128.2651 Z "/><text fill="#000000" font-family="sans-serif" font-size="12" font-style="italic" lengthAdjust="spacingAndGlyphs" textLength="97" x="1304.5" y="136.5352">TransitionBuilder</text><rect fill="#FFFFFF" height="16.1328" style="stroke: #000000; stroke-width: 1.0; stroke-dasharray: 2.0,2.0;" width="264" x="1409.5" y="113"/><text fill="#000000" font-family="sans-serif" font-size="12" font-style="italic" lengthAdjust="spacingAndGlyphs" textLength="262" x="1410.5" y="125.6016">O, S extends Enum&lt;?&gt;, E extends Enum&lt;E&gt;</text><line style="stroke: #A80036; stroke-width: 1.5;" x1="1276.5" x2="1669.5" y1="148" y2="148"/><line style="stroke: #A80036; stroke-width: 1.5;" x1="1276.5" x2="1669.5" y1="156" y2="156"/><!--MD5=[f5f8b7103299e67a21112087ae294ca3]
class FsmBuilder--><rect fill="#FEFECE" filter="url(#f1a78b175e70nd)" height="48" id="FsmBuilder" style="stroke: #A80036; stroke-width: 1.5;" width="361" x="637.5" y="8"/><ellipse cx="652.5" cy="24" fill="#ADD1B2" rx="11" ry="11" style="stroke: #A80036; stroke-width: 1.0;"/><path d="M654.9731,30.1431 Q654.3921,30.4419 653.7529,30.5913 Q653.1138,30.7407 652.4082,30.7407 Q649.9014,30.7407 648.5815,29.0889 Q647.2617,27.437 647.2617,24.3159 Q647.2617,21.1865 648.5815,19.5347 Q649.9014,17.8828 652.4082,17.8828 Q653.1138,17.8828 653.7612,18.0322 Q654.4087,18.1816 654.9731,18.4805 L654.9731,21.2031 Q654.3423,20.6221 653.7488,20.3523 Q653.1553,20.0825 652.5244,20.0825 Q651.1797,20.0825 650.4949,21.1492 Q649.8101,22.2158 649.8101,24.3159 Q649.8101,26.4077 650.4949,27.4744 Q651.1797,28.541 652.5244,28.541 Q653.1553,28.541 653.7488,28.2712 Q654.3423,28.0015 654.9731,27.4204 Z "/><text fill="#000000" font-family="sans-serif" font-size="12" lengthAdjust="spacingAndGlyphs" textLength="63" x="666.5" y="28.5352">FsmBuilder</text><rect fill="#FFFFFF" height="16.1328" style="stroke: #000000; stroke-width: 1.0; stroke-dasharray: 2.0,2.0;" width="264" x="737.5" y="5"/><text fill="#000000" font-family="sans-serif" font-size="12" font-style="italic" lengthAdjust="spacingAndGlyphs" textLength="262" x="738.5" y="17.6016">O, S extends Enum&lt;?&gt;, E extends Enum&lt;E&gt;</text><line style="stroke: #A80036; stroke-width: 1.5;" x1="638.5" x2="997.5" y1="40" y2="40"/><line style="stroke: #A80036; stroke-width: 1.5;" x1="638.5" x2="997.5" y1="48" y2="48"/><!--MD5=[85a919238d1f591565b2c25449a2ffbc]
reverse link FsmBuilder to StateBuilder--><path d="M661.63,59.35 C558.39,76.75 424.42,99.33 325.49,116 " fill="none" id="FsmBuilder&lt;-StateBuilder" style="stroke: #A80036; stroke-width: 1.0;"/><polygon fill="none" points="660.63,52.42,681.52,56,662.96,66.23,660.63,52.42" style="stroke: #A80036; stroke-width: 1.0;"/><!--MD5=[6add09adc1da3f8d2631188f667a4871]
reverse link FsmBuilder to SubStateBuilder--><path d="M752.55,64.97 C719,81.36 678.89,100.95 648.37,115.86 " fill="none" id="FsmBuilder&lt;-SubStateBuilder" style="stroke: #A80036; stroke-width: 1.0;"/><polygon fill="none" points="749.87,58.49,770.91,56,756.02,71.07,749.87,58.49" style="stroke: #A80036; stroke-width: 1.0;"/><!--MD5=[94810ec23b975e8ec2a9a2864252d297]
reverse link FsmBuilder to ToTransitionBuilder--><path d="M883.45,64.97 C917,81.36 957.11,100.95 987.63,115.86 " fill="none" id="FsmBuilder&lt;-ToTransitionBuilder" style="stroke: #A80036; stroke-width: 1.0;"/><polygon fill="none" points="879.98,71.07,865.09,56,886.13,58.49,879.98,71.07" style="stroke: #A80036; stroke-width: 1.0;"/><!--MD5=[a40dd4e51e6d4c7d5394f83a02f8aa04]
reverse link FsmBuilder to TransitionBuilder--><path d="M980.17,59.24 C1087.76,76.66 1227.64,99.29 1330.87,116 " fill="none" id="FsmBuilder&lt;-TransitionBuilder" style="stroke: #A80036; stroke-width: 1.0;"/><polygon fill="none" points="978.75,66.11,960.13,56,980.99,52.29,978.75,66.11" style="stroke: #A80036; stroke-width: 1.0;"/><!--MD5=[3f6dcca645f0d425594317270ffdab6b]
@startuml
interface StateBuilder<O, S extends Enum<?>, E extends Enum<E>> {
}

interface SubStateBuilder<O, S extends Enum<?>, E extends Enum<E>> {
}

interface ToTransitionBuilder<O, S extends Enum<?>, E extends Enum<E>> {
}

interface TransitionBuilder<O, S extends Enum<?>, E extends Enum<E>> {
}

class FsmBuilder<O, S extends Enum<?>, E extends Enum<E>> {
}

FsmBuilder <|- - StateBuilder
FsmBuilder <|- - SubStateBuilder
FsmBuilder <|- - ToTransitionBuilder
FsmBuilder <|- - TransitionBuilder
@enduml

PlantUML version 1.2020.06(Sun Apr 05 14:38:32 CEST 2020)
(APACHE source distribution)
Java Runtime: OpenJDK Runtime Environment
JVM: OpenJDK 64-Bit Server VM
Java Version: 19-ea+30-2169
Operating System: Mac OS X
Default Encoding: UTF-8
Language: en
Country: CH
--></g></svg>