<?xml version="1.0" encoding="UTF-8" standalone="no"?><svg xmlns="http://www.w3.org/2000/svg" xmlns:xlink="http://www.w3.org/1999/xlink" contentScriptType="application/ecmascript" contentStyleType="text/css" height="420px" preserveAspectRatio="none" style="width:789px;height:420px;" version="1.1" viewBox="0 0 789 420" width="789px" zoomAndPan="magnify"><defs><filter height="300%" id="fdpkjuz9oy2vs" width="300%" x="-1" y="-1"><feGaussianBlur result="blurOut" stdDeviation="2.0"/><feColorMatrix in="blurOut" result="blurOut2" type="matrix" values="0 0 0 0 0 0 0 0 0 0 0 0 0 0 0 0 0 0 .4 0"/><feOffset dx="4.0" dy="4.0" in="blurOut2" result="blurOut3"/><feBlend in="SourceGraphic" in2="blurOut3" mode="normal"/></filter></defs><g><!--MD5=[d72759d685f61e06c4d0b528c7f72454]
class GenderCode--><rect fill="#FEFECE" filter="url(#fdpkjuz9oy2vs)" height="54.2656" id="GenderCode" style="stroke: #A80036; stroke-width: 1.5;" width="105" x="6" y="355"/><ellipse cx="21" cy="374.1328" fill="#FFFF00" rx="11" ry="11" style="stroke: #A80036; stroke-width: 1.0;"/><path d="M23.4731,380.2759 Q22.8921,380.5747 22.2529,380.7241 Q21.6138,380.8735 20.9082,380.8735 Q18.4014,380.8735 17.0815,379.2217 Q15.7617,377.5698 15.7617,374.4487 Q15.7617,371.3193 17.0815,369.6675 Q18.4014,368.0156 20.9082,368.0156 Q21.6138,368.0156 22.2612,368.165 Q22.9087,368.3145 23.4731,368.6133 L23.4731,371.3359 Q22.8423,370.7549 22.2488,370.4851 Q21.6553,370.2153 21.0244,370.2153 Q19.6797,370.2153 18.9949,371.282 Q18.3101,372.3486 18.3101,374.4487 Q18.3101,376.5405 18.9949,377.6072 Q19.6797,378.6738 21.0244,378.6738 Q21.6553,378.6738 22.2488,378.4041 Q22.8423,378.1343 23.4731,377.5532 Z "/><text fill="#000000" font-family="sans-serif" font-size="12" font-style="italic" lengthAdjust="spacingAndGlyphs" textLength="42" x="50.5" y="371.6016">«Code»</text><text fill="#000000" font-family="sans-serif" font-size="12" lengthAdjust="spacingAndGlyphs" textLength="73" x="35" y="385.7344">GenderCode</text><line style="stroke: #A80036; stroke-width: 1.5;" x1="7" x2="110" y1="393.2656" y2="393.2656"/><line style="stroke: #A80036; stroke-width: 1.5;" x1="7" x2="110" y1="401.2656" y2="401.2656"/><!--MD5=[d43d9d803963864579063901839a9251]
class ActivityCode--><rect fill="#FEFECE" filter="url(#fdpkjuz9oy2vs)" height="54.2656" id="ActivityCode" style="stroke: #A80036; stroke-width: 1.5;" width="102" x="662.5" y="355"/><ellipse cx="677.5" cy="374.1328" fill="#FFFF00" rx="11" ry="11" style="stroke: #A80036; stroke-width: 1.0;"/><path d="M679.9731,380.2759 Q679.3921,380.5747 678.7529,380.7241 Q678.1138,380.8735 677.4082,380.8735 Q674.9014,380.8735 673.5815,379.2217 Q672.2617,377.5698 672.2617,374.4487 Q672.2617,371.3193 673.5815,369.6675 Q674.9014,368.0156 677.4082,368.0156 Q678.1138,368.0156 678.7612,368.165 Q679.4087,368.3145 679.9731,368.6133 L679.9731,371.3359 Q679.3423,370.7549 678.7488,370.4851 Q678.1553,370.2153 677.5244,370.2153 Q676.1797,370.2153 675.4949,371.282 Q674.8101,372.3486 674.8101,374.4487 Q674.8101,376.5405 675.4949,377.6072 Q676.1797,378.6738 677.5244,378.6738 Q678.1553,378.6738 678.7488,378.4041 Q679.3423,378.1343 679.9731,377.5532 Z "/><text fill="#000000" font-family="sans-serif" font-size="12" font-style="italic" lengthAdjust="spacingAndGlyphs" textLength="42" x="705.5" y="371.6016">«Code»</text><text fill="#000000" font-family="sans-serif" font-size="12" lengthAdjust="spacingAndGlyphs" textLength="70" x="691.5" y="385.7344">ActivityCode</text><line style="stroke: #A80036; stroke-width: 1.5;" x1="663.5" x2="763.5" y1="393.2656" y2="393.2656"/><line style="stroke: #A80036; stroke-width: 1.5;" x1="663.5" x2="763.5" y1="401.2656" y2="401.2656"/><!--MD5=[11da81b4908003a4f9a3bbac0c4a6011]
class InteractionCode--><rect fill="#FEFECE" filter="url(#fdpkjuz9oy2vs)" height="54.2656" id="InteractionCode" style="stroke: #A80036; stroke-width: 1.5;" width="122" x="491.5" y="194.5"/><ellipse cx="506.5" cy="213.6328" fill="#FFFF00" rx="11" ry="11" style="stroke: #A80036; stroke-width: 1.0;"/><path d="M508.9731,219.7759 Q508.3921,220.0747 507.7529,220.2241 Q507.1138,220.3735 506.4082,220.3735 Q503.9014,220.3735 502.5815,218.7217 Q501.2617,217.0698 501.2617,213.9487 Q501.2617,210.8193 502.5815,209.1675 Q503.9014,207.5156 506.4082,207.5156 Q507.1138,207.5156 507.7612,207.665 Q508.4087,207.8145 508.9731,208.1133 L508.9731,210.8359 Q508.3423,210.2549 507.7488,209.9851 Q507.1553,209.7153 506.5244,209.7153 Q505.1797,209.7153 504.4949,210.782 Q503.8101,211.8486 503.8101,213.9487 Q503.8101,216.0405 504.4949,217.1072 Q505.1797,218.1738 506.5244,218.1738 Q507.1553,218.1738 507.7488,217.9041 Q508.3423,217.6343 508.9731,217.0532 Z "/><text fill="#000000" font-family="sans-serif" font-size="12" font-style="italic" lengthAdjust="spacingAndGlyphs" textLength="42" x="544.5" y="211.1016">«Code»</text><text fill="#000000" font-family="sans-serif" font-size="12" lengthAdjust="spacingAndGlyphs" textLength="90" x="520.5" y="225.2344">InteractionCode</text><line style="stroke: #A80036; stroke-width: 1.5;" x1="492.5" x2="612.5" y1="232.7656" y2="232.7656"/><line style="stroke: #A80036; stroke-width: 1.5;" x1="492.5" x2="612.5" y1="240.7656" y2="240.7656"/><!--MD5=[0f39e4cb6f03951afbf6d14bd2505654]
class Address--><rect fill="#FEFECE" filter="url(#fdpkjuz9oy2vs)" height="54.2656" id="Address" style="stroke: #A80036; stroke-width: 1.5;" width="81" x="655" y="21"/><ellipse cx="670" cy="40.1328" fill="#008000" rx="11" ry="11" style="stroke: #A80036; stroke-width: 1.0;"/><path d="M670.6987,40.7808 Q671.064,40.8555 671.3337,41.1252 Q671.6035,41.395 671.9937,42.1753 L674.2349,46.6328 L671.5454,46.6328 L670.0513,43.5034 Q669.9849,43.3706 669.877,43.1382 Q669.2212,41.7354 668.333,41.7354 L667.5527,41.7354 L667.5527,46.6328 L665.104,46.6328 L665.104,34.2397 L668.6401,34.2397 Q671.0308,34.2397 672.0725,35.0864 Q673.1143,35.9331 673.1143,37.8423 Q673.1143,39.1206 672.4917,39.876 Q671.8691,40.6313 670.6987,40.7808 Z M667.5527,36.2983 L667.5527,39.6768 L668.7065,39.6768 Q669.7109,39.6768 670.1467,39.2825 Q670.5825,38.8882 670.5825,37.9834 Q670.5825,37.0786 670.1509,36.6885 Q669.7192,36.2983 668.7065,36.2983 Z "/><text fill="#000000" font-family="sans-serif" font-size="12" font-style="italic" lengthAdjust="spacingAndGlyphs" textLength="53" x="682" y="37.6016">«Record»</text><text fill="#000000" font-family="sans-serif" font-size="12" lengthAdjust="spacingAndGlyphs" textLength="48" x="684.5" y="51.7344">Address</text><line style="stroke: #A80036; stroke-width: 1.5;" x1="656" x2="735" y1="59.2656" y2="59.2656"/><line style="stroke: #A80036; stroke-width: 1.5;" x1="656" x2="735" y1="67.2656" y2="67.2656"/><!--MD5=[e50f24c143873ab5352ff9f9e3841676]
class LegalEntity--><rect fill="#FEFECE" filter="url(#fdpkjuz9oy2vs)" height="80.1758" id="LegalEntity" style="stroke: #A80036; stroke-width: 1.5;" width="111" x="303" y="181.5"/><ellipse cx="326.1" cy="200.6328" fill="#DA70D6" rx="11" ry="11" style="stroke: #A80036; stroke-width: 1.0;"/><path d="M329.7143,207.1328 L321.9945,207.1328 L321.9945,194.7397 L329.7143,194.7397 L329.7143,196.8979 L324.4433,196.8979 L324.4433,199.5708 L329.2162,199.5708 L329.2162,201.729 L324.4433,201.729 L324.4433,204.9746 L329.7143,204.9746 Z "/><text fill="#000000" font-family="sans-serif" font-size="12" font-style="italic" lengthAdjust="spacingAndGlyphs" textLength="43" x="350.9" y="198.1016">«Entity»</text><text fill="#000000" font-family="sans-serif" font-size="12" lengthAdjust="spacingAndGlyphs" textLength="61" x="341.9" y="212.2344">LegalEntity</text><line style="stroke: #A80036; stroke-width: 1.5;" x1="304" x2="413" y1="219.7656" y2="219.7656"/><line style="stroke: #A80036; stroke-width: 1.5;" x1="304" x2="413" y1="227.7656" y2="227.7656"/><text fill="#000000" font-family="sans-serif" font-size="11" lengthAdjust="spacingAndGlyphs" textLength="99" x="309" y="242.4004">Address address()</text><text fill="#000000" font-family="sans-serif" font-size="11" lengthAdjust="spacingAndGlyphs" textLength="72" x="309" y="255.3555">String vatNr()</text><!--MD5=[91f5510b86ca333151da2852ef236722]
class NaturalEntity--><rect fill="#FEFECE" filter="url(#fdpkjuz9oy2vs)" height="106.0859" id="NaturalEntity" style="stroke: #A80036; stroke-width: 1.5;" width="111" x="63" y="168.5"/><ellipse cx="80.7" cy="187.6328" fill="#DA70D6" rx="11" ry="11" style="stroke: #A80036; stroke-width: 1.0;"/><path d="M84.3143,194.1328 L76.5945,194.1328 L76.5945,181.7397 L84.3143,181.7397 L84.3143,183.8979 L79.0433,183.8979 L79.0433,186.5708 L83.8162,186.5708 L83.8162,188.729 L79.0433,188.729 L79.0433,191.9746 L84.3143,191.9746 Z "/><text fill="#000000" font-family="sans-serif" font-size="12" font-style="italic" lengthAdjust="spacingAndGlyphs" textLength="43" x="110.3" y="185.1016">«Entity»</text><text fill="#000000" font-family="sans-serif" font-size="12" lengthAdjust="spacingAndGlyphs" textLength="73" x="95.3" y="199.2344">NaturalEntity</text><line style="stroke: #A80036; stroke-width: 1.5;" x1="64" x2="173" y1="206.7656" y2="206.7656"/><text fill="#000000" font-family="sans-serif" font-size="11" lengthAdjust="spacingAndGlyphs" textLength="82" x="69" y="221.4004">String socialNr;</text><text fill="#000000" font-family="sans-serif" font-size="11" lengthAdjust="spacingAndGlyphs" textLength="89" x="69" y="234.3555">String firstname;</text><text fill="#000000" font-family="sans-serif" font-size="11" lengthAdjust="spacingAndGlyphs" textLength="86" x="69" y="247.3105">String lastname;</text><line style="stroke: #A80036; stroke-width: 1.5;" x1="64" x2="173" y1="253.6309" y2="253.6309"/><text fill="#000000" font-family="sans-serif" font-size="11" lengthAdjust="spacingAndGlyphs" textLength="99" x="69" y="268.2656">Address address()</text><!--MD5=[a805b40f8193e3b705560a3818c5c109]
class Photo--><rect fill="#FEFECE" filter="url(#fdpkjuz9oy2vs)" height="48" id="Photo" style="stroke: #A80036; stroke-width: 1.5;" width="64" x="146.5" y="358"/><ellipse cx="161.5" cy="374" fill="#ADD1B2" rx="11" ry="11" style="stroke: #A80036; stroke-width: 1.0;"/><path d="M163.9731,380.1431 Q163.3921,380.4419 162.7529,380.5913 Q162.1138,380.7407 161.4082,380.7407 Q158.9014,380.7407 157.5815,379.0889 Q156.2617,377.437 156.2617,374.3159 Q156.2617,371.1865 157.5815,369.5347 Q158.9014,367.8828 161.4082,367.8828 Q162.1138,367.8828 162.7612,368.0322 Q163.4087,368.1816 163.9731,368.4805 L163.9731,371.2031 Q163.3423,370.6221 162.7488,370.3523 Q162.1553,370.0825 161.5244,370.0825 Q160.1797,370.0825 159.4949,371.1492 Q158.8101,372.2158 158.8101,374.3159 Q158.8101,376.4077 159.4949,377.4744 Q160.1797,378.541 161.5244,378.541 Q162.1553,378.541 162.7488,378.2712 Q163.3423,378.0015 163.9731,377.4204 Z "/><text fill="#000000" font-family="sans-serif" font-size="12" lengthAdjust="spacingAndGlyphs" textLength="32" x="175.5" y="378.5352">Photo</text><line style="stroke: #A80036; stroke-width: 1.5;" x1="147.5" x2="209.5" y1="390" y2="390"/><line style="stroke: #A80036; stroke-width: 1.5;" x1="147.5" x2="209.5" y1="398" y2="398"/><!--MD5=[7421f545a0d8420c5bec41e74b387d9c]
class Employee--><rect fill="#FEFECE" filter="url(#fdpkjuz9oy2vs)" height="48" id="Employee" style="stroke: #A80036; stroke-width: 1.5;" width="88" x="142.5" y="24"/><ellipse cx="157.5" cy="40" fill="#ADD1B2" rx="11" ry="11" style="stroke: #A80036; stroke-width: 1.0;"/><path d="M159.9731,46.1431 Q159.3921,46.4419 158.7529,46.5913 Q158.1138,46.7407 157.4082,46.7407 Q154.9014,46.7407 153.5815,45.0889 Q152.2617,43.437 152.2617,40.3159 Q152.2617,37.1865 153.5815,35.5347 Q154.9014,33.8828 157.4082,33.8828 Q158.1138,33.8828 158.7612,34.0322 Q159.4087,34.1816 159.9731,34.4805 L159.9731,37.2031 Q159.3423,36.6221 158.7488,36.3523 Q158.1553,36.0825 157.5244,36.0825 Q156.1797,36.0825 155.4949,37.1492 Q154.8101,38.2158 154.8101,40.3159 Q154.8101,42.4077 155.4949,43.4744 Q156.1797,44.541 157.5244,44.541 Q158.1553,44.541 158.7488,44.2712 Q159.3423,44.0015 159.9731,43.4204 Z "/><text fill="#000000" font-family="sans-serif" font-size="12" lengthAdjust="spacingAndGlyphs" textLength="56" x="171.5" y="44.5352">Employee</text><line style="stroke: #A80036; stroke-width: 1.5;" x1="143.5" x2="229.5" y1="56" y2="56"/><line style="stroke: #A80036; stroke-width: 1.5;" x1="143.5" x2="229.5" y1="64" y2="64"/><!--MD5=[c881b25adf3665c6568c9693d41a70f3]
class Activity--><rect fill="#FEFECE" filter="url(#fdpkjuz9oy2vs)" height="112.7754" id="Activity" style="stroke: #A80036; stroke-width: 1.5;" width="130" x="648.5" y="165"/><ellipse cx="689.6" cy="181" fill="#ADD1B2" rx="11" ry="11" style="stroke: #A80036; stroke-width: 1.0;"/><path d="M692.0731,187.1431 Q691.4921,187.4419 690.8529,187.5913 Q690.2138,187.7407 689.5082,187.7407 Q687.0014,187.7407 685.6815,186.0889 Q684.3617,184.437 684.3617,181.3159 Q684.3617,178.1865 685.6815,176.5347 Q687.0014,174.8828 689.5082,174.8828 Q690.2138,174.8828 690.8612,175.0322 Q691.5087,175.1816 692.0731,175.4805 L692.0731,178.2031 Q691.4423,177.6221 690.8488,177.3523 Q690.2553,177.0825 689.6244,177.0825 Q688.2797,177.0825 687.5949,178.1492 Q686.9101,179.2158 686.9101,181.3159 Q686.9101,183.4077 687.5949,184.4744 Q688.2797,185.541 689.6244,185.541 Q690.2553,185.541 690.8488,185.2712 Q691.4423,185.0015 692.0731,184.4204 Z "/><text fill="#000000" font-family="sans-serif" font-size="12" lengthAdjust="spacingAndGlyphs" textLength="40" x="709.4" y="185.5352">Activity</text><line style="stroke: #A80036; stroke-width: 1.5;" x1="649.5" x2="777.5" y1="197" y2="197"/><text fill="#000000" font-family="sans-serif" font-size="11" lengthAdjust="spacingAndGlyphs" textLength="81" x="654.5" y="211.6348">LocalDate date;</text><text fill="#000000" font-family="sans-serif" font-size="11" lengthAdjust="spacingAndGlyphs" textLength="118" x="654.5" y="224.5898">int durationInMinutes;</text><text fill="#000000" font-family="sans-serif" font-size="11" lengthAdjust="spacingAndGlyphs" textLength="74" x="654.5" y="237.5449">String author;</text><text fill="#000000" font-family="sans-serif" font-size="11" lengthAdjust="spacingAndGlyphs" textLength="59" x="654.5" y="250.5">String text;</text><text fill="#000000" font-family="sans-serif" font-size="11" lengthAdjust="spacingAndGlyphs" textLength="73" x="654.5" y="263.4551">String details;</text><line style="stroke: #A80036; stroke-width: 1.5;" x1="649.5" x2="777.5" y1="269.7754" y2="269.7754"/><!--MD5=[8e99fe642d6b0197bff658f760a93d49]
class Interaction--><rect fill="#FEFECE" filter="url(#fdpkjuz9oy2vs)" height="80.1758" id="Interaction" style="stroke: #A80036; stroke-width: 1.5;" width="134" x="485.5" y="8"/><ellipse cx="519.4" cy="27.1328" fill="#DA70D6" rx="11" ry="11" style="stroke: #A80036; stroke-width: 1.0;"/><path d="M523.0143,33.6328 L515.2945,33.6328 L515.2945,21.2397 L523.0143,21.2397 L523.0143,23.3979 L517.7433,23.3979 L517.7433,26.0708 L522.5162,26.0708 L522.5162,28.229 L517.7433,28.229 L517.7433,31.4746 L523.0143,31.4746 Z "/><text fill="#000000" font-family="sans-serif" font-size="12" font-style="italic" lengthAdjust="spacingAndGlyphs" textLength="43" x="546.1" y="24.6016">«Entity»</text><text fill="#000000" font-family="sans-serif" font-size="12" lengthAdjust="spacingAndGlyphs" textLength="60" x="537.6" y="38.7344">Interaction</text><line style="stroke: #A80036; stroke-width: 1.5;" x1="486.5" x2="618.5" y1="46.2656" y2="46.2656"/><text fill="#000000" font-family="sans-serif" font-size="11" lengthAdjust="spacingAndGlyphs" textLength="111" x="491.5" y="60.9004">BigDecimal potential;</text><text fill="#000000" font-family="sans-serif" font-size="11" lengthAdjust="spacingAndGlyphs" textLength="122" x="491.5" y="73.8555">BigDecimal probability;</text><line style="stroke: #A80036; stroke-width: 1.5;" x1="486.5" x2="618.5" y1="80.1758" y2="80.1758"/><!--MD5=[461026a38b737c4ce5e8254b9a577e21]
class Contract--><rect fill="#FEFECE" filter="url(#fdpkjuz9oy2vs)" height="67.2207" id="Contract" style="stroke: #A80036; stroke-width: 1.5;" width="106" x="300.5" y="14.5"/><ellipse cx="327.2" cy="33.6328" fill="#DA70D6" rx="11" ry="11" style="stroke: #A80036; stroke-width: 1.0;"/><path d="M330.8143,40.1328 L323.0945,40.1328 L323.0945,27.7397 L330.8143,27.7397 L330.8143,29.8979 L325.5433,29.8979 L325.5433,32.5708 L330.3162,32.5708 L330.3162,34.729 L325.5433,34.729 L325.5433,37.9746 L330.8143,37.9746 Z "/><text fill="#000000" font-family="sans-serif" font-size="12" font-style="italic" lengthAdjust="spacingAndGlyphs" textLength="43" x="346.3" y="31.1016">«Entity»</text><text fill="#000000" font-family="sans-serif" font-size="12" lengthAdjust="spacingAndGlyphs" textLength="48" x="343.8" y="45.2344">Contract</text><line style="stroke: #A80036; stroke-width: 1.5;" x1="301.5" x2="405.5" y1="52.7656" y2="52.7656"/><text fill="#000000" font-family="sans-serif" font-size="11" lengthAdjust="spacingAndGlyphs" textLength="94" x="306.5" y="67.4004">Address address;</text><line style="stroke: #A80036; stroke-width: 1.5;" x1="301.5" x2="405.5" y1="73.7207" y2="73.7207"/><!--MD5=[1a53a89b89935fd45d5e9c36e4d24a27]
reverse link NaturalEntity to Photo--><path d="M143.03,287.31 C152.51,312.35 162.74,339.38 169.77,357.94 " fill="none" id="NaturalEntity&lt;-Photo" style="stroke: #A80036; stroke-width: 1.0;"/><polygon fill="#FFFFFF" points="138.31,274.84,136.6922,281.8673,142.5567,286.0634,144.1745,279.0361,138.31,274.84" style="stroke: #A80036; stroke-width: 1.0;"/><text fill="#000000" font-family="sans-serif" font-size="13" lengthAdjust="spacingAndGlyphs" textLength="37" x="157.5" y="321.5684">photo</text><text fill="#000000" font-family="sans-serif" font-size="13" lengthAdjust="spacingAndGlyphs" textLength="24" x="140.1988" y="347.0683">0..1</text><!--MD5=[05a0cae63e4de839d783010c8bb3a360]
reverse link NaturalEntity to GenderCode--><path d="M94.06,287.07 C85.05,310.86 75.35,336.48 68.36,354.95 " fill="none" id="NaturalEntity&lt;-GenderCode" style="stroke: #A80036; stroke-width: 1.0;"/><polygon fill="#FFFFFF" points="98.69,274.84,92.8255,279.0361,94.4433,286.0634,100.3078,281.8673,98.69,274.84" style="stroke: #A80036; stroke-width: 1.0;"/><text fill="#000000" font-family="sans-serif" font-size="13" lengthAdjust="spacingAndGlyphs" textLength="43" x="86.5" y="321.5684">gender</text><text fill="#000000" font-family="sans-serif" font-size="13" lengthAdjust="spacingAndGlyphs" textLength="8" x="61.7884" y="344.1023">1</text><!--MD5=[3592570c92b6b9647d31134b0599ae7c]
reverse link Employee to NaturalEntity--><path d="M142.86,80.81 C131.84,91.29 121.45,103.92 115.5,118 C108.92,133.58 107.63,151.71 108.62,168.35 " fill="none" id="Employee&lt;-NaturalEntity" style="stroke: #A80036; stroke-width: 1.0;"/><polygon fill="#FFFFFF" points="152.61,72.17,145.4662,73.1529,143.6258,80.1252,150.7696,79.1423,152.61,72.17" style="stroke: #A80036; stroke-width: 1.0;"/><text fill="#000000" font-family="sans-serif" font-size="13" lengthAdjust="spacingAndGlyphs" textLength="60" x="116.5" y="131.5684">employee</text><text fill="#000000" font-family="sans-serif" font-size="13" lengthAdjust="spacingAndGlyphs" textLength="8" x="98.7549" y="157.7836">1</text><!--MD5=[0870610ddc0d1cd16e6d663f9af7d8fa]
reverse link Employee to LegalEntity--><path d="M208.13,83.62 C219.2,100.04 233.49,119.44 248.5,135 C264.79,151.89 284.53,168.25 302.76,182.07 " fill="none" id="Employee&lt;-LegalEntity" style="stroke: #A80036; stroke-width: 1.0;"/><polygon fill="#FFFFFF" points="200.67,72.28,200.626,79.491,207.2654,82.305,207.3094,75.094,200.67,72.28" style="stroke: #A80036; stroke-width: 1.0;"/><text fill="#000000" font-family="sans-serif" font-size="13" lengthAdjust="spacingAndGlyphs" textLength="58" x="249.5" y="131.5684">employer</text><text fill="#000000" font-family="sans-serif" font-size="13" lengthAdjust="spacingAndGlyphs" textLength="8" x="287.1058" y="173.6341">1</text><!--MD5=[0b44fa5c8435362789e0e2778b5ba9c4]
reverse link Activity to ActivityCode--><path d="M713.5,291.43 C713.5,313.92 713.5,337.53 713.5,354.86 " fill="none" id="Activity&lt;-ActivityCode" style="stroke: #A80036; stroke-width: 1.0;"/><polygon fill="#FFFFFF" points="713.5,278.38,709.5,284.38,713.5,290.38,717.5,284.38,713.5,278.38" style="stroke: #A80036; stroke-width: 1.0;"/><text fill="#000000" font-family="sans-serif" font-size="13" lengthAdjust="spacingAndGlyphs" textLength="30" x="714.5" y="321.5684">code</text><text fill="#000000" font-family="sans-serif" font-size="13" lengthAdjust="spacingAndGlyphs" textLength="8" x="704.575" y="344.4231">1</text><!--MD5=[825d162b282272eec0c730c91435dffe]
reverse link Interaction to LegalEntity--><path d="M498.07,97.11 C468,123.7 431.1,156.32 402.8,181.34 " fill="none" id="Interaction&lt;-LegalEntity" style="stroke: #A80036; stroke-width: 1.0;"/><polygon fill="#A80036" points="507.99,88.35,500.8462,89.3329,499.0058,96.3052,506.1496,95.3223,507.99,88.35" style="stroke: #A80036; stroke-width: 1.0;"/><text fill="#000000" font-family="sans-serif" font-size="13" lengthAdjust="spacingAndGlyphs" textLength="36" x="473.5" y="131.5684">entity</text><text fill="#000000" font-family="sans-serif" font-size="13" lengthAdjust="spacingAndGlyphs" textLength="8" x="401.7266" y="170.7284">1</text><!--MD5=[6783ae32d71923870098bf800dc9ab52]
reverse link Interaction to Activity--><path d="M598.46,97.95 C618.03,118.8 640.96,143.23 661.18,164.76 " fill="none" id="Interaction&lt;-Activity" style="stroke: #A80036; stroke-width: 1.0;"/><polygon fill="#FFFFFF" points="589.44,88.35,590.6337,95.4616,597.6574,97.095,596.4637,89.9834,589.44,88.35" style="stroke: #A80036; stroke-width: 1.0;"/><text fill="#000000" font-family="sans-serif" font-size="13" lengthAdjust="spacingAndGlyphs" textLength="57" x="633.5" y="131.5684">activities</text><text fill="#000000" font-family="sans-serif" font-size="13" lengthAdjust="spacingAndGlyphs" textLength="8" x="645.964" y="154.1319">n</text><!--MD5=[1d70ffa0fcf7842ca10200da5ad6c505]
reverse link Interaction to InteractionCode--><path d="M552.5,101.5 C552.5,132.27 552.5,169.81 552.5,194.39 " fill="none" id="Interaction&lt;-InteractionCode" style="stroke: #A80036; stroke-width: 1.0;"/><polygon fill="#FFFFFF" points="552.5,88.35,548.5,94.35,552.5,100.35,556.5,94.35,552.5,88.35" style="stroke: #A80036; stroke-width: 1.0;"/><text fill="#000000" font-family="sans-serif" font-size="13" lengthAdjust="spacingAndGlyphs" textLength="30" x="553.5" y="131.5684">code</text><text fill="#000000" font-family="sans-serif" font-size="13" lengthAdjust="spacingAndGlyphs" textLength="8" x="543.575" y="183.96">1</text><!--MD5=[9c1cfc5a0213b75bfd9711d381c62f14]
reverse link Contract to LegalEntity--><path d="M323.24,93.6 C317.6,106.64 314.35,121.13 317.5,135 C321.11,150.89 328.06,167.28 335.23,181.4 " fill="none" id="Contract&lt;-LegalEntity" style="stroke: #A80036; stroke-width: 1.0;"/><polygon fill="#A80036" points="329.24,81.6,322.979,85.1777,323.8734,92.3331,330.1344,88.7554,329.24,81.6" style="stroke: #A80036; stroke-width: 1.0;"/><text fill="#000000" font-family="sans-serif" font-size="13" lengthAdjust="spacingAndGlyphs" textLength="34" x="318.5" y="131.5684">seller</text><text fill="#000000" font-family="sans-serif" font-size="13" lengthAdjust="spacingAndGlyphs" textLength="8" x="322.543" y="170.7987">1</text><!--MD5=[9c1cfc5a0213b75bfd9711d381c62f14]
reverse link Contract to LegalEntity--><path d="M356.46,94.77 C356.88,102.52 357.25,110.49 357.5,118 C358.2,138.81 358.47,162.01 358.56,181.06 " fill="none" id="Contract&lt;-LegalEntity-1" style="stroke: #A80036; stroke-width: 1.0;"/><polygon fill="#A80036" points="355.71,81.63,352.0592,87.8487,356.3953,93.6104,360.0461,87.3918,355.71,81.63" style="stroke: #A80036; stroke-width: 1.0;"/><text fill="#000000" font-family="sans-serif" font-size="13" lengthAdjust="spacingAndGlyphs" textLength="36" x="358.5" y="131.5684">sellee</text><text fill="#000000" font-family="sans-serif" font-size="13" lengthAdjust="spacingAndGlyphs" textLength="8" x="349.9074" y="170.6995">1</text><!--MD5=[2e907a21b3f32aa882e842a39c7bfc95]
@startuml

class GenderCode <<(C, yellow) Code>> {}
class ActivityCode <<(C, yellow) Code>> {}
class InteractionCode <<(C, yellow) Code>> {}

class Address <<(R, green) Record>> {}

class LegalEntity  <<(E,orchid) Entity>> {
    Address address()
    String vatNr()
}

class NaturalEntity <<(E,orchid) Entity>> {
    String socialNr;
    String firstname;
    String lastname;
    Address address()
}
NaturalEntity o- - "0..1" Photo : photo
NaturalEntity o- - "1" GenderCode : gender

class Employee {
}

Employee o- - "1" NaturalEntity : employee
Employee o- - "1" LegalEntity : employer

class Activity {
    LocalDate date;
    int durationInMinutes;
    String author;
    String text;
    String details;
}
Activity o- - "1" ActivityCode : code


class Interaction <<(E,orchid) Entity>> {
    BigDecimal potential;
    BigDecimal probability;
}
Interaction *- - "1" LegalEntity : entity
Interaction o- - "n" Activity : activities
Interaction o- - "1" InteractionCode : code

class Contract <<(E,orchid) Entity>> {
  Address address;
}

Contract *- - "1" LegalEntity : seller
Contract *- - "1" LegalEntity : sellee

@enduml

PlantUML version 1.2020.06(Sun Apr 05 14:38:32 CEST 2020)
(APACHE source distribution)
Java Runtime: OpenJDK Runtime Environment
JVM: OpenJDK 64-Bit Server VM
Java Version: 19-ea+30-2169
Operating System: Mac OS X
Default Encoding: UTF-8
Language: en
Country: CH
--></g></svg>