<?xml version="1.0" encoding="UTF-8" standalone="no"?><svg xmlns="http://www.w3.org/2000/svg" xmlns:xlink="http://www.w3.org/1999/xlink" contentScriptType="application/ecmascript" contentStyleType="text/css" height="479px" preserveAspectRatio="none" style="width:885px;height:479px;" version="1.1" viewBox="0 0 885 479" width="885px" zoomAndPan="magnify"><defs><filter height="300%" id="fdpkjuz9oy2vs" width="300%" x="-1" y="-1"><feGaussianBlur result="blurOut" stdDeviation="2.0"/><feColorMatrix in="blurOut" result="blurOut2" type="matrix" values="0 0 0 0 0 0 0 0 0 0 0 0 0 0 0 0 0 0 .4 0"/><feOffset dx="4.0" dy="4.0" in="blurOut2" result="blurOut3"/><feBlend in="SourceGraphic" in2="blurOut3" mode="normal"/></filter></defs><g><!--MD5=[d72759d685f61e06c4d0b528c7f72454]
class GenderCode--><rect fill="#FEFECE" filter="url(#fdpkjuz9oy2vs)" height="54.2656" id="GenderCode" style="stroke: #A80036; stroke-width: 1.5;" width="105" x="30.5" y="414"/><ellipse cx="45.5" cy="433.1328" fill="#FFFF00" rx="11" ry="11" style="stroke: #A80036; stroke-width: 1.0;"/><path d="M47.9731,439.2759 Q47.3921,439.5747 46.7529,439.7241 Q46.1138,439.8735 45.4082,439.8735 Q42.9014,439.8735 41.5815,438.2217 Q40.2617,436.5698 40.2617,433.4487 Q40.2617,430.3193 41.5815,428.6675 Q42.9014,427.0156 45.4082,427.0156 Q46.1138,427.0156 46.7612,427.165 Q47.4087,427.3145 47.9731,427.6133 L47.9731,430.3359 Q47.3423,429.7549 46.7488,429.4851 Q46.1553,429.2153 45.5244,429.2153 Q44.1797,429.2153 43.4949,430.282 Q42.8101,431.3486 42.8101,433.4487 Q42.8101,435.5405 43.4949,436.6072 Q44.1797,437.6738 45.5244,437.6738 Q46.1553,437.6738 46.7488,437.4041 Q47.3423,437.1343 47.9731,436.5532 Z "/><text fill="#000000" font-family="sans-serif" font-size="12" font-style="italic" lengthAdjust="spacingAndGlyphs" textLength="42" x="75" y="430.6016">«Code»</text><text fill="#000000" font-family="sans-serif" font-size="12" lengthAdjust="spacingAndGlyphs" textLength="73" x="59.5" y="444.7344">GenderCode</text><line style="stroke: #A80036; stroke-width: 1.5;" x1="31.5" x2="134.5" y1="452.2656" y2="452.2656"/><line style="stroke: #A80036; stroke-width: 1.5;" x1="31.5" x2="134.5" y1="460.2656" y2="460.2656"/><!--MD5=[d43d9d803963864579063901839a9251]
class ActivityCode--><rect fill="#FEFECE" filter="url(#fdpkjuz9oy2vs)" height="54.2656" id="ActivityCode" style="stroke: #A80036; stroke-width: 1.5;" width="102" x="758.5" y="414"/><ellipse cx="773.5" cy="433.1328" fill="#FFFF00" rx="11" ry="11" style="stroke: #A80036; stroke-width: 1.0;"/><path d="M775.9731,439.2759 Q775.3921,439.5747 774.7529,439.7241 Q774.1138,439.8735 773.4082,439.8735 Q770.9014,439.8735 769.5815,438.2217 Q768.2617,436.5698 768.2617,433.4487 Q768.2617,430.3193 769.5815,428.6675 Q770.9014,427.0156 773.4082,427.0156 Q774.1138,427.0156 774.7612,427.165 Q775.4087,427.3145 775.9731,427.6133 L775.9731,430.3359 Q775.3423,429.7549 774.7488,429.4851 Q774.1553,429.2153 773.5244,429.2153 Q772.1797,429.2153 771.4949,430.282 Q770.8101,431.3486 770.8101,433.4487 Q770.8101,435.5405 771.4949,436.6072 Q772.1797,437.6738 773.5244,437.6738 Q774.1553,437.6738 774.7488,437.4041 Q775.3423,437.1343 775.9731,436.5532 Z "/><text fill="#000000" font-family="sans-serif" font-size="12" font-style="italic" lengthAdjust="spacingAndGlyphs" textLength="42" x="801.5" y="430.6016">«Code»</text><text fill="#000000" font-family="sans-serif" font-size="12" lengthAdjust="spacingAndGlyphs" textLength="70" x="787.5" y="444.7344">ActivityCode</text><line style="stroke: #A80036; stroke-width: 1.5;" x1="759.5" x2="859.5" y1="452.2656" y2="452.2656"/><line style="stroke: #A80036; stroke-width: 1.5;" x1="759.5" x2="859.5" y1="460.2656" y2="460.2656"/><!--MD5=[11da81b4908003a4f9a3bbac0c4a6011]
class InteractionCode--><rect fill="#FEFECE" filter="url(#fdpkjuz9oy2vs)" height="54.2656" id="InteractionCode" style="stroke: #A80036; stroke-width: 1.5;" width="122" x="539.5" y="214"/><ellipse cx="554.5" cy="233.1328" fill="#FFFF00" rx="11" ry="11" style="stroke: #A80036; stroke-width: 1.0;"/><path d="M556.9731,239.2759 Q556.3921,239.5747 555.7529,239.7241 Q555.1138,239.8735 554.4082,239.8735 Q551.9014,239.8735 550.5815,238.2217 Q549.2617,236.5698 549.2617,233.4487 Q549.2617,230.3193 550.5815,228.6675 Q551.9014,227.0156 554.4082,227.0156 Q555.1138,227.0156 555.7612,227.165 Q556.4087,227.3145 556.9731,227.6133 L556.9731,230.3359 Q556.3423,229.7549 555.7488,229.4851 Q555.1553,229.2153 554.5244,229.2153 Q553.1797,229.2153 552.4949,230.282 Q551.8101,231.3486 551.8101,233.4487 Q551.8101,235.5405 552.4949,236.6072 Q553.1797,237.6738 554.5244,237.6738 Q555.1553,237.6738 555.7488,237.4041 Q556.3423,237.1343 556.9731,236.5532 Z "/><text fill="#000000" font-family="sans-serif" font-size="12" font-style="italic" lengthAdjust="spacingAndGlyphs" textLength="42" x="592.5" y="230.6016">«Code»</text><text fill="#000000" font-family="sans-serif" font-size="12" lengthAdjust="spacingAndGlyphs" textLength="90" x="568.5" y="244.7344">InteractionCode</text><line style="stroke: #A80036; stroke-width: 1.5;" x1="540.5" x2="660.5" y1="252.2656" y2="252.2656"/><line style="stroke: #A80036; stroke-width: 1.5;" x1="540.5" x2="660.5" y1="260.2656" y2="260.2656"/><!--MD5=[0f39e4cb6f03951afbf6d14bd2505654]
class Address--><rect fill="#FEFECE" filter="url(#fdpkjuz9oy2vs)" height="54.2656" id="Address" style="stroke: #A80036; stroke-width: 1.5;" width="81" x="703" y="21"/><ellipse cx="718" cy="40.1328" fill="#008000" rx="11" ry="11" style="stroke: #A80036; stroke-width: 1.0;"/><path d="M718.6987,40.7808 Q719.064,40.8555 719.3337,41.1252 Q719.6035,41.395 719.9937,42.1753 L722.2349,46.6328 L719.5454,46.6328 L718.0513,43.5034 Q717.9849,43.3706 717.877,43.1382 Q717.2212,41.7354 716.333,41.7354 L715.5527,41.7354 L715.5527,46.6328 L713.104,46.6328 L713.104,34.2397 L716.6401,34.2397 Q719.0308,34.2397 720.0725,35.0864 Q721.1143,35.9331 721.1143,37.8423 Q721.1143,39.1206 720.4917,39.876 Q719.8691,40.6313 718.6987,40.7808 Z M715.5527,36.2983 L715.5527,39.6768 L716.7065,39.6768 Q717.7109,39.6768 718.1467,39.2825 Q718.5825,38.8882 718.5825,37.9834 Q718.5825,37.0786 718.1509,36.6885 Q717.7192,36.2983 716.7065,36.2983 Z "/><text fill="#000000" font-family="sans-serif" font-size="12" font-style="italic" lengthAdjust="spacingAndGlyphs" textLength="53" x="730" y="37.6016">«Record»</text><text fill="#000000" font-family="sans-serif" font-size="12" lengthAdjust="spacingAndGlyphs" textLength="48" x="732.5" y="51.7344">Address</text><line style="stroke: #A80036; stroke-width: 1.5;" x1="704" x2="783" y1="59.2656" y2="59.2656"/><line style="stroke: #A80036; stroke-width: 1.5;" x1="704" x2="783" y1="67.2656" y2="67.2656"/><!--MD5=[e50f24c143873ab5352ff9f9e3841676]
class LegalEntity--><rect fill="#FEFECE" filter="url(#fdpkjuz9oy2vs)" height="80.1758" id="LegalEntity" style="stroke: #A80036; stroke-width: 1.5;" width="111" x="328.5" y="201"/><ellipse cx="351.6" cy="220.1328" fill="#DA70D6" rx="11" ry="11" style="stroke: #A80036; stroke-width: 1.0;"/><path d="M355.2143,226.6328 L347.4945,226.6328 L347.4945,214.2397 L355.2143,214.2397 L355.2143,216.3979 L349.9433,216.3979 L349.9433,219.0708 L354.7162,219.0708 L354.7162,221.229 L349.9433,221.229 L349.9433,224.4746 L355.2143,224.4746 Z "/><text fill="#000000" font-family="sans-serif" font-size="12" font-style="italic" lengthAdjust="spacingAndGlyphs" textLength="43" x="376.4" y="217.6016">«Entity»</text><text fill="#000000" font-family="sans-serif" font-size="12" lengthAdjust="spacingAndGlyphs" textLength="61" x="367.4" y="231.7344">LegalEntity</text><line style="stroke: #A80036; stroke-width: 1.5;" x1="329.5" x2="438.5" y1="239.2656" y2="239.2656"/><line style="stroke: #A80036; stroke-width: 1.5;" x1="329.5" x2="438.5" y1="247.2656" y2="247.2656"/><text fill="#000000" font-family="sans-serif" font-size="11" lengthAdjust="spacingAndGlyphs" textLength="99" x="334.5" y="261.9004">Address address()</text><text fill="#000000" font-family="sans-serif" font-size="11" lengthAdjust="spacingAndGlyphs" textLength="72" x="334.5" y="274.8555">String vatNr()</text><!--MD5=[91f5510b86ca333151da2852ef236722]
class NaturalEntity--><rect fill="#FEFECE" filter="url(#fdpkjuz9oy2vs)" height="106.0859" id="NaturalEntity" style="stroke: #A80036; stroke-width: 1.5;" width="111" x="110.5" y="188"/><ellipse cx="128.2" cy="207.1328" fill="#DA70D6" rx="11" ry="11" style="stroke: #A80036; stroke-width: 1.0;"/><path d="M131.8143,213.6328 L124.0945,213.6328 L124.0945,201.2397 L131.8143,201.2397 L131.8143,203.3979 L126.5433,203.3979 L126.5433,206.0708 L131.3162,206.0708 L131.3162,208.229 L126.5433,208.229 L126.5433,211.4746 L131.8143,211.4746 Z "/><text fill="#000000" font-family="sans-serif" font-size="12" font-style="italic" lengthAdjust="spacingAndGlyphs" textLength="43" x="157.8" y="204.6016">«Entity»</text><text fill="#000000" font-family="sans-serif" font-size="12" lengthAdjust="spacingAndGlyphs" textLength="73" x="142.8" y="218.7344">NaturalEntity</text><line style="stroke: #A80036; stroke-width: 1.5;" x1="111.5" x2="220.5" y1="226.2656" y2="226.2656"/><text fill="#000000" font-family="sans-serif" font-size="11" lengthAdjust="spacingAndGlyphs" textLength="82" x="116.5" y="240.9004">String socialNr;</text><text fill="#000000" font-family="sans-serif" font-size="11" lengthAdjust="spacingAndGlyphs" textLength="89" x="116.5" y="253.8555">String firstname;</text><text fill="#000000" font-family="sans-serif" font-size="11" lengthAdjust="spacingAndGlyphs" textLength="86" x="116.5" y="266.8105">String lastname;</text><line style="stroke: #A80036; stroke-width: 1.5;" x1="111.5" x2="220.5" y1="273.1309" y2="273.1309"/><text fill="#000000" font-family="sans-serif" font-size="11" lengthAdjust="spacingAndGlyphs" textLength="99" x="116.5" y="287.7656">Address address()</text><!--MD5=[a805b40f8193e3b705560a3818c5c109]
class Photo--><rect fill="#FEFECE" filter="url(#fdpkjuz9oy2vs)" height="48" id="Photo" style="stroke: #A80036; stroke-width: 1.5;" width="64" x="218.5" y="417"/><ellipse cx="233.5" cy="433" fill="#ADD1B2" rx="11" ry="11" style="stroke: #A80036; stroke-width: 1.0;"/><path d="M235.9731,439.1431 Q235.3921,439.4419 234.7529,439.5913 Q234.1138,439.7407 233.4082,439.7407 Q230.9014,439.7407 229.5815,438.0889 Q228.2617,436.437 228.2617,433.3159 Q228.2617,430.1865 229.5815,428.5347 Q230.9014,426.8828 233.4082,426.8828 Q234.1138,426.8828 234.7612,427.0322 Q235.4087,427.1816 235.9731,427.4805 L235.9731,430.2031 Q235.3423,429.6221 234.7488,429.3523 Q234.1553,429.0825 233.5244,429.0825 Q232.1797,429.0825 231.4949,430.1492 Q230.8101,431.2158 230.8101,433.3159 Q230.8101,435.4077 231.4949,436.4744 Q232.1797,437.541 233.5244,437.541 Q234.1553,437.541 234.7488,437.2712 Q235.3423,437.0015 235.9731,436.4204 Z "/><text fill="#000000" font-family="sans-serif" font-size="12" lengthAdjust="spacingAndGlyphs" textLength="32" x="247.5" y="437.5352">Photo</text><line style="stroke: #A80036; stroke-width: 1.5;" x1="219.5" x2="281.5" y1="449" y2="449"/><line style="stroke: #A80036; stroke-width: 1.5;" x1="219.5" x2="281.5" y1="457" y2="457"/><!--MD5=[7421f545a0d8420c5bec41e74b387d9c]
class Employee--><rect fill="#FEFECE" filter="url(#fdpkjuz9oy2vs)" height="48" id="Employee" style="stroke: #A80036; stroke-width: 1.5;" width="88" x="190.5" y="24"/><ellipse cx="205.5" cy="40" fill="#ADD1B2" rx="11" ry="11" style="stroke: #A80036; stroke-width: 1.0;"/><path d="M207.9731,46.1431 Q207.3921,46.4419 206.7529,46.5913 Q206.1138,46.7407 205.4082,46.7407 Q202.9014,46.7407 201.5815,45.0889 Q200.2617,43.437 200.2617,40.3159 Q200.2617,37.1865 201.5815,35.5347 Q202.9014,33.8828 205.4082,33.8828 Q206.1138,33.8828 206.7612,34.0322 Q207.4087,34.1816 207.9731,34.4805 L207.9731,37.2031 Q207.3423,36.6221 206.7488,36.3523 Q206.1553,36.0825 205.5244,36.0825 Q204.1797,36.0825 203.4949,37.1492 Q202.8101,38.2158 202.8101,40.3159 Q202.8101,42.4077 203.4949,43.4744 Q204.1797,44.541 205.5244,44.541 Q206.1553,44.541 206.7488,44.2712 Q207.3423,44.0015 207.9731,43.4204 Z "/><text fill="#000000" font-family="sans-serif" font-size="12" lengthAdjust="spacingAndGlyphs" textLength="56" x="219.5" y="44.5352">Employee</text><line style="stroke: #A80036; stroke-width: 1.5;" x1="191.5" x2="277.5" y1="56" y2="56"/><line style="stroke: #A80036; stroke-width: 1.5;" x1="191.5" x2="277.5" y1="64" y2="64"/><!--MD5=[c881b25adf3665c6568c9693d41a70f3]
class Activity--><rect fill="#FEFECE" filter="url(#fdpkjuz9oy2vs)" height="112.7754" id="Activity" style="stroke: #A80036; stroke-width: 1.5;" width="130" x="744.5" y="185"/><ellipse cx="785.6" cy="201" fill="#ADD1B2" rx="11" ry="11" style="stroke: #A80036; stroke-width: 1.0;"/><path d="M788.0731,207.1431 Q787.4921,207.4419 786.8529,207.5913 Q786.2138,207.7407 785.5082,207.7407 Q783.0014,207.7407 781.6815,206.0889 Q780.3617,204.437 780.3617,201.3159 Q780.3617,198.1865 781.6815,196.5347 Q783.0014,194.8828 785.5082,194.8828 Q786.2138,194.8828 786.8612,195.0322 Q787.5087,195.1816 788.0731,195.4805 L788.0731,198.2031 Q787.4423,197.6221 786.8488,197.3523 Q786.2553,197.0825 785.6244,197.0825 Q784.2797,197.0825 783.5949,198.1492 Q782.9101,199.2158 782.9101,201.3159 Q782.9101,203.4077 783.5949,204.4744 Q784.2797,205.541 785.6244,205.541 Q786.2553,205.541 786.8488,205.2712 Q787.4423,205.0015 788.0731,204.4204 Z "/><text fill="#000000" font-family="sans-serif" font-size="12" lengthAdjust="spacingAndGlyphs" textLength="40" x="805.4" y="205.5352">Activity</text><line style="stroke: #A80036; stroke-width: 1.5;" x1="745.5" x2="873.5" y1="217" y2="217"/><text fill="#000000" font-family="sans-serif" font-size="11" lengthAdjust="spacingAndGlyphs" textLength="81" x="750.5" y="231.6348">LocalDate date;</text><text fill="#000000" font-family="sans-serif" font-size="11" lengthAdjust="spacingAndGlyphs" textLength="118" x="750.5" y="244.5898">int durationInMinutes;</text><text fill="#000000" font-family="sans-serif" font-size="11" lengthAdjust="spacingAndGlyphs" textLength="74" x="750.5" y="257.5449">String author;</text><text fill="#000000" font-family="sans-serif" font-size="11" lengthAdjust="spacingAndGlyphs" textLength="59" x="750.5" y="270.5">String text;</text><text fill="#000000" font-family="sans-serif" font-size="11" lengthAdjust="spacingAndGlyphs" textLength="73" x="750.5" y="283.4551">String details;</text><line style="stroke: #A80036; stroke-width: 1.5;" x1="745.5" x2="873.5" y1="289.7754" y2="289.7754"/><!--MD5=[8e99fe642d6b0197bff658f760a93d49]
class Interaction--><rect fill="#FEFECE" filter="url(#fdpkjuz9oy2vs)" height="80.1758" id="Interaction" style="stroke: #A80036; stroke-width: 1.5;" width="134" x="533.5" y="8"/><ellipse cx="567.4" cy="27.1328" fill="#DA70D6" rx="11" ry="11" style="stroke: #A80036; stroke-width: 1.0;"/><path d="M571.0143,33.6328 L563.2945,33.6328 L563.2945,21.2397 L571.0143,21.2397 L571.0143,23.3979 L565.7433,23.3979 L565.7433,26.0708 L570.5162,26.0708 L570.5162,28.229 L565.7433,28.229 L565.7433,31.4746 L571.0143,31.4746 Z "/><text fill="#000000" font-family="sans-serif" font-size="12" font-style="italic" lengthAdjust="spacingAndGlyphs" textLength="43" x="594.1" y="24.6016">«Entity»</text><text fill="#000000" font-family="sans-serif" font-size="12" lengthAdjust="spacingAndGlyphs" textLength="60" x="585.6" y="38.7344">Interaction</text><line style="stroke: #A80036; stroke-width: 1.5;" x1="534.5" x2="666.5" y1="46.2656" y2="46.2656"/><text fill="#000000" font-family="sans-serif" font-size="11" lengthAdjust="spacingAndGlyphs" textLength="111" x="539.5" y="60.9004">BigDecimal potential;</text><text fill="#000000" font-family="sans-serif" font-size="11" lengthAdjust="spacingAndGlyphs" textLength="122" x="539.5" y="73.8555">BigDecimal probability;</text><line style="stroke: #A80036; stroke-width: 1.5;" x1="534.5" x2="666.5" y1="80.1758" y2="80.1758"/><!--MD5=[461026a38b737c4ce5e8254b9a577e21]
class Contract--><rect fill="#FEFECE" filter="url(#fdpkjuz9oy2vs)" height="67.2207" id="Contract" style="stroke: #A80036; stroke-width: 1.5;" width="106" x="348.5" y="14.5"/><ellipse cx="375.2" cy="33.6328" fill="#DA70D6" rx="11" ry="11" style="stroke: #A80036; stroke-width: 1.0;"/><path d="M378.8143,40.1328 L371.0945,40.1328 L371.0945,27.7397 L378.8143,27.7397 L378.8143,29.8979 L373.5433,29.8979 L373.5433,32.5708 L378.3162,32.5708 L378.3162,34.729 L373.5433,34.729 L373.5433,37.9746 L378.8143,37.9746 Z "/><text fill="#000000" font-family="sans-serif" font-size="12" font-style="italic" lengthAdjust="spacingAndGlyphs" textLength="43" x="394.3" y="31.1016">«Entity»</text><text fill="#000000" font-family="sans-serif" font-size="12" lengthAdjust="spacingAndGlyphs" textLength="48" x="391.8" y="45.2344">Contract</text><line style="stroke: #A80036; stroke-width: 1.5;" x1="349.5" x2="453.5" y1="52.7656" y2="52.7656"/><text fill="#000000" font-family="sans-serif" font-size="11" lengthAdjust="spacingAndGlyphs" textLength="94" x="354.5" y="67.4004">Address address;</text><line style="stroke: #A80036; stroke-width: 1.5;" x1="349.5" x2="453.5" y1="73.7207" y2="73.7207"/><!--MD5=[1a53a89b89935fd45d5e9c36e4d24a27]
reverse link NaturalEntity to Photo--><path d="M193.67,306.05 C209.79,344.05 229.26,389.93 240.72,416.94 " fill="none" id="NaturalEntity&lt;-Photo" style="stroke: #A80036; stroke-width: 1.0;"/><polygon fill="#FFFFFF" points="188.57,294.02,187.2344,301.1063,193.262,305.0647,194.5976,297.9783,188.57,294.02" style="stroke: #A80036; stroke-width: 1.0;"/><text fill="#000000" font-family="sans-serif" font-size="13" lengthAdjust="spacingAndGlyphs" textLength="37" x="217.5" y="360.5684">photo</text><text fill="#000000" font-family="sans-serif" font-size="13" lengthAdjust="spacingAndGlyphs" textLength="24" x="210.8666" y="406.0683">0..1</text><!--MD5=[05a0cae63e4de839d783010c8bb3a360]
reverse link NaturalEntity to GenderCode--><path d="M139.63,306.1 C124.31,342.64 105.95,386.44 94.5,413.76 " fill="none" id="NaturalEntity&lt;-GenderCode" style="stroke: #A80036; stroke-width: 1.0;"/><polygon fill="#FFFFFF" points="144.69,294.02,138.6802,298.0053,140.0475,305.0856,146.0573,301.1003,144.69,294.02" style="stroke: #A80036; stroke-width: 1.0;"/><text fill="#000000" font-family="sans-serif" font-size="13" lengthAdjust="spacingAndGlyphs" textLength="43" x="121.5" y="360.5684">gender</text><text fill="#000000" font-family="sans-serif" font-size="13" lengthAdjust="spacingAndGlyphs" textLength="8" x="88.2344" y="403.2999">1</text><!--MD5=[3592570c92b6b9647d31134b0599ae7c]
reverse link Employee to NaturalEntity--><path d="M190.86,80.81 C179.84,91.29 169.45,103.92 163.5,118 C154.35,139.66 153.69,165.48 155.89,187.77 " fill="none" id="Employee&lt;-NaturalEntity" style="stroke: #A80036; stroke-width: 1.0;"/><polygon fill="#FFFFFF" points="200.61,72.17,193.4662,73.1529,191.6258,80.1252,198.7696,79.1423,200.61,72.17" style="stroke: #A80036; stroke-width: 1.0;"/><text fill="#000000" font-family="sans-serif" font-size="13" lengthAdjust="spacingAndGlyphs" textLength="60" x="164.5" y="131.5684">employee</text><text fill="#000000" font-family="sans-serif" font-size="13" lengthAdjust="spacingAndGlyphs" textLength="8" x="145.994" y="177.1929">1</text><!--MD5=[0870610ddc0d1cd16e6d663f9af7d8fa]
reverse link Employee to LegalEntity--><path d="M257.14,83.1 C268.07,99.12 281.58,118.32 294.5,135 C311.85,157.4 332.32,181.46 349.36,200.89 " fill="none" id="Employee&lt;-LegalEntity" style="stroke: #A80036; stroke-width: 1.0;"/><polygon fill="#FFFFFF" points="249.69,72.08,249.7383,79.2909,256.4132,82.0198,256.3648,74.8088,249.69,72.08" style="stroke: #A80036; stroke-width: 1.0;"/><text fill="#000000" font-family="sans-serif" font-size="13" lengthAdjust="spacingAndGlyphs" textLength="58" x="295.5" y="131.5684">employer</text><text fill="#000000" font-family="sans-serif" font-size="13" lengthAdjust="spacingAndGlyphs" textLength="8" x="334.7188" y="190.287">1</text><!--MD5=[0b44fa5c8435362789e0e2778b5ba9c4]
reverse link Activity to ActivityCode--><path d="M809.5,310.48 C809.5,346.1 809.5,387.57 809.5,413.8 " fill="none" id="Activity&lt;-ActivityCode" style="stroke: #A80036; stroke-width: 1.0;"/><polygon fill="#FFFFFF" points="809.5,297.15,805.5,303.15,809.5,309.15,813.5,303.15,809.5,297.15" style="stroke: #A80036; stroke-width: 1.0;"/><text fill="#000000" font-family="sans-serif" font-size="13" lengthAdjust="spacingAndGlyphs" textLength="30" x="810.5" y="360.5684">code</text><text fill="#000000" font-family="sans-serif" font-size="13" lengthAdjust="spacingAndGlyphs" textLength="8" x="800.575" y="403.3492">1</text><!--MD5=[825d162b282272eec0c730c91435dffe]
reverse link Interaction to LegalEntity--><path d="M546.33,96.9 C509.99,129.03 462.73,170.83 428.67,200.94 " fill="none" id="Interaction&lt;-LegalEntity" style="stroke: #A80036; stroke-width: 1.0;"/><polygon fill="#A80036" points="556.27,88.11,549.1254,89.087,547.2793,96.0578,554.4239,95.0808,556.27,88.11" style="stroke: #A80036; stroke-width: 1.0;"/><text fill="#000000" font-family="sans-serif" font-size="13" lengthAdjust="spacingAndGlyphs" textLength="36" x="518.5" y="131.5684">entity</text><text fill="#000000" font-family="sans-serif" font-size="13" lengthAdjust="spacingAndGlyphs" textLength="8" x="427.6602" y="190.3456">1</text><!--MD5=[6783ae32d71923870098bf800dc9ab52]
reverse link Interaction to Activity--><path d="M652.9,96.88 C682.07,123.55 718.53,156.87 748.93,184.65 " fill="none" id="Interaction&lt;-Activity" style="stroke: #A80036; stroke-width: 1.0;"/><polygon fill="#FFFFFF" points="643.3,88.11,645.037,95.1088,652.1655,96.1972,650.4285,89.1984,643.3,88.11" style="stroke: #A80036; stroke-width: 1.0;"/><text fill="#000000" font-family="sans-serif" font-size="13" lengthAdjust="spacingAndGlyphs" textLength="57" x="692.5" y="131.5684">activities</text><text fill="#000000" font-family="sans-serif" font-size="13" lengthAdjust="spacingAndGlyphs" textLength="8" x="733.0605" y="174.4083">n</text><!--MD5=[1d70ffa0fcf7842ca10200da5ad6c505]
reverse link Interaction to InteractionCode--><path d="M600.5,101.51 C600.5,137.97 600.5,185 600.5,213.8 " fill="none" id="Interaction&lt;-InteractionCode" style="stroke: #A80036; stroke-width: 1.0;"/><polygon fill="#FFFFFF" points="600.5,88.11,596.5,94.11,600.5,100.11,604.5,94.11,600.5,88.11" style="stroke: #A80036; stroke-width: 1.0;"/><text fill="#000000" font-family="sans-serif" font-size="13" lengthAdjust="spacingAndGlyphs" textLength="30" x="601.5" y="131.5684">code</text><text fill="#000000" font-family="sans-serif" font-size="13" lengthAdjust="spacingAndGlyphs" textLength="8" x="591.575" y="203.3492">1</text><!--MD5=[9c1cfc5a0213b75bfd9711d381c62f14]
reverse link Contract to LegalEntity--><path d="M374.44,93.39 C370.75,101.33 367.53,109.72 365.5,118 C358.79,145.38 363.98,176.82 370.63,200.93 " fill="none" id="Contract&lt;-LegalEntity" style="stroke: #A80036; stroke-width: 1.0;"/><polygon fill="#A80036" points="380.32,81.75,374.0415,85.2969,374.9008,92.4566,381.1793,88.9097,380.32,81.75" style="stroke: #A80036; stroke-width: 1.0;"/><text fill="#000000" font-family="sans-serif" font-size="13" lengthAdjust="spacingAndGlyphs" textLength="34" x="366.5" y="131.5684">seller</text><text fill="#000000" font-family="sans-serif" font-size="13" lengthAdjust="spacingAndGlyphs" textLength="8" x="359.6445" y="190.3338">1</text><!--MD5=[9c1cfc5a0213b75bfd9711d381c62f14]
reverse link Contract to LegalEntity--><path d="M404.53,94.77 C404.93,102.52 405.28,110.49 405.5,118 C405.72,125.55 406.24,127.48 405.5,135 C403.32,157.01 398.63,181.25 394.23,200.89 " fill="none" id="Contract&lt;-LegalEntity-1" style="stroke: #A80036; stroke-width: 1.0;"/><polygon fill="#A80036" points="403.78,81.63,400.1224,87.8446,404.4522,93.6112,408.1098,87.3965,403.78,81.63" style="stroke: #A80036; stroke-width: 1.0;"/><text fill="#000000" font-family="sans-serif" font-size="13" lengthAdjust="spacingAndGlyphs" textLength="36" x="406.5" y="131.5684">sellee</text><text fill="#000000" font-family="sans-serif" font-size="13" lengthAdjust="spacingAndGlyphs" textLength="8" x="387.3008" y="190.287">1</text><!--MD5=[7c971dd0776d32650bcd9a505cfc433a]
@startuml

class GenderCode <<(C, yellow) Code>> {}
class ActivityCode <<(C, yellow) Code>> {}
class InteractionCode <<(C, yellow) Code>> {}

class Address <<(R, green) Record>> {}

class LegalEntity  <<(E,orchid) Entity>> {
    Address address()
    String vatNr()
}

class NaturalEntity <<(E,orchid) Entity>> {
    String socialNr;
    String firstname;
    String lastname;
    Address address()
}
NaturalEntity o- - "0..1" Photo : photo
NaturalEntity o- - "1" GenderCode : gender

class Employee {
}

Employee o- - "1" NaturalEntity : employee
Employee o- - "1" LegalEntity : employer

class Activity {
    LocalDate date;
    int durationInMinutes;
    String author;
    String text;
    String details;
}
Activity o- - "1" ActivityCode : code


class Interaction <<(E,orchid) Entity>> {
    BigDecimal potential;
    BigDecimal probability;
}
Interaction *- - "1" LegalEntity : entity
Interaction o- - "n" Activity : activities
Interaction o- - "1" InteractionCode : code

class Contract <<(E,orchid) Entity>> {
  Address address;
}

Contract *- - "1" LegalEntity : seller
Contract *- - "1" LegalEntity : sellee

@enduml

PlantUML version 1.2020.06(Sun Apr 05 14:38:32 CEST 2020)
(APACHE source distribution)
Java Runtime: OpenJDK Runtime Environment
JVM: OpenJDK 64-Bit Server VM
Java Version: 19+36-2238
Operating System: Mac OS X
Default Encoding: UTF-8
Language: en
Country: CH
--></g></svg>