<?xml version="1.0" encoding="UTF-8" standalone="no"?><svg xmlns="http://www.w3.org/2000/svg" xmlns:xlink="http://www.w3.org/1999/xlink" contentScriptType="application/ecmascript" contentStyleType="text/css" height="725px" preserveAspectRatio="none" style="width:968px;height:725px;" version="1.1" viewBox="0 0 968 725" width="968px" zoomAndPan="magnify"><defs><filter height="300%" id="fboltg029owml" width="300%" x="-1" y="-1"><feGaussianBlur result="blurOut" stdDeviation="2.0"/><feColorMatrix in="blurOut" result="blurOut2" type="matrix" values="0 0 0 0 0 0 0 0 0 0 0 0 0 0 0 0 0 0 .4 0"/><feOffset dx="4.0" dy="4.0" in="blurOut2" result="blurOut3"/><feBlend in="SourceGraphic" in2="blurOut3" mode="normal"/></filter></defs><g><!--MD5=[56d787dc980d65ec69716f4d25f78dd9]
cluster net.tangly.bus.crmRealm--><polygon fill="#FFFFFF" filter="url(#fboltg029owml)" points="547,274,728,274,735,296.4883,946,296.4883,946,412,547,412,547,274" style="stroke: #000000; stroke-width: 1.5;"/><line style="stroke: #000000; stroke-width: 1.5;" x1="547" x2="735" y1="296.4883" y2="296.4883"/><text fill="#000000" font-family="sans-serif" font-size="14" font-weight="bold" lengthAdjust="spacingAndGlyphs" textLength="175" x="551" y="289.5352">net.tangly.bus.crmRealm</text><!--MD5=[b99eab2c6ef3f7096f4999ac9821b67b]
cluster net.tangly.bus.invoices--><polygon fill="#FFFFFF" filter="url(#fboltg029owml)" points="22,24,190,24,197,46.4883,523,46.4883,523,713,22,713,22,24" style="stroke: #000000; stroke-width: 1.5;"/><line style="stroke: #000000; stroke-width: 1.5;" x1="22" x2="197" y1="46.4883" y2="46.4883"/><text fill="#000000" font-family="sans-serif" font-size="14" font-weight="bold" lengthAdjust="spacingAndGlyphs" textLength="162" x="26" y="39.5352">net.tangly.bus.invoices</text><!--MD5=[e50f24c143873ab5352ff9f9e3841676]
class LegalEntity--><rect fill="#FEFECE" filter="url(#fboltg029owml)" height="48" id="LegalEntity" style="stroke: #A80036; stroke-width: 1.5;" width="93" x="678.5" y="328.5"/><ellipse cx="693.5" cy="344.5" fill="#ADD1B2" rx="11" ry="11" style="stroke: #A80036; stroke-width: 1.0;"/><path d="M695.9731,350.6431 Q695.3921,350.9419 694.7529,351.0913 Q694.1138,351.2407 693.4082,351.2407 Q690.9014,351.2407 689.5815,349.5889 Q688.2617,347.937 688.2617,344.8159 Q688.2617,341.6865 689.5815,340.0347 Q690.9014,338.3828 693.4082,338.3828 Q694.1138,338.3828 694.7612,338.5322 Q695.4087,338.6816 695.9731,338.9805 L695.9731,341.7031 Q695.3423,341.1221 694.7488,340.8523 Q694.1553,340.5825 693.5244,340.5825 Q692.1797,340.5825 691.4949,341.6492 Q690.8101,342.7158 690.8101,344.8159 Q690.8101,346.9077 691.4949,347.9744 Q692.1797,349.041 693.5244,349.041 Q694.1553,349.041 694.7488,348.7712 Q695.3423,348.5015 695.9731,347.9204 Z "/><text fill="#000000" font-family="sans-serif" font-size="12" lengthAdjust="spacingAndGlyphs" textLength="61" x="707.5" y="349.0352">LegalEntity</text><line style="stroke: #A80036; stroke-width: 1.5;" x1="679.5" x2="770.5" y1="360.5" y2="360.5"/><line style="stroke: #A80036; stroke-width: 1.5;" x1="679.5" x2="770.5" y1="368.5" y2="368.5"/><!--MD5=[3c9f2ef0b2142ef1375a5e914713a654]
class BankConnection--><rect fill="#FEFECE" filter="url(#fboltg029owml)" height="86.8652" id="BankConnection" style="stroke: #A80036; stroke-width: 1.5;" width="123" x="806.5" y="309"/><ellipse cx="821.5" cy="325" fill="#DA70D6" rx="11" ry="11" style="stroke: #A80036; stroke-width: 1.0;"/><path d="M822.1987,325.6479 Q822.564,325.7227 822.8337,325.9924 Q823.1035,326.2622 823.4937,327.0425 L825.7349,331.5 L823.0454,331.5 L821.5513,328.3706 Q821.4849,328.2378 821.377,328.0054 Q820.7212,326.6025 819.833,326.6025 L819.0527,326.6025 L819.0527,331.5 L816.604,331.5 L816.604,319.1069 L820.1401,319.1069 Q822.5308,319.1069 823.5725,319.9536 Q824.6143,320.8003 824.6143,322.7095 Q824.6143,323.9878 823.9917,324.7432 Q823.3691,325.4985 822.1987,325.6479 Z M819.0527,321.1655 L819.0527,324.5439 L820.2065,324.5439 Q821.2109,324.5439 821.6467,324.1497 Q822.0825,323.7554 822.0825,322.8506 Q822.0825,321.9458 821.6509,321.5557 Q821.2192,321.1655 820.2065,321.1655 Z "/><text fill="#000000" font-family="sans-serif" font-size="12" lengthAdjust="spacingAndGlyphs" textLength="91" x="835.5" y="329.5352">BankConnection</text><line style="stroke: #A80036; stroke-width: 1.5;" x1="807.5" x2="928.5" y1="341" y2="341"/><text fill="#000000" font-family="sans-serif" font-size="11" lengthAdjust="spacingAndGlyphs" textLength="58" x="812.5" y="355.6348">String iban</text><text fill="#000000" font-family="sans-serif" font-size="11" lengthAdjust="spacingAndGlyphs" textLength="51" x="812.5" y="368.5898">String bic</text><text fill="#000000" font-family="sans-serif" font-size="11" lengthAdjust="spacingAndGlyphs" textLength="79" x="812.5" y="381.5449">String institute</text><line style="stroke: #A80036; stroke-width: 1.5;" x1="807.5" x2="928.5" y1="387.8652" y2="387.8652"/><!--MD5=[461026a38b737c4ce5e8254b9a577e21]
class Contract--><rect fill="#FEFECE" filter="url(#fboltg029owml)" height="48" id="Contract" style="stroke: #A80036; stroke-width: 1.5;" width="80" x="563" y="328.5"/><ellipse cx="578" cy="344.5" fill="#ADD1B2" rx="11" ry="11" style="stroke: #A80036; stroke-width: 1.0;"/><path d="M580.4731,350.6431 Q579.8921,350.9419 579.2529,351.0913 Q578.6138,351.2407 577.9082,351.2407 Q575.4014,351.2407 574.0815,349.5889 Q572.7617,347.937 572.7617,344.8159 Q572.7617,341.6865 574.0815,340.0347 Q575.4014,338.3828 577.9082,338.3828 Q578.6138,338.3828 579.2612,338.5322 Q579.9087,338.6816 580.4731,338.9805 L580.4731,341.7031 Q579.8423,341.1221 579.2488,340.8523 Q578.6553,340.5825 578.0244,340.5825 Q576.6797,340.5825 575.9949,341.6492 Q575.3101,342.7158 575.3101,344.8159 Q575.3101,346.9077 575.9949,347.9744 Q576.6797,349.041 578.0244,349.041 Q578.6553,349.041 579.2488,348.7712 Q579.8423,348.5015 580.4731,347.9204 Z "/><text fill="#000000" font-family="sans-serif" font-size="12" lengthAdjust="spacingAndGlyphs" textLength="48" x="592" y="349.0352">Contract</text><line style="stroke: #A80036; stroke-width: 1.5;" x1="564" x2="642" y1="360.5" y2="360.5"/><line style="stroke: #A80036; stroke-width: 1.5;" x1="564" x2="642" y1="368.5" y2="368.5"/><!--MD5=[72136138052d025cffdce3c22fbd185f]
class Product--><rect fill="#FEFECE" filter="url(#fboltg029owml)" height="112.7754" id="Product" style="stroke: #A80036; stroke-width: 1.5;" width="120" x="38" y="584"/><ellipse cx="72.8" cy="600" fill="#DA70D6" rx="11" ry="11" style="stroke: #A80036; stroke-width: 1.0;"/><path d="M73.4987,600.6479 Q73.864,600.7227 74.1337,600.9924 Q74.4035,601.2622 74.7937,602.0425 L77.0349,606.5 L74.3454,606.5 L72.8513,603.3706 Q72.7849,603.2378 72.677,603.0054 Q72.0212,601.6025 71.133,601.6025 L70.3527,601.6025 L70.3527,606.5 L67.904,606.5 L67.904,594.1069 L71.4401,594.1069 Q73.8308,594.1069 74.8725,594.9536 Q75.9143,595.8003 75.9143,597.7095 Q75.9143,598.9878 75.2917,599.7432 Q74.6691,600.4985 73.4987,600.6479 Z M70.3527,596.1655 L70.3527,599.5439 L71.5065,599.5439 Q72.5109,599.5439 72.9467,599.1497 Q73.3825,598.7554 73.3825,597.8506 Q73.3825,596.9458 72.9509,596.5557 Q72.5192,596.1655 71.5065,596.1655 Z "/><text fill="#000000" font-family="sans-serif" font-size="12" lengthAdjust="spacingAndGlyphs" textLength="44" x="91.2" y="604.5352">Product</text><line style="stroke: #A80036; stroke-width: 1.5;" x1="39" x2="157" y1="616" y2="616"/><text fill="#000000" font-family="sans-serif" font-size="11" lengthAdjust="spacingAndGlyphs" textLength="88" x="44" y="630.6348">String productId</text><text fill="#000000" font-family="sans-serif" font-size="11" lengthAdjust="spacingAndGlyphs" textLength="96" x="44" y="643.5898">String description</text><text fill="#000000" font-family="sans-serif" font-size="11" lengthAdjust="spacingAndGlyphs" textLength="108" x="44" y="656.5449">BigDecimal unitPrice</text><text fill="#000000" font-family="sans-serif" font-size="11" lengthAdjust="spacingAndGlyphs" textLength="56" x="44" y="669.5">String unit</text><text fill="#000000" font-family="sans-serif" font-size="11" lengthAdjust="spacingAndGlyphs" textLength="100" x="44" y="682.4551">BigDecimal vatRate</text><line style="stroke: #A80036; stroke-width: 1.5;" x1="39" x2="157" y1="688.7754" y2="688.7754"/><!--MD5=[894442645724153f40a9f7a43026dbfc]
class Invoice--><rect fill="#FEFECE" filter="url(#fboltg029owml)" height="151.6406" id="Invoice" style="stroke: #A80036; stroke-width: 1.5;" width="152" x="38" y="59"/><ellipse cx="90.25" cy="75" fill="#ADD1B2" rx="11" ry="11" style="stroke: #A80036; stroke-width: 1.0;"/><path d="M92.7231,81.1431 Q92.1421,81.4419 91.5029,81.5913 Q90.8638,81.7407 90.1582,81.7407 Q87.6514,81.7407 86.3315,80.0889 Q85.0117,78.437 85.0117,75.3159 Q85.0117,72.1865 86.3315,70.5347 Q87.6514,68.8828 90.1582,68.8828 Q90.8638,68.8828 91.5112,69.0322 Q92.1587,69.1816 92.7231,69.4805 L92.7231,72.2031 Q92.0923,71.6221 91.4988,71.3523 Q90.9053,71.0825 90.2744,71.0825 Q88.9297,71.0825 88.2449,72.1492 Q87.5601,73.2158 87.5601,75.3159 Q87.5601,77.4077 88.2449,78.4744 Q88.9297,79.541 90.2744,79.541 Q90.9053,79.541 91.4988,79.2712 Q92.0923,79.0015 92.7231,78.4204 Z "/><text fill="#000000" font-family="sans-serif" font-size="12" lengthAdjust="spacingAndGlyphs" textLength="39" x="110.75" y="79.5352">Invoice</text><line style="stroke: #A80036; stroke-width: 1.5;" x1="39" x2="189" y1="91" y2="91"/><text fill="#000000" font-family="sans-serif" font-size="11" lengthAdjust="spacingAndGlyphs" textLength="45" x="44" y="105.6348">String id</text><text fill="#000000" font-family="sans-serif" font-size="11" lengthAdjust="spacingAndGlyphs" textLength="90" x="44" y="118.5898">String contractId</text><text fill="#000000" font-family="sans-serif" font-size="11" lengthAdjust="spacingAndGlyphs" textLength="121" x="44" y="131.5449">LocalDate deliveryDate</text><text fill="#000000" font-family="sans-serif" font-size="11" lengthAdjust="spacingAndGlyphs" textLength="124" x="44" y="144.5">LocalDate invoicedDate</text><text fill="#000000" font-family="sans-serif" font-size="11" lengthAdjust="spacingAndGlyphs" textLength="99" x="44" y="157.4551">LocalDate dueDate</text><text fill="#000000" font-family="sans-serif" font-size="11" lengthAdjust="spacingAndGlyphs" textLength="101" x="44" y="170.4102">Currency currency</text><text fill="#000000" font-family="sans-serif" font-size="11" lengthAdjust="spacingAndGlyphs" textLength="56" x="44" y="183.3652">String text</text><text fill="#000000" font-family="sans-serif" font-size="11" lengthAdjust="spacingAndGlyphs" textLength="140" x="44" y="196.3203">String paymentConditions</text><line style="stroke: #A80036; stroke-width: 1.5;" x1="39" x2="189" y1="202.6406" y2="202.6406"/><path d="M225,114.5 L225,131 L190.29,135 L225,139 L225,155.1211 A0,0 0 0 0 225,155.1211 L507,155.1211 A0,0 0 0 0 507,155.1211 L507,124.5 L497,114.5 L225,114.5 A0,0 0 0 0 225,114.5 " fill="#FBFB77" filter="url(#fboltg029owml)" style="stroke: #A80036; stroke-width: 1.0;"/><path d="M497,114.5 L497,124.5 L507,124.5 L497,114.5 " fill="#FBFB77" style="stroke: #A80036; stroke-width: 1.0;"/><text fill="#000000" font-family="sans-serif" font-size="13" lengthAdjust="spacingAndGlyphs" textLength="181" x="231" y="132.0684">contractId is the identifier to</text><text fill="#000000" font-family="sans-serif" font-size="13" lengthAdjust="spacingAndGlyphs" textLength="261" x="231" y="147.3789">the contract instance in the CRM package</text><!--MD5=[1c0f13887c958e1e6d269f7a23ceb9bf]
class InvoiceLine--><rect fill="#FEFECE" filter="url(#fboltg029owml)" height="48" id="InvoiceLine" style="stroke: #A80036; stroke-width: 1.5;" width="94" x="127" y="328.5"/><ellipse cx="142" cy="344.5" fill="#B4A7E5" rx="11" ry="11" style="stroke: #A80036; stroke-width: 1.0;"/><path d="M138.4277,340.7651 L138.4277,338.6069 L145.8071,338.6069 L145.8071,340.7651 L143.3418,340.7651 L143.3418,348.8418 L145.8071,348.8418 L145.8071,351 L138.4277,351 L138.4277,348.8418 L140.8931,348.8418 L140.8931,340.7651 Z "/><text fill="#000000" font-family="sans-serif" font-size="12" font-style="italic" lengthAdjust="spacingAndGlyphs" textLength="62" x="156" y="349.0352">InvoiceLine</text><line style="stroke: #A80036; stroke-width: 1.5;" x1="128" x2="220" y1="360.5" y2="360.5"/><line style="stroke: #A80036; stroke-width: 1.5;" x1="128" x2="220" y1="368.5" y2="368.5"/><!--MD5=[e927bc3f0361b2c4bbd0b6b840d09d3a]
class InvoiceItem--><rect fill="#FEFECE" filter="url(#fboltg029owml)" height="48" id="InvoiceItem" style="stroke: #A80036; stroke-width: 1.5;" width="96" x="44" y="459"/><ellipse cx="59" cy="475" fill="#DA70D6" rx="11" ry="11" style="stroke: #A80036; stroke-width: 1.0;"/><path d="M59.6987,475.6479 Q60.064,475.7227 60.3337,475.9924 Q60.6035,476.2622 60.9937,477.0425 L63.2349,481.5 L60.5454,481.5 L59.0513,478.3706 Q58.9849,478.2378 58.877,478.0054 Q58.2212,476.6025 57.333,476.6025 L56.5527,476.6025 L56.5527,481.5 L54.104,481.5 L54.104,469.1069 L57.6401,469.1069 Q60.0308,469.1069 61.0725,469.9536 Q62.1143,470.8003 62.1143,472.7095 Q62.1143,473.9878 61.4917,474.7432 Q60.8691,475.4985 59.6987,475.6479 Z M56.5527,471.1655 L56.5527,474.5439 L57.7065,474.5439 Q58.7109,474.5439 59.1467,474.1497 Q59.5825,473.7554 59.5825,472.8506 Q59.5825,471.9458 59.1509,471.5557 Q58.7192,471.1655 57.7065,471.1655 Z "/><text fill="#000000" font-family="sans-serif" font-size="12" lengthAdjust="spacingAndGlyphs" textLength="64" x="73" y="479.5352">InvoiceItem</text><line style="stroke: #A80036; stroke-width: 1.5;" x1="45" x2="139" y1="491" y2="491"/><line style="stroke: #A80036; stroke-width: 1.5;" x1="45" x2="139" y1="499" y2="499"/><!--MD5=[c0aafc64da0ae05ff280c14796fead66]
class Subtotal--><rect fill="#FEFECE" filter="url(#fboltg029owml)" height="48" id="Subtotal" style="stroke: #A80036; stroke-width: 1.5;" width="78" x="175" y="459"/><ellipse cx="190" cy="475" fill="#DA70D6" rx="11" ry="11" style="stroke: #A80036; stroke-width: 1.0;"/><path d="M190.6987,475.6479 Q191.064,475.7227 191.3337,475.9924 Q191.6035,476.2622 191.9937,477.0425 L194.2349,481.5 L191.5454,481.5 L190.0513,478.3706 Q189.9849,478.2378 189.877,478.0054 Q189.2212,476.6025 188.333,476.6025 L187.5527,476.6025 L187.5527,481.5 L185.104,481.5 L185.104,469.1069 L188.6401,469.1069 Q191.0308,469.1069 192.0725,469.9536 Q193.1143,470.8003 193.1143,472.7095 Q193.1143,473.9878 192.4917,474.7432 Q191.8691,475.4985 190.6987,475.6479 Z M187.5527,471.1655 L187.5527,474.5439 L188.7065,474.5439 Q189.7109,474.5439 190.1467,474.1497 Q190.5825,473.7554 190.5825,472.8506 Q190.5825,471.9458 190.1509,471.5557 Q189.7192,471.1655 188.7065,471.1655 Z "/><text fill="#000000" font-family="sans-serif" font-size="12" lengthAdjust="spacingAndGlyphs" textLength="46" x="204" y="479.5352">Subtotal</text><line style="stroke: #A80036; stroke-width: 1.5;" x1="176" x2="252" y1="491" y2="491"/><line style="stroke: #A80036; stroke-width: 1.5;" x1="176" x2="252" y1="499" y2="499"/><!--MD5=[63eb2a96f71aad193e0cad137f89090a]
reverse link Invoice to InvoiceLine--><path d="M138.44,223.77 C148.99,261.68 160.5,303.01 167.48,328.09 " fill="none" id="Invoice&lt;-InvoiceLine" style="stroke: #A80036; stroke-width: 1.0;"/><polygon fill="#A80036" points="134.9,211.07,132.6546,217.9226,138.1165,222.6309,140.3619,215.7783,134.9,211.07" style="stroke: #A80036; stroke-width: 1.0;"/><text fill="#000000" font-family="sans-serif" font-size="13" lengthAdjust="spacingAndGlyphs" textLength="30" x="149" y="254.5684">lines</text><!--MD5=[78d16a49ed594d58a250f1c45b58c3c1]
link Invoice to LegalEntity--><path d="M200.7193,207.9679 C200.7193,207.9679 205.22,210.21 207,211 C326.66,264.35 367.71,244.32 498,258 C516.03,259.89 644.99,257.49 661,266 C681.82,277.07 697.74,298.23 708.5,316.73 " fill="none" id="Invoice-LegalEntity" style="stroke: #A80036; stroke-width: 1.0;"/><polygon fill="#A80036" points="714.82,328.38,714.0443,318.5617,712.4358,323.9851,707.0124,322.3765,714.82,328.38" style="stroke: #A80036; stroke-width: 1.0;"/><line style="stroke: #A80036; stroke-width: 1.0;" x1="712.4358" x2="708.62" y1="323.9851" y2="316.95"/><polygon fill="#FFFFFF" points="190.18,202.23,193.537,208.612,200.7193,207.9679,197.3623,201.5859,190.18,202.23" style="stroke: #A80036; stroke-width: 1.0;"/><text fill="#000000" font-family="sans-serif" font-size="13" lengthAdjust="spacingAndGlyphs" textLength="94" x="499" y="254.5684">invoicingEntity</text><!--MD5=[78d16a49ed594d58a250f1c45b58c3c1]
link Invoice to LegalEntity--><path d="M200.9319,208.3487 C200.9319,208.3487 205.31,210.33 207,211 C369.01,275.26 428.19,201.75 598,241 C627.35,247.78 637.07,247.7 661,266 C678.95,279.73 694.31,299.76 705.49,316.99 " fill="none" id="Invoice-LegalEntity-1" style="stroke: #A80036; stroke-width: 1.0;"/><polygon fill="#A80036" points="712.53,328.35,711.1952,318.592,709.8988,324.0983,704.3925,322.8019,712.53,328.35" style="stroke: #A80036; stroke-width: 1.0;"/><line style="stroke: #A80036; stroke-width: 1.0;" x1="709.8988" x2="705.68" y1="324.0983" y2="317.305"/><polygon fill="#FFFFFF" points="190.22,202.94,193.7731,209.215,200.9319,208.3487,197.3789,202.0737,190.22,202.94" style="stroke: #A80036; stroke-width: 1.0;"/><text fill="#000000" font-family="sans-serif" font-size="13" lengthAdjust="spacingAndGlyphs" textLength="89" x="650" y="254.5684">invoicedEntity</text><!--MD5=[2d253df2e5da0a9bf997c50f74ed43be]
link Invoice to BankConnection--><path d="M200.9189,208.4249 C200.9189,208.4249 205.3,210.35 207,211 C319.39,254.21 633.02,205.25 748,241 C780.18,251.01 808.37,275.59 829.33,299.03 " fill="none" id="Invoice-BankConnection" style="stroke: #A80036; stroke-width: 1.0;"/><polygon fill="#A80036" points="837.86,308.96,835.0354,299.5249,834.6042,305.1653,828.9638,304.7341,837.86,308.96" style="stroke: #A80036; stroke-width: 1.0;"/><line style="stroke: #A80036; stroke-width: 1.0;" x1="834.6042" x2="829.39" y1="305.1653" y2="299.1"/><polygon fill="#A80036" points="190.17,203.09,193.7661,209.3404,200.9189,208.4249,197.3228,202.1745,190.17,203.09" style="stroke: #A80036; stroke-width: 1.0;"/><text fill="#000000" font-family="sans-serif" font-size="13" lengthAdjust="spacingAndGlyphs" textLength="130" x="780" y="254.5684">invoicingConnection</text><!--MD5=[21a91b57a5a7f3a50eb426e4d361467c]
reverse link InvoiceLine to InvoiceItem--><path d="M148.23,393.89 C134.56,415.31 118.26,440.85 106.74,458.9 " fill="none" id="InvoiceLine&lt;-InvoiceItem" style="stroke: #A80036; stroke-width: 1.0; stroke-dasharray: 7.0,7.0;"/><polygon fill="none" points="142.49,389.86,159.15,376.77,154.29,397.4,142.49,389.86" style="stroke: #A80036; stroke-width: 1.0;"/><!--MD5=[c02e910a406ed2e4aef743b649ff5ea0]
reverse link InvoiceItem to Product--><path d="M93.4,520.39 C94.13,539.25 95.04,562.68 95.85,583.75 " fill="none" id="InvoiceItem&lt;-Product" style="stroke: #A80036; stroke-width: 1.0;"/><polygon fill="#FFFFFF" points="92.9,507.28,89.1403,513.4334,93.3744,519.2706,97.1341,513.1172,92.9,507.28" style="stroke: #A80036; stroke-width: 1.0;"/><text fill="#000000" font-family="sans-serif" font-size="13" lengthAdjust="spacingAndGlyphs" textLength="39" x="96" y="550.5684">article</text><!--MD5=[53265a9ee22c827d0a8f0e8ecb0e5abd]
reverse link InvoiceLine to Subtotal--><path d="M175.27,396.49 C180.46,417.35 188.69,441.57 196.75,458.9 " fill="none" id="InvoiceLine&lt;-Subtotal" style="stroke: #A80036; stroke-width: 1.0; stroke-dasharray: 7.0,7.0;"/><polygon fill="none" points="168.39,397.78,171.16,376.77,182.1,394.92,168.39,397.78" style="stroke: #A80036; stroke-width: 1.0;"/><!--MD5=[64986fbb15800850d7c5f7985d03de8b]
reverse link Subtotal to InvoiceLine--><path d="M215.05,445.95 C210.21,423.8 201.05,396.06 191.92,376.77 " fill="none" id="Subtotal&lt;-InvoiceLine" style="stroke: #A80036; stroke-width: 1.0;"/><polygon fill="#FFFFFF" points="217.46,458.9,220.2902,452.2675,215.2565,447.104,212.4263,453.7365,217.46,458.9" style="stroke: #A80036; stroke-width: 1.0;"/><!--MD5=[f64e76a339e6a44090b7018126790331]
@startuml

package net.tangly.bus.crmRealm {
    class LegalEntity {}

    class BankConnection << (R,orchid) >> {
        String iban
        String bic
        String institute
    }

    class Contract {}
}

package net.tangly.bus.invoices {
class Product << (R,orchid) >> {
    String productId
    String description
    BigDecimal unitPrice
    String unit
    BigDecimal vatRate
}

class Invoice {
    String id
    String contractId
    LocalDate deliveryDate
    LocalDate invoicedDate
    LocalDate dueDate
    Currency currency
    String text
    String paymentConditions
}

note right: contractId is the identifier to\nthe contract instance in the CRM package

Invoice *- - InvoiceLine : lines
Invoice o- -> LegalEntity : invoicingEntity
Invoice o- -> LegalEntity : invoicedEntity
Invoice *- -> BankConnection : invoicingConnection

interface InvoiceLine {}

class InvoiceItem << (R,orchid) >> {}

InvoiceLine <|.. InvoiceItem

InvoiceItem o- - Product : article

class Subtotal << (R,orchid) >> {}

InvoiceLine <|.. Subtotal
Subtotal o- - InvoiceLine

}

@enduml

PlantUML version 1.2020.06(Sun Apr 05 14:38:32 CEST 2020)
(APACHE source distribution)
Java Runtime: OpenJDK Runtime Environment
JVM: OpenJDK 64-Bit Server VM
Java Version: 19-ea+30-2169
Operating System: Mac OS X
Default Encoding: UTF-8
Language: en
Country: CH
--></g></svg>