<svg id="mermaid-1669834889755" width="100%" xmlns="http://www.w3.org/2000/svg" height="450" style="max-width: 784px;" viewBox="0 0 784 450"><style>#mermaid-1669834889755{font-family:"trebuchet ms",verdana,arial,sans-serif;font-size:16px;fill:#333;}#mermaid-1669834889755 .error-icon{fill:#552222;}#mermaid-1669834889755 .error-text{fill:#552222;stroke:#552222;}#mermaid-1669834889755 .edge-thickness-normal{stroke-width:2px;}#mermaid-1669834889755 .edge-thickness-thick{stroke-width:3.5px;}#mermaid-1669834889755 .edge-pattern-solid{stroke-dasharray:0;}#mermaid-1669834889755 .edge-pattern-dashed{stroke-dasharray:3;}#mermaid-1669834889755 .edge-pattern-dotted{stroke-dasharray:2;}#mermaid-1669834889755 .marker{fill:#333333;stroke:#333333;}#mermaid-1669834889755 .marker.cross{stroke:#333333;}#mermaid-1669834889755 svg{font-family:"trebuchet ms",verdana,arial,sans-serif;font-size:16px;}#mermaid-1669834889755 .pieCircle{stroke:black;stroke-width :2px;opacity :0.7;}#mermaid-1669834889755 .pieTitleText{text-anchor:middle;font-size:25px;fill:black;font-family:"trebuchet ms",verdana,arial,sans-serif;}#mermaid-1669834889755 .slice{font-family:"trebuchet ms",verdana,arial,sans-serif;fill:#333;font-size:17px;}#mermaid-1669834889755 .legend text{fill:black;font-family:"trebuchet ms",verdana,arial,sans-serif;font-size:17px;}#mermaid-1669834889755:root{--mermaid-font-family:"trebuchet ms",verdana,arial,sans-serif;}</style><g></g><g transform="translate(392,225)"><path d="M1.1327982892113017e-14,-185A185,185,0,0,1,125.77018424468957,135.67188638423525L0,0Z" fill="#ECECFF" class="pieCircle"></path><path d="M125.77018424468957,135.67188638423525A185,185,0,0,1,-123.15235535237338,138.05251671433865L0,0Z" fill="#ffffde" class="pieCircle"></path><path d="M-123.15235535237338,138.05251671433865A185,185,0,0,1,-160.06705975712669,-92.75524988219497L0,0Z" fill="hsl(80, 100%, 56.2745098039%)" class="pieCircle"></path><path d="M-160.06705975712669,-92.75524988219497A185,185,0,0,1,-97.93501737767912,-156.9513694468248L0,0Z" fill="hsl(240, 100%, 86.2745098039%)" class="pieCircle"></path><path d="M-55.736022473886145,-176.40435311746265A185,185,0,0,1,-29.944720388604093,-182.5604385425504L0,0Z" fill="hsl(60, 100%, 63.5294117647%)" class="pieCircle"></path><path d="M-29.944720388604093,-182.5604385425504A185,185,0,0,1,-10.020774645244071,-184.72840624957828L0,0Z" fill="hsl(80, 100%, 76.2745098039%)" class="pieCircle"></path><path d="M-10.020774645244071,-184.72840624957828A185,185,0,0,1,-3.398394867633905e-14,-185L0,0Z" fill="hsl(300, 100%, 76.2745098039%)" class="pieCircle"></path><path d="M-97.93501737767912,-156.9513694468248A185,185,0,0,1,-55.736022473886145,-176.40435311746265L0,0Z" fill="hsl(180, 100%, 56.2745098039%)" class="pieCircle"></path><text transform="translate(86.1135144599002,-33.77443748405826)" class="slice" style="text-anchor: middle;">38%</text><text transform="translate(0.8846054515309968,92.49577002866197)" class="slice" style="text-anchor: middle;">23%</text><text transform="translate(-91.3391558342612,14.608511610857118)" class="slice" style="text-anchor: middle;">22%</text><text transform="translate(-66.46719753618629,-64.33009911142366)" class="slice" style="text-anchor: middle;">8%</text><text transform="translate(-21.475403205221127,-89.97253501582124)" class="slice" style="text-anchor: middle;">2%</text><text transform="translate(-10.00606340325469,-91.95721121896884)" class="slice" style="text-anchor: middle;">2%</text><text transform="translate(-2.5061136204294896,-92.46604454891263)" class="slice" style="text-anchor: middle;">1%</text><text transform="translate(-38.72435204650905,-84.00401513367103)" class="slice" style="text-anchor: middle;">4%</text><text x="0" y="-200" class="pieTitleText">Agile Methods 2021</text><g class="legend" transform="translate(216,-88)"><rect width="18" height="18" style="fill: rgb(236, 236, 255); stroke: rgb(236, 236, 255);"></rect><text x="22" y="14">Scrum</text></g><g class="legend" transform="translate(216,-66)"><rect width="18" height="18" style="fill: rgb(255, 255, 222); stroke: rgb(255, 255, 222);"></rect><text x="22" y="14">SAFe</text></g><g class="legend" transform="translate(216,-44)"><rect width="18" height="18" style="fill: rgb(181, 255, 32); stroke: rgb(181, 255, 32);"></rect><text x="22" y="14">Kanban</text></g><g class="legend" transform="translate(216,-22)"><rect width="18" height="18" style="fill: rgb(185, 185, 255); stroke: rgb(185, 185, 255);"></rect><text x="22" y="14">Scrumban</text></g><g class="legend" transform="translate(216,0)"><rect width="18" height="18" style="fill: rgb(255, 255, 69); stroke: rgb(255, 255, 69);"></rect><text x="22" y="14">Hermes 5</text></g><g class="legend" transform="translate(216,22)"><rect width="18" height="18" style="fill: rgb(215, 255, 134); stroke: rgb(215, 255, 134);"></rect><text x="22" y="14">Waterfall</text></g><g class="legend" transform="translate(216,44)"><rect width="18" height="18" style="fill: rgb(255, 134, 255); stroke: rgb(255, 134, 255);"></rect><text x="22" y="14">DaD</text></g><g class="legend" transform="translate(216,66)"><rect width="18" height="18" style="fill: rgb(32, 255, 255); stroke: rgb(32, 255, 255);"></rect><text x="22" y="14">Others</text></g></g></svg>