<svg id="mermaid-1662240735577" width="100%" xmlns="http://www.w3.org/2000/svg" height="450" style="max-width: 784px;" viewBox="0 0 784 450"><style>#mermaid-1662240735577{font-family:"trebuchet ms",verdana,arial,sans-serif;font-size:16px;fill:#333;}#mermaid-1662240735577 .error-icon{fill:#552222;}#mermaid-1662240735577 .error-text{fill:#552222;stroke:#552222;}#mermaid-1662240735577 .edge-thickness-normal{stroke-width:2px;}#mermaid-1662240735577 .edge-thickness-thick{stroke-width:3.5px;}#mermaid-1662240735577 .edge-pattern-solid{stroke-dasharray:0;}#mermaid-1662240735577 .edge-pattern-dashed{stroke-dasharray:3;}#mermaid-1662240735577 .edge-pattern-dotted{stroke-dasharray:2;}#mermaid-1662240735577 .marker{fill:#333333;stroke:#333333;}#mermaid-1662240735577 .marker.cross{stroke:#333333;}#mermaid-1662240735577 svg{font-family:"trebuchet ms",verdana,arial,sans-serif;font-size:16px;}#mermaid-1662240735577 .pieCircle{stroke:black;stroke-width :2px;opacity :0.7;}#mermaid-1662240735577 .pieTitleText{text-anchor:middle;font-size:25px;fill:black;font-family:"trebuchet ms",verdana,arial,sans-serif;}#mermaid-1662240735577 .slice{font-family:"trebuchet ms",verdana,arial,sans-serif;fill:#333;font-size:17px;}#mermaid-1662240735577 .legend text{fill:black;font-family:"trebuchet ms",verdana,arial,sans-serif;font-size:17px;}#mermaid-1662240735577:root{--mermaid-font-family:"trebuchet ms",verdana,arial,sans-serif;}</style><g></g><g transform="translate(392,225)"><path d="M1.1327982892113017e-14,-185A185,185,0,0,1,183.40137585460047,24.26798991757586L0,0Z" fill="#ECECFF" class="pieCircle"></path><path d="M183.40137585460047,24.26798991757586A185,185,0,0,1,-20.402447298585855,183.87153163072423L0,0Z" fill="#ffffde" class="pieCircle"></path><path d="M-20.402447298585855,183.87153163072423A185,185,0,0,1,-170.21087010756227,72.47937428832124L0,0Z" fill="hsl(80, 100%, 56.2745098039%)" class="pieCircle"></path><path d="M-170.21087010756227,72.47937428832124A185,185,0,0,1,-177.85129213526469,-50.93052018011143L0,0Z" fill="hsl(240, 100%, 86.2745098039%)" class="pieCircle"></path><path d="M-177.85129213526469,-50.93052018011143A185,185,0,0,1,-132.35441836276365,-129.25675200876174L0,0Z" fill="hsl(60, 100%, 63.5294117647%)" class="pieCircle"></path><path d="M-132.35441836276365,-129.25675200876174A185,185,0,0,1,-77.81656010355002,-167.83796642491407L0,0Z" fill="hsl(80, 100%, 76.2745098039%)" class="pieCircle"></path><path d="M-23.78535000987917,-183.46459365476366A185,185,0,0,1,-8.75845314473828,-184.79255801712205L0,0Z" fill="hsl(300, 100%, 76.2745098039%)" class="pieCircle"></path><path d="M-8.75845314473828,-184.79255801712205A185,185,0,0,1,-3.398394867633905e-14,-185L0,0Z" fill="hsl(180, 100%, 56.2745098039%)" class="pieCircle"></path><path d="M-77.81656010355002,-167.83796642491407A185,185,0,0,1,-23.78535000987917,-183.46459365476366L0,0Z" fill="hsl(0, 100%, 56.2745098039%)" class="pieCircle"></path><text transform="translate(69.56523748859011,-60.96661162600442)" class="slice" style="text-anchor: middle;">27%</text><text transform="translate(57.03175718283491,72.82601645454842)" class="slice" style="text-anchor: middle;">25%</text><text transform="translate(-55.19377766671917,74.22867981364597)" class="slice" style="text-anchor: middle;">17%</text><text transform="translate(-92.32323341048209,5.715817757210638)" class="slice" style="text-anchor: middle;">11%</text><text transform="translate(-79.9853820308991,-46.46061408732264)" class="slice" style="text-anchor: middle;">8%</text><text transform="translate(-53.42070659825693,-75.51475423083194)" class="slice" style="text-anchor: middle;">6%</text><text transform="translate(-8.14272149343427,-92.14090343967962)" class="slice" style="text-anchor: middle;">1%</text><text transform="translate(-2.190227352137741,-92.47406611664671)" class="slice" style="text-anchor: middle;">1%</text><text transform="translate(-25.69914835320183,-88.85833542172689)" class="slice" style="text-anchor: middle;">5%</text><text x="0" y="-200" class="pieTitleText">Hybrid Methods 2021</text><g class="legend" transform="translate(216,-99)"><rect width="18" height="18" style="fill: rgb(236, 236, 255); stroke: rgb(236, 236, 255);"></rect><text x="22" y="14">Scrum</text></g><g class="legend" transform="translate(216,-77)"><rect width="18" height="18" style="fill: rgb(255, 255, 222); stroke: rgb(255, 255, 222);"></rect><text x="22" y="14">Waterfall</text></g><g class="legend" transform="translate(216,-55)"><rect width="18" height="18" style="fill: rgb(181, 255, 32); stroke: rgb(181, 255, 32);"></rect><text x="22" y="14">Kanban</text></g><g class="legend" transform="translate(216,-33)"><rect width="18" height="18" style="fill: rgb(185, 185, 255); stroke: rgb(185, 185, 255);"></rect><text x="22" y="14">SAFe</text></g><g class="legend" transform="translate(216,-11)"><rect width="18" height="18" style="fill: rgb(255, 255, 69); stroke: rgb(255, 255, 69);"></rect><text x="22" y="14">Hermes</text></g><g class="legend" transform="translate(216,11)"><rect width="18" height="18" style="fill: rgb(215, 255, 134); stroke: rgb(215, 255, 134);"></rect><text x="22" y="14">Scrumban</text></g><g class="legend" transform="translate(216,33)"><rect width="18" height="18" style="fill: rgb(255, 134, 255); stroke: rgb(255, 134, 255);"></rect><text x="22" y="14">DaD</text></g><g class="legend" transform="translate(216,55)"><rect width="18" height="18" style="fill: rgb(32, 255, 255); stroke: rgb(32, 255, 255);"></rect><text x="22" y="14">Unified Process</text></g><g class="legend" transform="translate(216,77)"><rect width="18" height="18" style="fill: rgb(255, 32, 32); stroke: rgb(255, 32, 32);"></rect><text x="22" y="14">Others</text></g></g></svg>