<?xml version="1.0" encoding="UTF-8" standalone="no"?><svg xmlns="http://www.w3.org/2000/svg" xmlns:xlink="http://www.w3.org/1999/xlink" contentScriptType="application/ecmascript" contentStyleType="text/css" height="943px" preserveAspectRatio="none" style="width:1317px;height:943px;" version="1.1" viewBox="0 0 1317 943" width="1317px" zoomAndPan="magnify"><defs><filter height="300%" id="f1kl7tuk5jttk5" width="300%" x="-1" y="-1"><feGaussianBlur result="blurOut" stdDeviation="2.0"/><feColorMatrix in="blurOut" result="blurOut2" type="matrix" values="0 0 0 0 0 0 0 0 0 0 0 0 0 0 0 0 0 0 .4 0"/><feOffset dx="4.0" dy="4.0" in="blurOut2" result="blurOut3"/><feBlend in="SourceGraphic" in2="blurOut3" mode="normal"/></filter></defs><g><rect fill="#FEFECE" filter="url(#f1kl7tuk5jttk5)" height="36.4883" rx="12.5" ry="12.5" style="stroke: #A80036; stroke-width: 1.5;" width="127.3333" x="639" y="457.7842"/><path d="M656.4167,471.4391 C655.8217,471.4391 655.3095,471.8533 654.9945,472.46 C655.5195,473.09 655.8333,473.9475 655.8333,474.9391 C655.8333,475.2775 655.7937,475.6088 655.7237,475.9238 C655.9337,476.0521 656.16,476.1058 656.4167,476.1058 C657.385,476.1058 658.1667,475.0558 658.1667,473.7725 C658.1667,472.4891 657.385,471.4391 656.4167,471.4391 M652.9167,472.6058 C651.9507,472.6058 651.1667,473.65 651.1667,474.9391 C651.1667,476.2283 651.9507,477.2725 652.9167,477.2725 C653.8827,477.2725 654.6667,476.2283 654.6667,474.9391 C654.6667,473.65 653.8827,472.6058 652.9167,472.6058 M658.4583,476.2878 C657.9567,476.8828 657.2707,477.2491 656.489,477.2725 C656.804,477.7158 657,478.2571 657,478.8405 L657,479.6058 L659.3333,479.6058 L659.3333,477.6738 C659.3333,477.0671 658.9717,476.5445 658.4583,476.2878 M650.875,477.4545 C650.3617,477.7111 650,478.2338 650,478.8405 L650,480.7725 L655.8333,480.7725 L655.8333,478.8405 C655.8333,478.2338 655.4717,477.7111 654.9583,477.4545 C654.445,478.0728 653.7217,478.4391 652.9167,478.4391 C652.1117,478.4391 651.3883,478.0728 650.875,477.4545 " fill="#000000" style="stroke: ; stroke-width: 0.0; stroke-dasharray: ;"/><text fill="#000000" font-family="sans-serif" font-size="14" lengthAdjust="spacingAndGlyphs" textLength="0" x="664.3333" y="481.3193"/><text fill="#000000" font-family="sans-serif" font-size="14" font-weight="bold" lengthAdjust="spacingAndGlyphs" textLength="92" x="664.3333" y="481.3193">Proficiencies</text><rect fill="#FEFECE" filter="url(#f1kl7tuk5jttk5)" height="36.4883" rx="12.5" ry="12.5" style="stroke: #A80036; stroke-width: 1.5;" width="170" x="816.3333" y="118.8545"/><text fill="#000000" font-family="sans-serif" font-size="14" lengthAdjust="spacingAndGlyphs" textLength="150" x="826.3333" y="142.3896">Artifacts Management</text><rect fill="#FEFECE" filter="url(#f1kl7tuk5jttk5)" height="36.4883" rx="12.5" ry="12.5" style="stroke: #A80036; stroke-width: 1.5;" width="77" x="1036.3333" y="62.3662"/><text fill="#000000" font-family="sans-serif" font-size="14" lengthAdjust="spacingAndGlyphs" textLength="34" x="1046.3333" y="85.9014">Basic</text><text fill="#000000" font-family="sans-serif" font-size="14" font-style="italic" lengthAdjust="spacingAndGlyphs" textLength="19" x="1084.3333" y="85.9014">Git</text><path d="M986.3333,137.0986 L996.3333,137.0986 C1011.3333,137.0986 1011.3333,80.6104 1026.3333,80.6104 L1036.3333,80.6104 " fill="none" style="stroke: #A80036; stroke-width: 1.0;"/><rect fill="#FEFECE" filter="url(#f1kl7tuk5jttk5)" height="36.4883" rx="12.5" ry="12.5" style="stroke: #A80036; stroke-width: 1.5;" width="110" x="1036.3333" y="118.8545"/><text fill="#008000" font-family="sans-serif" font-size="14" lengthAdjust="spacingAndGlyphs" textLength="90" x="1046.3333" y="142.3896">Advanced Git</text><path d="M986.3333,137.0986 L996.3333,137.0986 C1011.3333,137.0986 1011.3333,137.0986 1026.3333,137.0986 L1036.3333,137.0986 " fill="none" style="stroke: #A80036; stroke-width: 1.0;"/><rect fill="#FEFECE" filter="url(#f1kl7tuk5jttk5)" height="36.4883" rx="12.5" ry="12.5" style="stroke: #A80036; stroke-width: 1.5;" width="111" x="1036.3333" y="175.3428"/><text fill="#008000" font-family="sans-serif" font-size="14" lengthAdjust="spacingAndGlyphs" textLength="91" x="1046.3333" y="198.8779">Pull Requests</text><path d="M986.3333,137.0986 L996.3333,137.0986 C1011.3333,137.0986 1011.3333,193.5869 1026.3333,193.5869 L1036.3333,193.5869 " fill="none" style="stroke: #A80036; stroke-width: 1.0;"/><path d="M766.3333,476.0283 L776.3333,476.0283 C791.3333,476.0283 791.3333,137.0986 806.3333,137.0986 L816.3333,137.0986 " fill="none" style="stroke: #A80036; stroke-width: 1.0;"/><rect fill="#FEFECE" filter="url(#f1kl7tuk5jttk5)" height="36.4883" rx="12.5" ry="12.5" style="stroke: #A80036; stroke-width: 1.5;" width="72" x="816.3333" y="373.0518"/><text fill="#000000" font-family="sans-serif" font-size="14" lengthAdjust="spacingAndGlyphs" textLength="52" x="826.3333" y="396.5869">DevOps</text><rect fill="#FEFECE" filter="url(#f1kl7tuk5jttk5)" height="36.4883" rx="12.5" ry="12.5" style="stroke: #A80036; stroke-width: 1.5;" width="180" x="938.3333" y="260.0752"/><text fill="#000000" font-family="sans-serif" font-size="14" lengthAdjust="spacingAndGlyphs" textLength="160" x="948.3333" y="283.6104">Continuous Integration</text><rect fill="#FEFECE" filter="url(#f1kl7tuk5jttk5)" height="36.4883" rx="12.5" ry="12.5" style="stroke: #A80036; stroke-width: 1.5;" width="65" x="1168.3333" y="231.8311"/><text fill="#008000" font-family="sans-serif" font-size="14" lengthAdjust="spacingAndGlyphs" textLength="45" x="1178.3333" y="255.3662">Gradle</text><path d="M1118.3333,278.3193 L1128.3333,278.3193 C1143.3333,278.3193 1143.3333,250.0752 1158.3333,250.0752 L1168.3333,250.0752 " fill="none" style="stroke: #A80036; stroke-width: 1.0;"/><rect fill="#FEFECE" filter="url(#f1kl7tuk5jttk5)" height="36.4883" rx="12.5" ry="12.5" style="stroke: #A80036; stroke-width: 1.5;" width="125" x="1168.3333" y="288.3193"/><text fill="#008000" font-family="sans-serif" font-size="14" lengthAdjust="spacingAndGlyphs" textLength="105" x="1178.3333" y="311.8545">Gitlab Pipelines</text><path d="M1118.3333,278.3193 L1128.3333,278.3193 C1143.3333,278.3193 1143.3333,306.5635 1158.3333,306.5635 L1168.3333,306.5635 " fill="none" style="stroke: #A80036; stroke-width: 1.0;"/><path d="M888.3333,391.2959 L898.3333,391.2959 C913.3333,391.2959 913.3333,278.3193 928.3333,278.3193 L938.3333,278.3193 " fill="none" style="stroke: #A80036; stroke-width: 1.0;"/><rect fill="#FEFECE" filter="url(#f1kl7tuk5jttk5)" height="36.4883" rx="12.5" ry="12.5" style="stroke: #A80036; stroke-width: 1.5;" width="158" x="938.3333" y="373.0518"/><text fill="#000000" font-family="sans-serif" font-size="14" lengthAdjust="spacingAndGlyphs" textLength="138" x="948.3333" y="396.5869">Continuous Delivery</text><rect fill="#FEFECE" filter="url(#f1kl7tuk5jttk5)" height="36.4883" rx="12.5" ry="12.5" style="stroke: #A80036; stroke-width: 1.5;" width="125" x="1146.3333" y="344.8076"/><text fill="#008000" font-family="sans-serif" font-size="14" lengthAdjust="spacingAndGlyphs" textLength="105" x="1156.3333" y="368.3428">Gitlab Pipelines</text><path d="M1096.3333,391.2959 L1106.3333,391.2959 C1121.3333,391.2959 1121.3333,363.0518 1136.3333,363.0518 L1146.3333,363.0518 " fill="none" style="stroke: #A80036; stroke-width: 1.0;"/><rect fill="#FEFECE" filter="url(#f1kl7tuk5jttk5)" height="36.4883" rx="12.5" ry="12.5" style="stroke: #A80036; stroke-width: 1.5;" width="118" x="1146.3333" y="401.2959"/><text fill="#000000" font-family="sans-serif" font-size="14" font-style="italic" lengthAdjust="spacingAndGlyphs" textLength="98" x="1156.3333" y="424.8311">Maven Central</text><path d="M1096.3333,391.2959 L1106.3333,391.2959 C1121.3333,391.2959 1121.3333,419.54 1136.3333,419.54 L1146.3333,419.54 " fill="none" style="stroke: #A80036; stroke-width: 1.0;"/><path d="M888.3333,391.2959 L898.3333,391.2959 C913.3333,391.2959 913.3333,391.2959 928.3333,391.2959 L938.3333,391.2959 " fill="none" style="stroke: #A80036; stroke-width: 1.0;"/><rect fill="#FEFECE" filter="url(#f1kl7tuk5jttk5)" height="36.4883" rx="12.5" ry="12.5" style="stroke: #A80036; stroke-width: 1.5;" width="173" x="938.3333" y="486.0283"/><text fill="#000000" font-family="sans-serif" font-size="14" lengthAdjust="spacingAndGlyphs" textLength="153" x="948.3333" y="509.5635">Infrastructure as Code</text><rect fill="#FEFECE" filter="url(#f1kl7tuk5jttk5)" height="36.4883" rx="12.5" ry="12.5" style="stroke: #A80036; stroke-width: 1.5;" width="68" x="1161.3333" y="457.7842"/><text fill="#000000" font-family="sans-serif" font-size="14" font-style="italic" lengthAdjust="spacingAndGlyphs" textLength="48" x="1171.3333" y="481.3193">Docker</text><path d="M1111.3333,504.2725 L1121.3333,504.2725 C1136.3333,504.2725 1136.3333,476.0283 1151.3333,476.0283 L1161.3333,476.0283 " fill="none" style="stroke: #A80036; stroke-width: 1.0;"/><rect fill="#FEFECE" filter="url(#f1kl7tuk5jttk5)" height="36.4883" rx="12.5" ry="12.5" style="stroke: #A80036; stroke-width: 1.5;" width="145" x="1161.3333" y="514.2725"/><text fill="#000000" font-family="sans-serif" font-size="14" font-style="italic" lengthAdjust="spacingAndGlyphs" textLength="125" x="1171.3333" y="537.8076">Docker Repository</text><path d="M1111.3333,504.2725 L1121.3333,504.2725 C1136.3333,504.2725 1136.3333,532.5166 1151.3333,532.5166 L1161.3333,532.5166 " fill="none" style="stroke: #A80036; stroke-width: 1.0;"/><path d="M888.3333,391.2959 L898.3333,391.2959 C913.3333,391.2959 913.3333,504.2725 928.3333,504.2725 L938.3333,504.2725 " fill="none" style="stroke: #A80036; stroke-width: 1.0;"/><path d="M766.3333,476.0283 L776.3333,476.0283 C791.3333,476.0283 791.3333,391.2959 806.3333,391.2959 L816.3333,391.2959 " fill="none" style="stroke: #A80036; stroke-width: 1.0;"/><rect fill="#FEFECE" filter="url(#f1kl7tuk5jttk5)" height="36.4883" rx="12.5" ry="12.5" style="stroke: #A80036; stroke-width: 1.5;" width="114" x="816.3333" y="711.9814"/><text fill="#000000" font-family="sans-serif" font-size="14" lengthAdjust="spacingAndGlyphs" textLength="94" x="826.3333" y="735.5166">Programming</text><rect fill="#FEFECE" filter="url(#f1kl7tuk5jttk5)" height="36.4883" rx="12.5" ry="12.5" style="stroke: #A80036; stroke-width: 1.5;" width="104" x="980.3333" y="570.7607"/><text fill="#000000" font-family="sans-serif" font-size="14" lengthAdjust="spacingAndGlyphs" textLength="84" x="990.3333" y="594.2959">Modern Java</text><path d="M930.3333,730.2256 L940.3333,730.2256 C955.3333,730.2256 955.3333,589.0049 970.3333,589.0049 L980.3333,589.0049 " fill="none" style="stroke: #A80036; stroke-width: 1.0;"/><rect fill="#FEFECE" filter="url(#f1kl7tuk5jttk5)" height="36.4883" rx="12.5" ry="12.5" style="stroke: #A80036; stroke-width: 1.5;" width="88" x="980.3333" y="683.7373"/><text fill="#000000" font-family="sans-serif" font-size="14" lengthAdjust="spacingAndGlyphs" textLength="68" x="990.3333" y="707.2725">Unit Tests</text><rect fill="#FEFECE" filter="url(#f1kl7tuk5jttk5)" height="36.4883" rx="12.5" ry="12.5" style="stroke: #A80036; stroke-width: 1.5;" width="61" x="1118.3333" y="627.249"/><text fill="#000000" font-family="sans-serif" font-size="14" font-style="italic" lengthAdjust="spacingAndGlyphs" textLength="41" x="1128.3333" y="650.7842">JUnit5</text><path d="M1068.3333,701.9814 L1078.3333,701.9814 C1093.3333,701.9814 1093.3333,645.4932 1108.3333,645.4932 L1118.3333,645.4932 " fill="none" style="stroke: #A80036; stroke-width: 1.0;"/><rect fill="#FEFECE" filter="url(#f1kl7tuk5jttk5)" height="36.4883" rx="12.5" ry="12.5" style="stroke: #A80036; stroke-width: 1.5;" width="74" x="1118.3333" y="683.7373"/><text fill="#000000" font-family="sans-serif" font-size="14" font-style="italic" lengthAdjust="spacingAndGlyphs" textLength="54" x="1128.3333" y="707.2725">Mockito</text><path d="M1068.3333,701.9814 L1078.3333,701.9814 C1093.3333,701.9814 1093.3333,701.9814 1108.3333,701.9814 L1118.3333,701.9814 " fill="none" style="stroke: #A80036; stroke-width: 1.0;"/><rect fill="#FEFECE" filter="url(#f1kl7tuk5jttk5)" height="36.4883" rx="12.5" ry="12.5" style="stroke: #A80036; stroke-width: 1.5;" width="67" x="1118.3333" y="740.2256"/><text fill="#000000" font-family="sans-serif" font-size="14" font-style="italic" lengthAdjust="spacingAndGlyphs" textLength="47" x="1128.3333" y="763.7607">AssertJ</text><path d="M1068.3333,701.9814 L1078.3333,701.9814 C1093.3333,701.9814 1093.3333,758.4697 1108.3333,758.4697 L1118.3333,758.4697 " fill="none" style="stroke: #A80036; stroke-width: 1.0;"/><path d="M930.3333,730.2256 L940.3333,730.2256 C955.3333,730.2256 955.3333,701.9814 970.3333,701.9814 L980.3333,701.9814 " fill="none" style="stroke: #A80036; stroke-width: 1.0;"/><rect fill="#ADD8E6" filter="url(#f1kl7tuk5jttk5)" height="36.4883" rx="12.5" ry="12.5" style="stroke: #A80036; stroke-width: 1.5;" width="160" x="980.3333" y="796.7139"/><text fill="#000000" font-family="sans-serif" font-size="14" lengthAdjust="spacingAndGlyphs" textLength="136" x="990.3333" y="820.249">Patterns and Idioms</text><path d="M930.3333,730.2256 L940.3333,730.2256 C955.3333,730.2256 955.3333,814.958 970.3333,814.958 L980.3333,814.958 " fill="none" style="stroke: #A80036; stroke-width: 1.0;"/><rect fill="#FEFECE" filter="url(#f1kl7tuk5jttk5)" height="36.4883" rx="12.5" ry="12.5" style="stroke: #A80036; stroke-width: 1.5;" width="77" x="980.3333" y="853.2021"/><text fill="#000000" font-family="sans-serif" font-size="14" lengthAdjust="spacingAndGlyphs" textLength="57" x="990.3333" y="876.7373">Refactor</text><rect fill="#FEFECE" filter="url(#f1kl7tuk5jttk5)" height="36.4883" rx="12.5" ry="12.5" style="stroke: #A80036; stroke-width: 1.5;" width="88" x="1107.3333" y="853.2021"/><text fill="#000000" font-family="sans-serif" font-size="14" font-style="italic" lengthAdjust="spacingAndGlyphs" textLength="68" x="1117.3333" y="876.7373">IntelliJ IDE</text><path d="M1057.3333,871.4463 L1067.3333,871.4463 C1082.3333,871.4463 1082.3333,871.4463 1097.3333,871.4463 L1107.3333,871.4463 " fill="none" style="stroke: #A80036; stroke-width: 1.0;"/><path d="M930.3333,730.2256 L940.3333,730.2256 C955.3333,730.2256 955.3333,871.4463 970.3333,871.4463 L980.3333,871.4463 " fill="none" style="stroke: #A80036; stroke-width: 1.0;"/><path d="M766.3333,476.0283 L776.3333,476.0283 C791.3333,476.0283 791.3333,730.2256 806.3333,730.2256 L816.3333,730.2256 " fill="none" style="stroke: #A80036; stroke-width: 1.0;"/><rect fill="#ADD8E6" filter="url(#f1kl7tuk5jttk5)" height="36.4883" rx="12.5" ry="12.5" style="stroke: #A80036; stroke-width: 1.5;" width="80" x="509" y="48.2441"/><text fill="#000000" font-family="sans-serif" font-size="14" lengthAdjust="spacingAndGlyphs" textLength="56" x="519" y="71.7793">Analysis</text><rect fill="#FEFECE" filter="url(#f1kl7tuk5jttk5)" height="36.4883" rx="12.5" ry="12.5" style="stroke: #A80036; stroke-width: 1.5;" width="141" x="318" y="20"/><text fill="#000000" font-family="sans-serif" font-size="14" lengthAdjust="spacingAndGlyphs" textLength="121" x="328" y="43.5352">Agile Approaches</text><path d="M509,66.4883 L499,66.4883 C484,66.4883 484,38.2441 469,38.2441 L459,38.2441 " fill="none" style="stroke: #A80036; stroke-width: 1.0;"/><rect fill="#ADD8E6" filter="url(#f1kl7tuk5jttk5)" height="36.4883" rx="12.5" ry="12.5" style="stroke: #A80036; stroke-width: 1.5;" width="138" x="321" y="76.4883"/><text fill="#000000" font-family="sans-serif" font-size="14" lengthAdjust="spacingAndGlyphs" textLength="114" x="331" y="100.0234">Diagrams (BPML)</text><rect fill="#FEFECE" filter="url(#f1kl7tuk5jttk5)" height="36.4883" rx="12.5" ry="12.5" style="stroke: #A80036; stroke-width: 1.5;" width="150" x="121" y="76.4883"/><text fill="#000000" font-family="sans-serif" font-size="14" font-style="italic" lengthAdjust="spacingAndGlyphs" textLength="130" x="131" y="100.0234">BPMN Sketch Miner</text><path d="M321,94.7324 L311,94.7324 C296,94.7324 296,94.7324 281,94.7324 L271,94.7324 " fill="none" style="stroke: #A80036; stroke-width: 1.0;"/><path d="M509,66.4883 L499,66.4883 C484,66.4883 484,94.7324 469,94.7324 L459,94.7324 " fill="none" style="stroke: #A80036; stroke-width: 1.0;"/><path d="M639,476.0283 L629,476.0283 C614,476.0283 614,66.4883 599,66.4883 L589,66.4883 " fill="none" style="stroke: #A80036; stroke-width: 1.0;"/><rect fill="#ADD8E6" filter="url(#f1kl7tuk5jttk5)" height="36.4883" rx="12.5" ry="12.5" style="stroke: #A80036; stroke-width: 1.5;" width="71" x="518" y="161.2207"/><text fill="#000000" font-family="sans-serif" font-size="14" lengthAdjust="spacingAndGlyphs" textLength="47" x="528" y="184.7559">Design</text><rect fill="#FEFECE" filter="url(#f1kl7tuk5jttk5)" height="36.4883" rx="12.5" ry="12.5" style="stroke: #A80036; stroke-width: 1.5;" width="172" x="296" y="132.9766"/><text fill="#000000" font-family="sans-serif" font-size="14" lengthAdjust="spacingAndGlyphs" textLength="152" x="306" y="156.5117">Domain Driven Design</text><path d="M518,179.4648 L508,179.4648 C493,179.4648 493,151.2207 478,151.2207 L468,151.2207 " fill="none" style="stroke: #A80036; stroke-width: 1.0;"/><rect fill="#ADD8E6" filter="url(#f1kl7tuk5jttk5)" height="36.4883" rx="12.5" ry="12.5" style="stroke: #A80036; stroke-width: 1.5;" width="159" x="309" y="189.4648"/><text fill="#000000" font-family="sans-serif" font-size="14" lengthAdjust="spacingAndGlyphs" textLength="135" x="319" y="213">Diagrams (UML, C4)</text><rect fill="#FEFECE" filter="url(#f1kl7tuk5jttk5)" height="36.4883" rx="12.5" ry="12.5" style="stroke: #A80036; stroke-width: 1.5;" width="83" x="176" y="189.4648"/><text fill="#000000" font-family="sans-serif" font-size="14" font-style="italic" lengthAdjust="spacingAndGlyphs" textLength="63" x="186" y="213">PlantUML</text><path d="M309,207.709 L299,207.709 C284,207.709 284,207.709 269,207.709 L259,207.709 " fill="none" style="stroke: #A80036; stroke-width: 1.0;"/><path d="M518,179.4648 L508,179.4648 C493,179.4648 493,207.709 478,207.709 L468,207.709 " fill="none" style="stroke: #A80036; stroke-width: 1.0;"/><path d="M639,476.0283 L629,476.0283 C614,476.0283 614,179.4648 599,179.4648 L589,179.4648 " fill="none" style="stroke: #A80036; stroke-width: 1.0;"/><rect fill="#ADD8E6" filter="url(#f1kl7tuk5jttk5)" height="36.4883" rx="12.5" ry="12.5" style="stroke: #A80036; stroke-width: 1.5;" width="129" x="460" y="344.8076"/><text fill="#000000" font-family="sans-serif" font-size="14" lengthAdjust="spacingAndGlyphs" textLength="105" x="470" y="368.3428">Documentation</text><rect fill="#FEFECE" filter="url(#f1kl7tuk5jttk5)" height="36.4883" rx="12.5" ry="12.5" style="stroke: #A80036; stroke-width: 1.5;" width="92" x="318" y="245.9531"/><text fill="#000000" font-family="sans-serif" font-size="14" font-style="italic" lengthAdjust="spacingAndGlyphs" textLength="72" x="328" y="269.4883">Markdown</text><path d="M460,363.0518 L450,363.0518 C435,363.0518 435,264.1973 420,264.1973 L410,264.1973 " fill="none" style="stroke: #A80036; stroke-width: 1.0;"/><rect fill="#FEFECE" filter="url(#f1kl7tuk5jttk5)" height="36.4883" rx="12.5" ry="12.5" style="stroke: #A80036; stroke-width: 1.5;" width="78" x="332" y="302.4414"/><text fill="#000000" font-family="sans-serif" font-size="14" font-style="italic" lengthAdjust="spacingAndGlyphs" textLength="58" x="342" y="325.9766">AsciiDoc</text><path d="M460,363.0518 L450,363.0518 C435,363.0518 435,320.6855 420,320.6855 L410,320.6855 " fill="none" style="stroke: #A80036; stroke-width: 1.0;"/><rect fill="#FEFECE" filter="url(#f1kl7tuk5jttk5)" height="36.4883" rx="12.5" ry="12.5" style="stroke: #A80036; stroke-width: 1.5;" width="83" x="327" y="358.9297"/><text fill="#000000" font-family="sans-serif" font-size="14" font-style="italic" lengthAdjust="spacingAndGlyphs" textLength="63" x="337" y="382.4648">PlantUML</text><path d="M460,363.0518 L450,363.0518 C435,363.0518 435,377.1738 420,377.1738 L410,377.1738 " fill="none" style="stroke: #A80036; stroke-width: 1.0;"/><rect fill="#FEFECE" filter="url(#f1kl7tuk5jttk5)" height="36.4883" rx="12.5" ry="12.5" style="stroke: #A80036; stroke-width: 1.5;" width="125" x="285" y="415.418"/><text fill="#000000" font-family="sans-serif" font-size="14" lengthAdjust="spacingAndGlyphs" textLength="105" x="295" y="438.9531">Site Generators</text><rect fill="#FEFECE" filter="url(#f1kl7tuk5jttk5)" height="36.4883" rx="12.5" ry="12.5" style="stroke: #A80036; stroke-width: 1.5;" width="57" x="178" y="387.1738"/><text fill="#000000" font-family="sans-serif" font-size="14" font-style="italic" lengthAdjust="spacingAndGlyphs" textLength="37" x="188" y="410.709">Hugo</text><path d="M285,433.6621 L275,433.6621 C260,433.6621 260,405.418 245,405.418 L235,405.418 " fill="none" style="stroke: #A80036; stroke-width: 1.0;"/><rect fill="#FEFECE" filter="url(#f1kl7tuk5jttk5)" height="36.4883" rx="12.5" ry="12.5" style="stroke: #A80036; stroke-width: 1.5;" width="104" x="131" y="443.6621"/><text fill="#008000" font-family="sans-serif" font-size="14" lengthAdjust="spacingAndGlyphs" textLength="84" x="141" y="467.1973">Gitlab Pages</text><path d="M285,433.6621 L275,433.6621 C260,433.6621 260,461.9063 245,461.9063 L235,461.9063 " fill="none" style="stroke: #A80036; stroke-width: 1.0;"/><path d="M460,363.0518 L450,363.0518 C435,363.0518 435,433.6621 420,433.6621 L410,433.6621 " fill="none" style="stroke: #A80036; stroke-width: 1.0;"/><path d="M639,476.0283 L629,476.0283 C614,476.0283 614,363.0518 599,363.0518 L589,363.0518 " fill="none" style="stroke: #A80036; stroke-width: 1.0;"/><rect fill="#ADD8E6" filter="url(#f1kl7tuk5jttk5)" height="36.4883" rx="12.5" ry="12.5" style="stroke: #A80036; stroke-width: 1.5;" width="153" x="436" y="556.6387"/><text fill="#000000" font-family="sans-serif" font-size="14" lengthAdjust="spacingAndGlyphs" textLength="129" x="446" y="580.1738">Agile Development</text><rect fill="#ADD8E6" filter="url(#f1kl7tuk5jttk5)" height="36.4883" rx="12.5" ry="12.5" style="stroke: #A80036; stroke-width: 1.5;" width="67" x="319" y="556.6387"/><text fill="#000000" font-family="sans-serif" font-size="14" lengthAdjust="spacingAndGlyphs" textLength="43" x="329" y="580.1738">Scrum</text><rect fill="#FEFECE" filter="url(#f1kl7tuk5jttk5)" height="36.4883" rx="12.5" ry="12.5" style="stroke: #A80036; stroke-width: 1.5;" width="171" x="98" y="500.1504"/><text fill="#008000" font-family="sans-serif" font-size="14" lengthAdjust="spacingAndGlyphs" textLength="151" x="108" y="523.6855">Backlog: Epics, Stories</text><path d="M319,574.8828 L309,574.8828 C294,574.8828 294,518.3945 279,518.3945 L269,518.3945 " fill="none" style="stroke: #A80036; stroke-width: 1.0;"/><rect fill="#FEFECE" filter="url(#f1kl7tuk5jttk5)" height="36.4883" rx="12.5" ry="12.5" style="stroke: #A80036; stroke-width: 1.5;" width="259" x="10" y="556.6387"/><text fill="#008000" font-family="sans-serif" font-size="14" lengthAdjust="spacingAndGlyphs" textLength="239" x="20" y="580.1738">Iterations: Tasks, Burndown Charts</text><path d="M319,574.8828 L309,574.8828 C294,574.8828 294,574.8828 279,574.8828 L269,574.8828 " fill="none" style="stroke: #A80036; stroke-width: 1.0;"/><rect fill="#FEFECE" filter="url(#f1kl7tuk5jttk5)" height="36.4883" rx="12.5" ry="12.5" style="stroke: #A80036; stroke-width: 1.5;" width="224" x="45" y="613.127"/><text fill="#008000" font-family="sans-serif" font-size="14" lengthAdjust="spacingAndGlyphs" textLength="204" x="55" y="636.6621">Goals, Roadmap and Releases</text><path d="M319,574.8828 L309,574.8828 C294,574.8828 294,631.3711 279,631.3711 L269,631.3711 " fill="none" style="stroke: #A80036; stroke-width: 1.0;"/><path d="M436,574.8828 L426,574.8828 C411,574.8828 411,574.8828 396,574.8828 L386,574.8828 " fill="none" style="stroke: #A80036; stroke-width: 1.0;"/><path d="M639,476.0283 L629,476.0283 C614,476.0283 614,574.8828 599,574.8828 L589,574.8828 " fill="none" style="stroke: #A80036; stroke-width: 1.0;"/><rect fill="#FEFECE" filter="url(#f1kl7tuk5jttk5)" height="36.4883" rx="12.5" ry="12.5" style="stroke: #A80036; stroke-width: 1.5;" width="132" x="457" y="782.5918"/><text fill="#008000" font-family="sans-serif" font-size="14" lengthAdjust="spacingAndGlyphs" textLength="112" x="467" y="806.127">Software Quality</text><rect fill="#FEFECE" filter="url(#f1kl7tuk5jttk5)" height="36.4883" rx="12.5" ry="12.5" style="stroke: #A80036; stroke-width: 1.5;" width="124" x="283" y="726.1035"/><text fill="#000000" font-family="sans-serif" font-size="14" lengthAdjust="spacingAndGlyphs" textLength="104" x="293" y="749.6387">Static Checkers</text><rect fill="#FEFECE" filter="url(#f1kl7tuk5jttk5)" height="36.4883" rx="12.5" ry="12.5" style="stroke: #A80036; stroke-width: 1.5;" width="110" x="123" y="669.6152"/><text fill="#000000" font-family="sans-serif" font-size="14" font-style="italic" lengthAdjust="spacingAndGlyphs" textLength="90" x="133" y="693.1504">IDEA Analyze</text><path d="M283,744.3477 L273,744.3477 C258,744.3477 258,687.8594 243,687.8594 L233,687.8594 " fill="none" style="stroke: #A80036; stroke-width: 1.0;"/><rect fill="#FEFECE" filter="url(#f1kl7tuk5jttk5)" height="36.4883" rx="12.5" ry="12.5" style="stroke: #A80036; stroke-width: 1.5;" width="84" x="149" y="726.1035"/><text fill="#000000" font-family="sans-serif" font-size="14" font-style="italic" lengthAdjust="spacingAndGlyphs" textLength="64" x="159" y="749.6387">SpotBugs</text><path d="M283,744.3477 L273,744.3477 C258,744.3477 258,744.3477 243,744.3477 L233,744.3477 " fill="none" style="stroke: #A80036; stroke-width: 1.0;"/><rect fill="#FEFECE" filter="url(#f1kl7tuk5jttk5)" height="36.4883" rx="12.5" ry="12.5" style="stroke: #A80036; stroke-width: 1.5;" width="117" x="116" y="782.5918"/><text fill="#008000" font-family="sans-serif" font-size="14" lengthAdjust="spacingAndGlyphs" textLength="97" x="126" y="806.127">Gitlab Reports</text><path d="M283,744.3477 L273,744.3477 C258,744.3477 258,800.8359 243,800.8359 L233,800.8359 " fill="none" style="stroke: #A80036; stroke-width: 1.0;"/><path d="M457,800.8359 L447,800.8359 C432,800.8359 432,744.3477 417,744.3477 L407,744.3477 " fill="none" style="stroke: #A80036; stroke-width: 1.0;"/><rect fill="#FEFECE" filter="url(#f1kl7tuk5jttk5)" height="36.4883" rx="12.5" ry="12.5" style="stroke: #A80036; stroke-width: 1.5;" width="144" x="263" y="867.3242"/><text fill="#000000" font-family="sans-serif" font-size="14" lengthAdjust="spacingAndGlyphs" textLength="124" x="273" y="890.8594">Runtime Checkers</text><rect fill="#FEFECE" filter="url(#f1kl7tuk5jttk5)" height="36.4883" rx="12.5" ry="12.5" style="stroke: #A80036; stroke-width: 1.5;" width="70" x="143" y="839.0801"/><text fill="#000000" font-family="sans-serif" font-size="14" font-style="italic" lengthAdjust="spacingAndGlyphs" textLength="50" x="153" y="862.6152">JaCoCo</text><path d="M263,885.5684 L253,885.5684 C238,885.5684 238,857.3242 223,857.3242 L213,857.3242 " fill="none" style="stroke: #A80036; stroke-width: 1.0;"/><rect fill="#FEFECE" filter="url(#f1kl7tuk5jttk5)" height="36.4883" rx="12.5" ry="12.5" style="stroke: #A80036; stroke-width: 1.5;" width="117" x="96" y="895.5684"/><text fill="#008000" font-family="sans-serif" font-size="14" lengthAdjust="spacingAndGlyphs" textLength="97" x="106" y="919.1035">Gitlab Reports</text><path d="M263,885.5684 L253,885.5684 C238,885.5684 238,913.8125 223,913.8125 L213,913.8125 " fill="none" style="stroke: #A80036; stroke-width: 1.0;"/><path d="M457,800.8359 L447,800.8359 C432,800.8359 432,885.5684 417,885.5684 L407,885.5684 " fill="none" style="stroke: #A80036; stroke-width: 1.0;"/><path d="M639,476.0283 L629,476.0283 C614,476.0283 614,800.8359 599,800.8359 L589,800.8359 " fill="none" style="stroke: #A80036; stroke-width: 1.0;"/><!--MD5=[8d876f2df5141388cf8ca4f23aa1f8a6]
@startmindmap
<style>
mindmapDiagram {
  .hslu {
    BackgroundColor lightblue
  }
}
</style>
+ <&people> **Proficiencies**
++ Artifacts Management
+++ Basic //Git//
+++ <color:green>Advanced Git</color>
+++ <color:green>Pull Requests</color>
++ DevOps
+++ Continuous Integration
++++ <color:green>Gradle</color>
++++ <color:green>Gitlab Pipelines</color>
+++ Continuous Delivery
++++ <color:green>Gitlab Pipelines</color>
++++ //Maven Central//
+++ Infrastructure as Code
++++ //Docker//
++++ //Docker Repository//
++ Programming
+++ Modern Java
+++ Unit Tests
++++ //JUnit5//
++++ //Mockito//
++++ //AssertJ//
+++ Patterns and Idioms <<hslu>>
+++ Refactor
++++ //IntelliJ IDE//
- - Analysis <<hslu>>
- - - Agile Approaches
- - - Diagrams (BPML) <<hslu>>
- - - - //BPMN Sketch Miner//<color:green>
- - Design <<hslu>>
- - - Domain Driven Design
- - - Diagrams (UML, C4) <<hslu>>
- - - - //PlantUML//<color:green>
- - Documentation <<hslu>>
- - - //Markdown//
- - - //AsciiDoc//
- - - //PlantUML//
- - - Site Generators
- - - - //Hugo//
- - - - <color:green>Gitlab Pages</color>
- - Agile Development <<hslu>>
- - - Scrum <<hslu>>
- - - - <color:green>Backlog: Epics, Stories</color>
- - - - <color:green>Iterations: Tasks, Burndown Charts</color>
- - - - <color:green>Goals, Roadmap and Releases</color>
- - <color:green>Software Quality</color>
- - - Static Checkers
- - - - //IDEA Analyze//
- - - - //SpotBugs//
- - - - <color:green>Gitlab Reports</color>
- - - Runtime Checkers
- - - - //JaCoCo//
- - - - <color:green>Gitlab Reports</color>
@endmindmap

PlantUML version 1.2020.06(Sun Apr 05 14:38:32 CEST 2020)
(APACHE source distribution)
Java Runtime: Java(TM) SE Runtime Environment
JVM: Java HotSpot(TM) 64-Bit Server VM
Java Version: 19.0.1+10-21
Operating System: Mac OS X
Default Encoding: UTF-8
Language: en
Country: CH
--></g></svg>