<?xml version="1.0" encoding="UTF-8" standalone="no"?><svg xmlns="http://www.w3.org/2000/svg" xmlns:xlink="http://www.w3.org/1999/xlink" contentScriptType="application/ecmascript" contentStyleType="text/css" height="725px" preserveAspectRatio="none" style="width:1162px;height:725px;" version="1.1" viewBox="0 0 1162 725" width="1162px" zoomAndPan="magnify"><defs><filter height="300%" id="fi7ypd5eil5q9" width="300%" x="-1" y="-1"><feGaussianBlur result="blurOut" stdDeviation="2.0"/><feColorMatrix in="blurOut" result="blurOut2" type="matrix" values="0 0 0 0 0 0 0 0 0 0 0 0 0 0 0 0 0 0 .4 0"/><feOffset dx="4.0" dy="4.0" in="blurOut2" result="blurOut3"/><feBlend in="SourceGraphic" in2="blurOut3" mode="normal"/></filter></defs><g><!--MD5=[56d787dc980d65ec69716f4d25f78dd9]
cluster net.tangly.bus.crmRealm--><polygon fill="#FFFFFF" filter="url(#fi7ypd5eil5q9)" points="741,274,922,274,929,296.4883,1140,296.4883,1140,412,741,412,741,274" style="stroke: #000000; stroke-width: 1.5;"/><line style="stroke: #000000; stroke-width: 1.5;" x1="741" x2="929" y1="296.4883" y2="296.4883"/><text fill="#000000" font-family="sans-serif" font-size="14" font-weight="bold" lengthAdjust="spacingAndGlyphs" textLength="175" x="745" y="289.5352">net.tangly.bus.crmRealm</text><!--MD5=[b99eab2c6ef3f7096f4999ac9821b67b]
cluster net.tangly.bus.invoices--><polygon fill="#FFFFFF" filter="url(#fi7ypd5eil5q9)" points="22,24,190,24,197,46.4883,717,46.4883,717,713,22,713,22,24" style="stroke: #000000; stroke-width: 1.5;"/><line style="stroke: #000000; stroke-width: 1.5;" x1="22" x2="197" y1="46.4883" y2="46.4883"/><text fill="#000000" font-family="sans-serif" font-size="14" font-weight="bold" lengthAdjust="spacingAndGlyphs" textLength="162" x="26" y="39.5352">net.tangly.bus.invoices</text><!--MD5=[e50f24c143873ab5352ff9f9e3841676]
class LegalEntity--><rect fill="#FEFECE" filter="url(#fi7ypd5eil5q9)" height="48" id="LegalEntity" style="stroke: #A80036; stroke-width: 1.5;" width="93" x="872.5" y="328.5"/><ellipse cx="887.5" cy="344.5" fill="#ADD1B2" rx="11" ry="11" style="stroke: #A80036; stroke-width: 1.0;"/><path d="M889.9731,350.6431 Q889.3921,350.9419 888.7529,351.0913 Q888.1138,351.2407 887.4082,351.2407 Q884.9014,351.2407 883.5815,349.5889 Q882.2617,347.937 882.2617,344.8159 Q882.2617,341.6865 883.5815,340.0347 Q884.9014,338.3828 887.4082,338.3828 Q888.1138,338.3828 888.7612,338.5322 Q889.4087,338.6816 889.9731,338.9805 L889.9731,341.7031 Q889.3423,341.1221 888.7488,340.8523 Q888.1553,340.5825 887.5244,340.5825 Q886.1797,340.5825 885.4949,341.6492 Q884.8101,342.7158 884.8101,344.8159 Q884.8101,346.9077 885.4949,347.9744 Q886.1797,349.041 887.5244,349.041 Q888.1553,349.041 888.7488,348.7712 Q889.3423,348.5015 889.9731,347.9204 Z "/><text fill="#000000" font-family="sans-serif" font-size="12" lengthAdjust="spacingAndGlyphs" textLength="61" x="901.5" y="349.0352">LegalEntity</text><line style="stroke: #A80036; stroke-width: 1.5;" x1="873.5" x2="964.5" y1="360.5" y2="360.5"/><line style="stroke: #A80036; stroke-width: 1.5;" x1="873.5" x2="964.5" y1="368.5" y2="368.5"/><!--MD5=[3c9f2ef0b2142ef1375a5e914713a654]
class BankConnection--><rect fill="#FEFECE" filter="url(#fi7ypd5eil5q9)" height="86.8652" id="BankConnection" style="stroke: #A80036; stroke-width: 1.5;" width="123" x="1000.5" y="309"/><ellipse cx="1015.5" cy="325" fill="#DA70D6" rx="11" ry="11" style="stroke: #A80036; stroke-width: 1.0;"/><path d="M1016.1987,325.6479 Q1016.564,325.7227 1016.8337,325.9924 Q1017.1035,326.2622 1017.4937,327.0425 L1019.7349,331.5 L1017.0454,331.5 L1015.5513,328.3706 Q1015.4849,328.2378 1015.377,328.0054 Q1014.7212,326.6025 1013.833,326.6025 L1013.0527,326.6025 L1013.0527,331.5 L1010.604,331.5 L1010.604,319.1069 L1014.1401,319.1069 Q1016.5308,319.1069 1017.5725,319.9536 Q1018.6143,320.8003 1018.6143,322.7095 Q1018.6143,323.9878 1017.9917,324.7432 Q1017.3691,325.4985 1016.1987,325.6479 Z M1013.0527,321.1655 L1013.0527,324.5439 L1014.2065,324.5439 Q1015.2109,324.5439 1015.6467,324.1497 Q1016.0825,323.7554 1016.0825,322.8506 Q1016.0825,321.9458 1015.6509,321.5557 Q1015.2192,321.1655 1014.2065,321.1655 Z "/><text fill="#000000" font-family="sans-serif" font-size="12" lengthAdjust="spacingAndGlyphs" textLength="91" x="1029.5" y="329.5352">BankConnection</text><line style="stroke: #A80036; stroke-width: 1.5;" x1="1001.5" x2="1122.5" y1="341" y2="341"/><text fill="#000000" font-family="sans-serif" font-size="11" lengthAdjust="spacingAndGlyphs" textLength="58" x="1006.5" y="355.6348">String iban</text><text fill="#000000" font-family="sans-serif" font-size="11" lengthAdjust="spacingAndGlyphs" textLength="51" x="1006.5" y="368.5898">String bic</text><text fill="#000000" font-family="sans-serif" font-size="11" lengthAdjust="spacingAndGlyphs" textLength="79" x="1006.5" y="381.5449">String institute</text><line style="stroke: #A80036; stroke-width: 1.5;" x1="1001.5" x2="1122.5" y1="387.8652" y2="387.8652"/><!--MD5=[461026a38b737c4ce5e8254b9a577e21]
class Contract--><rect fill="#FEFECE" filter="url(#fi7ypd5eil5q9)" height="48" id="Contract" style="stroke: #A80036; stroke-width: 1.5;" width="80" x="757" y="328.5"/><ellipse cx="772" cy="344.5" fill="#ADD1B2" rx="11" ry="11" style="stroke: #A80036; stroke-width: 1.0;"/><path d="M774.4731,350.6431 Q773.8921,350.9419 773.2529,351.0913 Q772.6138,351.2407 771.9082,351.2407 Q769.4014,351.2407 768.0815,349.5889 Q766.7617,347.937 766.7617,344.8159 Q766.7617,341.6865 768.0815,340.0347 Q769.4014,338.3828 771.9082,338.3828 Q772.6138,338.3828 773.2612,338.5322 Q773.9087,338.6816 774.4731,338.9805 L774.4731,341.7031 Q773.8423,341.1221 773.2488,340.8523 Q772.6553,340.5825 772.0244,340.5825 Q770.6797,340.5825 769.9949,341.6492 Q769.3101,342.7158 769.3101,344.8159 Q769.3101,346.9077 769.9949,347.9744 Q770.6797,349.041 772.0244,349.041 Q772.6553,349.041 773.2488,348.7712 Q773.8423,348.5015 774.4731,347.9204 Z "/><text fill="#000000" font-family="sans-serif" font-size="12" lengthAdjust="spacingAndGlyphs" textLength="48" x="786" y="349.0352">Contract</text><line style="stroke: #A80036; stroke-width: 1.5;" x1="758" x2="836" y1="360.5" y2="360.5"/><line style="stroke: #A80036; stroke-width: 1.5;" x1="758" x2="836" y1="368.5" y2="368.5"/><!--MD5=[72136138052d025cffdce3c22fbd185f]
class Product--><rect fill="#FEFECE" filter="url(#fi7ypd5eil5q9)" height="112.7754" id="Product" style="stroke: #A80036; stroke-width: 1.5;" width="120" x="38" y="584"/><ellipse cx="72.8" cy="600" fill="#DA70D6" rx="11" ry="11" style="stroke: #A80036; stroke-width: 1.0;"/><path d="M73.4987,600.6479 Q73.864,600.7227 74.1337,600.9924 Q74.4035,601.2622 74.7937,602.0425 L77.0349,606.5 L74.3454,606.5 L72.8513,603.3706 Q72.7849,603.2378 72.677,603.0054 Q72.0212,601.6025 71.133,601.6025 L70.3527,601.6025 L70.3527,606.5 L67.904,606.5 L67.904,594.1069 L71.4401,594.1069 Q73.8308,594.1069 74.8725,594.9536 Q75.9143,595.8003 75.9143,597.7095 Q75.9143,598.9878 75.2917,599.7432 Q74.6691,600.4985 73.4987,600.6479 Z M70.3527,596.1655 L70.3527,599.5439 L71.5065,599.5439 Q72.5109,599.5439 72.9467,599.1497 Q73.3825,598.7554 73.3825,597.8506 Q73.3825,596.9458 72.9509,596.5557 Q72.5192,596.1655 71.5065,596.1655 Z "/><text fill="#000000" font-family="sans-serif" font-size="12" lengthAdjust="spacingAndGlyphs" textLength="44" x="91.2" y="604.5352">Product</text><line style="stroke: #A80036; stroke-width: 1.5;" x1="39" x2="157" y1="616" y2="616"/><text fill="#000000" font-family="sans-serif" font-size="11" lengthAdjust="spacingAndGlyphs" textLength="88" x="44" y="630.6348">String productId</text><text fill="#000000" font-family="sans-serif" font-size="11" lengthAdjust="spacingAndGlyphs" textLength="96" x="44" y="643.5898">String description</text><text fill="#000000" font-family="sans-serif" font-size="11" lengthAdjust="spacingAndGlyphs" textLength="108" x="44" y="656.5449">BigDecimal unitPrice</text><text fill="#000000" font-family="sans-serif" font-size="11" lengthAdjust="spacingAndGlyphs" textLength="56" x="44" y="669.5">String unit</text><text fill="#000000" font-family="sans-serif" font-size="11" lengthAdjust="spacingAndGlyphs" textLength="100" x="44" y="682.4551">BigDecimal vatRate</text><line style="stroke: #A80036; stroke-width: 1.5;" x1="39" x2="157" y1="688.7754" y2="688.7754"/><!--MD5=[894442645724153f40a9f7a43026dbfc]
class Invoice--><rect fill="#FEFECE" filter="url(#fi7ypd5eil5q9)" height="151.6406" id="Invoice" style="stroke: #A80036; stroke-width: 1.5;" width="152" x="38" y="59"/><ellipse cx="90.25" cy="75" fill="#ADD1B2" rx="11" ry="11" style="stroke: #A80036; stroke-width: 1.0;"/><path d="M92.7231,81.1431 Q92.1421,81.4419 91.5029,81.5913 Q90.8638,81.7407 90.1582,81.7407 Q87.6514,81.7407 86.3315,80.0889 Q85.0117,78.437 85.0117,75.3159 Q85.0117,72.1865 86.3315,70.5347 Q87.6514,68.8828 90.1582,68.8828 Q90.8638,68.8828 91.5112,69.0322 Q92.1587,69.1816 92.7231,69.4805 L92.7231,72.2031 Q92.0923,71.6221 91.4988,71.3523 Q90.9053,71.0825 90.2744,71.0825 Q88.9297,71.0825 88.2449,72.1492 Q87.5601,73.2158 87.5601,75.3159 Q87.5601,77.4077 88.2449,78.4744 Q88.9297,79.541 90.2744,79.541 Q90.9053,79.541 91.4988,79.2712 Q92.0923,79.0015 92.7231,78.4204 Z "/><text fill="#000000" font-family="sans-serif" font-size="12" lengthAdjust="spacingAndGlyphs" textLength="39" x="110.75" y="79.5352">Invoice</text><line style="stroke: #A80036; stroke-width: 1.5;" x1="39" x2="189" y1="91" y2="91"/><text fill="#000000" font-family="sans-serif" font-size="11" lengthAdjust="spacingAndGlyphs" textLength="45" x="44" y="105.6348">String id</text><text fill="#000000" font-family="sans-serif" font-size="11" lengthAdjust="spacingAndGlyphs" textLength="90" x="44" y="118.5898">String contractId</text><text fill="#000000" font-family="sans-serif" font-size="11" lengthAdjust="spacingAndGlyphs" textLength="121" x="44" y="131.5449">LocalDate deliveryDate</text><text fill="#000000" font-family="sans-serif" font-size="11" lengthAdjust="spacingAndGlyphs" textLength="124" x="44" y="144.5">LocalDate invoicedDate</text><text fill="#000000" font-family="sans-serif" font-size="11" lengthAdjust="spacingAndGlyphs" textLength="99" x="44" y="157.4551">LocalDate dueDate</text><text fill="#000000" font-family="sans-serif" font-size="11" lengthAdjust="spacingAndGlyphs" textLength="101" x="44" y="170.4102">Currency currency</text><text fill="#000000" font-family="sans-serif" font-size="11" lengthAdjust="spacingAndGlyphs" textLength="56" x="44" y="183.3652">String text</text><text fill="#000000" font-family="sans-serif" font-size="11" lengthAdjust="spacingAndGlyphs" textLength="140" x="44" y="196.3203">String paymentConditions</text><line style="stroke: #A80036; stroke-width: 1.5;" x1="39" x2="189" y1="202.6406" y2="202.6406"/><path d="M225,122.5 L225,131 L190.34,135 L225,139 L225,147.8105 A0,0 0 0 0 225,147.8105 L701,147.8105 A0,0 0 0 0 701,147.8105 L701,132.5 L691,122.5 L225,122.5 A0,0 0 0 0 225,122.5 " fill="#FBFB77" filter="url(#fi7ypd5eil5q9)" style="stroke: #A80036; stroke-width: 1.0;"/><path d="M691,122.5 L691,132.5 L701,132.5 L691,122.5 " fill="#FBFB77" style="stroke: #A80036; stroke-width: 1.0;"/><text fill="#000000" font-family="sans-serif" font-size="13" lengthAdjust="spacingAndGlyphs" textLength="455" x="231" y="140.0684">contractId is the identifier for the contract instance in the CRM package.</text><!--MD5=[1c0f13887c958e1e6d269f7a23ceb9bf]
class InvoiceLine--><rect fill="#FEFECE" filter="url(#fi7ypd5eil5q9)" height="48" id="InvoiceLine" style="stroke: #A80036; stroke-width: 1.5;" width="94" x="127" y="328.5"/><ellipse cx="142" cy="344.5" fill="#B4A7E5" rx="11" ry="11" style="stroke: #A80036; stroke-width: 1.0;"/><path d="M138.4277,340.7651 L138.4277,338.6069 L145.8071,338.6069 L145.8071,340.7651 L143.3418,340.7651 L143.3418,348.8418 L145.8071,348.8418 L145.8071,351 L138.4277,351 L138.4277,348.8418 L140.8931,348.8418 L140.8931,340.7651 Z "/><text fill="#000000" font-family="sans-serif" font-size="12" font-style="italic" lengthAdjust="spacingAndGlyphs" textLength="62" x="156" y="349.0352">InvoiceLine</text><line style="stroke: #A80036; stroke-width: 1.5;" x1="128" x2="220" y1="360.5" y2="360.5"/><line style="stroke: #A80036; stroke-width: 1.5;" x1="128" x2="220" y1="368.5" y2="368.5"/><!--MD5=[e927bc3f0361b2c4bbd0b6b840d09d3a]
class InvoiceItem--><rect fill="#FEFECE" filter="url(#fi7ypd5eil5q9)" height="48" id="InvoiceItem" style="stroke: #A80036; stroke-width: 1.5;" width="96" x="44" y="459"/><ellipse cx="59" cy="475" fill="#DA70D6" rx="11" ry="11" style="stroke: #A80036; stroke-width: 1.0;"/><path d="M59.6987,475.6479 Q60.064,475.7227 60.3337,475.9924 Q60.6035,476.2622 60.9937,477.0425 L63.2349,481.5 L60.5454,481.5 L59.0513,478.3706 Q58.9849,478.2378 58.877,478.0054 Q58.2212,476.6025 57.333,476.6025 L56.5527,476.6025 L56.5527,481.5 L54.104,481.5 L54.104,469.1069 L57.6401,469.1069 Q60.0308,469.1069 61.0725,469.9536 Q62.1143,470.8003 62.1143,472.7095 Q62.1143,473.9878 61.4917,474.7432 Q60.8691,475.4985 59.6987,475.6479 Z M56.5527,471.1655 L56.5527,474.5439 L57.7065,474.5439 Q58.7109,474.5439 59.1467,474.1497 Q59.5825,473.7554 59.5825,472.8506 Q59.5825,471.9458 59.1509,471.5557 Q58.7192,471.1655 57.7065,471.1655 Z "/><text fill="#000000" font-family="sans-serif" font-size="12" lengthAdjust="spacingAndGlyphs" textLength="64" x="73" y="479.5352">InvoiceItem</text><line style="stroke: #A80036; stroke-width: 1.5;" x1="45" x2="139" y1="491" y2="491"/><line style="stroke: #A80036; stroke-width: 1.5;" x1="45" x2="139" y1="499" y2="499"/><!--MD5=[c0aafc64da0ae05ff280c14796fead66]
class Subtotal--><rect fill="#FEFECE" filter="url(#fi7ypd5eil5q9)" height="48" id="Subtotal" style="stroke: #A80036; stroke-width: 1.5;" width="78" x="175" y="459"/><ellipse cx="190" cy="475" fill="#DA70D6" rx="11" ry="11" style="stroke: #A80036; stroke-width: 1.0;"/><path d="M190.6987,475.6479 Q191.064,475.7227 191.3337,475.9924 Q191.6035,476.2622 191.9937,477.0425 L194.2349,481.5 L191.5454,481.5 L190.0513,478.3706 Q189.9849,478.2378 189.877,478.0054 Q189.2212,476.6025 188.333,476.6025 L187.5527,476.6025 L187.5527,481.5 L185.104,481.5 L185.104,469.1069 L188.6401,469.1069 Q191.0308,469.1069 192.0725,469.9536 Q193.1143,470.8003 193.1143,472.7095 Q193.1143,473.9878 192.4917,474.7432 Q191.8691,475.4985 190.6987,475.6479 Z M187.5527,471.1655 L187.5527,474.5439 L188.7065,474.5439 Q189.7109,474.5439 190.1467,474.1497 Q190.5825,473.7554 190.5825,472.8506 Q190.5825,471.9458 190.1509,471.5557 Q189.7192,471.1655 188.7065,471.1655 Z "/><text fill="#000000" font-family="sans-serif" font-size="12" lengthAdjust="spacingAndGlyphs" textLength="46" x="204" y="479.5352">Subtotal</text><line style="stroke: #A80036; stroke-width: 1.5;" x1="176" x2="252" y1="491" y2="491"/><line style="stroke: #A80036; stroke-width: 1.5;" x1="176" x2="252" y1="499" y2="499"/><!--MD5=[63eb2a96f71aad193e0cad137f89090a]
reverse link Invoice to InvoiceLine--><path d="M138.79,225.05 C149.26,262.64 160.6,303.37 167.5,328.16 " fill="none" id="Invoice&lt;-InvoiceLine" style="stroke: #A80036; stroke-width: 1.0;"/><polygon fill="#A80036" points="135.39,212.83,133.1446,219.6826,138.6065,224.3909,140.8519,217.5383,135.39,212.83" style="stroke: #A80036; stroke-width: 1.0;"/><text fill="#000000" font-family="sans-serif" font-size="13" lengthAdjust="spacingAndGlyphs" textLength="30" x="149" y="254.5684">lines</text><!--MD5=[78d16a49ed594d58a250f1c45b58c3c1]
link Invoice to LegalEntity--><path d="M202.3299,208.9018 C202.3299,208.9018 205.68,210.45 207,211 C387.04,285.64 448.61,243.87 643,258 C666.51,259.71 834.12,255.05 855,266 C875.48,276.74 891.2,297.31 901.93,315.58 " fill="none" id="Invoice-LegalEntity" style="stroke: #A80036; stroke-width: 1.0;"/><polygon fill="#A80036" points="908.14,326.98,907.3497,317.1629,905.7492,322.5886,900.3235,320.9882,908.14,326.98" style="stroke: #A80036; stroke-width: 1.0;"/><line style="stroke: #A80036; stroke-width: 1.0;" x1="905.7492" x2="901.915" y1="322.5886" y2="315.565"/><polygon fill="#FFFFFF" points="191.65,203.43,195.166,209.7258,202.3299,208.9018,198.8139,202.6059,191.65,203.43" style="stroke: #A80036; stroke-width: 1.0;"/><text fill="#000000" font-family="sans-serif" font-size="13" lengthAdjust="spacingAndGlyphs" textLength="94" x="644" y="254.5684">invoicingEntity</text><!--MD5=[78d16a49ed594d58a250f1c45b58c3c1]
link Invoice to LegalEntity--><path d="M202.5953,209.1608 C202.5953,209.1608 205.77,210.53 207,211 C318.34,253.84 624.83,224.62 743,241 C793.52,248 812.17,238.31 855,266 C873.95,278.25 889.35,298.18 900.29,315.72 " fill="none" id="Invoice-LegalEntity-1" style="stroke: #A80036; stroke-width: 1.0;"/><polygon fill="#A80036" points="906.85,326.9,905.7509,317.1127,904.3221,322.5861,898.8487,321.1573,906.85,326.9" style="stroke: #A80036; stroke-width: 1.0;"/><line style="stroke: #A80036; stroke-width: 1.0;" x1="904.3221" x2="900.275" y1="322.5861" y2="315.69"/><polygon fill="#FFFFFF" points="191.81,203.9,195.4491,210.1255,202.5953,209.1608,198.9563,202.9353,191.81,203.9" style="stroke: #A80036; stroke-width: 1.0;"/><text fill="#000000" font-family="sans-serif" font-size="13" lengthAdjust="spacingAndGlyphs" textLength="89" x="841" y="254.5684">invoicedEntity</text><!--MD5=[2d253df2e5da0a9bf997c50f74ed43be]
link Invoice to BankConnection--><path d="M202.5887,209.1819 C202.5887,209.1819 205.77,210.54 207,211 C359.38,268.32 782.48,196.19 939,241 C971.55,250.32 1000.21,274.5 1021.66,297.88 " fill="none" id="Invoice-BankConnection" style="stroke: #A80036; stroke-width: 1.0;"/><polygon fill="#A80036" points="1030,307.37,1027.0643,297.9688,1026.6997,303.6139,1021.0546,303.2493,1030,307.37" style="stroke: #A80036; stroke-width: 1.0;"/><line style="stroke: #A80036; stroke-width: 1.0;" x1="1026.6997" x2="1021.42" y1="303.6139" y2="297.605"/><polygon fill="#A80036" points="191.77,203.99,195.4487,210.1922,202.5887,209.1819,198.91,202.9797,191.77,203.99" style="stroke: #A80036; stroke-width: 1.0;"/><text fill="#000000" font-family="sans-serif" font-size="13" lengthAdjust="spacingAndGlyphs" textLength="130" x="976" y="254.5684">invoicingConnection</text><!--MD5=[21a91b57a5a7f3a50eb426e4d361467c]
reverse link InvoiceLine to InvoiceItem--><path d="M147.61,394.86 C134.07,416.07 118.09,441.12 106.74,458.9 " fill="none" id="InvoiceLine&lt;-InvoiceItem" style="stroke: #A80036; stroke-width: 1.0; stroke-dasharray: 7.0,7.0;"/><polygon fill="none" points="141.68,391.14,158.34,378.05,153.48,398.67,141.68,391.14" style="stroke: #A80036; stroke-width: 1.0;"/><!--MD5=[c02e910a406ed2e4aef743b649ff5ea0]
reverse link InvoiceItem to Product--><path d="M93.46,521.78 C94.18,540.39 95.06,563.19 95.85,583.75 " fill="none" id="InvoiceItem&lt;-Product" style="stroke: #A80036; stroke-width: 1.0;"/><polygon fill="#FFFFFF" points="92.96,508.79,89.1938,514.9395,93.4217,520.7811,97.1879,514.6317,92.96,508.79" style="stroke: #A80036; stroke-width: 1.0;"/><text fill="#000000" font-family="sans-serif" font-size="13" lengthAdjust="spacingAndGlyphs" textLength="39" x="96" y="550.5684">article</text><!--MD5=[53265a9ee22c827d0a8f0e8ecb0e5abd]
reverse link InvoiceLine to Subtotal--><path d="M175.6,397.8 C180.81,418.36 188.86,441.94 196.75,458.9 " fill="none" id="InvoiceLine&lt;-Subtotal" style="stroke: #A80036; stroke-width: 1.0; stroke-dasharray: 7.0,7.0;"/><polygon fill="none" points="168.76,399.27,171.47,378.25,182.46,396.37,168.76,399.27" style="stroke: #A80036; stroke-width: 1.0;"/><!--MD5=[64986fbb15800850d7c5f7985d03de8b]
reverse link Subtotal to InvoiceLine--><path d="M214.77,444.69 C209.87,422.75 200.88,395.69 191.92,376.77 " fill="none" id="Subtotal&lt;-InvoiceLine" style="stroke: #A80036; stroke-width: 1.0;"/><polygon fill="#FFFFFF" points="217.18,457.42,219.9959,450.7814,214.951,445.6288,212.1351,452.2674,217.18,457.42" style="stroke: #A80036; stroke-width: 1.0;"/><!--MD5=[7a41aca47800d6ed24b1117ad65c9ace]
@startuml

package net.tangly.bus.crmRealm {
    class LegalEntity {}

    class BankConnection << (R,orchid) >> {
        String iban
        String bic
        String institute
    }

    class Contract {}
}

package net.tangly.bus.invoices {
class Product << (R,orchid) >> {
    String productId
    String description
    BigDecimal unitPrice
    String unit
    BigDecimal vatRate
}

class Invoice {
    String id
    String contractId
    LocalDate deliveryDate
    LocalDate invoicedDate
    LocalDate dueDate
    Currency currency
    String text
    String paymentConditions
}

note right: contractId is the identifier for the contract instance in the CRM package.

Invoice *- - InvoiceLine : lines
Invoice o- -> LegalEntity : invoicingEntity
Invoice o- -> LegalEntity : invoicedEntity
Invoice *- -> BankConnection : invoicingConnection

interface InvoiceLine {}

class InvoiceItem << (R,orchid) >> {}

InvoiceLine <|.. InvoiceItem

InvoiceItem o- - Product : article

class Subtotal << (R,orchid) >> {}

InvoiceLine <|.. Subtotal
Subtotal o- - InvoiceLine

}

@enduml

PlantUML version 1.2020.06(Sun Apr 05 14:38:32 CEST 2020)
(APACHE source distribution)
Java Runtime: Java(TM) SE Runtime Environment
JVM: Java HotSpot(TM) 64-Bit Server VM
Java Version: 19+36-2238
Operating System: Mac OS X
Default Encoding: UTF-8
Language: en
Country: CH
--></g></svg>