<?xml version="1.0" encoding="UTF-8" standalone="no"?><svg xmlns="http://www.w3.org/2000/svg" xmlns:xlink="http://www.w3.org/1999/xlink" contentScriptType="application/ecmascript" contentStyleType="text/css" height="606px" preserveAspectRatio="none" style="width:748px;height:606px;" version="1.1" viewBox="0 0 748 606" width="748px" zoomAndPan="magnify"><defs><filter height="300%" id="f111x3xunx3fw" width="300%" x="-1" y="-1"><feGaussianBlur result="blurOut" stdDeviation="2.0"/><feColorMatrix in="blurOut" result="blurOut2" type="matrix" values="0 0 0 0 0 0 0 0 0 0 0 0 0 0 0 0 0 0 .4 0"/><feOffset dx="4.0" dy="4.0" in="blurOut2" result="blurOut3"/><feBlend in="SourceGraphic" in2="blurOut3" mode="normal"/></filter></defs><g><!--MD5=[665cbc95d0116b4dd6498b3c43a0207b]
class HasId--><rect fill="#FEFECE" filter="url(#f111x3xunx3fw)" height="73.9102" id="HasId" style="stroke: #A80036; stroke-width: 1.5;" width="84" x="391.5" y="8"/><ellipse cx="415.05" cy="24" fill="#B4A7E5" rx="11" ry="11" style="stroke: #A80036; stroke-width: 1.0;"/><path d="M411.4777,20.2651 L411.4777,18.1069 L418.8571,18.1069 L418.8571,20.2651 L416.3918,20.2651 L416.3918,28.3418 L418.8571,28.3418 L418.8571,30.5 L411.4777,30.5 L411.4777,28.3418 L413.9431,28.3418 L413.9431,20.2651 Z "/><text fill="#000000" font-family="sans-serif" font-size="12" font-style="italic" lengthAdjust="spacingAndGlyphs" textLength="33" x="430.95" y="28.5352">HasId</text><line style="stroke: #A80036; stroke-width: 1.5;" x1="392.5" x2="474.5" y1="40" y2="40"/><line style="stroke: #A80036; stroke-width: 1.5;" x1="392.5" x2="474.5" y1="48" y2="48"/><text fill="#000000" font-family="sans-serif" font-size="11" lengthAdjust="spacingAndGlyphs" textLength="53" x="397.5" y="62.6348">String id()</text><text fill="#000000" font-family="sans-serif" font-size="11" lengthAdjust="spacingAndGlyphs" textLength="72" x="397.5" y="75.5898">String name()</text><!--MD5=[5c3f133caf6c1583673bed073d131e65]
class HasOid--><rect fill="#FEFECE" filter="url(#f111x3xunx3fw)" height="60.9551" id="HasOid" style="stroke: #A80036; stroke-width: 1.5;" width="74" x="14.5" y="14.5"/><ellipse cx="29.5" cy="30.5" fill="#B4A7E5" rx="11" ry="11" style="stroke: #A80036; stroke-width: 1.0;"/><path d="M25.9277,26.7651 L25.9277,24.6069 L33.3071,24.6069 L33.3071,26.7651 L30.8418,26.7651 L30.8418,34.8418 L33.3071,34.8418 L33.3071,37 L25.9277,37 L25.9277,34.8418 L28.3931,34.8418 L28.3931,26.7651 Z "/><text fill="#000000" font-family="sans-serif" font-size="12" font-style="italic" lengthAdjust="spacingAndGlyphs" textLength="42" x="43.5" y="35.0352">HasOid</text><line style="stroke: #A80036; stroke-width: 1.5;" x1="15.5" x2="87.5" y1="46.5" y2="46.5"/><line style="stroke: #A80036; stroke-width: 1.5;" x1="15.5" x2="87.5" y1="54.5" y2="54.5"/><text fill="#000000" font-family="sans-serif" font-size="11" lengthAdjust="spacingAndGlyphs" textLength="52" x="20.5" y="69.1348">long oid()</text><!--MD5=[11ff0f589fa1f6bbf4eed8bce3305f20]
class HasTags--><rect fill="#FEFECE" filter="url(#f111x3xunx3fw)" height="48" id="HasTags" style="stroke: #A80036; stroke-width: 1.5;" width="82" x="123.5" y="21"/><ellipse cx="138.5" cy="37" fill="#B4A7E5" rx="11" ry="11" style="stroke: #A80036; stroke-width: 1.0;"/><path d="M134.9277,33.2651 L134.9277,31.1069 L142.3071,31.1069 L142.3071,33.2651 L139.8418,33.2651 L139.8418,41.3418 L142.3071,41.3418 L142.3071,43.5 L134.9277,43.5 L134.9277,41.3418 L137.3931,41.3418 L137.3931,33.2651 Z "/><text fill="#000000" font-family="sans-serif" font-size="12" font-style="italic" lengthAdjust="spacingAndGlyphs" textLength="50" x="152.5" y="41.5352">HasTags</text><line style="stroke: #A80036; stroke-width: 1.5;" x1="124.5" x2="204.5" y1="53" y2="53"/><line style="stroke: #A80036; stroke-width: 1.5;" x1="124.5" x2="204.5" y1="61" y2="61"/><!--MD5=[7f7d402dbd6dc33e2c7e95d34007b330]
class HasComments--><rect fill="#FEFECE" filter="url(#f111x3xunx3fw)" height="48" id="HasComments" style="stroke: #A80036; stroke-width: 1.5;" width="115" x="241" y="21"/><ellipse cx="256" cy="37" fill="#B4A7E5" rx="11" ry="11" style="stroke: #A80036; stroke-width: 1.0;"/><path d="M252.4277,33.2651 L252.4277,31.1069 L259.8071,31.1069 L259.8071,33.2651 L257.3418,33.2651 L257.3418,41.3418 L259.8071,41.3418 L259.8071,43.5 L252.4277,43.5 L252.4277,41.3418 L254.8931,41.3418 L254.8931,33.2651 Z "/><text fill="#000000" font-family="sans-serif" font-size="12" font-style="italic" lengthAdjust="spacingAndGlyphs" textLength="83" x="270" y="41.5352">HasComments</text><line style="stroke: #A80036; stroke-width: 1.5;" x1="242" x2="355" y1="53" y2="53"/><line style="stroke: #A80036; stroke-width: 1.5;" x1="242" x2="355" y1="61" y2="61"/><!--MD5=[ba41716d7d2f0d7253cd5d251c079b60]
class HasOwner--><rect fill="#FEFECE" filter="url(#f111x3xunx3fw)" height="48" id="HasOwner" style="stroke: #A80036; stroke-width: 1.5;" width="91" x="6" y="162.5"/><ellipse cx="21" cy="178.5" fill="#B4A7E5" rx="11" ry="11" style="stroke: #A80036; stroke-width: 1.0;"/><path d="M17.4277,174.7651 L17.4277,172.6069 L24.8071,172.6069 L24.8071,174.7651 L22.3418,174.7651 L22.3418,182.8418 L24.8071,182.8418 L24.8071,185 L17.4277,185 L17.4277,182.8418 L19.8931,182.8418 L19.8931,174.7651 Z "/><text fill="#000000" font-family="sans-serif" font-size="12" font-style="italic" lengthAdjust="spacingAndGlyphs" textLength="59" x="35" y="183.0352">HasOwner</text><line style="stroke: #A80036; stroke-width: 1.5;" x1="7" x2="96" y1="194.5" y2="194.5"/><line style="stroke: #A80036; stroke-width: 1.5;" x1="7" x2="96" y1="202.5" y2="202.5"/><!--MD5=[be996cdb8e6bf2fc7cb89c555f2cd144]
class Entity--><rect fill="#FEFECE" filter="url(#f111x3xunx3fw)" height="86.8652" id="Entity" style="stroke: #A80036; stroke-width: 1.5;" width="139" x="181" y="143"/><ellipse cx="230.75" cy="159" fill="#B4A7E5" rx="11" ry="11" style="stroke: #A80036; stroke-width: 1.0;"/><path d="M227.1777,155.2651 L227.1777,153.1069 L234.5571,153.1069 L234.5571,155.2651 L232.0918,155.2651 L232.0918,163.3418 L234.5571,163.3418 L234.5571,165.5 L227.1777,165.5 L227.1777,163.3418 L229.6431,163.3418 L229.6431,155.2651 Z "/><text fill="#000000" font-family="sans-serif" font-size="12" font-style="italic" lengthAdjust="spacingAndGlyphs" textLength="31" x="251.25" y="163.5352">Entity</text><line style="stroke: #A80036; stroke-width: 1.5;" x1="182" x2="319" y1="175" y2="175"/><line style="stroke: #A80036; stroke-width: 1.5;" x1="182" x2="319" y1="183" y2="183"/><ellipse cx="192" cy="194" fill="#84BE84" rx="3" ry="3" style="stroke: #038048; stroke-width: 1.0;"/><text fill="#000000" font-family="sans-serif" font-size="11" lengthAdjust="spacingAndGlyphs" textLength="64" x="201" y="197.6348">String text()</text><ellipse cx="192" cy="206.9551" fill="#84BE84" rx="3" ry="3" style="stroke: #038048; stroke-width: 1.0;"/><text fill="#000000" font-family="sans-serif" font-size="11" lengthAdjust="spacingAndGlyphs" textLength="113" x="201" y="210.5898">LocalDate fromDate()</text><ellipse cx="192" cy="219.9102" fill="#84BE84" rx="3" ry="3" style="stroke: #038048; stroke-width: 1.0;"/><text fill="#000000" font-family="sans-serif" font-size="11" lengthAdjust="spacingAndGlyphs" textLength="98" x="201" y="223.5449">LocalDate toDate()</text><!--MD5=[7b68b5db0721cbc2fd3274f626bb8a69]
class EntityImp--><rect fill="#FEFECE" filter="url(#f111x3xunx3fw)" height="48" id="EntityImp" style="stroke: #A80036; stroke-width: 1.5;" width="85" x="208" y="291"/><ellipse cx="223" cy="307" fill="#A9DCDF" rx="11" ry="11" style="stroke: #A80036; stroke-width: 1.0;"/><path d="M222.8633,302.3481 L221.7095,307.4199 L224.0254,307.4199 Z M221.3691,300.1069 L224.3657,300.1069 L227.7109,312.5 L225.2622,312.5 L224.4985,309.437 L221.2197,309.437 L220.4727,312.5 L218.0239,312.5 Z "/><text fill="#000000" font-family="sans-serif" font-size="12" font-style="italic" lengthAdjust="spacingAndGlyphs" textLength="53" x="237" y="311.5352">EntityImp</text><line style="stroke: #A80036; stroke-width: 1.5;" x1="209" x2="292" y1="323" y2="323"/><line style="stroke: #A80036; stroke-width: 1.5;" x1="209" x2="292" y1="331" y2="331"/><!--MD5=[39d6d2ea03de602dbf4d534e70c872a9]
class Tag--><rect fill="#FEFECE" filter="url(#f111x3xunx3fw)" height="54.2656" id="Tag" style="stroke: #A80036; stroke-width: 1.5;" width="78" x="211.5" y="541"/><ellipse cx="226.5" cy="560.1328" fill="#ADD1B2" rx="11" ry="11" style="stroke: #A80036; stroke-width: 1.0;"/><path d="M228.9731,566.2759 Q228.3921,566.5747 227.7529,566.7241 Q227.1138,566.8735 226.4082,566.8735 Q223.9014,566.8735 222.5815,565.2217 Q221.2617,563.5698 221.2617,560.4487 Q221.2617,557.3193 222.5815,555.6675 Q223.9014,554.0156 226.4082,554.0156 Q227.1138,554.0156 227.7612,554.165 Q228.4087,554.3145 228.9731,554.6133 L228.9731,557.3359 Q228.3423,556.7549 227.7488,556.4851 Q227.1553,556.2153 226.5244,556.2153 Q225.1797,556.2153 224.4949,557.282 Q223.8101,558.3486 223.8101,560.4487 Q223.8101,562.5405 224.4949,563.6072 Q225.1797,564.6738 226.5244,564.6738 Q227.1553,564.6738 227.7488,564.4041 Q228.3423,564.1343 228.9731,563.5532 Z "/><text fill="#000000" font-family="sans-serif" font-size="12" font-style="italic" lengthAdjust="spacingAndGlyphs" textLength="50" x="238.5" y="557.6016">«record»</text><text fill="#000000" font-family="sans-serif" font-size="12" lengthAdjust="spacingAndGlyphs" textLength="22" x="252.5" y="571.7344">Tag</text><line style="stroke: #A80036; stroke-width: 1.5;" x1="212.5" x2="288.5" y1="579.2656" y2="579.2656"/><line style="stroke: #A80036; stroke-width: 1.5;" x1="212.5" x2="288.5" y1="587.2656" y2="587.2656"/><!--MD5=[042fa140da40c49659127f611bcff931]
class Comment--><rect fill="#FEFECE" filter="url(#f111x3xunx3fw)" height="48" id="Comment" style="stroke: #A80036; stroke-width: 1.5;" width="87" x="286" y="416"/><ellipse cx="301" cy="432" fill="#ADD1B2" rx="11" ry="11" style="stroke: #A80036; stroke-width: 1.0;"/><path d="M303.4731,438.1431 Q302.8921,438.4419 302.2529,438.5913 Q301.6138,438.7407 300.9082,438.7407 Q298.4014,438.7407 297.0815,437.0889 Q295.7617,435.437 295.7617,432.3159 Q295.7617,429.1865 297.0815,427.5347 Q298.4014,425.8828 300.9082,425.8828 Q301.6138,425.8828 302.2612,426.0322 Q302.9087,426.1816 303.4731,426.4805 L303.4731,429.2031 Q302.8423,428.6221 302.2488,428.3523 Q301.6553,428.0825 301.0244,428.0825 Q299.6797,428.0825 298.9949,429.1492 Q298.3101,430.2158 298.3101,432.3159 Q298.3101,434.4077 298.9949,435.4744 Q299.6797,436.541 301.0244,436.541 Q301.6553,436.541 302.2488,436.2712 Q302.8423,436.0015 303.4731,435.4204 Z "/><text fill="#000000" font-family="sans-serif" font-size="12" lengthAdjust="spacingAndGlyphs" textLength="55" x="315" y="436.5352">Comment</text><line style="stroke: #A80036; stroke-width: 1.5;" x1="287" x2="372" y1="448" y2="448"/><line style="stroke: #A80036; stroke-width: 1.5;" x1="287" x2="372" y1="456" y2="456"/><!--MD5=[0f39e4cb6f03951afbf6d14bd2505654]
class Address--><rect fill="#FEFECE" filter="url(#f111x3xunx3fw)" height="48" id="Address" style="stroke: #A80036; stroke-width: 1.5;" width="80" x="510.5" y="21"/><ellipse cx="525.5" cy="37" fill="#DA70D6" rx="11" ry="11" style="stroke: #A80036; stroke-width: 1.0;"/><path d="M526.1987,37.6479 Q526.564,37.7227 526.8337,37.9924 Q527.1035,38.2622 527.4937,39.0425 L529.7349,43.5 L527.0454,43.5 L525.5513,40.3706 Q525.4849,40.2378 525.377,40.0054 Q524.7212,38.6025 523.833,38.6025 L523.0527,38.6025 L523.0527,43.5 L520.604,43.5 L520.604,31.1069 L524.1401,31.1069 Q526.5308,31.1069 527.5725,31.9536 Q528.6143,32.8003 528.6143,34.7095 Q528.6143,35.9878 527.9917,36.7432 Q527.3691,37.4985 526.1987,37.6479 Z M523.0527,33.1655 L523.0527,36.5439 L524.2065,36.5439 Q525.2109,36.5439 525.6467,36.1497 Q526.0825,35.7554 526.0825,34.8506 Q526.0825,33.9458 525.6509,33.5557 Q525.2192,33.1655 524.2065,33.1655 Z "/><text fill="#000000" font-family="sans-serif" font-size="12" lengthAdjust="spacingAndGlyphs" textLength="48" x="539.5" y="41.5352">Address</text><line style="stroke: #A80036; stroke-width: 1.5;" x1="511.5" x2="589.5" y1="53" y2="53"/><line style="stroke: #A80036; stroke-width: 1.5;" x1="511.5" x2="589.5" y1="61" y2="61"/><!--MD5=[6a10e9b103e375a5f698786d329ce000]
class EmailAddress--><rect fill="#FEFECE" filter="url(#f111x3xunx3fw)" height="48" id="EmailAddress" style="stroke: #A80036; stroke-width: 1.5;" width="111" x="626" y="21"/><ellipse cx="641" cy="37" fill="#DA70D6" rx="11" ry="11" style="stroke: #A80036; stroke-width: 1.0;"/><path d="M641.6987,37.6479 Q642.064,37.7227 642.3337,37.9924 Q642.6035,38.2622 642.9937,39.0425 L645.2349,43.5 L642.5454,43.5 L641.0513,40.3706 Q640.9849,40.2378 640.877,40.0054 Q640.2212,38.6025 639.333,38.6025 L638.5527,38.6025 L638.5527,43.5 L636.104,43.5 L636.104,31.1069 L639.6401,31.1069 Q642.0308,31.1069 643.0725,31.9536 Q644.1143,32.8003 644.1143,34.7095 Q644.1143,35.9878 643.4917,36.7432 Q642.8691,37.4985 641.6987,37.6479 Z M638.5527,33.1655 L638.5527,36.5439 L639.7065,36.5439 Q640.7109,36.5439 641.1467,36.1497 Q641.5825,35.7554 641.5825,34.8506 Q641.5825,33.9458 641.1509,33.5557 Q640.7192,33.1655 639.7065,33.1655 Z "/><text fill="#000000" font-family="sans-serif" font-size="12" lengthAdjust="spacingAndGlyphs" textLength="79" x="655" y="41.5352">EmailAddress</text><line style="stroke: #A80036; stroke-width: 1.5;" x1="627" x2="736" y1="53" y2="53"/><line style="stroke: #A80036; stroke-width: 1.5;" x1="627" x2="736" y1="61" y2="61"/><!--MD5=[7fbb7dca82cdd94d0467b977216838cc]
reverse link HasOid to HasOwner--><path d="M51.5,97.28 C51.5,119.5 51.5,144.41 51.5,162.08 " fill="none" id="HasOid&lt;-HasOwner" style="stroke: #A80036; stroke-width: 1.0; stroke-dasharray: 7.0,7.0;"/><polygon fill="none" points="44.5,97.44,51.5,77.44,58.5,97.44,44.5,97.44" style="stroke: #A80036; stroke-width: 1.0;"/><!--MD5=[6406ca1aa2377af7f7fbaa6b6b8c51eb]
reverse link HasOid to Entity--><path d="M106.26,84.38 C132.03,102.45 162.85,124.06 189.38,142.65 " fill="none" id="HasOid&lt;-Entity" style="stroke: #A80036; stroke-width: 1.0; stroke-dasharray: 7.0,7.0;"/><polygon fill="none" points="102.53,90.32,90.17,73.11,110.56,78.86,102.53,90.32" style="stroke: #A80036; stroke-width: 1.0;"/><!--MD5=[d4da43e81ee485e06fa303d4f0eecb13]
reverse link HasId to Entity--><path d="M374.01,91.35 C352.35,107.86 327.94,126.46 306.59,142.74 " fill="none" id="HasId&lt;-Entity" style="stroke: #A80036; stroke-width: 1.0; stroke-dasharray: 7.0,7.0;"/><polygon fill="none" points="369.7,85.83,389.85,79.27,378.19,96.96,369.7,85.83" style="stroke: #A80036; stroke-width: 1.0;"/><!--MD5=[89e24689c9e8735808c95c1be60b29ab]
reverse link HasTags to Entity--><path d="M190.07,87.48 C200.79,104.87 213.24,125.07 224.05,142.6 " fill="none" id="HasTags&lt;-Entity" style="stroke: #A80036; stroke-width: 1.0; stroke-dasharray: 7.0,7.0;"/><polygon fill="none" points="184.23,91.34,179.69,70.64,196.14,83.99,184.23,91.34" style="stroke: #A80036; stroke-width: 1.0;"/><!--MD5=[d0ecb9ed01e635769560b7aba624129a]
reverse link HasComments to Entity--><path d="M283.55,89.46 C277.72,106.38 271.07,125.73 265.26,142.6 " fill="none" id="HasComments&lt;-Entity" style="stroke: #A80036; stroke-width: 1.0; stroke-dasharray: 7.0,7.0;"/><polygon fill="none" points="276.85,87.41,289.97,70.78,290.09,91.97,276.85,87.41" style="stroke: #A80036; stroke-width: 1.0;"/><!--MD5=[3f7fae4a497336e5ca7c82e6829d9890]
reverse link EntityImp to Tag--><path d="M245.37,353.64 C243.08,372.35 240.63,395.32 239.5,416 C237.1,459.7 242.48,510.43 246.53,540.56 " fill="none" id="EntityImp&lt;-Tag" style="stroke: #A80036; stroke-width: 1.0;"/><polygon fill="#A80036" points="247,340.88,242.2741,346.3266,245.484,352.7839,250.21,347.3373,247,340.88" style="stroke: #A80036; stroke-width: 1.0;"/><text fill="#000000" font-family="sans-serif" font-size="13" lengthAdjust="spacingAndGlyphs" textLength="27" x="240.5" y="445.0684">tags</text><!--MD5=[1589c46762df73cea70262ca4ea8f775]
reverse link EntityImp to Comment--><path d="M273.33,351.54 C286.57,372.17 302.88,397.56 314.51,415.66 " fill="none" id="EntityImp&lt;-Comment" style="stroke: #A80036; stroke-width: 1.0;"/><polygon fill="#A80036" points="266.36,340.7,266.237,347.9101,272.8451,350.7967,272.9681,343.5867,266.36,340.7" style="stroke: #A80036; stroke-width: 1.0;"/><text fill="#000000" font-family="sans-serif" font-size="13" lengthAdjust="spacingAndGlyphs" textLength="66" x="296.5" y="382.5684">comments</text><!--MD5=[7a3ccfc03e4c77249eb50abbcd487329]
reverse link Entity to EntityImp--><path d="M250.5,251.39 C250.5,265.49 250.5,279.54 250.5,290.75 " fill="none" id="Entity&lt;-EntityImp" style="stroke: #A80036; stroke-width: 1.0; stroke-dasharray: 7.0,7.0;"/><polygon fill="none" points="243.5,251.84,250.5,231.84,257.5,251.84,243.5,251.84" style="stroke: #A80036; stroke-width: 1.0;"/><!--MD5=[1e9dfcc51ae9c291d835d3c0476a3908]
reverse link Comment to Tag--><path d="M307.13,476.68 C294.37,497.03 278.64,522.11 267.01,540.67 " fill="none" id="Comment&lt;-Tag" style="stroke: #A80036; stroke-width: 1.0;"/><polygon fill="#A80036" points="314.02,465.69,307.4422,468.645,307.6399,475.8534,314.2177,472.8984,314.02,465.69" style="stroke: #A80036; stroke-width: 1.0;"/><text fill="#000000" font-family="sans-serif" font-size="13" lengthAdjust="spacingAndGlyphs" textLength="27" x="296.5" y="507.5684">tags</text><!--MD5=[ec460e60cefc426c15e39a7af5fc96bc]
@startuml

interface HasId {
    String id()
    String name()
}

interface HasOid {
    long oid()
}

interface HasTags {}

interface HasComments {}

interface HasOwner {}

HasOid <|.. HasOwner

interface Entity {
    + String text()
    + LocalDate fromDate()
    + LocalDate toDate()
}

HasOid <|.. Entity
HasId <|.. Entity
HasTags <|.. Entity
HasComments <|.. Entity

abstract class EntityImp {}

EntityImp *- - Tag : tags
EntityImp *- - Comment : comments

Entity <|.. EntityImp

class Address << (R,orchid) >>

class Tag <<record>>

class Comment {}

Comment *- - Tag : tags

class EmailAddress << (R,orchid) >>

@enduml

PlantUML version 1.2020.06(Sun Apr 05 14:38:32 CEST 2020)
(APACHE source distribution)
Java Runtime: Java(TM) SE Runtime Environment
JVM: Java HotSpot(TM) 64-Bit Server VM
Java Version: 19.0.1+10-21
Operating System: Mac OS X
Default Encoding: UTF-8
Language: en
Country: CH
--></g></svg>