<?xml version="1.0" encoding="UTF-8" standalone="no"?><svg xmlns="http://www.w3.org/2000/svg" xmlns:xlink="http://www.w3.org/1999/xlink" contentScriptType="application/ecmascript" contentStyleType="text/css" height="291px" preserveAspectRatio="none" style="width:359px;height:291px;" version="1.1" viewBox="0 0 359 291" width="359px" zoomAndPan="magnify"><defs><filter height="300%" id="f167j93mru9m3p" width="300%" x="-1" y="-1"><feGaussianBlur result="blurOut" stdDeviation="2.0"/><feColorMatrix in="blurOut" result="blurOut2" type="matrix" values="0 0 0 0 0 0 0 0 0 0 0 0 0 0 0 0 0 0 .4 0"/><feOffset dx="4.0" dy="4.0" in="blurOut2" result="blurOut3"/><feBlend in="SourceGraphic" in2="blurOut3" mode="normal"/></filter></defs><g><!--MD5=[ba580110b1777f63e0f1dfe3fcefdac0]
class Code--><rect fill="#FEFECE" filter="url(#f167j93mru9m3p)" height="86.8652" id="Code" style="stroke: #A80036; stroke-width: 1.5;" width="117" x="6" y="194"/><ellipse cx="45.75" cy="210" fill="#B4A7E5" rx="11" ry="11" style="stroke: #A80036; stroke-width: 1.0;"/><path d="M42.1777,206.2651 L42.1777,204.1069 L49.5571,204.1069 L49.5571,206.2651 L47.0918,206.2651 L47.0918,214.3418 L49.5571,214.3418 L49.5571,216.5 L42.1777,216.5 L42.1777,214.3418 L44.6431,214.3418 L44.6431,206.2651 Z "/><text fill="#000000" font-family="sans-serif" font-size="12" font-style="italic" lengthAdjust="spacingAndGlyphs" textLength="30" x="65.25" y="214.5352">Code</text><line style="stroke: #A80036; stroke-width: 1.5;" x1="7" x2="122" y1="226" y2="226"/><line style="stroke: #A80036; stroke-width: 1.5;" x1="7" x2="122" y1="234" y2="234"/><text fill="#000000" font-family="sans-serif" font-size="11" lengthAdjust="spacingAndGlyphs" textLength="35" x="12" y="248.6348">int id()</text><text fill="#000000" font-family="sans-serif" font-size="11" lengthAdjust="spacingAndGlyphs" textLength="69" x="12" y="261.5898">String code()</text><text fill="#000000" font-family="sans-serif" font-size="11" lengthAdjust="spacingAndGlyphs" textLength="105" x="12" y="274.5449">boolean isEnabled()</text><!--MD5=[de9416bdeebf90cfdf3e7497a3fd46ee]
class CodeType--><rect fill="#FEFECE" filter="url(#f167j93mru9m3p)" height="125.7305" id="CodeType" style="stroke: #A80036; stroke-width: 1.5;" width="204" x="141.5" y="8"/><ellipse cx="164.15" cy="24" fill="#ADD1B2" rx="11" ry="11" style="stroke: #A80036; stroke-width: 1.0;"/><path d="M166.6231,30.1431 Q166.0421,30.4419 165.4029,30.5913 Q164.7638,30.7407 164.0582,30.7407 Q161.5514,30.7407 160.2315,29.0889 Q158.9117,27.437 158.9117,24.3159 Q158.9117,21.1865 160.2315,19.5347 Q161.5514,17.8828 164.0582,17.8828 Q164.7638,17.8828 165.4112,18.0322 Q166.0587,18.1816 166.6231,18.4805 L166.6231,21.2031 Q165.9923,20.6221 165.3988,20.3523 Q164.8053,20.0825 164.1744,20.0825 Q162.8297,20.0825 162.1449,21.1492 Q161.4601,22.2158 161.4601,24.3159 Q161.4601,26.4077 162.1449,27.4744 Q162.8297,28.541 164.1744,28.541 Q164.8053,28.541 165.3988,28.2712 Q165.9923,28.0015 166.6231,27.4204 Z "/><text fill="#000000" font-family="sans-serif" font-size="12" lengthAdjust="spacingAndGlyphs" textLength="59" x="179.85" y="28.5352">CodeType</text><rect fill="#FFFFFF" height="16.1328" style="stroke: #000000; stroke-width: 1.0; stroke-dasharray: 2.0,2.0;" width="94" x="254.5" y="5"/><text fill="#000000" font-family="sans-serif" font-size="12" font-style="italic" lengthAdjust="spacingAndGlyphs" textLength="92" x="255.5" y="17.6016">T extends Code</text><line style="stroke: #A80036; stroke-width: 1.5;" x1="142.5" x2="344.5" y1="40" y2="40"/><line style="stroke: #A80036; stroke-width: 1.5;" x1="142.5" x2="344.5" y1="48" y2="48"/><text fill="#000000" font-family="sans-serif" font-size="11" lengthAdjust="spacingAndGlyphs" textLength="92" x="147.5" y="62.6348">Class&lt;T&gt; clazz()</text><text fill="#000000" font-family="sans-serif" font-size="11" lengthAdjust="spacingAndGlyphs" textLength="87" x="147.5" y="75.5898">List&lt;T&gt; codes()</text><text fill="#000000" font-family="sans-serif" font-size="11" lengthAdjust="spacingAndGlyphs" textLength="120" x="147.5" y="88.5449">List&lt;T&gt; activeCodes()</text><text fill="#000000" font-family="sans-serif" font-size="11" lengthAdjust="spacingAndGlyphs" textLength="130" x="147.5" y="101.5">List&lt;T&gt; inactiveCodes()</text><text fill="#000000" font-family="sans-serif" font-size="11" lengthAdjust="spacingAndGlyphs" textLength="158" x="147.5" y="114.4551">Optional&lt;T&gt; findCode(int id)</text><text fill="#000000" font-family="sans-serif" font-size="11" lengthAdjust="spacingAndGlyphs" textLength="192" x="147.5" y="127.4102">Optional&lt;T&gt; findCode(String code)</text><!--MD5=[8b1040893494e36093942af897b10866]
class CodeImp--><rect fill="#FEFECE" filter="url(#f167j93mru9m3p)" height="48" id="CodeImp" style="stroke: #A80036; stroke-width: 1.5;" width="84" x="22.5" y="47"/><ellipse cx="37.5" cy="63" fill="#ADD1B2" rx="11" ry="11" style="stroke: #A80036; stroke-width: 1.0;"/><path d="M39.9731,69.1431 Q39.3921,69.4419 38.7529,69.5913 Q38.1138,69.7407 37.4082,69.7407 Q34.9014,69.7407 33.5815,68.0889 Q32.2617,66.437 32.2617,63.3159 Q32.2617,60.1865 33.5815,58.5347 Q34.9014,56.8828 37.4082,56.8828 Q38.1138,56.8828 38.7612,57.0322 Q39.4087,57.1816 39.9731,57.4805 L39.9731,60.2031 Q39.3423,59.6221 38.7488,59.3523 Q38.1553,59.0825 37.5244,59.0825 Q36.1797,59.0825 35.4949,60.1492 Q34.8101,61.2158 34.8101,63.3159 Q34.8101,65.4077 35.4949,66.4744 Q36.1797,67.541 37.5244,67.541 Q38.1553,67.541 38.7488,67.2712 Q39.3423,67.0015 39.9731,66.4204 Z "/><text fill="#000000" font-family="sans-serif" font-size="12" lengthAdjust="spacingAndGlyphs" textLength="52" x="51.5" y="67.5352">CodeImp</text><line style="stroke: #A80036; stroke-width: 1.5;" x1="23.5" x2="105.5" y1="79" y2="79"/><line style="stroke: #A80036; stroke-width: 1.5;" x1="23.5" x2="105.5" y1="87" y2="87"/><!--MD5=[ea31053b2e7b7d085351bf5cc565dd19]
reverse link CodeImp to Code--><path d="M64.5,116.57 C64.5,140.55 64.5,169.98 64.5,193.68 " fill="none" id="CodeImp&lt;-Code" style="stroke: #A80036; stroke-width: 1.0;"/><polygon fill="none" points="57.5,116.73,64.5,96.73,71.5,116.73,57.5,116.73" style="stroke: #A80036; stroke-width: 1.0;"/><!--MD5=[a4a32c5c40fef2c3ca758714c3dbcf5c]
@startuml

interface Code {
    int id()
    String code()
    boolean isEnabled()
}

class CodeType <T extends Code> {
    Class<T> clazz()
    List<T> codes()
    List<T> activeCodes()
    List<T> inactiveCodes()
    Optional<T> findCode(int id)
    Optional<T> findCode(String code)
}

class CodeImp {}

CodeImp <|- - Code

@enduml

PlantUML version 1.2020.06(Sun Apr 05 14:38:32 CEST 2020)
(APACHE source distribution)
Java Runtime: Java(TM) SE Runtime Environment
JVM: Java HotSpot(TM) 64-Bit Server VM
Java Version: 19.0.1+10-21
Operating System: Mac OS X
Default Encoding: UTF-8
Language: en
Country: CH
--></g></svg>