<?xml version="1.0" encoding="UTF-8" standalone="no"?><svg xmlns="http://www.w3.org/2000/svg" xmlns:xlink="http://www.w3.org/1999/xlink" contentScriptType="application/ecmascript" contentStyleType="text/css" height="192px" preserveAspectRatio="none" style="width:293px;height:192px;" version="1.1" viewBox="0 0 293 192" width="293px" zoomAndPan="magnify"><defs><filter height="300%" id="fpyekn2j9i4id" width="300%" x="-1" y="-1"><feGaussianBlur result="blurOut" stdDeviation="2.0"/><feColorMatrix in="blurOut" result="blurOut2" type="matrix" values="0 0 0 0 0 0 0 0 0 0 0 0 0 0 0 0 0 0 .4 0"/><feOffset dx="4.0" dy="4.0" in="blurOut2" result="blurOut3"/><feBlend in="SourceGraphic" in2="blurOut3" mode="normal"/></filter></defs><g><!--MD5=[5fa6ccb4ec81c0c0a56c41a3d3f55464]
class AccountEntry--><rect fill="#FEFECE" filter="url(#fpyekn2j9i4id)" height="48" id="AccountEntry" style="stroke: #A80036; stroke-width: 1.5;" width="106" x="6" y="8"/><ellipse cx="21" cy="24" fill="#ADD1B2" rx="11" ry="11" style="stroke: #A80036; stroke-width: 1.0;"/><path d="M23.4731,30.1431 Q22.8921,30.4419 22.2529,30.5913 Q21.6138,30.7407 20.9082,30.7407 Q18.4014,30.7407 17.0815,29.0889 Q15.7617,27.437 15.7617,24.3159 Q15.7617,21.1865 17.0815,19.5347 Q18.4014,17.8828 20.9082,17.8828 Q21.6138,17.8828 22.2612,18.0322 Q22.9087,18.1816 23.4731,18.4805 L23.4731,21.2031 Q22.8423,20.6221 22.2488,20.3523 Q21.6553,20.0825 21.0244,20.0825 Q19.6797,20.0825 18.9949,21.1492 Q18.3101,22.2158 18.3101,24.3159 Q18.3101,26.4077 18.9949,27.4744 Q19.6797,28.541 21.0244,28.541 Q21.6553,28.541 22.2488,28.2712 Q22.8423,28.0015 23.4731,27.4204 Z "/><text fill="#000000" font-family="sans-serif" font-size="12" lengthAdjust="spacingAndGlyphs" textLength="74" x="35" y="28.5352">AccountEntry</text><line style="stroke: #A80036; stroke-width: 1.5;" x1="7" x2="111" y1="40" y2="40"/><line style="stroke: #A80036; stroke-width: 1.5;" x1="7" x2="111" y1="48" y2="48"/><!--MD5=[4555bb1b0911a5adf28ce6dbe60fed2e]
class Transaction--><rect fill="#FEFECE" filter="url(#fpyekn2j9i4id)" height="48" id="Transaction" style="stroke: #A80036; stroke-width: 1.5;" width="99" x="71.5" y="133"/><ellipse cx="86.5" cy="149" fill="#ADD1B2" rx="11" ry="11" style="stroke: #A80036; stroke-width: 1.0;"/><path d="M88.9731,155.1431 Q88.3921,155.4419 87.7529,155.5913 Q87.1138,155.7407 86.4082,155.7407 Q83.9014,155.7407 82.5815,154.0889 Q81.2617,152.437 81.2617,149.3159 Q81.2617,146.1865 82.5815,144.5347 Q83.9014,142.8828 86.4082,142.8828 Q87.1138,142.8828 87.7612,143.0322 Q88.4087,143.1816 88.9731,143.4805 L88.9731,146.2031 Q88.3423,145.6221 87.7488,145.3523 Q87.1553,145.0825 86.5244,145.0825 Q85.1797,145.0825 84.4949,146.1492 Q83.8101,147.2158 83.8101,149.3159 Q83.8101,151.4077 84.4949,152.4744 Q85.1797,153.541 86.5244,153.541 Q87.1553,153.541 87.7488,153.2712 Q88.3423,153.0015 88.9731,152.4204 Z "/><text fill="#000000" font-family="sans-serif" font-size="12" lengthAdjust="spacingAndGlyphs" textLength="67" x="100.5" y="153.5352">Transaction</text><line style="stroke: #A80036; stroke-width: 1.5;" x1="72.5" x2="169.5" y1="165" y2="165"/><line style="stroke: #A80036; stroke-width: 1.5;" x1="72.5" x2="169.5" y1="173" y2="173"/><!--MD5=[f9a29335b499db729be669fd1bd54958]
class Account--><rect fill="#FEFECE" filter="url(#fpyekn2j9i4id)" height="48" id="Account" style="stroke: #A80036; stroke-width: 1.5;" width="77" x="205.5" y="133"/><ellipse cx="220.5" cy="149" fill="#ADD1B2" rx="11" ry="11" style="stroke: #A80036; stroke-width: 1.0;"/><path d="M222.9731,155.1431 Q222.3921,155.4419 221.7529,155.5913 Q221.1138,155.7407 220.4082,155.7407 Q217.9014,155.7407 216.5815,154.0889 Q215.2617,152.437 215.2617,149.3159 Q215.2617,146.1865 216.5815,144.5347 Q217.9014,142.8828 220.4082,142.8828 Q221.1138,142.8828 221.7612,143.0322 Q222.4087,143.1816 222.9731,143.4805 L222.9731,146.2031 Q222.3423,145.6221 221.7488,145.3523 Q221.1553,145.0825 220.5244,145.0825 Q219.1797,145.0825 218.4949,146.1492 Q217.8101,147.2158 217.8101,149.3159 Q217.8101,151.4077 218.4949,152.4744 Q219.1797,153.541 220.5244,153.541 Q221.1553,153.541 221.7488,153.2712 Q222.3423,153.0015 222.9731,152.4204 Z "/><text fill="#000000" font-family="sans-serif" font-size="12" lengthAdjust="spacingAndGlyphs" textLength="45" x="234.5" y="153.5352">Account</text><line style="stroke: #A80036; stroke-width: 1.5;" x1="206.5" x2="281.5" y1="165" y2="165"/><line style="stroke: #A80036; stroke-width: 1.5;" x1="206.5" x2="281.5" y1="173" y2="173"/><!--MD5=[c2c49fb88d93ed19488b675712d5736a]
class Ledger--><rect fill="#FEFECE" filter="url(#fpyekn2j9i4id)" height="48" id="Ledger" style="stroke: #A80036; stroke-width: 1.5;" width="72" x="147" y="8"/><ellipse cx="162" cy="24" fill="#ADD1B2" rx="11" ry="11" style="stroke: #A80036; stroke-width: 1.0;"/><path d="M164.4731,30.1431 Q163.8921,30.4419 163.2529,30.5913 Q162.6138,30.7407 161.9082,30.7407 Q159.4014,30.7407 158.0815,29.0889 Q156.7617,27.437 156.7617,24.3159 Q156.7617,21.1865 158.0815,19.5347 Q159.4014,17.8828 161.9082,17.8828 Q162.6138,17.8828 163.2612,18.0322 Q163.9087,18.1816 164.4731,18.4805 L164.4731,21.2031 Q163.8423,20.6221 163.2488,20.3523 Q162.6553,20.0825 162.0244,20.0825 Q160.6797,20.0825 159.9949,21.1492 Q159.3101,22.2158 159.3101,24.3159 Q159.3101,26.4077 159.9949,27.4744 Q160.6797,28.541 162.0244,28.541 Q162.6553,28.541 163.2488,28.2712 Q163.8423,28.0015 164.4731,27.4204 Z "/><text fill="#000000" font-family="sans-serif" font-size="12" lengthAdjust="spacingAndGlyphs" textLength="40" x="176" y="28.5352">Ledger</text><line style="stroke: #A80036; stroke-width: 1.5;" x1="148" x2="218" y1="40" y2="40"/><line style="stroke: #A80036; stroke-width: 1.5;" x1="148" x2="218" y1="48" y2="48"/><!--MD5=[b571fe7e33ec46b5c940279aec00651f]
reverse link Ledger to Account--><path d="M201.06,69.42 C211.21,89.88 223.58,114.82 232.43,132.66 " fill="none" id="Ledger&lt;-Account" style="stroke: #A80036; stroke-width: 1.0;"/><polygon fill="#A80036" points="195.29,57.78,194.371,64.9323,200.6196,68.5315,201.5386,61.3792,195.29,57.78" style="stroke: #A80036; stroke-width: 1.0;"/><text fill="#000000" font-family="sans-serif" font-size="13" lengthAdjust="spacingAndGlyphs" textLength="57" x="218" y="99.5684">accounts</text><!--MD5=[cedfd05010d6cef9033e64bc4a9c0edc]
reverse link Ledger to Transaction--><path d="M135.94,64.99 C129.89,71.22 124.57,78.26 121,86 C114.34,100.46 114.49,118.45 116.23,132.57 " fill="none" id="Ledger&lt;-Transaction" style="stroke: #A80036; stroke-width: 1.0;"/><polygon fill="#A80036" points="145.51,56.3,138.3782,57.3663,136.6194,64.3596,143.7512,63.2933,145.51,56.3" style="stroke: #A80036; stroke-width: 1.0;"/><text fill="#000000" font-family="sans-serif" font-size="13" lengthAdjust="spacingAndGlyphs" textLength="78" x="122" y="99.5684">transactions</text><!--MD5=[d80c86f5eb1ed7d26172313a4e00dd35]
@startuml

class AccountEntry {}

class Transaction {}

class Account {}

class Ledger {}

Ledger *- - Account : accounts
Ledger *- - Transaction : transactions

@enduml

PlantUML version 1.2020.06(Sun Apr 05 14:38:32 CEST 2020)
(APACHE source distribution)
Java Runtime: Java(TM) SE Runtime Environment
JVM: Java HotSpot(TM) 64-Bit Server VM
Java Version: 19.0.1+10-21
Operating System: Mac OS X
Default Encoding: UTF-8
Language: en
Country: CH
--></g></svg>