<?xml version="1.0" encoding="UTF-8" standalone="no"?><svg xmlns="http://www.w3.org/2000/svg" xmlns:xlink="http://www.w3.org/1999/xlink" contentScriptType="application/ecmascript" contentStyleType="text/css" height="175px" preserveAspectRatio="none" style="width:213px;height:175px;" version="1.1" viewBox="0 0 213 175" width="213px" zoomAndPan="magnify"><defs><filter height="300%" id="f8ludkjjpb24j" width="300%" x="-1" y="-1"><feGaussianBlur result="blurOut" stdDeviation="2.0"/><feColorMatrix in="blurOut" result="blurOut2" type="matrix" values="0 0 0 0 0 0 0 0 0 0 0 0 0 0 0 0 0 0 .4 0"/><feOffset dx="4.0" dy="4.0" in="blurOut2" result="blurOut3"/><feBlend in="SourceGraphic" in2="blurOut3" mode="normal"/></filter></defs><g><!--MD5=[c2297e0e1f3936ff8f88cae54d25be61]
class Assignment--><rect fill="#FEFECE" filter="url(#f8ludkjjpb24j)" height="48" id="Assignment" style="stroke: #A80036; stroke-width: 1.5;" width="98" x="6" y="8"/><ellipse cx="21" cy="24" fill="#ADD1B2" rx="11" ry="11" style="stroke: #A80036; stroke-width: 1.0;"/><path d="M23.4731,30.1431 Q22.8921,30.4419 22.2529,30.5913 Q21.6138,30.7407 20.9082,30.7407 Q18.4014,30.7407 17.0815,29.0889 Q15.7617,27.437 15.7617,24.3159 Q15.7617,21.1865 17.0815,19.5347 Q18.4014,17.8828 20.9082,17.8828 Q21.6138,17.8828 22.2612,18.0322 Q22.9087,18.1816 23.4731,18.4805 L23.4731,21.2031 Q22.8423,20.6221 22.2488,20.3523 Q21.6553,20.0825 21.0244,20.0825 Q19.6797,20.0825 18.9949,21.1492 Q18.3101,22.2158 18.3101,24.3159 Q18.3101,26.4077 18.9949,27.4744 Q19.6797,28.541 21.0244,28.541 Q21.6553,28.541 22.2488,28.2712 Q22.8423,28.0015 23.4731,27.4204 Z "/><text fill="#000000" font-family="sans-serif" font-size="12" lengthAdjust="spacingAndGlyphs" textLength="66" x="35" y="28.5352">Assignment</text><line style="stroke: #A80036; stroke-width: 1.5;" x1="7" x2="103" y1="40" y2="40"/><line style="stroke: #A80036; stroke-width: 1.5;" x1="7" x2="103" y1="48" y2="48"/><!--MD5=[080644355308ed9fb5a9e7f6ec59b4fe]
class Effort--><rect fill="#FEFECE" filter="url(#f8ludkjjpb24j)" height="48" id="Effort" style="stroke: #A80036; stroke-width: 1.5;" width="63" x="139.5" y="8"/><ellipse cx="154.5" cy="24" fill="#ADD1B2" rx="11" ry="11" style="stroke: #A80036; stroke-width: 1.0;"/><path d="M156.9731,30.1431 Q156.3921,30.4419 155.7529,30.5913 Q155.1138,30.7407 154.4082,30.7407 Q151.9014,30.7407 150.5815,29.0889 Q149.2617,27.437 149.2617,24.3159 Q149.2617,21.1865 150.5815,19.5347 Q151.9014,17.8828 154.4082,17.8828 Q155.1138,17.8828 155.7612,18.0322 Q156.4087,18.1816 156.9731,18.4805 L156.9731,21.2031 Q156.3423,20.6221 155.7488,20.3523 Q155.1553,20.0825 154.5244,20.0825 Q153.1797,20.0825 152.4949,21.1492 Q151.8101,22.2158 151.8101,24.3159 Q151.8101,26.4077 152.4949,27.4744 Q153.1797,28.541 154.5244,28.541 Q155.1553,28.541 155.7488,28.2712 Q156.3423,28.0015 156.9731,27.4204 Z "/><text fill="#000000" font-family="sans-serif" font-size="12" lengthAdjust="spacingAndGlyphs" textLength="31" x="168.5" y="28.5352">Effort</text><line style="stroke: #A80036; stroke-width: 1.5;" x1="140.5" x2="201.5" y1="40" y2="40"/><line style="stroke: #A80036; stroke-width: 1.5;" x1="140.5" x2="201.5" y1="48" y2="48"/><!--MD5=[79d378210367c0c6ec62ef762ddfbd1b]
class Project--><rect fill="#FEFECE" filter="url(#f8ludkjjpb24j)" height="48" id="Project" style="stroke: #A80036; stroke-width: 1.5;" width="72" x="19" y="116"/><ellipse cx="34" cy="132" fill="#ADD1B2" rx="11" ry="11" style="stroke: #A80036; stroke-width: 1.0;"/><path d="M36.4731,138.1431 Q35.8921,138.4419 35.2529,138.5913 Q34.6138,138.7407 33.9082,138.7407 Q31.4014,138.7407 30.0815,137.0889 Q28.7617,135.437 28.7617,132.3159 Q28.7617,129.1865 30.0815,127.5347 Q31.4014,125.8828 33.9082,125.8828 Q34.6138,125.8828 35.2612,126.0322 Q35.9087,126.1816 36.4731,126.4805 L36.4731,129.2031 Q35.8423,128.6221 35.2488,128.3523 Q34.6553,128.0825 34.0244,128.0825 Q32.6797,128.0825 31.9949,129.1492 Q31.3101,130.2158 31.3101,132.3159 Q31.3101,134.4077 31.9949,135.4744 Q32.6797,136.541 34.0244,136.541 Q34.6553,136.541 35.2488,136.2712 Q35.8423,136.0015 36.4731,135.4204 Z "/><text fill="#000000" font-family="sans-serif" font-size="12" lengthAdjust="spacingAndGlyphs" textLength="40" x="48" y="136.5352">Project</text><line style="stroke: #A80036; stroke-width: 1.5;" x1="20" x2="90" y1="148" y2="148"/><line style="stroke: #A80036; stroke-width: 1.5;" x1="20" x2="90" y1="156" y2="156"/><!--MD5=[479fb3c9bd8a0470c0e28763ff12c214]
link Assignment to Effort--><!--MD5=[e238b31c1ad4aad091ed76b0593ebf90]
link Assignment to Project--><!--MD5=[c08a68d6887bab2d584874c2ff86d554]
@startuml

class Assignment {}

class Effort {}

class Project {}

@enduml

PlantUML version 1.2020.06(Sun Apr 05 14:38:32 CEST 2020)
(APACHE source distribution)
Java Runtime: OpenJDK Runtime Environment
JVM: OpenJDK 64-Bit Server VM
Java Version: 19-ea+28-2110
Operating System: Mac OS X
Default Encoding: UTF-8
Language: en
Country: CH
--></g></svg>