<?xml version="1.0" encoding="UTF-8" standalone="no"?><svg xmlns="http://www.w3.org/2000/svg" xmlns:xlink="http://www.w3.org/1999/xlink" contentScriptType="application/ecmascript" contentStyleType="text/css" height="971px" preserveAspectRatio="none" style="width:1497px;height:971px;" version="1.1" viewBox="0 0 1497 971" width="1497px" zoomAndPan="magnify"><defs><filter height="300%" id="f4dvz8xsuuend" width="300%" x="-1" y="-1"><feGaussianBlur result="blurOut" stdDeviation="2.0"/><feColorMatrix in="blurOut" result="blurOut2" type="matrix" values="0 0 0 0 0 0 0 0 0 0 0 0 0 0 0 0 0 0 .4 0"/><feOffset dx="4.0" dy="4.0" in="blurOut2" result="blurOut3"/><feBlend in="SourceGraphic" in2="blurOut3" mode="normal"/></filter></defs><g><rect fill="#FEFECE" filter="url(#f4dvz8xsuuend)" height="36.4883" rx="12.5" ry="12.5" style="stroke: #A80036; stroke-width: 1.5;" width="143" x="765" y="471.9063"/><text fill="#000000" font-family="sans-serif" font-size="14" lengthAdjust="spacingAndGlyphs" textLength="123" x="775" y="495.4414">Agile Architecture</text><rect fill="#FEFECE" filter="url(#f4dvz8xsuuend)" height="36.4883" rx="12.5" ry="12.5" style="stroke: #A80036; stroke-width: 1.5;" width="141" x="958" y="161.2207"/><text fill="#000000" font-family="sans-serif" font-size="14" lengthAdjust="spacingAndGlyphs" textLength="121" x="968" y="184.7559">Agile Approaches</text><rect fill="#FEFECE" filter="url(#f4dvz8xsuuend)" height="36.4883" rx="12.5" ry="12.5" style="stroke: #A80036; stroke-width: 1.5;" width="63" x="1149" y="20"/><text fill="#000000" font-family="sans-serif" font-size="14" lengthAdjust="spacingAndGlyphs" textLength="43" x="1159" y="43.5352">Scrum</text><path d="M1099,179.4648 L1109,179.4648 C1124,179.4648 1124,38.2441 1139,38.2441 L1149,38.2441 " fill="none" style="stroke: #A80036; stroke-width: 1.0;"/><rect fill="#FEFECE" filter="url(#f4dvz8xsuuend)" height="36.4883" rx="12.5" ry="12.5" style="stroke: #A80036; stroke-width: 1.5;" width="51" x="1149" y="76.4883"/><text fill="#000000" font-family="sans-serif" font-size="14" lengthAdjust="spacingAndGlyphs" textLength="31" x="1159" y="100.0234">LeSS</text><path d="M1099,179.4648 L1109,179.4648 C1124,179.4648 1124,94.7324 1139,94.7324 L1149,94.7324 " fill="none" style="stroke: #A80036; stroke-width: 1.0;"/><rect fill="#FEFECE" filter="url(#f4dvz8xsuuend)" height="36.4883" rx="12.5" ry="12.5" style="stroke: #A80036; stroke-width: 1.5;" width="72" x="1149" y="132.9766"/><text fill="#000000" font-family="sans-serif" font-size="14" lengthAdjust="spacingAndGlyphs" textLength="52" x="1159" y="156.5117">Kanban</text><path d="M1099,179.4648 L1109,179.4648 C1124,179.4648 1124,151.2207 1139,151.2207 L1149,151.2207 " fill="none" style="stroke: #A80036; stroke-width: 1.0;"/><rect fill="#FEFECE" filter="url(#f4dvz8xsuuend)" height="36.4883" rx="12.5" ry="12.5" style="stroke: #A80036; stroke-width: 1.5;" width="175" x="1149" y="189.4648"/><text fill="#000000" font-family="sans-serif" font-size="14" lengthAdjust="spacingAndGlyphs" textLength="155" x="1159" y="213">eXtreme Programming</text><path d="M1099,179.4648 L1109,179.4648 C1124,179.4648 1124,207.709 1139,207.709 L1149,207.709 " fill="none" style="stroke: #A80036; stroke-width: 1.0;"/><rect fill="#FEFECE" filter="url(#f4dvz8xsuuend)" height="36.4883" rx="12.5" ry="12.5" style="stroke: #A80036; stroke-width: 1.5;" width="184" x="1149" y="245.9531"/><text fill="#000000" font-family="sans-serif" font-size="14" lengthAdjust="spacingAndGlyphs" textLength="164" x="1159" y="269.4883">Software Craftsmanship</text><path d="M1099,179.4648 L1109,179.4648 C1124,179.4648 1124,264.1973 1139,264.1973 L1149,264.1973 " fill="none" style="stroke: #A80036; stroke-width: 1.0;"/><rect fill="#FEFECE" filter="url(#f4dvz8xsuuend)" height="36.4883" rx="12.5" ry="12.5" style="stroke: #A80036; stroke-width: 1.5;" width="117" x="1149" y="302.4414"/><text fill="#000000" font-family="sans-serif" font-size="14" lengthAdjust="spacingAndGlyphs" textLength="97" x="1159" y="325.9766">Value Streams</text><path d="M1099,179.4648 L1109,179.4648 C1124,179.4648 1124,320.6855 1139,320.6855 L1149,320.6855 " fill="none" style="stroke: #A80036; stroke-width: 1.0;"/><path d="M908,490.1504 L918,490.1504 C933,490.1504 933,179.4648 948,179.4648 L958,179.4648 " fill="none" style="stroke: #A80036; stroke-width: 1.0;"/><rect fill="#FEFECE" filter="url(#f4dvz8xsuuend)" height="36.4883" rx="12.5" ry="12.5" style="stroke: #A80036; stroke-width: 1.5;" width="201" x="958" y="443.6621"/><text fill="#000000" font-family="sans-serif" font-size="14" lengthAdjust="spacingAndGlyphs" textLength="181" x="968" y="467.1973">Clean Code &amp; Architecture</text><rect fill="#FEFECE" filter="url(#f4dvz8xsuuend)" height="36.4883" rx="12.5" ry="12.5" style="stroke: #A80036; stroke-width: 1.5;" width="191" x="1209" y="358.9297"/><text fill="#000000" font-family="sans-serif" font-size="14" lengthAdjust="spacingAndGlyphs" textLength="171" x="1219" y="382.4648">Agile Component Design</text><path d="M1159,461.9063 L1169,461.9063 C1184,461.9063 1184,377.1738 1199,377.1738 L1209,377.1738 " fill="none" style="stroke: #A80036; stroke-width: 1.0;"/><rect fill="#FEFECE" filter="url(#f4dvz8xsuuend)" height="36.4883" rx="12.5" ry="12.5" style="stroke: #A80036; stroke-width: 1.5;" width="99" x="1209" y="415.418"/><text fill="#000000" font-family="sans-serif" font-size="14" lengthAdjust="spacingAndGlyphs" textLength="79" x="1219" y="438.9531">Refactoring</text><path d="M1159,461.9063 L1169,461.9063 C1184,461.9063 1184,433.6621 1199,433.6621 L1209,433.6621 " fill="none" style="stroke: #A80036; stroke-width: 1.0;"/><rect fill="#FEFECE" filter="url(#f4dvz8xsuuend)" height="36.4883" rx="12.5" ry="12.5" style="stroke: #A80036; stroke-width: 1.5;" width="125" x="1209" y="471.9063"/><text fill="#000000" font-family="sans-serif" font-size="14" lengthAdjust="spacingAndGlyphs" textLength="105" x="1219" y="495.4414">Legacy Systems</text><path d="M1159,461.9063 L1169,461.9063 C1184,461.9063 1184,490.1504 1199,490.1504 L1209,490.1504 " fill="none" style="stroke: #A80036; stroke-width: 1.0;"/><rect fill="#FEFECE" filter="url(#f4dvz8xsuuend)" height="36.4883" rx="12.5" ry="12.5" style="stroke: #A80036; stroke-width: 1.5;" width="215" x="1209" y="528.3945"/><text fill="#000000" font-family="sans-serif" font-size="14" lengthAdjust="spacingAndGlyphs" textLength="195" x="1219" y="551.9297">Domain Driven Development</text><path d="M1159,461.9063 L1169,461.9063 C1184,461.9063 1184,546.6387 1199,546.6387 L1209,546.6387 " fill="none" style="stroke: #A80036; stroke-width: 1.0;"/><path d="M908,490.1504 L918,490.1504 C933,490.1504 933,461.9063 948,461.9063 L958,461.9063 " fill="none" style="stroke: #A80036; stroke-width: 1.0;"/><rect fill="#FEFECE" filter="url(#f4dvz8xsuuend)" height="36.4883" rx="12.5" ry="12.5" style="stroke: #A80036; stroke-width: 1.5;" width="164" x="958" y="669.6152"/><text fill="#000000" font-family="sans-serif" font-size="14" lengthAdjust="spacingAndGlyphs" textLength="144" x="968" y="693.1504">Agile Documentation</text><rect fill="#FEFECE" filter="url(#f4dvz8xsuuend)" height="36.4883" rx="12.5" ry="12.5" style="stroke: #A80036; stroke-width: 1.5;" width="49" x="1172" y="584.8828"/><text fill="#000000" font-family="sans-serif" font-size="14" lengthAdjust="spacingAndGlyphs" textLength="29" x="1182" y="608.418">ADR</text><path d="M1122,687.8594 L1132,687.8594 C1147,687.8594 1147,603.127 1162,603.127 L1172,603.127 " fill="none" style="stroke: #A80036; stroke-width: 1.0;"/><rect fill="#FEFECE" filter="url(#f4dvz8xsuuend)" height="36.4883" rx="12.5" ry="12.5" style="stroke: #A80036; stroke-width: 1.5;" width="114" x="1172" y="641.3711"/><text fill="#000000" font-family="sans-serif" font-size="14" lengthAdjust="spacingAndGlyphs" textLength="94" x="1182" y="664.9063">Static Website</text><path d="M1122,687.8594 L1132,687.8594 C1147,687.8594 1147,659.6152 1162,659.6152 L1172,659.6152 " fill="none" style="stroke: #A80036; stroke-width: 1.0;"/><rect fill="#FEFECE" filter="url(#f4dvz8xsuuend)" height="36.4883" rx="12.5" ry="12.5" style="stroke: #A80036; stroke-width: 1.5;" width="73" x="1172" y="697.8594"/><text fill="#000000" font-family="sans-serif" font-size="14" lengthAdjust="spacingAndGlyphs" textLength="53" x="1182" y="721.3945">JavaDoc</text><path d="M1122,687.8594 L1132,687.8594 C1147,687.8594 1147,716.1035 1162,716.1035 L1172,716.1035 " fill="none" style="stroke: #A80036; stroke-width: 1.0;"/><rect fill="#FEFECE" filter="url(#f4dvz8xsuuend)" height="36.4883" rx="12.5" ry="12.5" style="stroke: #A80036; stroke-width: 1.5;" width="181" x="1172" y="754.3477"/><text fill="#000000" font-family="sans-serif" font-size="14" lengthAdjust="spacingAndGlyphs" textLength="161" x="1182" y="777.8828">BDD for Documentation</text><path d="M1122,687.8594 L1132,687.8594 C1147,687.8594 1147,772.5918 1162,772.5918 L1172,772.5918 " fill="none" style="stroke: #A80036; stroke-width: 1.0;"/><path d="M908,490.1504 L918,490.1504 C933,490.1504 933,687.8594 948,687.8594 L958,687.8594 " fill="none" style="stroke: #A80036; stroke-width: 1.0;"/><rect fill="#FEFECE" filter="url(#f4dvz8xsuuend)" height="36.4883" rx="12.5" ry="12.5" style="stroke: #A80036; stroke-width: 1.5;" width="89" x="958" y="867.3242"/><text fill="#000000" font-family="sans-serif" font-size="14" lengthAdjust="spacingAndGlyphs" textLength="69" x="968" y="890.8594">Standards</text><rect fill="#FEFECE" filter="url(#f4dvz8xsuuend)" height="36.4883" rx="12.5" ry="12.5" style="stroke: #A80036; stroke-width: 1.5;" width="215" x="1097" y="810.8359"/><text fill="#000000" font-family="sans-serif" font-size="14" lengthAdjust="spacingAndGlyphs" textLength="195" x="1107" y="834.3711">Domain Driven Development</text><rect fill="#FEFECE" filter="url(#f4dvz8xsuuend)" height="36.4883" rx="12.5" ry="12.5" style="stroke: #A80036; stroke-width: 1.5;" width="124" x="1362" y="810.8359"/><text fill="#000000" font-family="sans-serif" font-size="14" lengthAdjust="spacingAndGlyphs" textLength="104" x="1372" y="834.3711">Event Storming</text><path d="M1312,829.0801 L1322,829.0801 C1337,829.0801 1337,829.0801 1352,829.0801 L1362,829.0801 " fill="none" style="stroke: #A80036; stroke-width: 1.0;"/><path d="M1047,885.5684 L1057,885.5684 C1072,885.5684 1072,829.0801 1087,829.0801 L1097,829.0801 " fill="none" style="stroke: #A80036; stroke-width: 1.0;"/><rect fill="#FEFECE" filter="url(#f4dvz8xsuuend)" height="36.4883" rx="12.5" ry="12.5" style="stroke: #A80036; stroke-width: 1.5;" width="44" x="1097" y="867.3242"/><text fill="#000000" font-family="sans-serif" font-size="14" lengthAdjust="spacingAndGlyphs" textLength="24" x="1107" y="890.8594">PMI</text><rect fill="#FEFECE" filter="url(#f4dvz8xsuuend)" height="36.4883" rx="12.5" ry="12.5" style="stroke: #A80036; stroke-width: 1.5;" width="80" x="1191" y="867.3242"/><text fill="#000000" font-family="sans-serif" font-size="14" lengthAdjust="spacingAndGlyphs" textLength="60" x="1201" y="890.8594">PMI-ACP</text><path d="M1141,885.5684 L1151,885.5684 C1166,885.5684 1166,885.5684 1181,885.5684 L1191,885.5684 " fill="none" style="stroke: #A80036; stroke-width: 1.0;"/><path d="M1047,885.5684 L1057,885.5684 C1072,885.5684 1072,885.5684 1087,885.5684 L1097,885.5684 " fill="none" style="stroke: #A80036; stroke-width: 1.0;"/><rect fill="#FEFECE" filter="url(#f4dvz8xsuuend)" height="36.4883" rx="12.5" ry="12.5" style="stroke: #A80036; stroke-width: 1.5;" width="68" x="1097" y="923.8125"/><text fill="#000000" font-family="sans-serif" font-size="14" lengthAdjust="spacingAndGlyphs" textLength="48" x="1107" y="947.3477">TOGAF</text><path d="M1047,885.5684 L1057,885.5684 C1072,885.5684 1072,942.0566 1087,942.0566 L1097,942.0566 " fill="none" style="stroke: #A80036; stroke-width: 1.0;"/><path d="M908,490.1504 L918,490.1504 C933,490.1504 933,885.5684 948,885.5684 L958,885.5684 " fill="none" style="stroke: #A80036; stroke-width: 1.0;"/><rect fill="#FEFECE" filter="url(#f4dvz8xsuuend)" height="36.4883" rx="12.5" ry="12.5" style="stroke: #A80036; stroke-width: 1.5;" width="186" x="529" y="358.9297"/><text fill="#000000" font-family="sans-serif" font-size="14" lengthAdjust="spacingAndGlyphs" textLength="166" x="539" y="382.4648">Master Your Techniques</text><rect fill="#FEFECE" filter="url(#f4dvz8xsuuend)" height="36.4883" rx="12.5" ry="12.5" style="stroke: #A80036; stroke-width: 1.5;" width="88" x="391" y="175.3428"/><text fill="#000000" font-family="sans-serif" font-size="14" lengthAdjust="spacingAndGlyphs" textLength="68" x="401" y="198.8779">CI/CD/CD</text><path d="M529,377.1738 L519,377.1738 C504,377.1738 504,193.5869 489,193.5869 L479,193.5869 " fill="none" style="stroke: #A80036; stroke-width: 1.0;"/><rect fill="#FEFECE" filter="url(#f4dvz8xsuuend)" height="36.4883" rx="12.5" ry="12.5" style="stroke: #A80036; stroke-width: 1.5;" width="59" x="420" y="231.8311"/><text fill="#000000" font-family="sans-serif" font-size="14" lengthAdjust="spacingAndGlyphs" textLength="39" x="430" y="255.3662">ATDD</text><path d="M529,377.1738 L519,377.1738 C504,377.1738 504,250.0752 489,250.0752 L479,250.0752 " fill="none" style="stroke: #A80036; stroke-width: 1.0;"/><rect fill="#FEFECE" filter="url(#f4dvz8xsuuend)" height="36.4883" rx="12.5" ry="12.5" style="stroke: #A80036; stroke-width: 1.5;" width="49" x="430" y="288.3193"/><text fill="#000000" font-family="sans-serif" font-size="14" lengthAdjust="spacingAndGlyphs" textLength="29" x="440" y="311.8545">TDD</text><path d="M529,377.1738 L519,377.1738 C504,377.1738 504,306.5635 489,306.5635 L479,306.5635 " fill="none" style="stroke: #A80036; stroke-width: 1.0;"/><rect fill="#FEFECE" filter="url(#f4dvz8xsuuend)" height="36.4883" rx="12.5" ry="12.5" style="stroke: #A80036; stroke-width: 1.5;" width="99" x="380" y="344.8076"/><text fill="#000000" font-family="sans-serif" font-size="14" lengthAdjust="spacingAndGlyphs" textLength="79" x="390" y="368.3428">Clean Code</text><rect fill="#FEFECE" filter="url(#f4dvz8xsuuend)" height="36.4883" rx="12.5" ry="12.5" style="stroke: #A80036; stroke-width: 1.5;" width="158" x="172" y="344.8076"/><text fill="#000000" font-family="sans-serif" font-size="14" lengthAdjust="spacingAndGlyphs" textLength="138" x="182" y="368.3428">Refactoring with IDE</text><path d="M380,363.0518 L370,363.0518 C355,363.0518 355,363.0518 340,363.0518 L330,363.0518 " fill="none" style="stroke: #A80036; stroke-width: 1.0;"/><path d="M529,377.1738 L519,377.1738 C504,377.1738 504,363.0518 489,363.0518 L479,363.0518 " fill="none" style="stroke: #A80036; stroke-width: 1.0;"/><rect fill="#FEFECE" filter="url(#f4dvz8xsuuend)" height="36.4883" rx="12.5" ry="12.5" style="stroke: #A80036; stroke-width: 1.5;" width="72" x="407" y="471.9063"/><text fill="#000000" font-family="sans-serif" font-size="14" lengthAdjust="spacingAndGlyphs" textLength="52" x="417" y="495.4414">DevOps</text><rect fill="#FEFECE" filter="url(#f4dvz8xsuuend)" height="36.4883" rx="12.5" ry="12.5" style="stroke: #A80036; stroke-width: 1.5;" width="173" x="184" y="401.2959"/><text fill="#000000" font-family="sans-serif" font-size="14" lengthAdjust="spacingAndGlyphs" textLength="153" x="194" y="424.8311">Infrastructure as Code</text><path d="M407,490.1504 L397,490.1504 C382,490.1504 382,419.54 367,419.54 L357,419.54 " fill="none" style="stroke: #A80036; stroke-width: 1.0;"/><rect fill="#FEFECE" filter="url(#f4dvz8xsuuend)" height="36.4883" rx="12.5" ry="12.5" style="stroke: #A80036; stroke-width: 1.5;" width="174" x="183" y="457.7842"/><text fill="#000000" font-family="sans-serif" font-size="14" lengthAdjust="spacingAndGlyphs" textLength="154" x="193" y="481.3193">Container Deployment</text><path d="M407,490.1504 L397,490.1504 C382,490.1504 382,476.0283 367,476.0283 L357,476.0283 " fill="none" style="stroke: #A80036; stroke-width: 1.0;"/><rect fill="#FEFECE" filter="url(#f4dvz8xsuuend)" height="36.4883" rx="12.5" ry="12.5" style="stroke: #A80036; stroke-width: 1.5;" width="201" x="156" y="514.2725"/><text fill="#000000" font-family="sans-serif" font-size="14" lengthAdjust="spacingAndGlyphs" textLength="181" x="166" y="537.8076">Validation and Verification</text><rect fill="#FEFECE" filter="url(#f4dvz8xsuuend)" height="36.4883" rx="12.5" ry="12.5" style="stroke: #A80036; stroke-width: 1.5;" width="96" x="10" y="486.0283"/><text fill="#000000" font-family="sans-serif" font-size="14" lengthAdjust="spacingAndGlyphs" textLength="76" x="20" y="509.5635">Monitoring</text><path d="M156,532.5166 L146,532.5166 C131,532.5166 131,504.2725 116,504.2725 L106,504.2725 " fill="none" style="stroke: #A80036; stroke-width: 1.0;"/><rect fill="#FEFECE" filter="url(#f4dvz8xsuuend)" height="36.4883" rx="12.5" ry="12.5" style="stroke: #A80036; stroke-width: 1.5;" width="79" x="27" y="542.5166"/><text fill="#000000" font-family="sans-serif" font-size="14" lengthAdjust="spacingAndGlyphs" textLength="59" x="37" y="566.0518">Auditing</text><path d="M156,532.5166 L146,532.5166 C131,532.5166 131,560.7607 116,560.7607 L106,560.7607 " fill="none" style="stroke: #A80036; stroke-width: 1.0;"/><path d="M407,490.1504 L397,490.1504 C382,490.1504 382,532.5166 367,532.5166 L357,532.5166 " fill="none" style="stroke: #A80036; stroke-width: 1.0;"/><path d="M529,377.1738 L519,377.1738 C504,377.1738 504,490.1504 489,490.1504 L479,490.1504 " fill="none" style="stroke: #A80036; stroke-width: 1.0;"/><path d="M765,490.1504 L755,490.1504 C740,490.1504 740,377.1738 725,377.1738 L715,377.1738 " fill="none" style="stroke: #A80036; stroke-width: 1.0;"/><rect fill="#FEFECE" filter="url(#f4dvz8xsuuend)" height="36.4883" rx="12.5" ry="12.5" style="stroke: #A80036; stroke-width: 1.5;" width="268" x="447" y="683.7373"/><text fill="#000000" font-family="sans-serif" font-size="14" lengthAdjust="spacingAndGlyphs" textLength="248" x="457" y="707.2725">Master Your Technology Stack (Java)</text><rect fill="#FEFECE" filter="url(#f4dvz8xsuuend)" height="36.4883" rx="12.5" ry="12.5" style="stroke: #A80036; stroke-width: 1.5;" width="98" x="299" y="599.0049"/><text fill="#000000" font-family="sans-serif" font-size="14" lengthAdjust="spacingAndGlyphs" textLength="78" x="309" y="622.54">IntelliJ IDEA</text><path d="M447,701.9814 L437,701.9814 C422,701.9814 422,617.249 407,617.249 L397,617.249 " fill="none" style="stroke: #A80036; stroke-width: 1.0;"/><rect fill="#FEFECE" filter="url(#f4dvz8xsuuend)" height="36.4883" rx="12.5" ry="12.5" style="stroke: #A80036; stroke-width: 1.5;" width="195" x="202" y="655.4932"/><text fill="#000000" font-family="sans-serif" font-size="14" lengthAdjust="spacingAndGlyphs" textLength="175" x="212" y="679.0283">JUnit 5, Mockito 2, AssertJ</text><path d="M447,701.9814 L437,701.9814 C422,701.9814 422,673.7373 407,673.7373 L397,673.7373 " fill="none" style="stroke: #A80036; stroke-width: 1.0;"/><rect fill="#FEFECE" filter="url(#f4dvz8xsuuend)" height="36.4883" rx="12.5" ry="12.5" style="stroke: #A80036; stroke-width: 1.5;" width="375" x="22" y="711.9814"/><text fill="#000000" font-family="sans-serif" font-size="14" lengthAdjust="spacingAndGlyphs" textLength="355" x="32" y="735.5166">SpotBugs, SonarLint &amp; SonarCloud, PMD, Checkstyle</text><path d="M447,701.9814 L437,701.9814 C422,701.9814 422,730.2256 407,730.2256 L397,730.2256 " fill="none" style="stroke: #A80036; stroke-width: 1.0;"/><rect fill="#FEFECE" filter="url(#f4dvz8xsuuend)" height="36.4883" rx="12.5" ry="12.5" style="stroke: #A80036; stroke-width: 1.5;" width="301" x="96" y="768.4697"/><text fill="#000000" font-family="sans-serif" font-size="14" lengthAdjust="spacingAndGlyphs" textLength="281" x="106" y="792.0049">Git, Github, Bitbucket, Bitbucket pipelines</text><path d="M447,701.9814 L437,701.9814 C422,701.9814 422,786.7139 407,786.7139 L397,786.7139 " fill="none" style="stroke: #A80036; stroke-width: 1.0;"/><path d="M765,490.1504 L755,490.1504 C740,490.1504 740,701.9814 725,701.9814 L715,701.9814 " fill="none" style="stroke: #A80036; stroke-width: 1.0;"/><!--MD5=[7902efda9cd70b0d6204610b6aba9b15]
@startmindmap
+ Agile Architecture
++ Agile Approaches
+++ Scrum
+++ LeSS
+++ Kanban
+++ eXtreme Programming
+++ Software Craftsmanship
+++ Value Streams
++ Clean Code & Architecture
+++ Agile Component Design
+++ Refactoring
+++ Legacy Systems
+++ Domain Driven Development
++ Agile Documentation
+++ ADR
+++ Static Website
+++ JavaDoc
+++ BDD for Documentation
++ Standards
+++ Domain Driven Development
++++ Event Storming
+++ PMI
++++ PMI-ACP
+++ TOGAF
- - Master Your Techniques
- - - CI/CD/CD
- - - ATDD
- - - TDD
- - - Clean Code
- - - - Refactoring with IDE
- - - DevOps
- - - - Infrastructure as Code
- - - - Container Deployment
- - - - Validation and Verification
- - - - - Monitoring
- - - - - Auditing
- - Master Your Technology Stack (Java)
- - - IntelliJ IDEA
- - - JUnit 5, Mockito 2, AssertJ
- - - SpotBugs, SonarLint & SonarCloud, PMD, Checkstyle
- - - Git, Github, Bitbucket, Bitbucket pipelines
@endmindmap

PlantUML version 1.2020.06(Sun Apr 05 14:38:32 CEST 2020)
(APACHE source distribution)
Java Runtime: OpenJDK Runtime Environment
JVM: OpenJDK 64-Bit Server VM
Java Version: 19-ea+30-2169
Operating System: Mac OS X
Default Encoding: UTF-8
Language: en
Country: CH
--></g></svg>