<?xml version="1.0" encoding="UTF-8" standalone="no"?><svg xmlns="http://www.w3.org/2000/svg" xmlns:xlink="http://www.w3.org/1999/xlink" contentScriptType="application/ecmascript" contentStyleType="text/css" height="685px" preserveAspectRatio="none" style="width:357px;height:685px;" version="1.1" viewBox="0 0 357 685" width="357px" zoomAndPan="magnify"><defs><filter height="300%" id="ff39w8617qb4k" width="300%" x="-1" y="-1"><feGaussianBlur result="blurOut" stdDeviation="2.0"/><feColorMatrix in="blurOut" result="blurOut2" type="matrix" values="0 0 0 0 0 0 0 0 0 0 0 0 0 0 0 0 0 0 .4 0"/><feOffset dx="4.0" dy="4.0" in="blurOut2" result="blurOut3"/><feBlend in="SourceGraphic" in2="blurOut3" mode="normal"/></filter></defs><g><!--MD5=[4da33e036383ae2c9d7a81b1e09b72e8]
class Commit--><rect fill="#FEFECE" filter="url(#ff39w8617qb4k)" height="60.9551" id="Commit" style="stroke: #A80036; stroke-width: 1.5;" width="97" x="6" y="129"/><ellipse cx="30.45" cy="145" fill="#ADD1B2" rx="11" ry="11" style="stroke: #A80036; stroke-width: 1.0;"/><path d="M32.9231,151.1431 Q32.3421,151.4419 31.7029,151.5913 Q31.0638,151.7407 30.3582,151.7407 Q27.8514,151.7407 26.5315,150.0889 Q25.2117,148.437 25.2117,145.3159 Q25.2117,142.1865 26.5315,140.5347 Q27.8514,138.8828 30.3582,138.8828 Q31.0638,138.8828 31.7112,139.0322 Q32.3587,139.1816 32.9231,139.4805 L32.9231,142.2031 Q32.2923,141.6221 31.6988,141.3523 Q31.1053,141.0825 30.4744,141.0825 Q29.1297,141.0825 28.4449,142.1492 Q27.7601,143.2158 27.7601,145.3159 Q27.7601,147.4077 28.4449,148.4744 Q29.1297,149.541 30.4744,149.541 Q31.1053,149.541 31.6988,149.2712 Q32.2923,149.0015 32.9231,148.4204 Z "/><text fill="#000000" font-family="sans-serif" font-size="12" lengthAdjust="spacingAndGlyphs" textLength="44" x="46.55" y="149.5352">Commit</text><line style="stroke: #A80036; stroke-width: 1.5;" x1="7" x2="102" y1="161" y2="161"/><text fill="#000000" font-family="sans-serif" font-size="11" lengthAdjust="spacingAndGlyphs" textLength="85" x="12" y="175.6348">String comment</text><line style="stroke: #A80036; stroke-width: 1.5;" x1="7" x2="102" y1="181.9551" y2="181.9551"/><!--MD5=[fe9c6f2731d07227b35843baf693a5e7]
class CommitItem--><rect fill="#FEFECE" filter="url(#ff39w8617qb4k)" height="48" id="CommitItem" style="stroke: #A80036; stroke-width: 1.5;" width="101" x="46" y="626"/><ellipse cx="61" cy="642" fill="#ADD1B2" rx="11" ry="11" style="stroke: #A80036; stroke-width: 1.0;"/><path d="M63.4731,648.1431 Q62.8921,648.4419 62.2529,648.5913 Q61.6138,648.7407 60.9082,648.7407 Q58.4014,648.7407 57.0815,647.0889 Q55.7617,645.437 55.7617,642.3159 Q55.7617,639.1865 57.0815,637.5347 Q58.4014,635.8828 60.9082,635.8828 Q61.6138,635.8828 62.2612,636.0322 Q62.9087,636.1816 63.4731,636.4805 L63.4731,639.2031 Q62.8423,638.6221 62.2488,638.3523 Q61.6553,638.0825 61.0244,638.0825 Q59.6797,638.0825 58.9949,639.1492 Q58.3101,640.2158 58.3101,642.3159 Q58.3101,644.4077 58.9949,645.4744 Q59.6797,646.541 61.0244,646.541 Q61.6553,646.541 62.2488,646.2712 Q62.8423,646.0015 63.4731,645.4204 Z "/><text fill="#000000" font-family="sans-serif" font-size="12" lengthAdjust="spacingAndGlyphs" textLength="69" x="75" y="646.5352">CommitItem</text><line style="stroke: #A80036; stroke-width: 1.5;" x1="47" x2="146" y1="658" y2="658"/><line style="stroke: #A80036; stroke-width: 1.5;" x1="47" x2="146" y1="666" y2="666"/><!--MD5=[bbeb7d1f7fcd613e5793450d43511a2e]
class Committer--><rect fill="#FEFECE" filter="url(#ff39w8617qb4k)" height="60.9551" id="Committer" style="stroke: #A80036; stroke-width: 1.5;" width="92" x="95.5" y="250"/><ellipse cx="110.5" cy="266" fill="#ADD1B2" rx="11" ry="11" style="stroke: #A80036; stroke-width: 1.0;"/><path d="M112.9731,272.1431 Q112.3921,272.4419 111.7529,272.5913 Q111.1138,272.7407 110.4082,272.7407 Q107.9014,272.7407 106.5815,271.0889 Q105.2617,269.437 105.2617,266.3159 Q105.2617,263.1865 106.5815,261.5347 Q107.9014,259.8828 110.4082,259.8828 Q111.1138,259.8828 111.7612,260.0322 Q112.4087,260.1816 112.9731,260.4805 L112.9731,263.2031 Q112.3423,262.6221 111.7488,262.3523 Q111.1553,262.0825 110.5244,262.0825 Q109.1797,262.0825 108.4949,263.1492 Q107.8101,264.2158 107.8101,266.3159 Q107.8101,268.4077 108.4949,269.4744 Q109.1797,270.541 110.5244,270.541 Q111.1553,270.541 111.7488,270.2712 Q112.3423,270.0015 112.9731,269.4204 Z "/><text fill="#000000" font-family="sans-serif" font-size="12" lengthAdjust="spacingAndGlyphs" textLength="60" x="124.5" y="270.5352">Committer</text><line style="stroke: #A80036; stroke-width: 1.5;" x1="96.5" x2="186.5" y1="282" y2="282"/><text fill="#000000" font-family="sans-serif" font-size="11" lengthAdjust="spacingAndGlyphs" textLength="64" x="101.5" y="296.6348">String name</text><line style="stroke: #A80036; stroke-width: 1.5;" x1="96.5" x2="186.5" y1="302.9551" y2="302.9551"/><!--MD5=[a9843e3db38737ec913241a35c12e56c]
class RepositoryFile--><rect fill="#FEFECE" filter="url(#ff39w8617qb4k)" height="73.9102" id="RepositoryFile" style="stroke: #A80036; stroke-width: 1.5;" width="112" x="98.5" y="492"/><ellipse cx="113.5" cy="508" fill="#ADD1B2" rx="11" ry="11" style="stroke: #A80036; stroke-width: 1.0;"/><path d="M115.9731,514.1431 Q115.3921,514.4419 114.7529,514.5913 Q114.1138,514.7407 113.4082,514.7407 Q110.9014,514.7407 109.5815,513.0889 Q108.2617,511.437 108.2617,508.3159 Q108.2617,505.1865 109.5815,503.5347 Q110.9014,501.8828 113.4082,501.8828 Q114.1138,501.8828 114.7612,502.0322 Q115.4087,502.1816 115.9731,502.4805 L115.9731,505.2031 Q115.3423,504.6221 114.7488,504.3523 Q114.1553,504.0825 113.5244,504.0825 Q112.1797,504.0825 111.4949,505.1492 Q110.8101,506.2158 110.8101,508.3159 Q110.8101,510.4077 111.4949,511.4744 Q112.1797,512.541 113.5244,512.541 Q114.1553,512.541 114.7488,512.2712 Q115.3423,512.0015 115.9731,511.4204 Z "/><text fill="#000000" font-family="sans-serif" font-size="12" lengthAdjust="spacingAndGlyphs" textLength="80" x="127.5" y="512.5352">RepositoryFile</text><line style="stroke: #A80036; stroke-width: 1.5;" x1="99.5" x2="209.5" y1="524" y2="524"/><text fill="#000000" font-family="sans-serif" font-size="11" lengthAdjust="spacingAndGlyphs" textLength="80" x="104.5" y="538.6348">String filename</text><text fill="#000000" font-family="sans-serif" font-size="11" lengthAdjust="spacingAndGlyphs" textLength="66" x="104.5" y="551.5898">boolean test</text><line style="stroke: #A80036; stroke-width: 1.5;" x1="99.5" x2="209.5" y1="557.9102" y2="557.9102"/><!--MD5=[79d378210367c0c6ec62ef762ddfbd1b]
class Project--><rect fill="#FEFECE" filter="url(#ff39w8617qb4k)" height="60.9551" id="Project" style="stroke: #A80036; stroke-width: 1.5;" width="76" x="118.5" y="8"/><ellipse cx="135.3" cy="24" fill="#ADD1B2" rx="11" ry="11" style="stroke: #A80036; stroke-width: 1.0;"/><path d="M137.7731,30.1431 Q137.1921,30.4419 136.5529,30.5913 Q135.9138,30.7407 135.2082,30.7407 Q132.7014,30.7407 131.3815,29.0889 Q130.0617,27.437 130.0617,24.3159 Q130.0617,21.1865 131.3815,19.5347 Q132.7014,17.8828 135.2082,17.8828 Q135.9138,17.8828 136.5612,18.0322 Q137.2087,18.1816 137.7731,18.4805 L137.7731,21.2031 Q137.1423,20.6221 136.5488,20.3523 Q135.9553,20.0825 135.3244,20.0825 Q133.9797,20.0825 133.2949,21.1492 Q132.6101,22.2158 132.6101,24.3159 Q132.6101,26.4077 133.2949,27.4744 Q133.9797,28.541 135.3244,28.541 Q135.9553,28.541 136.5488,28.2712 Q137.1423,28.0015 137.7731,27.4204 Z "/><text fill="#000000" font-family="sans-serif" font-size="12" lengthAdjust="spacingAndGlyphs" textLength="40" x="149.7" y="28.5352">Project</text><line style="stroke: #A80036; stroke-width: 1.5;" x1="119.5" x2="193.5" y1="40" y2="40"/><text fill="#000000" font-family="sans-serif" font-size="11" lengthAdjust="spacingAndGlyphs" textLength="64" x="124.5" y="54.6348">String name</text><line style="stroke: #A80036; stroke-width: 1.5;" x1="119.5" x2="193.5" y1="60.9551" y2="60.9551"/><!--MD5=[2b7409a316d9d2e410653e6983353aed]
class Module--><rect fill="#FEFECE" filter="url(#ff39w8617qb4k)" height="60.9551" id="Module" style="stroke: #A80036; stroke-width: 1.5;" width="123" x="216" y="129"/><ellipse cx="253.05" cy="145" fill="#ADD1B2" rx="11" ry="11" style="stroke: #A80036; stroke-width: 1.0;"/><path d="M255.5231,151.1431 Q254.9421,151.4419 254.3029,151.5913 Q253.6638,151.7407 252.9582,151.7407 Q250.4514,151.7407 249.1315,150.0889 Q247.8117,148.437 247.8117,145.3159 Q247.8117,142.1865 249.1315,140.5347 Q250.4514,138.8828 252.9582,138.8828 Q253.6638,138.8828 254.3112,139.0322 Q254.9587,139.1816 255.5231,139.4805 L255.5231,142.2031 Q254.8923,141.6221 254.2988,141.3523 Q253.7053,141.0825 253.0744,141.0825 Q251.7297,141.0825 251.0449,142.1492 Q250.3601,143.2158 250.3601,145.3159 Q250.3601,147.4077 251.0449,148.4744 Q251.7297,149.541 253.0744,149.541 Q253.7053,149.541 254.2988,149.2712 Q254.8923,149.0015 255.5231,148.4204 Z "/><text fill="#000000" font-family="sans-serif" font-size="12" lengthAdjust="spacingAndGlyphs" textLength="42" x="271.95" y="149.5352">Module</text><line style="stroke: #A80036; stroke-width: 1.5;" x1="217" x2="338" y1="161" y2="161"/><text fill="#000000" font-family="sans-serif" font-size="11" lengthAdjust="spacingAndGlyphs" textLength="111" x="222" y="175.6348">String qualifiedName</text><line style="stroke: #A80036; stroke-width: 1.5;" x1="217" x2="338" y1="181.9551" y2="181.9551"/><!--MD5=[4e2ad48a1abc117fdc6f339da0f64213]
class Package--><rect fill="#FEFECE" filter="url(#ff39w8617qb4k)" height="60.9551" id="Package" style="stroke: #A80036; stroke-width: 1.5;" width="123" x="223" y="250"/><ellipse cx="257.35" cy="266" fill="#ADD1B2" rx="11" ry="11" style="stroke: #A80036; stroke-width: 1.0;"/><path d="M259.8231,272.1431 Q259.2421,272.4419 258.6029,272.5913 Q257.9638,272.7407 257.2582,272.7407 Q254.7514,272.7407 253.4315,271.0889 Q252.1117,269.437 252.1117,266.3159 Q252.1117,263.1865 253.4315,261.5347 Q254.7514,259.8828 257.2582,259.8828 Q257.9638,259.8828 258.6112,260.0322 Q259.2587,260.1816 259.8231,260.4805 L259.8231,263.2031 Q259.1923,262.6221 258.5988,262.3523 Q258.0053,262.0825 257.3744,262.0825 Q256.0297,262.0825 255.3449,263.1492 Q254.6601,264.2158 254.6601,266.3159 Q254.6601,268.4077 255.3449,269.4744 Q256.0297,270.541 257.3744,270.541 Q258.0053,270.541 258.5988,270.2712 Q259.1923,270.0015 259.8231,269.4204 Z "/><text fill="#000000" font-family="sans-serif" font-size="12" lengthAdjust="spacingAndGlyphs" textLength="48" x="275.65" y="270.5352">Package</text><line style="stroke: #A80036; stroke-width: 1.5;" x1="224" x2="345" y1="282" y2="282"/><text fill="#000000" font-family="sans-serif" font-size="11" lengthAdjust="spacingAndGlyphs" textLength="111" x="229" y="296.6348">String qualifiedName</text><line style="stroke: #A80036; stroke-width: 1.5;" x1="224" x2="345" y1="302.9551" y2="302.9551"/><!--MD5=[2e891683acf1a0719967eaee65adc62f]
class Clazz--><rect fill="#FEFECE" filter="url(#ff39w8617qb4k)" height="60.9551" id="Clazz" style="stroke: #A80036; stroke-width: 1.5;" width="123" x="159" y="371"/><ellipse cx="200.55" cy="387" fill="#ADD1B2" rx="11" ry="11" style="stroke: #A80036; stroke-width: 1.0;"/><path d="M203.0231,393.1431 Q202.4421,393.4419 201.8029,393.5913 Q201.1638,393.7407 200.4582,393.7407 Q197.9514,393.7407 196.6315,392.0889 Q195.3117,390.437 195.3117,387.3159 Q195.3117,384.1865 196.6315,382.5347 Q197.9514,380.8828 200.4582,380.8828 Q201.1638,380.8828 201.8112,381.0322 Q202.4587,381.1816 203.0231,381.4805 L203.0231,384.2031 Q202.3923,383.6221 201.7988,383.3523 Q201.2053,383.0825 200.5744,383.0825 Q199.2297,383.0825 198.5449,384.1492 Q197.8601,385.2158 197.8601,387.3159 Q197.8601,389.4077 198.5449,390.4744 Q199.2297,391.541 200.5744,391.541 Q201.2053,391.541 201.7988,391.2712 Q202.3923,391.0015 203.0231,390.4204 Z "/><text fill="#000000" font-family="sans-serif" font-size="12" lengthAdjust="spacingAndGlyphs" textLength="32" x="220.45" y="391.5352">Clazz</text><line style="stroke: #A80036; stroke-width: 1.5;" x1="160" x2="281" y1="403" y2="403"/><text fill="#000000" font-family="sans-serif" font-size="11" lengthAdjust="spacingAndGlyphs" textLength="111" x="165" y="417.6348">String qualifiedName</text><line style="stroke: #A80036; stroke-width: 1.5;" x1="160" x2="281" y1="423.9551" y2="423.9551"/><!--MD5=[f92f1790d33dca39fba2b82cb91a130e]
reverse link Commit to CommitItem--><path d="M55.81,204.61 C58.4,279.25 65.37,435.14 81.5,566 C84.01,586.35 88.26,609.26 91.6,625.85 " fill="none" id="Commit&lt;-CommitItem" style="stroke: #A80036; stroke-width: 1.0;"/><polygon fill="#A80036" points="55.39,191.88,51.5968,198.0128,55.799,203.873,59.5922,197.7402,55.39,191.88" style="stroke: #A80036; stroke-width: 1.0;"/><text fill="#000000" font-family="sans-serif" font-size="13" lengthAdjust="spacingAndGlyphs" textLength="8" x="46.7179" y="210.5274">1</text><text fill="#000000" font-family="sans-serif" font-size="13" lengthAdjust="spacingAndGlyphs" textLength="6" x="83.5756" y="615.3478">*</text><!--MD5=[b1dc121f6fc1e5c7fa2933b94fb301bd]
reverse link Commit to Committer--><path d="M84.72,201.83 C96.25,217.6 109.15,235.26 119.75,249.74 " fill="none" id="Commit&lt;-Committer" style="stroke: #A80036; stroke-width: 1.0;"/><polygon fill="#FFFFFF" points="77.12,191.44,77.4298,198.6444,84.1992,201.1294,83.8894,193.925,77.12,191.44" style="stroke: #A80036; stroke-width: 1.0;"/><text fill="#000000" font-family="sans-serif" font-size="13" lengthAdjust="spacingAndGlyphs" textLength="8" x="106.4391" y="239.4539">1</text><!--MD5=[39c2bc05cb9662ed86c13bddc7ffa097]
reverse link RepositoryFile to CommitItem--><path d="M130.63,578.97 C122.77,595.1 114.39,612.3 107.9,625.62 " fill="none" id="RepositoryFile&lt;-CommitItem" style="stroke: #A80036; stroke-width: 1.0;"/><polygon fill="#FFFFFF" points="136.12,567.71,129.8945,571.3491,130.8592,578.4953,137.0847,574.8563,136.12,567.71" style="stroke: #A80036; stroke-width: 1.0;"/><text fill="#000000" font-family="sans-serif" font-size="13" lengthAdjust="spacingAndGlyphs" textLength="8" x="125.1826" y="586.3798">1</text><text fill="#000000" font-family="sans-serif" font-size="13" lengthAdjust="spacingAndGlyphs" textLength="6" x="103.9475" y="615.4555">*</text><!--MD5=[b68a8256e0c120770947d2467eb30d44]
reverse link Project to Module--><path d="M196.65,78.98 C213.15,95.21 231.94,113.69 247.24,128.74 " fill="none" id="Project&lt;-Module" style="stroke: #A80036; stroke-width: 1.0;"/><polygon fill="#FFFFFF" points="187.8,70.28,189.2746,77.3387,196.3575,78.6925,194.8829,71.6337,187.8,70.28" style="stroke: #A80036; stroke-width: 1.0;"/><!--MD5=[3b0e8728c17b95492917d6fa76cf26a5]
reverse link Module to Package--><path d="M280.1,204.63 C280.98,219.67 281.95,236.11 282.75,249.74 " fill="none" id="Module&lt;-Package" style="stroke: #A80036; stroke-width: 1.0;"/><polygon fill="#A80036" points="279.34,191.73,275.7033,197.9569,280.0524,203.7088,283.6891,197.482,279.34,191.73" style="stroke: #A80036; stroke-width: 1.0;"/><text fill="#000000" font-family="sans-serif" font-size="13" lengthAdjust="spacingAndGlyphs" textLength="8" x="270.7859" y="210.7079">1</text><text fill="#000000" font-family="sans-serif" font-size="13" lengthAdjust="spacingAndGlyphs" textLength="6" x="275.7703" y="239.4539">*</text><!--MD5=[1ead5360a5ca7cf345ecaf5763336fef]
reverse link Package to Clazz--><path d="M261.77,323.76 C253.42,339.29 244.14,356.54 236.5,370.74 " fill="none" id="Package&lt;-Clazz" style="stroke: #A80036; stroke-width: 1.0;"/><polygon fill="#A80036" points="267.8,312.55,261.4363,315.9416,262.1194,323.1203,268.4832,319.7287,267.8,312.55" style="stroke: #A80036; stroke-width: 1.0;"/><text fill="#000000" font-family="sans-serif" font-size="13" lengthAdjust="spacingAndGlyphs" textLength="8" x="256.3991" y="331.7079">1</text><text fill="#000000" font-family="sans-serif" font-size="13" lengthAdjust="spacingAndGlyphs" textLength="6" x="233.1813" y="360.4539">*</text><!--MD5=[82dfc5b81eb2d7dc82cbe769037f6772]
reverse link Clazz to RepositoryFile--><path d="M198.14,445.02 C190.15,460.2 181.24,477.15 173.56,491.76 " fill="none" id="Clazz&lt;-RepositoryFile" style="stroke: #A80036; stroke-width: 1.0;"/><polygon fill="#FFFFFF" points="204.15,433.58,197.8148,437.0246,198.5578,444.1973,204.893,440.7527,204.15,433.58" style="stroke: #A80036; stroke-width: 1.0;"/><!--MD5=[e620e5d22e4ad35969ff8524b6a2e507]
reverse link Project to Committer--><path d="M153.74,83.73 C150.72,131.98 145.98,207.89 143.37,249.59 " fill="none" id="Project&lt;-Committer" style="stroke: #A80036; stroke-width: 1.0;"/><polygon fill="#A80036" points="154.54,70.92,150.1723,76.6579,153.789,82.8965,158.1567,77.1586,154.54,70.92" style="stroke: #A80036; stroke-width: 1.0;"/><text fill="#000000" font-family="sans-serif" font-size="13" lengthAdjust="spacingAndGlyphs" textLength="6" x="137.1369" y="239.273">*</text><!--MD5=[d67fcd30220c88b030ab6a961d819f77]
reverse link Project to Commit--><path d="M121.87,79.91 C108.15,95.91 92.67,113.97 80,128.74 " fill="none" id="Project&lt;-Commit" style="stroke: #A80036; stroke-width: 1.0;"/><polygon fill="#A80036" points="130.04,70.37,123.0987,72.324,122.2327,79.4829,129.174,77.5289,130.04,70.37" style="stroke: #A80036; stroke-width: 1.0;"/><text fill="#000000" font-family="sans-serif" font-size="13" lengthAdjust="spacingAndGlyphs" textLength="6" x="78.6406" y="118.4539">*</text><!--MD5=[774d546e6f021fcf283478048df7eff7]
@startuml

class Commit {
  String comment
}

Class CommitItem
class Committer {
  String name
}

class RepositoryFile {
  String filename
  boolean test
}

class Project {
  String name
}

class Module {
  String qualifiedName
}

class Package {
  String qualifiedName
}

class Clazz {
  String qualifiedName
}

Commit "1" *- - "*" CommitItem
Commit o- - "1" Committer
RepositoryFile "1" o- - "*" CommitItem

Project o- - Module
Module "1" *- -  "*" Package
Package "1" *- - "*" Clazz
Clazz o- - RepositoryFile

Project *- - "*" Committer
Project *- - "*" Commit

@enduml

PlantUML version 1.2020.06(Sun Apr 05 14:38:32 CEST 2020)
(APACHE source distribution)
Java Runtime: Java(TM) SE Runtime Environment
JVM: Java HotSpot(TM) 64-Bit Server VM
Java Version: 19.0.1+10-21
Operating System: Mac OS X
Default Encoding: UTF-8
Language: en
Country: CH
--></g></svg>