<?xml version="1.0" encoding="UTF-8" standalone="no"?><svg xmlns="http://www.w3.org/2000/svg" xmlns:xlink="http://www.w3.org/1999/xlink" contentScriptType="application/ecmascript" contentStyleType="text/css" height="861px" preserveAspectRatio="none" style="width:441px;height:861px;" version="1.1" viewBox="0 0 441 861" width="441px" zoomAndPan="magnify"><defs><filter height="300%" id="ff39w8617qb4k" width="300%" x="-1" y="-1"><feGaussianBlur result="blurOut" stdDeviation="2.0"/><feColorMatrix in="blurOut" result="blurOut2" type="matrix" values="0 0 0 0 0 0 0 0 0 0 0 0 0 0 0 0 0 0 .4 0"/><feOffset dx="4.0" dy="4.0" in="blurOut2" result="blurOut3"/><feBlend in="SourceGraphic" in2="blurOut3" mode="normal"/></filter></defs><g><!--MD5=[4da33e036383ae2c9d7a81b1e09b72e8]
class Commit--><rect fill="#FEFECE" filter="url(#ff39w8617qb4k)" height="60.9551" id="Commit" style="stroke: #A80036; stroke-width: 1.5;" width="97" x="30.5" y="149"/><ellipse cx="54.95" cy="165" fill="#ADD1B2" rx="11" ry="11" style="stroke: #A80036; stroke-width: 1.0;"/><path d="M57.4231,171.1431 Q56.8421,171.4419 56.2029,171.5913 Q55.5638,171.7407 54.8582,171.7407 Q52.3514,171.7407 51.0315,170.0889 Q49.7117,168.437 49.7117,165.3159 Q49.7117,162.1865 51.0315,160.5347 Q52.3514,158.8828 54.8582,158.8828 Q55.5638,158.8828 56.2112,159.0322 Q56.8587,159.1816 57.4231,159.4805 L57.4231,162.2031 Q56.7923,161.6221 56.1988,161.3523 Q55.6053,161.0825 54.9744,161.0825 Q53.6297,161.0825 52.9449,162.1492 Q52.2601,163.2158 52.2601,165.3159 Q52.2601,167.4077 52.9449,168.4744 Q53.6297,169.541 54.9744,169.541 Q55.6053,169.541 56.1988,169.2712 Q56.7923,169.0015 57.4231,168.4204 Z "/><text fill="#000000" font-family="sans-serif" font-size="12" lengthAdjust="spacingAndGlyphs" textLength="44" x="71.05" y="169.5352">Commit</text><line style="stroke: #A80036; stroke-width: 1.5;" x1="31.5" x2="126.5" y1="181" y2="181"/><text fill="#000000" font-family="sans-serif" font-size="11" lengthAdjust="spacingAndGlyphs" textLength="85" x="36.5" y="195.6348">String comment</text><line style="stroke: #A80036; stroke-width: 1.5;" x1="31.5" x2="126.5" y1="201.9551" y2="201.9551"/><!--MD5=[fe9c6f2731d07227b35843baf693a5e7]
class CommitItem--><rect fill="#FEFECE" filter="url(#ff39w8617qb4k)" height="48" id="CommitItem" style="stroke: #A80036; stroke-width: 1.5;" width="101" x="69.5" y="802"/><ellipse cx="84.5" cy="818" fill="#ADD1B2" rx="11" ry="11" style="stroke: #A80036; stroke-width: 1.0;"/><path d="M86.9731,824.1431 Q86.3921,824.4419 85.7529,824.5913 Q85.1138,824.7407 84.4082,824.7407 Q81.9014,824.7407 80.5815,823.0889 Q79.2617,821.437 79.2617,818.3159 Q79.2617,815.1865 80.5815,813.5347 Q81.9014,811.8828 84.4082,811.8828 Q85.1138,811.8828 85.7612,812.0322 Q86.4087,812.1816 86.9731,812.4805 L86.9731,815.2031 Q86.3423,814.6221 85.7488,814.3523 Q85.1553,814.0825 84.5244,814.0825 Q83.1797,814.0825 82.4949,815.1492 Q81.8101,816.2158 81.8101,818.3159 Q81.8101,820.4077 82.4949,821.4744 Q83.1797,822.541 84.5244,822.541 Q85.1553,822.541 85.7488,822.2712 Q86.3423,822.0015 86.9731,821.4204 Z "/><text fill="#000000" font-family="sans-serif" font-size="12" lengthAdjust="spacingAndGlyphs" textLength="69" x="98.5" y="822.5352">CommitItem</text><line style="stroke: #A80036; stroke-width: 1.5;" x1="70.5" x2="169.5" y1="834" y2="834"/><line style="stroke: #A80036; stroke-width: 1.5;" x1="70.5" x2="169.5" y1="842" y2="842"/><!--MD5=[bbeb7d1f7fcd613e5793450d43511a2e]
class Committer--><rect fill="#FEFECE" filter="url(#ff39w8617qb4k)" height="60.9551" id="Committer" style="stroke: #A80036; stroke-width: 1.5;" width="92" x="131.5" y="309"/><ellipse cx="146.5" cy="325" fill="#ADD1B2" rx="11" ry="11" style="stroke: #A80036; stroke-width: 1.0;"/><path d="M148.9731,331.1431 Q148.3921,331.4419 147.7529,331.5913 Q147.1138,331.7407 146.4082,331.7407 Q143.9014,331.7407 142.5815,330.0889 Q141.2617,328.437 141.2617,325.3159 Q141.2617,322.1865 142.5815,320.5347 Q143.9014,318.8828 146.4082,318.8828 Q147.1138,318.8828 147.7612,319.0322 Q148.4087,319.1816 148.9731,319.4805 L148.9731,322.2031 Q148.3423,321.6221 147.7488,321.3523 Q147.1553,321.0825 146.5244,321.0825 Q145.1797,321.0825 144.4949,322.1492 Q143.8101,323.2158 143.8101,325.3159 Q143.8101,327.4077 144.4949,328.4744 Q145.1797,329.541 146.5244,329.541 Q147.1553,329.541 147.7488,329.2712 Q148.3423,329.0015 148.9731,328.4204 Z "/><text fill="#000000" font-family="sans-serif" font-size="12" lengthAdjust="spacingAndGlyphs" textLength="60" x="160.5" y="329.5352">Committer</text><line style="stroke: #A80036; stroke-width: 1.5;" x1="132.5" x2="222.5" y1="341" y2="341"/><text fill="#000000" font-family="sans-serif" font-size="11" lengthAdjust="spacingAndGlyphs" textLength="64" x="137.5" y="355.6348">String name</text><line style="stroke: #A80036; stroke-width: 1.5;" x1="132.5" x2="222.5" y1="361.9551" y2="361.9551"/><!--MD5=[a9843e3db38737ec913241a35c12e56c]
class RepositoryFile--><rect fill="#FEFECE" filter="url(#ff39w8617qb4k)" height="73.9102" id="RepositoryFile" style="stroke: #A80036; stroke-width: 1.5;" width="112" x="134.5" y="629.5"/><ellipse cx="149.5" cy="645.5" fill="#ADD1B2" rx="11" ry="11" style="stroke: #A80036; stroke-width: 1.0;"/><path d="M151.9731,651.6431 Q151.3921,651.9419 150.7529,652.0913 Q150.1138,652.2407 149.4082,652.2407 Q146.9014,652.2407 145.5815,650.5889 Q144.2617,648.937 144.2617,645.8159 Q144.2617,642.6865 145.5815,641.0347 Q146.9014,639.3828 149.4082,639.3828 Q150.1138,639.3828 150.7612,639.5322 Q151.4087,639.6816 151.9731,639.9805 L151.9731,642.7031 Q151.3423,642.1221 150.7488,641.8523 Q150.1553,641.5825 149.5244,641.5825 Q148.1797,641.5825 147.4949,642.6492 Q146.8101,643.7158 146.8101,645.8159 Q146.8101,647.9077 147.4949,648.9744 Q148.1797,650.041 149.5244,650.041 Q150.1553,650.041 150.7488,649.7712 Q151.3423,649.5015 151.9731,648.9204 Z "/><text fill="#000000" font-family="sans-serif" font-size="12" lengthAdjust="spacingAndGlyphs" textLength="80" x="163.5" y="650.0352">RepositoryFile</text><line style="stroke: #A80036; stroke-width: 1.5;" x1="135.5" x2="245.5" y1="661.5" y2="661.5"/><text fill="#000000" font-family="sans-serif" font-size="11" lengthAdjust="spacingAndGlyphs" textLength="80" x="140.5" y="676.1348">String filename</text><text fill="#000000" font-family="sans-serif" font-size="11" lengthAdjust="spacingAndGlyphs" textLength="66" x="140.5" y="689.0898">boolean test</text><line style="stroke: #A80036; stroke-width: 1.5;" x1="135.5" x2="245.5" y1="695.4102" y2="695.4102"/><!--MD5=[79d378210367c0c6ec62ef762ddfbd1b]
class Project--><rect fill="#FEFECE" filter="url(#ff39w8617qb4k)" height="60.9551" id="Project" style="stroke: #A80036; stroke-width: 1.5;" width="76" x="166.5" y="8"/><ellipse cx="183.3" cy="24" fill="#ADD1B2" rx="11" ry="11" style="stroke: #A80036; stroke-width: 1.0;"/><path d="M185.7731,30.1431 Q185.1921,30.4419 184.5529,30.5913 Q183.9138,30.7407 183.2082,30.7407 Q180.7014,30.7407 179.3815,29.0889 Q178.0617,27.437 178.0617,24.3159 Q178.0617,21.1865 179.3815,19.5347 Q180.7014,17.8828 183.2082,17.8828 Q183.9138,17.8828 184.5612,18.0322 Q185.2087,18.1816 185.7731,18.4805 L185.7731,21.2031 Q185.1423,20.6221 184.5488,20.3523 Q183.9553,20.0825 183.3244,20.0825 Q181.9797,20.0825 181.2949,21.1492 Q180.6101,22.2158 180.6101,24.3159 Q180.6101,26.4077 181.2949,27.4744 Q181.9797,28.541 183.3244,28.541 Q183.9553,28.541 184.5488,28.2712 Q185.1423,28.0015 185.7731,27.4204 Z "/><text fill="#000000" font-family="sans-serif" font-size="12" lengthAdjust="spacingAndGlyphs" textLength="40" x="197.7" y="28.5352">Project</text><line style="stroke: #A80036; stroke-width: 1.5;" x1="167.5" x2="241.5" y1="40" y2="40"/><text fill="#000000" font-family="sans-serif" font-size="11" lengthAdjust="spacingAndGlyphs" textLength="64" x="172.5" y="54.6348">String name</text><line style="stroke: #A80036; stroke-width: 1.5;" x1="167.5" x2="241.5" y1="60.9551" y2="60.9551"/><!--MD5=[2b7409a316d9d2e410653e6983353aed]
class Module--><rect fill="#FEFECE" filter="url(#ff39w8617qb4k)" height="60.9551" id="Module" style="stroke: #A80036; stroke-width: 1.5;" width="123" x="294.5" y="149"/><ellipse cx="331.55" cy="165" fill="#ADD1B2" rx="11" ry="11" style="stroke: #A80036; stroke-width: 1.0;"/><path d="M334.0231,171.1431 Q333.4421,171.4419 332.8029,171.5913 Q332.1638,171.7407 331.4582,171.7407 Q328.9514,171.7407 327.6315,170.0889 Q326.3117,168.437 326.3117,165.3159 Q326.3117,162.1865 327.6315,160.5347 Q328.9514,158.8828 331.4582,158.8828 Q332.1638,158.8828 332.8112,159.0322 Q333.4587,159.1816 334.0231,159.4805 L334.0231,162.2031 Q333.3923,161.6221 332.7988,161.3523 Q332.2053,161.0825 331.5744,161.0825 Q330.2297,161.0825 329.5449,162.1492 Q328.8601,163.2158 328.8601,165.3159 Q328.8601,167.4077 329.5449,168.4744 Q330.2297,169.541 331.5744,169.541 Q332.2053,169.541 332.7988,169.2712 Q333.3923,169.0015 334.0231,168.4204 Z "/><text fill="#000000" font-family="sans-serif" font-size="12" lengthAdjust="spacingAndGlyphs" textLength="42" x="350.45" y="169.5352">Module</text><line style="stroke: #A80036; stroke-width: 1.5;" x1="295.5" x2="416.5" y1="181" y2="181"/><text fill="#000000" font-family="sans-serif" font-size="11" lengthAdjust="spacingAndGlyphs" textLength="111" x="300.5" y="195.6348">String qualifiedName</text><line style="stroke: #A80036; stroke-width: 1.5;" x1="295.5" x2="416.5" y1="201.9551" y2="201.9551"/><!--MD5=[4e2ad48a1abc117fdc6f339da0f64213]
class Package--><rect fill="#FEFECE" filter="url(#ff39w8617qb4k)" height="60.9551" id="Package" style="stroke: #A80036; stroke-width: 1.5;" width="123" x="307.5" y="309"/><ellipse cx="341.85" cy="325" fill="#ADD1B2" rx="11" ry="11" style="stroke: #A80036; stroke-width: 1.0;"/><path d="M344.3231,331.1431 Q343.7421,331.4419 343.1029,331.5913 Q342.4638,331.7407 341.7582,331.7407 Q339.2514,331.7407 337.9315,330.0889 Q336.6117,328.437 336.6117,325.3159 Q336.6117,322.1865 337.9315,320.5347 Q339.2514,318.8828 341.7582,318.8828 Q342.4638,318.8828 343.1112,319.0322 Q343.7587,319.1816 344.3231,319.4805 L344.3231,322.2031 Q343.6923,321.6221 343.0988,321.3523 Q342.5053,321.0825 341.8744,321.0825 Q340.5297,321.0825 339.8449,322.1492 Q339.1601,323.2158 339.1601,325.3159 Q339.1601,327.4077 339.8449,328.4744 Q340.5297,329.541 341.8744,329.541 Q342.5053,329.541 343.0988,329.2712 Q343.6923,329.0015 344.3231,328.4204 Z "/><text fill="#000000" font-family="sans-serif" font-size="12" lengthAdjust="spacingAndGlyphs" textLength="48" x="360.15" y="329.5352">Package</text><line style="stroke: #A80036; stroke-width: 1.5;" x1="308.5" x2="429.5" y1="341" y2="341"/><text fill="#000000" font-family="sans-serif" font-size="11" lengthAdjust="spacingAndGlyphs" textLength="111" x="313.5" y="355.6348">String qualifiedName</text><line style="stroke: #A80036; stroke-width: 1.5;" x1="308.5" x2="429.5" y1="361.9551" y2="361.9551"/><!--MD5=[2e891683acf1a0719967eaee65adc62f]
class Clazz--><rect fill="#FEFECE" filter="url(#ff39w8617qb4k)" height="60.9551" id="Clazz" style="stroke: #A80036; stroke-width: 1.5;" width="123" x="219.5" y="469"/><ellipse cx="261.05" cy="485" fill="#ADD1B2" rx="11" ry="11" style="stroke: #A80036; stroke-width: 1.0;"/><path d="M263.5231,491.1431 Q262.9421,491.4419 262.3029,491.5913 Q261.6638,491.7407 260.9582,491.7407 Q258.4514,491.7407 257.1315,490.0889 Q255.8117,488.437 255.8117,485.3159 Q255.8117,482.1865 257.1315,480.5347 Q258.4514,478.8828 260.9582,478.8828 Q261.6638,478.8828 262.3112,479.0322 Q262.9587,479.1816 263.5231,479.4805 L263.5231,482.2031 Q262.8923,481.6221 262.2988,481.3523 Q261.7053,481.0825 261.0744,481.0825 Q259.7297,481.0825 259.0449,482.1492 Q258.3601,483.2158 258.3601,485.3159 Q258.3601,487.4077 259.0449,488.4744 Q259.7297,489.541 261.0744,489.541 Q261.7053,489.541 262.2988,489.2712 Q262.8923,489.0015 263.5231,488.4204 Z "/><text fill="#000000" font-family="sans-serif" font-size="12" lengthAdjust="spacingAndGlyphs" textLength="32" x="280.95" y="489.5352">Clazz</text><line style="stroke: #A80036; stroke-width: 1.5;" x1="220.5" x2="341.5" y1="501" y2="501"/><text fill="#000000" font-family="sans-serif" font-size="11" lengthAdjust="spacingAndGlyphs" textLength="111" x="225.5" y="515.6348">String qualifiedName</text><line style="stroke: #A80036; stroke-width: 1.5;" x1="220.5" x2="341.5" y1="521.9551" y2="521.9551"/><!--MD5=[f92f1790d33dca39fba2b82cb91a130e]
reverse link Commit to CommitItem--><path d="M77.3,222.33 C73.25,313.98 67.28,537.4 93.5,722 C97.48,750 106.34,781.32 112.84,802 " fill="none" id="Commit&lt;-CommitItem" style="stroke: #A80036; stroke-width: 1.0;"/><polygon fill="#A80036" points="77.9,209.28,73.6273,215.089,77.3461,221.2672,81.6188,215.4582,77.9,209.28" style="stroke: #A80036; stroke-width: 1.0;"/><text fill="#000000" font-family="sans-serif" font-size="13" lengthAdjust="spacingAndGlyphs" textLength="8" x="64.4175" y="230.9904">1</text><text fill="#000000" font-family="sans-serif" font-size="13" lengthAdjust="spacingAndGlyphs" textLength="6" x="104.1095" y="791.1445">*</text><!--MD5=[b1dc121f6fc1e5c7fa2933b94fb301bd]
reverse link Commit to Committer--><path d="M104.69,220.61 C121.8,248.19 144.02,284.02 159.39,308.81 " fill="none" id="Commit&lt;-Committer" style="stroke: #A80036; stroke-width: 1.0;"/><polygon fill="#FFFFFF" points="97.7,209.35,97.4603,216.5571,104.0208,219.5504,104.2605,212.3433,97.7,209.35" style="stroke: #A80036; stroke-width: 1.0;"/><text fill="#000000" font-family="sans-serif" font-size="13" lengthAdjust="spacingAndGlyphs" textLength="8" x="146.5534" y="298.0632">1</text><!--MD5=[39c2bc05cb9662ed86c13bddc7ffa097]
reverse link RepositoryFile to CommitItem--><path d="M169.51,714.73 C156.69,743.57 140.88,779.15 130.74,801.96 " fill="none" id="RepositoryFile&lt;-CommitItem" style="stroke: #A80036; stroke-width: 1.0;"/><polygon fill="#FFFFFF" points="174.79,702.85,168.7009,706.7131,169.9249,713.8195,176.014,709.9565,174.79,702.85" style="stroke: #A80036; stroke-width: 1.0;"/><text fill="#000000" font-family="sans-serif" font-size="13" lengthAdjust="spacingAndGlyphs" textLength="8" x="150.5293" y="724.3848">1</text><text fill="#000000" font-family="sans-serif" font-size="13" lengthAdjust="spacingAndGlyphs" textLength="6" x="126.8201" y="791.0937">*</text><!--MD5=[b68a8256e0c120770947d2467eb30d44]
reverse link Project to Module--><path d="M246.89,78.13 C271.47,100.52 301.91,128.26 324.47,148.81 " fill="none" id="Project&lt;-Module" style="stroke: #A80036; stroke-width: 1.0;"/><polygon fill="#FFFFFF" points="237.11,69.21,238.8522,76.2075,245.9815,77.2906,244.2393,70.2931,237.11,69.21" style="stroke: #A80036; stroke-width: 1.0;"/><!--MD5=[3b0e8728c17b95492917d6fa76cf26a5]
reverse link Module to Package--><path d="M359.99,222.47 C362.24,249.79 365.1,284.58 367.1,308.81 " fill="none" id="Module&lt;-Package" style="stroke: #A80036; stroke-width: 1.0;"/><polygon fill="#A80036" points="358.91,209.35,355.4181,215.6592,359.8989,221.3092,363.3908,215,358.91,209.35" style="stroke: #A80036; stroke-width: 1.0;"/><text fill="#000000" font-family="sans-serif" font-size="13" lengthAdjust="spacingAndGlyphs" textLength="8" x="349.7928" y="230.0093">1</text><text fill="#000000" font-family="sans-serif" font-size="13" lengthAdjust="spacingAndGlyphs" textLength="6" x="360.0281" y="298.0632">*</text><!--MD5=[1ead5360a5ca7cf345ecaf5763336fef]
reverse link Package to Clazz--><path d="M346.68,380.98 C331.34,408.51 311.5,444.13 297.76,468.81 " fill="none" id="Package&lt;-Clazz" style="stroke: #A80036; stroke-width: 1.0;"/><polygon fill="#A80036" points="353.15,369.35,346.7353,372.6442,347.3089,379.8324,353.7236,376.5383,353.15,369.35" style="stroke: #A80036; stroke-width: 1.0;"/><text fill="#000000" font-family="sans-serif" font-size="13" lengthAdjust="spacingAndGlyphs" textLength="8" x="324.8038" y="390.0093">1</text><text fill="#000000" font-family="sans-serif" font-size="13" lengthAdjust="spacingAndGlyphs" textLength="6" x="294.77" y="458.0632">*</text><!--MD5=[82dfc5b81eb2d7dc82cbe769037f6772]
reverse link Clazz to RepositoryFile--><path d="M259.14,540.66 C244.21,567.82 224.75,603.21 210.37,629.37 " fill="none" id="Clazz&lt;-RepositoryFile" style="stroke: #A80036; stroke-width: 1.0;"/><polygon fill="#FFFFFF" points="265.44,529.21,259.0447,532.5418,259.6605,539.7265,266.0558,536.3948,265.44,529.21" style="stroke: #A80036; stroke-width: 1.0;"/><!--MD5=[e620e5d22e4ad35969ff8524b6a2e507]
reverse link Project to Committer--><path d="M200.63,82.27 C195.06,143.87 184.92,255.93 180.14,308.85 " fill="none" id="Project&lt;-Committer" style="stroke: #A80036; stroke-width: 1.0;"/><polygon fill="#A80036" points="201.81,69.21,197.2854,74.825,200.7283,81.1612,205.2529,75.5461,201.81,69.21" style="stroke: #A80036; stroke-width: 1.0;"/><text fill="#000000" font-family="sans-serif" font-size="13" lengthAdjust="spacingAndGlyphs" textLength="6" x="174.0612" y="298.1119">*</text><!--MD5=[d67fcd30220c88b030ab6a961d819f77]
reverse link Project to Commit--><path d="M168.83,79.03 C148.76,101.26 124.15,128.53 105.84,148.81 " fill="none" id="Project&lt;-Commit" style="stroke: #A80036; stroke-width: 1.0;"/><polygon fill="#A80036" points="177.68,69.21,170.6894,70.9796,169.6342,78.1131,176.6248,76.3435,177.68,69.21" style="stroke: #A80036; stroke-width: 1.0;"/><text fill="#000000" font-family="sans-serif" font-size="13" lengthAdjust="spacingAndGlyphs" textLength="6" x="105.055" y="138.0632">*</text><!--MD5=[86711a2dd84b695f5656663f34604257]
@startuml

class Commit {
  String comment
}

Class CommitItem
class Committer {
  String name
}

class RepositoryFile {
  String filename
  boolean test
}

class Project {
  String name
}

class Module {
  String qualifiedName
}

class Package {
  String qualifiedName
}

class Clazz {
  String qualifiedName
}

Commit "1" *- - "*" CommitItem
Commit o- - "1" Committer
RepositoryFile "1" o- - "*" CommitItem

Project o- - Module
Module "1" *- -  "*" Package
Package "1" *- - "*" Clazz
Clazz o- - RepositoryFile

Project *- - "*" Committer
Project *- - "*" Commit

@enduml

PlantUML version 1.2020.06(Sun Apr 05 14:38:32 CEST 2020)
(APACHE source distribution)
Java Runtime: OpenJDK Runtime Environment
JVM: OpenJDK 64-Bit Server VM
Java Version: 19+36-2238
Operating System: Mac OS X
Default Encoding: UTF-8
Language: en
Country: CH
--></g></svg>