<?xml version="1.0" encoding="UTF-8" standalone="no"?><svg xmlns="http://www.w3.org/2000/svg" xmlns:xlink="http://www.w3.org/1999/xlink" contentScriptType="application/ecmascript" contentStyleType="text/css" height="632px" preserveAspectRatio="none" style="width:1651px;height:632px;" version="1.1" viewBox="0 0 1651 632" width="1651px" zoomAndPan="magnify"><defs><filter height="300%" id="f199jfe5m2pbrg" width="300%" x="-1" y="-1"><feGaussianBlur result="blurOut" stdDeviation="2.0"/><feColorMatrix in="blurOut" result="blurOut2" type="matrix" values="0 0 0 0 0 0 0 0 0 0 0 0 0 0 0 0 0 0 .4 0"/><feOffset dx="4.0" dy="4.0" in="blurOut2" result="blurOut3"/><feBlend in="SourceGraphic" in2="blurOut3" mode="normal"/></filter></defs><g><rect fill="#FEFECE" filter="url(#f199jfe5m2pbrg)" height="36.4883" rx="12.5" ry="12.5" style="stroke: #A80036; stroke-width: 1.5;" width="72" x="704" y="302.4414"/><text fill="#000000" font-family="sans-serif" font-size="14" lengthAdjust="spacingAndGlyphs" textLength="52" x="714" y="325.9766">DevOps</text><rect fill="#FEFECE" filter="url(#f199jfe5m2pbrg)" height="36.4883" rx="12.5" ry="12.5" style="stroke: #A80036; stroke-width: 1.5;" width="125" x="826" y="302.4414"/><text fill="#000000" font-family="sans-serif" font-size="14" lengthAdjust="spacingAndGlyphs" textLength="105" x="836" y="325.9766">Documentation</text><rect fill="#FEFECE" filter="url(#f199jfe5m2pbrg)" height="36.4883" rx="12.5" ry="12.5" style="stroke: #A80036; stroke-width: 1.5;" width="73" x="1001" y="217.709"/><text fill="#000000" font-family="sans-serif" font-size="14" lengthAdjust="spacingAndGlyphs" textLength="53" x="1011" y="241.2441">JavaDoc</text><rect fill="#FEFECE" filter="url(#f199jfe5m2pbrg)" height="36.4883" rx="12.5" ry="12.5" style="stroke: #A80036; stroke-width: 1.5;" width="119" x="1124" y="217.709"/><text fill="#000000" font-family="sans-serif" font-size="14" lengthAdjust="spacingAndGlyphs" textLength="99" x="1134" y="241.2441">Code Snippets</text><path d="M1074,235.9531 L1084,235.9531 C1099,235.9531 1099,235.9531 1114,235.9531 L1124,235.9531 " fill="none" style="stroke: #A80036; stroke-width: 1.0;"/><path d="M951,320.6855 L961,320.6855 C976,320.6855 976,235.9531 991,235.9531 L1001,235.9531 " fill="none" style="stroke: #A80036; stroke-width: 1.0;"/><rect fill="#FEFECE" filter="url(#f199jfe5m2pbrg)" height="36.4883" rx="12.5" ry="12.5" style="stroke: #A80036; stroke-width: 1.5;" width="144" x="1001" y="302.4414"/><text fill="#000000" font-family="sans-serif" font-size="14" lengthAdjust="spacingAndGlyphs" textLength="124" x="1011" y="325.9766">Diagrams as Code</text><rect fill="#FEFECE" filter="url(#f199jfe5m2pbrg)" height="36.4883" rx="12.5" ry="12.5" style="stroke: #A80036; stroke-width: 1.5;" width="84" x="1195" y="274.1973"/><text fill="#000000" font-family="sans-serif" font-size="14" lengthAdjust="spacingAndGlyphs" textLength="64" x="1205" y="297.7324">plantUML</text><path d="M1145,320.6855 L1155,320.6855 C1170,320.6855 1170,292.4414 1185,292.4414 L1195,292.4414 " fill="none" style="stroke: #A80036; stroke-width: 1.0;"/><rect fill="#FEFECE" filter="url(#f199jfe5m2pbrg)" height="36.4883" rx="12.5" ry="12.5" style="stroke: #A80036; stroke-width: 1.5;" width="80" x="1195" y="330.6855"/><text fill="#000000" font-family="sans-serif" font-size="14" lengthAdjust="spacingAndGlyphs" textLength="60" x="1205" y="354.2207">Mermaid</text><path d="M1145,320.6855 L1155,320.6855 C1170,320.6855 1170,348.9297 1185,348.9297 L1195,348.9297 " fill="none" style="stroke: #A80036; stroke-width: 1.0;"/><path d="M951,320.6855 L961,320.6855 C976,320.6855 976,320.6855 991,320.6855 L1001,320.6855 " fill="none" style="stroke: #A80036; stroke-width: 1.0;"/><rect fill="#FEFECE" filter="url(#f199jfe5m2pbrg)" height="36.4883" rx="12.5" ry="12.5" style="stroke: #A80036; stroke-width: 1.5;" width="193" x="1001" y="387.1738"/><text fill="#000000" font-family="sans-serif" font-size="14" lengthAdjust="spacingAndGlyphs" textLength="173" x="1011" y="410.709">Hugo Docsy and AsciiDoc</text><rect fill="#FEFECE" filter="url(#f199jfe5m2pbrg)" height="36.4883" rx="12.5" ry="12.5" style="stroke: #A80036; stroke-width: 1.5;" width="396" x="1244" y="387.1738"/><text fill="#000000" font-family="sans-serif" font-size="14" lengthAdjust="spacingAndGlyphs" textLength="376" x="1254" y="410.709">Integration Tests as AsciiDoc requirements by Example</text><path d="M1194,405.418 L1204,405.418 C1219,405.418 1219,405.418 1234,405.418 L1244,405.418 " fill="none" style="stroke: #A80036; stroke-width: 1.0;"/><path d="M951,320.6855 L961,320.6855 C976,320.6855 976,405.418 991,405.418 L1001,405.418 " fill="none" style="stroke: #A80036; stroke-width: 1.0;"/><path d="M776,320.6855 L786,320.6855 C801,320.6855 801,320.6855 816,320.6855 L826,320.6855 " fill="none" style="stroke: #A80036; stroke-width: 1.0;"/><rect fill="#FEFECE" filter="url(#f199jfe5m2pbrg)" height="36.4883" rx="12.5" ry="12.5" style="stroke: #A80036; stroke-width: 1.5;" width="88" x="566" y="132.9766"/><text fill="#000000" font-family="sans-serif" font-size="14" lengthAdjust="spacingAndGlyphs" textLength="68" x="576" y="156.5117">CI/CD/CD</text><rect fill="#FEFECE" filter="url(#f199jfe5m2pbrg)" height="36.4883" rx="12.5" ry="12.5" style="stroke: #A80036; stroke-width: 1.5;" width="65" x="451" y="76.4883"/><text fill="#000000" font-family="sans-serif" font-size="14" lengthAdjust="spacingAndGlyphs" textLength="45" x="461" y="100.0234">Gradle</text><rect fill="#FEFECE" filter="url(#f199jfe5m2pbrg)" height="36.4883" rx="12.5" ry="12.5" style="stroke: #A80036; stroke-width: 1.5;" width="100" x="301" y="20"/><text fill="#000000" font-family="sans-serif" font-size="14" lengthAdjust="spacingAndGlyphs" textLength="80" x="311" y="43.5352">Current JDK</text><path d="M451,94.7324 L441,94.7324 C426,94.7324 426,38.2441 411,38.2441 L401,38.2441 " fill="none" style="stroke: #A80036; stroke-width: 1.0;"/><rect fill="#FEFECE" filter="url(#f199jfe5m2pbrg)" height="36.4883" rx="12.5" ry="12.5" style="stroke: #A80036; stroke-width: 1.5;" width="263" x="138" y="76.4883"/><text fill="#000000" font-family="sans-serif" font-size="14" lengthAdjust="spacingAndGlyphs" textLength="243" x="148" y="100.0234">Central dependencies management</text><path d="M451,94.7324 L441,94.7324 C426,94.7324 426,94.7324 411,94.7324 L401,94.7324 " fill="none" style="stroke: #A80036; stroke-width: 1.0;"/><rect fill="#FEFECE" filter="url(#f199jfe5m2pbrg)" height="36.4883" rx="12.5" ry="12.5" style="stroke: #A80036; stroke-width: 1.5;" width="115" x="286" y="132.9766"/><text fill="#000000" font-family="sans-serif" font-size="14" lengthAdjust="spacingAndGlyphs" textLength="95" x="296" y="156.5117">Project plugin</text><path d="M451,94.7324 L441,94.7324 C426,94.7324 426,151.2207 411,151.2207 L401,151.2207 " fill="none" style="stroke: #A80036; stroke-width: 1.0;"/><path d="M566,151.2207 L556,151.2207 C541,151.2207 541,94.7324 526,94.7324 L516,94.7324 " fill="none" style="stroke: #A80036; stroke-width: 1.0;"/><rect fill="#FEFECE" filter="url(#f199jfe5m2pbrg)" height="36.4883" rx="12.5" ry="12.5" style="stroke: #A80036; stroke-width: 1.5;" width="247" x="269" y="189.4648"/><text fill="#000000" font-family="sans-serif" font-size="14" lengthAdjust="spacingAndGlyphs" textLength="227" x="279" y="213">CI/ CD (GitHub, GitLab, BitBucket)</text><path d="M566,151.2207 L556,151.2207 C541,151.2207 541,207.709 526,207.709 L516,207.709 " fill="none" style="stroke: #A80036; stroke-width: 1.0;"/><rect fill="#FEFECE" filter="url(#f199jfe5m2pbrg)" height="36.4883" rx="12.5" ry="12.5" style="stroke: #A80036; stroke-width: 1.5;" width="104" x="412" y="245.9531"/><text fill="#000000" font-family="sans-serif" font-size="14" lengthAdjust="spacingAndGlyphs" textLength="84" x="422" y="269.4883">CD (Heroku)</text><path d="M566,151.2207 L556,151.2207 C541,151.2207 541,264.1973 526,264.1973 L516,264.1973 " fill="none" style="stroke: #A80036; stroke-width: 1.0;"/><path d="M704,320.6855 L694,320.6855 C679,320.6855 679,151.2207 664,151.2207 L654,151.2207 " fill="none" style="stroke: #A80036; stroke-width: 1.0;"/><rect fill="#FEFECE" filter="url(#f199jfe5m2pbrg)" height="36.4883" rx="12.5" ry="12.5" style="stroke: #A80036; stroke-width: 1.5;" width="124" x="530" y="358.9297"/><text fill="#000000" font-family="sans-serif" font-size="14" lengthAdjust="spacingAndGlyphs" textLength="104" x="540" y="382.4648">IntelliJ IDEA IDE</text><rect fill="#FEFECE" filter="url(#f199jfe5m2pbrg)" height="36.4883" rx="12.5" ry="12.5" style="stroke: #A80036; stroke-width: 1.5;" width="187" x="293" y="302.4414"/><text fill="#000000" font-family="sans-serif" font-size="14" lengthAdjust="spacingAndGlyphs" textLength="167" x="303" y="325.9766">Vulnerabilities Detection</text><path d="M530,377.1738 L520,377.1738 C505,377.1738 505,320.6855 490,320.6855 L480,320.6855 " fill="none" style="stroke: #A80036; stroke-width: 1.0;"/><rect fill="#FEFECE" filter="url(#f199jfe5m2pbrg)" height="36.4883" rx="12.5" ry="12.5" style="stroke: #A80036; stroke-width: 1.5;" width="206" x="274" y="358.9297"/><text fill="#000000" font-family="sans-serif" font-size="14" lengthAdjust="spacingAndGlyphs" textLength="186" x="284" y="382.4648">Refactoring and clean code</text><path d="M530,377.1738 L520,377.1738 C505,377.1738 505,377.1738 490,377.1738 L480,377.1738 " fill="none" style="stroke: #A80036; stroke-width: 1.0;"/><rect fill="#FEFECE" filter="url(#f199jfe5m2pbrg)" height="36.4883" rx="12.5" ry="12.5" style="stroke: #A80036; stroke-width: 1.5;" width="148" x="332" y="415.418"/><text fill="#000000" font-family="sans-serif" font-size="14" lengthAdjust="spacingAndGlyphs" textLength="128" x="342" y="438.9531">Mob Programming</text><path d="M530,377.1738 L520,377.1738 C505,377.1738 505,433.6621 490,433.6621 L480,433.6621 " fill="none" style="stroke: #A80036; stroke-width: 1.0;"/><path d="M704,320.6855 L694,320.6855 C679,320.6855 679,377.1738 664,377.1738 L654,377.1738 " fill="none" style="stroke: #A80036; stroke-width: 1.0;"/><rect fill="#FEFECE" filter="url(#f199jfe5m2pbrg)" height="36.4883" rx="12.5" ry="12.5" style="stroke: #A80036; stroke-width: 1.5;" width="84" x="570" y="528.3945"/><text fill="#000000" font-family="sans-serif" font-size="14" lengthAdjust="spacingAndGlyphs" textLength="64" x="580" y="551.9297">Solutions</text><rect fill="#FEFECE" filter="url(#f199jfe5m2pbrg)" height="36.4883" rx="12.5" ry="12.5" style="stroke: #A80036; stroke-width: 1.5;" width="67" x="453" y="471.9063"/><text fill="#000000" font-family="sans-serif" font-size="14" lengthAdjust="spacingAndGlyphs" textLength="47" x="463" y="495.4414">Vaadin</text><rect fill="#FEFECE" filter="url(#f199jfe5m2pbrg)" height="36.4883" rx="12.5" ry="12.5" style="stroke: #A80036; stroke-width: 1.5;" width="393" x="10" y="471.9063"/><text fill="#000000" font-family="sans-serif" font-size="14" lengthAdjust="spacingAndGlyphs" textLength="373" x="20" y="495.4414">Vaadin session is 10 MB, 1000 parallel users are 10 GB</text><path d="M453,490.1504 L443,490.1504 C428,490.1504 428,490.1504 413,490.1504 L403,490.1504 " fill="none" style="stroke: #A80036; stroke-width: 1.0;"/><path d="M570,546.6387 L560,546.6387 C545,546.6387 545,490.1504 530,490.1504 L520,490.1504 " fill="none" style="stroke: #A80036; stroke-width: 1.0;"/><rect fill="#FEFECE" filter="url(#f199jfe5m2pbrg)" height="36.4883" rx="12.5" ry="12.5" style="stroke: #A80036; stroke-width: 1.5;" width="314" x="206" y="528.3945"/><text fill="#000000" font-family="sans-serif" font-size="14" lengthAdjust="spacingAndGlyphs" textLength="294" x="216" y="551.9297">Standalone Application without J2EE server</text><path d="M570,546.6387 L560,546.6387 C545,546.6387 545,546.6387 530,546.6387 L520,546.6387 " fill="none" style="stroke: #A80036; stroke-width: 1.0;"/><rect fill="#FEFECE" filter="url(#f199jfe5m2pbrg)" height="36.4883" rx="12.5" ry="12.5" style="stroke: #A80036; stroke-width: 1.5;" width="313" x="207" y="584.8828"/><text fill="#000000" font-family="sans-serif" font-size="14" lengthAdjust="spacingAndGlyphs" textLength="293" x="217" y="608.418">MicroStream instead of relational database</text><path d="M570,546.6387 L560,546.6387 C545,546.6387 545,603.127 530,603.127 L520,603.127 " fill="none" style="stroke: #A80036; stroke-width: 1.0;"/><path d="M704,320.6855 L694,320.6855 C679,320.6855 679,546.6387 664,546.6387 L654,546.6387 " fill="none" style="stroke: #A80036; stroke-width: 1.0;"/><!--MD5=[159c0ccf8518e8194ceea536603776cf]
@startmindmap
- DevOps
- - CI/CD/CD
- - - Gradle
- - - - Current JDK
- - - - Central dependencies management
- - - - Project plugin
- - - CI/ CD (GitHub, GitLab, BitBucket)
- - - CD (Heroku)
- - IntelliJ IDEA IDE
- - - Vulnerabilities Detection
- - - Refactoring and clean code
- - - Mob Programming

++ Documentation
+++ JavaDoc
++++ Code Snippets
+++ Diagrams as Code
++++ plantUML
++++ Mermaid
+++ Hugo Docsy and AsciiDoc
++++ Integration Tests as AsciiDoc requirements by Example


- - Solutions
- - - Vaadin
- - - - Vaadin session is 10 MB, 1000 parallel users are 10 GB
- - - Standalone Application without J2EE server
- - - MicroStream instead of relational database
@endmindmap

PlantUML version 1.2020.06(Sun Apr 05 14:38:32 CEST 2020)
(APACHE source distribution)
Java Runtime: Java(TM) SE Runtime Environment
JVM: Java HotSpot(TM) 64-Bit Server VM
Java Version: 19+36-2238
Operating System: Mac OS X
Default Encoding: UTF-8
Language: en
Country: CH
--></g></svg>