<?xml version="1.0" encoding="UTF-8" standalone="no"?><svg xmlns="http://www.w3.org/2000/svg" xmlns:xlink="http://www.w3.org/1999/xlink" contentScriptType="application/ecmascript" contentStyleType="text/css" height="391px" preserveAspectRatio="none" style="width:460px;height:391px;" version="1.1" viewBox="0 0 460 391" width="460px" zoomAndPan="magnify"><defs><filter height="300%" id="f6mekb01p5szu" width="300%" x="-1" y="-1"><feGaussianBlur result="blurOut" stdDeviation="2.0"/><feColorMatrix in="blurOut" result="blurOut2" type="matrix" values="0 0 0 0 0 0 0 0 0 0 0 0 0 0 0 0 0 0 .4 0"/><feOffset dx="4.0" dy="4.0" in="blurOut2" result="blurOut3"/><feBlend in="SourceGraphic" in2="blurOut3" mode="normal"/></filter></defs><g><!--MD5=[322981259250c989c627ebbab836c554]
class SelectedItemListener--><rect fill="#FEFECE" filter="url(#f6mekb01p5szu)" height="48" id="SelectedItemListener" style="stroke: #A80036; stroke-width: 1.5;" width="162" x="6" y="8"/><ellipse cx="21" cy="24" fill="#DA70D6" rx="11" ry="11" style="stroke: #A80036; stroke-width: 1.0;"/><path d="M21.1133,28.958 L23.2964,18.6069 L25.7617,18.6069 L22.8149,31 L19.4199,31 L16.4731,18.6069 L18.9385,18.6069 Z "/><text fill="#000000" font-family="sans-serif" font-size="12" font-style="italic" lengthAdjust="spacingAndGlyphs" textLength="118" x="35" y="28.5352">SelectedItemListener</text><rect fill="#FFFFFF" height="16.1328" style="stroke: #000000; stroke-width: 1.0; stroke-dasharray: 2.0,2.0;" width="10" x="161" y="5"/><text fill="#000000" font-family="sans-serif" font-size="12" font-style="italic" lengthAdjust="spacingAndGlyphs" textLength="8" x="162" y="17.6016">T</text><line style="stroke: #A80036; stroke-width: 1.5;" x1="7" x2="167" y1="40" y2="40"/><line style="stroke: #A80036; stroke-width: 1.5;" x1="7" x2="167" y1="48" y2="48"/><!--MD5=[8677815073ab22f586b491b4fbd6204b]
class HasIdView--><rect fill="#FEFECE" filter="url(#f6mekb01p5szu)" height="48" id="HasIdView" style="stroke: #A80036; stroke-width: 1.5;" width="104" x="325" y="224"/><ellipse cx="340" cy="240" fill="#B4A7E5" rx="11" ry="11" style="stroke: #A80036; stroke-width: 1.0;"/><path d="M336.4277,236.2651 L336.4277,234.1069 L343.8071,234.1069 L343.8071,236.2651 L341.3418,236.2651 L341.3418,244.3418 L343.8071,244.3418 L343.8071,246.5 L336.4277,246.5 L336.4277,244.3418 L338.8931,244.3418 L338.8931,236.2651 Z "/><text fill="#000000" font-family="sans-serif" font-size="12" font-style="italic" lengthAdjust="spacingAndGlyphs" textLength="60" x="354" y="244.5352">HasIdView</text><rect fill="#FFFFFF" height="16.1328" style="stroke: #000000; stroke-width: 1.0; stroke-dasharray: 2.0,2.0;" width="10" x="422" y="221"/><text fill="#000000" font-family="sans-serif" font-size="12" font-style="italic" lengthAdjust="spacingAndGlyphs" textLength="8" x="423" y="233.6016">T</text><line style="stroke: #A80036; stroke-width: 1.5;" x1="326" x2="428" y1="256" y2="256"/><line style="stroke: #A80036; stroke-width: 1.5;" x1="326" x2="428" y1="264" y2="264"/><!--MD5=[daf4170f77a8eeefd5074220691dc2a6]
class CrudForm--><rect fill="#FEFECE" filter="url(#f6mekb01p5szu)" height="48" id="CrudForm" style="stroke: #A80036; stroke-width: 1.5;" width="101" x="244.5" y="116"/><ellipse cx="259.5" cy="132" fill="#B4A7E5" rx="11" ry="11" style="stroke: #A80036; stroke-width: 1.0;"/><path d="M255.9277,128.2651 L255.9277,126.1069 L263.3071,126.1069 L263.3071,128.2651 L260.8418,128.2651 L260.8418,136.3418 L263.3071,136.3418 L263.3071,138.5 L255.9277,138.5 L255.9277,136.3418 L258.3931,136.3418 L258.3931,128.2651 Z "/><text fill="#000000" font-family="sans-serif" font-size="12" font-style="italic" lengthAdjust="spacingAndGlyphs" textLength="57" x="273.5" y="136.5352">CrudForm</text><rect fill="#FFFFFF" height="16.1328" style="stroke: #000000; stroke-width: 1.0; stroke-dasharray: 2.0,2.0;" width="10" x="338.5" y="113"/><text fill="#000000" font-family="sans-serif" font-size="12" font-style="italic" lengthAdjust="spacingAndGlyphs" textLength="8" x="339.5" y="125.6016">T</text><line style="stroke: #A80036; stroke-width: 1.5;" x1="245.5" x2="344.5" y1="148" y2="148"/><line style="stroke: #A80036; stroke-width: 1.5;" x1="245.5" x2="344.5" y1="156" y2="156"/><!--MD5=[78bf021554bc65afd8e6284c640de188]
class Crud--><rect fill="#FEFECE" filter="url(#f6mekb01p5szu)" height="48" id="Crud" style="stroke: #A80036; stroke-width: 1.5;" width="72" x="137" y="116"/><ellipse cx="152" cy="132" fill="#ADD1B2" rx="11" ry="11" style="stroke: #A80036; stroke-width: 1.0;"/><path d="M154.4731,138.1431 Q153.8921,138.4419 153.2529,138.5913 Q152.6138,138.7407 151.9082,138.7407 Q149.4014,138.7407 148.0815,137.0889 Q146.7617,135.437 146.7617,132.3159 Q146.7617,129.1865 148.0815,127.5347 Q149.4014,125.8828 151.9082,125.8828 Q152.6138,125.8828 153.2612,126.0322 Q153.9087,126.1816 154.4731,126.4805 L154.4731,129.2031 Q153.8423,128.6221 153.2488,128.3523 Q152.6553,128.0825 152.0244,128.0825 Q150.6797,128.0825 149.9949,129.1492 Q149.3101,130.2158 149.3101,132.3159 Q149.3101,134.4077 149.9949,135.4744 Q150.6797,136.541 152.0244,136.541 Q152.6553,136.541 153.2488,136.2712 Q153.8423,136.0015 154.4731,135.4204 Z "/><text fill="#000000" font-family="sans-serif" font-size="12" lengthAdjust="spacingAndGlyphs" textLength="28" x="166" y="136.5352">Crud</text><rect fill="#FFFFFF" height="16.1328" style="stroke: #000000; stroke-width: 1.0; stroke-dasharray: 2.0,2.0;" width="10" x="202" y="113"/><text fill="#000000" font-family="sans-serif" font-size="12" font-style="italic" lengthAdjust="spacingAndGlyphs" textLength="8" x="203" y="125.6016">T</text><line style="stroke: #A80036; stroke-width: 1.5;" x1="138" x2="208" y1="148" y2="148"/><line style="stroke: #A80036; stroke-width: 1.5;" x1="138" x2="208" y1="156" y2="156"/><!--MD5=[37931d8d824e80614428c87980cf87fb]
class VerticalLayout--><rect fill="#FEFECE" filter="url(#f6mekb01p5szu)" height="48" id="VerticalLayout" style="stroke: #A80036; stroke-width: 1.5;" width="112" x="203" y="8"/><ellipse cx="218" cy="24" fill="#ADD1B2" rx="11" ry="11" style="stroke: #A80036; stroke-width: 1.0;"/><path d="M220.4731,30.1431 Q219.8921,30.4419 219.2529,30.5913 Q218.6138,30.7407 217.9082,30.7407 Q215.4014,30.7407 214.0815,29.0889 Q212.7617,27.437 212.7617,24.3159 Q212.7617,21.1865 214.0815,19.5347 Q215.4014,17.8828 217.9082,17.8828 Q218.6138,17.8828 219.2612,18.0322 Q219.9087,18.1816 220.4731,18.4805 L220.4731,21.2031 Q219.8423,20.6221 219.2488,20.3523 Q218.6553,20.0825 218.0244,20.0825 Q216.6797,20.0825 215.9949,21.1492 Q215.3101,22.2158 215.3101,24.3159 Q215.3101,26.4077 215.9949,27.4744 Q216.6797,28.541 218.0244,28.541 Q218.6553,28.541 219.2488,28.2712 Q219.8423,28.0015 220.4731,27.4204 Z "/><text fill="#000000" font-family="sans-serif" font-size="12" lengthAdjust="spacingAndGlyphs" textLength="80" x="232" y="28.5352">VerticalLayout</text><line style="stroke: #A80036; stroke-width: 1.5;" x1="204" x2="314" y1="40" y2="40"/><line style="stroke: #A80036; stroke-width: 1.5;" x1="204" x2="314" y1="48" y2="48"/><!--MD5=[ed72af65c3a96c89e2102fbd2bd1686d]
class EntitiesView--><rect fill="#FEFECE" filter="url(#f6mekb01p5szu)" height="48" id="EntitiesView" style="stroke: #A80036; stroke-width: 1.5;" width="112" x="178" y="224"/><ellipse cx="193" cy="240" fill="#A9DCDF" rx="11" ry="11" style="stroke: #A80036; stroke-width: 1.0;"/><path d="M192.8633,235.3481 L191.7095,240.4199 L194.0254,240.4199 Z M191.3691,233.1069 L194.3657,233.1069 L197.7109,245.5 L195.2622,245.5 L194.4985,242.437 L191.2197,242.437 L190.4727,245.5 L188.0239,245.5 Z "/><text fill="#000000" font-family="sans-serif" font-size="12" font-style="italic" lengthAdjust="spacingAndGlyphs" textLength="68" x="207" y="244.5352">EntitiesView</text><rect fill="#FFFFFF" height="16.1328" style="stroke: #000000; stroke-width: 1.0; stroke-dasharray: 2.0,2.0;" width="10" x="283" y="221"/><text fill="#000000" font-family="sans-serif" font-size="12" font-style="italic" lengthAdjust="spacingAndGlyphs" textLength="8" x="284" y="233.6016">T</text><line style="stroke: #A80036; stroke-width: 1.5;" x1="179" x2="289" y1="256" y2="256"/><line style="stroke: #A80036; stroke-width: 1.5;" x1="179" x2="289" y1="264" y2="264"/><!--MD5=[5528cfe817743d0e4b43f8d562800b14]
class InternalEntitiesView--><rect fill="#FEFECE" filter="url(#f6mekb01p5szu)" height="48" id="InternalEntitiesView" style="stroke: #A80036; stroke-width: 1.5;" width="282" x="164" y="332"/><ellipse cx="179" cy="348" fill="#A9DCDF" rx="11" ry="11" style="stroke: #A80036; stroke-width: 1.0;"/><path d="M178.8633,343.3481 L177.7095,348.4199 L180.0254,348.4199 Z M177.3691,341.1069 L180.3657,341.1069 L183.7109,353.5 L181.2622,353.5 L180.4985,350.437 L177.2197,350.437 L176.4727,353.5 L174.0239,353.5 Z "/><text fill="#000000" font-family="sans-serif" font-size="12" font-style="italic" lengthAdjust="spacingAndGlyphs" textLength="111" x="193" y="352.5352">InternalEntitiesView</text><rect fill="#FFFFFF" height="16.1328" style="stroke: #000000; stroke-width: 1.0; stroke-dasharray: 2.0,2.0;" width="137" x="312" y="329"/><text fill="#000000" font-family="sans-serif" font-size="12" font-style="italic" lengthAdjust="spacingAndGlyphs" textLength="135" x="313" y="341.6016">T extends NamedEntity</text><line style="stroke: #A80036; stroke-width: 1.5;" x1="165" x2="445" y1="364" y2="364"/><line style="stroke: #A80036; stroke-width: 1.5;" x1="165" x2="445" y1="372" y2="372"/><!--MD5=[bc87115568af4ad536129ed2ac0b4788]
reverse link VerticalLayout to Crud--><path d="M226.62,72.91 C214.88,87.38 202.02,103.24 191.83,115.79 " fill="none" id="VerticalLayout&lt;-Crud" style="stroke: #A80036; stroke-width: 1.0;"/><polygon fill="none" points="221.14,68.56,239.17,57.44,232.01,77.38,221.14,68.56" style="stroke: #A80036; stroke-width: 1.0;"/><!--MD5=[27672f301688fa6303beaad822a9143a]
reverse link SelectedItemListener to Crud--><path d="M119.38,72.91 C131.12,87.38 143.98,103.24 154.17,115.79 " fill="none" id="SelectedItemListener&lt;-Crud" style="stroke: #A80036; stroke-width: 1.0;"/><polygon fill="none" points="113.99,77.38,106.83,57.44,124.86,68.56,113.99,77.38" style="stroke: #A80036; stroke-width: 1.0;"/><!--MD5=[8e4240cb024263ff167c93544388d27b]
reverse link Crud to EntitiesView--><path d="M197.07,182.82 C205.09,196.77 213.74,211.79 220.64,223.79 " fill="none" id="Crud&lt;-EntitiesView" style="stroke: #A80036; stroke-width: 1.0;"/><polygon fill="none" points="191.05,186.4,187.14,165.57,203.18,179.42,191.05,186.4" style="stroke: #A80036; stroke-width: 1.0;"/><!--MD5=[b1fdf5438dfad51e3239dade4080a127]
reverse link CrudForm to EntitiesView--><path d="M270.93,182.82 C262.91,196.77 254.26,211.79 247.36,223.79 " fill="none" id="CrudForm&lt;-EntitiesView" style="stroke: #A80036; stroke-width: 1.0;"/><polygon fill="none" points="264.82,179.42,280.86,165.57,276.95,186.4,264.82,179.42" style="stroke: #A80036; stroke-width: 1.0;"/><!--MD5=[2ae015857cc815bb44175111ed2331d4]
reverse link EntitiesView to InternalEntitiesView--><path d="M261.37,289.86 C270.89,304.07 281.23,319.51 289.46,331.79 " fill="none" id="EntitiesView&lt;-InternalEntitiesView" style="stroke: #A80036; stroke-width: 1.0;"/><polygon fill="none" points="255.74,294.03,250.42,273.52,267.37,286.24,255.74,294.03" style="stroke: #A80036; stroke-width: 1.0;"/><!--MD5=[0e5a1352d944f04a06b44f59fc889604]
reverse link HasIdView to InternalEntitiesView--><path d="M349.24,289.86 C339.59,304.07 329.1,319.51 320.76,331.79 " fill="none" id="HasIdView&lt;-InternalEntitiesView" style="stroke: #A80036; stroke-width: 1.0;"/><polygon fill="none" points="343.32,286.13,360.35,273.51,354.9,293.99,343.32,286.13" style="stroke: #A80036; stroke-width: 1.0;"/><!--MD5=[95c084a231fa16f7d2ae36a79a858a69]
@startuml

interface SelectedItemListener<T> << (V,orchid) >> {}

interface HasIdView<T> {}

interface CrudForm<T> {}

class Crud<T> {}
VerticalLayout <|- - Crud
SelectedItemListener <|- - Crud

abstract class EntitiesView<T> {}
Crud <|- - EntitiesView
CrudForm <|- - EntitiesView

abstract class InternalEntitiesView<T extends NamedEntity> {}
EntitiesView <|- - InternalEntitiesView
HasIdView <|- - InternalEntitiesView

@enduml

PlantUML version 1.2020.06(Sun Apr 05 14:38:32 CEST 2020)
(APACHE source distribution)
Java Runtime: Java(TM) SE Runtime Environment
JVM: Java HotSpot(TM) 64-Bit Server VM
Java Version: 19.0.1+10-21
Operating System: Mac OS X
Default Encoding: UTF-8
Language: en
Country: CH
--></g></svg>