<?xml version="1.0" encoding="UTF-8" standalone="no"?><svg xmlns="http://www.w3.org/2000/svg" xmlns:xlink="http://www.w3.org/1999/xlink" contentScriptType="application/ecmascript" contentStyleType="text/css" height="442px" preserveAspectRatio="none" style="width:970px;height:442px;" version="1.1" viewBox="0 0 970 442" width="970px" zoomAndPan="magnify"><defs><filter height="300%" id="f1vzrkk2icwo8n" width="300%" x="-1" y="-1"><feGaussianBlur result="blurOut" stdDeviation="2.0"/><feColorMatrix in="blurOut" result="blurOut2" type="matrix" values="0 0 0 0 0 0 0 0 0 0 0 0 0 0 0 0 0 0 .4 0"/><feOffset dx="4.0" dy="4.0" in="blurOut2" result="blurOut3"/><feBlend in="SourceGraphic" in2="blurOut3" mode="normal"/></filter></defs><g><!--MD5=[3d8b1ae7933ec759d7a1bd764ba62fe5]
class HasInterval--><rect fill="#FEFECE" filter="url(#f1vzrkk2icwo8n)" height="73.9102" id="HasInterval" style="stroke: #A80036; stroke-width: 1.5;" width="128" x="569" y="237"/><ellipse cx="598.4" cy="253" fill="#B4A7E5" rx="11" ry="11" style="stroke: #A80036; stroke-width: 1.0;"/><path d="M594.8277,249.2651 L594.8277,247.1069 L602.2071,247.1069 L602.2071,249.2651 L599.7418,249.2651 L599.7418,257.3418 L602.2071,257.3418 L602.2071,259.5 L594.8277,259.5 L594.8277,257.3418 L597.2931,257.3418 L597.2931,249.2651 Z "/><text fill="#000000" font-family="sans-serif" font-size="12" font-style="italic" lengthAdjust="spacingAndGlyphs" textLength="64" x="615.6" y="257.5352">HasInterval</text><line style="stroke: #A80036; stroke-width: 1.5;" x1="570" x2="696" y1="269" y2="269"/><line style="stroke: #A80036; stroke-width: 1.5;" x1="570" x2="696" y1="277" y2="277"/><text fill="#000000" font-family="sans-serif" font-size="11" lengthAdjust="spacingAndGlyphs" textLength="116" x="575" y="291.6348">LocalDate fromDate();</text><text fill="#000000" font-family="sans-serif" font-size="11" lengthAdjust="spacingAndGlyphs" textLength="101" x="575" y="304.5898">LocalDate toDate();</text><!--MD5=[d4b4ee96f79293b862f9682772a2242f]
class SwissInsurancesYearlyCorrections--><rect fill="#FEFECE" filter="url(#f1vzrkk2icwo8n)" height="60.9551" id="SwissInsurancesYearlyCorrections" style="stroke: #A80036; stroke-width: 1.5;" width="223" x="179.5" y="371"/><ellipse cx="194.5" cy="387" fill="#ADD1B2" rx="11" ry="11" style="stroke: #A80036; stroke-width: 1.0;"/><path d="M196.9731,393.1431 Q196.3921,393.4419 195.7529,393.5913 Q195.1138,393.7407 194.4082,393.7407 Q191.9014,393.7407 190.5815,392.0889 Q189.2617,390.437 189.2617,387.3159 Q189.2617,384.1865 190.5815,382.5347 Q191.9014,380.8828 194.4082,380.8828 Q195.1138,380.8828 195.7612,381.0322 Q196.4087,381.1816 196.9731,381.4805 L196.9731,384.2031 Q196.3423,383.6221 195.7488,383.3523 Q195.1553,383.0825 194.5244,383.0825 Q193.1797,383.0825 192.4949,384.1492 Q191.8101,385.2158 191.8101,387.3159 Q191.8101,389.4077 192.4949,390.4744 Q193.1797,391.541 194.5244,391.541 Q195.1553,391.541 195.7488,391.2712 Q196.3423,391.0015 196.9731,390.4204 Z "/><text fill="#000000" font-family="sans-serif" font-size="12" lengthAdjust="spacingAndGlyphs" textLength="191" x="208.5" y="391.5352">SwissInsurancesYearlyCorrections</text><line style="stroke: #A80036; stroke-width: 1.5;" x1="180.5" x2="401.5" y1="403" y2="403"/><line style="stroke: #A80036; stroke-width: 1.5;" x1="180.5" x2="401.5" y1="411" y2="411"/><text fill="#000000" font-family="sans-serif" font-size="11" lengthAdjust="spacingAndGlyphs" textLength="61" x="185.5" y="425.6348">Year year();</text><!--MD5=[e32aee43ff1ea6d78022d7aa0dcdfe3d]
class SwissWageCard--><rect fill="#FEFECE" filter="url(#f1vzrkk2icwo8n)" height="60.9551" id="SwissWageCard" style="stroke: #A80036; stroke-width: 1.5;" width="121" x="437.5" y="371"/><ellipse cx="452.5" cy="387" fill="#ADD1B2" rx="11" ry="11" style="stroke: #A80036; stroke-width: 1.0;"/><path d="M454.9731,393.1431 Q454.3921,393.4419 453.7529,393.5913 Q453.1138,393.7407 452.4082,393.7407 Q449.9014,393.7407 448.5815,392.0889 Q447.2617,390.437 447.2617,387.3159 Q447.2617,384.1865 448.5815,382.5347 Q449.9014,380.8828 452.4082,380.8828 Q453.1138,380.8828 453.7612,381.0322 Q454.4087,381.1816 454.9731,381.4805 L454.9731,384.2031 Q454.3423,383.6221 453.7488,383.3523 Q453.1553,383.0825 452.5244,383.0825 Q451.1797,383.0825 450.4949,384.1492 Q449.8101,385.2158 449.8101,387.3159 Q449.8101,389.4077 450.4949,390.4744 Q451.1797,391.541 452.5244,391.541 Q453.1553,391.541 453.7488,391.2712 Q454.3423,391.0015 454.9731,390.4204 Z "/><text fill="#000000" font-family="sans-serif" font-size="12" lengthAdjust="spacingAndGlyphs" textLength="89" x="466.5" y="391.5352">SwissWageCard</text><line style="stroke: #A80036; stroke-width: 1.5;" x1="438.5" x2="557.5" y1="403" y2="403"/><line style="stroke: #A80036; stroke-width: 1.5;" x1="438.5" x2="557.5" y1="411" y2="411"/><text fill="#000000" font-family="sans-serif" font-size="11" lengthAdjust="spacingAndGlyphs" textLength="61" x="443.5" y="425.6348">Year year();</text><!--MD5=[f483d6e5de34a60207b28a5563be5e8b]
class Collaborator--><rect fill="#FEFECE" filter="url(#f1vzrkk2icwo8n)" height="60.9551" id="Collaborator" style="stroke: #A80036; stroke-width: 1.5;" width="143" x="323.5" y="243.5"/><ellipse cx="356.5" cy="259.5" fill="#ADD1B2" rx="11" ry="11" style="stroke: #A80036; stroke-width: 1.0;"/><path d="M358.9731,265.6431 Q358.3921,265.9419 357.7529,266.0913 Q357.1138,266.2407 356.4082,266.2407 Q353.9014,266.2407 352.5815,264.5889 Q351.2617,262.937 351.2617,259.8159 Q351.2617,256.6865 352.5815,255.0347 Q353.9014,253.3828 356.4082,253.3828 Q357.1138,253.3828 357.7612,253.5322 Q358.4087,253.6816 358.9731,253.9805 L358.9731,256.7031 Q358.3423,256.1221 357.7488,255.8523 Q357.1553,255.5825 356.5244,255.5825 Q355.1797,255.5825 354.4949,256.6492 Q353.8101,257.7158 353.8101,259.8159 Q353.8101,261.9077 354.4949,262.9744 Q355.1797,264.041 356.5244,264.041 Q357.1553,264.041 357.7488,263.7712 Q358.3423,263.5015 358.9731,262.9204 Z "/><text fill="#000000" font-family="sans-serif" font-size="12" lengthAdjust="spacingAndGlyphs" textLength="71" x="374.5" y="264.0352">Collaborator</text><line style="stroke: #A80036; stroke-width: 1.5;" x1="324.5" x2="465.5" y1="275.5" y2="275.5"/><rect fill="none" height="6" style="stroke: #C82930; stroke-width: 1.0;" width="6" x="331.5" y="283.5"/><text fill="#000000" font-family="sans-serif" font-size="11" lengthAdjust="spacingAndGlyphs" textLength="117" x="343.5" y="290.1348">long naturalEntityOid;</text><line style="stroke: #A80036; stroke-width: 1.5;" x1="324.5" x2="465.5" y1="296.4551" y2="296.4551"/><path d="M6,248.5 L6,289.1211 A0,0 0 0 0 6,289.1211 L288,289.1211 A0,0 0 0 0 288,289.1211 L288,272.8105 L327.5,285.9775 L288,264.8105 L288,258.5 L278,248.5 L6,248.5 A0,0 0 0 0 6,248.5 " fill="#FBFB77" filter="url(#f1vzrkk2icwo8n)" style="stroke: #A80036; stroke-width: 1.0;"/><path d="M278,248.5 L278,258.5 L288,258.5 L278,248.5 " fill="#FBFB77" style="stroke: #A80036; stroke-width: 1.0;"/><text fill="#000000" font-family="sans-serif" font-size="13" lengthAdjust="spacingAndGlyphs" textLength="261" x="12" y="266.0684">Reference to the associated natural entity</text><text fill="#000000" font-family="sans-serif" font-size="13" lengthAdjust="spacingAndGlyphs" textLength="182" x="12" y="281.3789">in the CRM bounded domain.</text><!--MD5=[461026a38b737c4ce5e8254b9a577e21]
class Contract--><rect fill="#FEFECE" filter="url(#f1vzrkk2icwo8n)" height="48" id="Contract" style="stroke: #A80036; stroke-width: 1.5;" width="80" x="355" y="129"/><ellipse cx="370" cy="145" fill="#ADD1B2" rx="11" ry="11" style="stroke: #A80036; stroke-width: 1.0;"/><path d="M372.4731,151.1431 Q371.8921,151.4419 371.2529,151.5913 Q370.6138,151.7407 369.9082,151.7407 Q367.4014,151.7407 366.0815,150.0889 Q364.7617,148.437 364.7617,145.3159 Q364.7617,142.1865 366.0815,140.5347 Q367.4014,138.8828 369.9082,138.8828 Q370.6138,138.8828 371.2612,139.0322 Q371.9087,139.1816 372.4731,139.4805 L372.4731,142.2031 Q371.8423,141.6221 371.2488,141.3523 Q370.6553,141.0825 370.0244,141.0825 Q368.6797,141.0825 367.9949,142.1492 Q367.3101,143.2158 367.3101,145.3159 Q367.3101,147.4077 367.9949,148.4744 Q368.6797,149.541 370.0244,149.541 Q370.6553,149.541 371.2488,149.2712 Q371.8423,149.0015 372.4731,148.4204 Z "/><text fill="#000000" font-family="sans-serif" font-size="12" lengthAdjust="spacingAndGlyphs" textLength="48" x="384" y="149.5352">Contract</text><line style="stroke: #A80036; stroke-width: 1.5;" x1="356" x2="434" y1="161" y2="161"/><line style="stroke: #A80036; stroke-width: 1.5;" x1="356" x2="434" y1="169" y2="169"/><!--MD5=[8bb24ca9a9d64e5aa366bbacb289931a]
class SwissInsurances--><rect fill="#FEFECE" filter="url(#f1vzrkk2icwo8n)" height="48" id="SwissInsurances" style="stroke: #A80036; stroke-width: 1.5;" width="123" x="470.5" y="129"/><ellipse cx="485.5" cy="145" fill="#ADD1B2" rx="11" ry="11" style="stroke: #A80036; stroke-width: 1.0;"/><path d="M487.9731,151.1431 Q487.3921,151.4419 486.7529,151.5913 Q486.1138,151.7407 485.4082,151.7407 Q482.9014,151.7407 481.5815,150.0889 Q480.2617,148.437 480.2617,145.3159 Q480.2617,142.1865 481.5815,140.5347 Q482.9014,138.8828 485.4082,138.8828 Q486.1138,138.8828 486.7612,139.0322 Q487.4087,139.1816 487.9731,139.4805 L487.9731,142.2031 Q487.3423,141.6221 486.7488,141.3523 Q486.1553,141.0825 485.5244,141.0825 Q484.1797,141.0825 483.4949,142.1492 Q482.8101,143.2158 482.8101,145.3159 Q482.8101,147.4077 483.4949,148.4744 Q484.1797,149.541 485.5244,149.541 Q486.1553,149.541 486.7488,149.2712 Q487.3423,149.0015 487.9731,148.4204 Z "/><text fill="#000000" font-family="sans-serif" font-size="12" lengthAdjust="spacingAndGlyphs" textLength="91" x="499.5" y="149.5352">SwissInsurances</text><line style="stroke: #A80036; stroke-width: 1.5;" x1="471.5" x2="592.5" y1="161" y2="161"/><line style="stroke: #A80036; stroke-width: 1.5;" x1="471.5" x2="592.5" y1="169" y2="169"/><!--MD5=[e94e8f277b2d4f1e0edb60fd61074a66]
class SwissPensionFunds--><rect fill="#FEFECE" filter="url(#f1vzrkk2icwo8n)" height="48" id="SwissPensionFunds" style="stroke: #A80036; stroke-width: 1.5;" width="140" x="629" y="129"/><ellipse cx="644" cy="145" fill="#ADD1B2" rx="11" ry="11" style="stroke: #A80036; stroke-width: 1.0;"/><path d="M646.4731,151.1431 Q645.8921,151.4419 645.2529,151.5913 Q644.6138,151.7407 643.9082,151.7407 Q641.4014,151.7407 640.0815,150.0889 Q638.7617,148.437 638.7617,145.3159 Q638.7617,142.1865 640.0815,140.5347 Q641.4014,138.8828 643.9082,138.8828 Q644.6138,138.8828 645.2612,139.0322 Q645.9087,139.1816 646.4731,139.4805 L646.4731,142.2031 Q645.8423,141.6221 645.2488,141.3523 Q644.6553,141.0825 644.0244,141.0825 Q642.6797,141.0825 641.9949,142.1492 Q641.3101,143.2158 641.3101,145.3159 Q641.3101,147.4077 641.9949,148.4744 Q642.6797,149.541 644.0244,149.541 Q644.6553,149.541 645.2488,149.2712 Q645.8423,149.0015 646.4731,148.4204 Z "/><text fill="#000000" font-family="sans-serif" font-size="12" lengthAdjust="spacingAndGlyphs" textLength="108" x="658" y="149.5352">SwissPensionFunds</text><line style="stroke: #A80036; stroke-width: 1.5;" x1="630" x2="768" y1="161" y2="161"/><line style="stroke: #A80036; stroke-width: 1.5;" x1="630" x2="768" y1="169" y2="169"/><!--MD5=[be89a52208b546c373d0fae740674809]
class SwissSocialInsurances--><rect fill="#FEFECE" filter="url(#f1vzrkk2icwo8n)" height="48" id="SwissSocialInsurances" style="stroke: #A80036; stroke-width: 1.5;" width="155" x="804.5" y="129"/><ellipse cx="819.5" cy="145" fill="#ADD1B2" rx="11" ry="11" style="stroke: #A80036; stroke-width: 1.0;"/><path d="M821.9731,151.1431 Q821.3921,151.4419 820.7529,151.5913 Q820.1138,151.7407 819.4082,151.7407 Q816.9014,151.7407 815.5815,150.0889 Q814.2617,148.437 814.2617,145.3159 Q814.2617,142.1865 815.5815,140.5347 Q816.9014,138.8828 819.4082,138.8828 Q820.1138,138.8828 820.7612,139.0322 Q821.4087,139.1816 821.9731,139.4805 L821.9731,142.2031 Q821.3423,141.6221 820.7488,141.3523 Q820.1553,141.0825 819.5244,141.0825 Q818.1797,141.0825 817.4949,142.1492 Q816.8101,143.2158 816.8101,145.3159 Q816.8101,147.4077 817.4949,148.4744 Q818.1797,149.541 819.5244,149.541 Q820.1553,149.541 820.7488,149.2712 Q821.3423,149.0015 821.9731,148.4204 Z "/><text fill="#000000" font-family="sans-serif" font-size="12" lengthAdjust="spacingAndGlyphs" textLength="123" x="833.5" y="149.5352">SwissSocialInsurances</text><line style="stroke: #A80036; stroke-width: 1.5;" x1="805.5" x2="958.5" y1="161" y2="161"/><line style="stroke: #A80036; stroke-width: 1.5;" x1="805.5" x2="958.5" y1="169" y2="169"/><!--MD5=[86c7c362de55a38b660185a1328fe18d]
class Organization--><rect fill="#FEFECE" filter="url(#f1vzrkk2icwo8n)" height="60.9551" id="Organization" style="stroke: #A80036; stroke-width: 1.5;" width="130" x="550" y="8"/><ellipse cx="576.25" cy="24" fill="#ADD1B2" rx="11" ry="11" style="stroke: #A80036; stroke-width: 1.0;"/><path d="M578.7231,30.1431 Q578.1421,30.4419 577.5029,30.5913 Q576.8638,30.7407 576.1582,30.7407 Q573.6514,30.7407 572.3315,29.0889 Q571.0117,27.437 571.0117,24.3159 Q571.0117,21.1865 572.3315,19.5347 Q573.6514,17.8828 576.1582,17.8828 Q576.8638,17.8828 577.5112,18.0322 Q578.1587,18.1816 578.7231,18.4805 L578.7231,21.2031 Q578.0923,20.6221 577.4988,20.3523 Q576.9053,20.0825 576.2744,20.0825 Q574.9297,20.0825 574.2449,21.1492 Q573.5601,22.2158 573.5601,24.3159 Q573.5601,26.4077 574.2449,27.4744 Q574.9297,28.541 576.2744,28.541 Q576.9053,28.541 577.4988,28.2712 Q578.0923,28.0015 578.7231,27.4204 Z "/><text fill="#000000" font-family="sans-serif" font-size="12" lengthAdjust="spacingAndGlyphs" textLength="73" x="592.75" y="28.5352">Organization</text><line style="stroke: #A80036; stroke-width: 1.5;" x1="551" x2="679" y1="40" y2="40"/><rect fill="none" height="6" style="stroke: #C82930; stroke-width: 1.0;" width="6" x="558" y="48"/><text fill="#000000" font-family="sans-serif" font-size="11" lengthAdjust="spacingAndGlyphs" textLength="104" x="570" y="54.6348">long legalEntityOid;</text><line style="stroke: #A80036; stroke-width: 1.5;" x1="551" x2="679" y1="60.9551" y2="60.9551"/><path d="M247,13 L247,53.6211 A0,0 0 0 0 247,53.6211 L515,53.6211 A0,0 0 0 0 515,53.6211 L515,37.3105 L554,50.4775 L515,29.3105 L515,23 L505,13 L247,13 A0,0 0 0 0 247,13 " fill="#FBFB77" filter="url(#f1vzrkk2icwo8n)" style="stroke: #A80036; stroke-width: 1.0;"/><path d="M505,13 L505,23 L515,23 L505,13 " fill="#FBFB77" style="stroke: #A80036; stroke-width: 1.0;"/><text fill="#000000" font-family="sans-serif" font-size="13" lengthAdjust="spacingAndGlyphs" textLength="247" x="253" y="30.5684">Reference to the associated legal entity</text><text fill="#000000" font-family="sans-serif" font-size="13" lengthAdjust="spacingAndGlyphs" textLength="182" x="253" y="45.8789">in the CRM bounded domain.</text><!--MD5=[6e6e94bf1dd8e2935965af905c31ce02]
link Collaborator$$$LEFT to Collaborator--><!--MD5=[b3771b02d264f9778a767127cb2bfa8e]
reverse link Collaborator to SwissInsurancesYearlyCorrections--><path d="M362.03,314.78 C346.94,333 329.36,354.21 315.47,370.97 " fill="none" id="Collaborator&lt;-SwissInsurancesYearlyCorrections" style="stroke: #A80036; stroke-width: 1.0;"/><polygon fill="#A80036" points="370.35,304.74,363.4418,306.8081,362.6938,313.9803,369.602,311.9122,370.35,304.74" style="stroke: #A80036; stroke-width: 1.0;"/><text fill="#000000" font-family="sans-serif" font-size="13" lengthAdjust="spacingAndGlyphs" textLength="8" x="311.9478" y="360.2582">n</text><!--MD5=[eae3ce3e5b6b27701293388ebc3fb3f1]
reverse link Collaborator to SwissWageCard--><path d="M427.86,315.04 C442.76,333.2 460.07,354.29 473.77,370.97 " fill="none" id="Collaborator&lt;-SwissWageCard" style="stroke: #A80036; stroke-width: 1.0;"/><polygon fill="#A80036" points="419.41,304.74,420.1308,311.915,427.0311,314.0092,426.3103,306.8343,419.41,304.74" style="stroke: #A80036; stroke-width: 1.0;"/><text fill="#000000" font-family="sans-serif" font-size="13" lengthAdjust="spacingAndGlyphs" textLength="8" x="459.5947" y="360.2582">n</text><!--MD5=[6fba7454eed3248176525232bf0c3757]
reverse link Contract to HasInterval--><path d="M453.45,183.23 C488.45,200.73 532.98,222.99 568.93,240.96 " fill="none" id="Contract&lt;-HasInterval" style="stroke: #A80036; stroke-width: 1.0;"/><polygon fill="none" points="449.86,189.26,435.1,174.05,456.12,176.74,449.86,189.26" style="stroke: #A80036; stroke-width: 1.0;"/><!--MD5=[56c74acf13325d63165ae046ff3c9f59]
reverse link Contract to Collaborator--><path d="M395,190.39 C395,207.41 395,227.43 395,243.49 " fill="none" id="Contract&lt;-Collaborator" style="stroke: #A80036; stroke-width: 1.0;"/><polygon fill="#A80036" points="395,177.23,391,183.23,395,189.23,399,183.23,395,177.23" style="stroke: #A80036; stroke-width: 1.0;"/><text fill="#000000" font-family="sans-serif" font-size="13" lengthAdjust="spacingAndGlyphs" textLength="8" x="386.125" y="232.7826">1</text><!--MD5=[bbfe29bd40ac03fd07c4f48ae5529a24]
reverse link SwissInsurances to HasInterval--><path d="M564.9,192.77 C576.9,206.9 590.4,222.81 602.2,236.71 " fill="none" id="SwissInsurances&lt;-HasInterval" style="stroke: #A80036; stroke-width: 1.0;"/><polygon fill="none" points="559.32,197,551.71,177.23,569.99,187.95,559.32,197" style="stroke: #A80036; stroke-width: 1.0;"/><!--MD5=[4f004f0d500d2d1e7350e40e0538527f]
reverse link SwissPensionFunds to HasInterval--><path d="M676.21,195.09 C668.71,208.62 660.42,223.56 653.13,236.71 " fill="none" id="SwissPensionFunds&lt;-HasInterval" style="stroke: #A80036; stroke-width: 1.0;"/><polygon fill="none" points="670.3,191.32,686.12,177.23,682.54,198.11,670.3,191.32" style="stroke: #A80036; stroke-width: 1.0;"/><!--MD5=[21e9e257ca5874f6e24bd0abce689d1f]
reverse link SwissSocialInsurances to HasInterval--><path d="M815.4,185.83 C778.74,203.35 733.47,224.98 697.2,242.32 " fill="none" id="SwissSocialInsurances&lt;-HasInterval" style="stroke: #A80036; stroke-width: 1.0;"/><polygon fill="none" points="812.63,179.39,833.7,177.09,818.67,192.03,812.63,179.39" style="stroke: #A80036; stroke-width: 1.0;"/><!--MD5=[6a8ef45259af81568e69a4babaa18541]
link Organization$$$LEFT to Organization--><!--MD5=[f7e447c155972252b16c851d94d8a952]
reverse link Organization to Contract--><path d="M545.17,75.21 C508.85,93.78 465.76,115.82 435.07,131.51 " fill="none" id="Organization&lt;-Contract" style="stroke: #A80036; stroke-width: 1.0;"/><polygon fill="#A80036" points="557.2,69.06,550.0369,68.2289,546.5148,74.5213,553.6778,75.3524,557.2,69.06" style="stroke: #A80036; stroke-width: 1.0;"/><text fill="#000000" font-family="sans-serif" font-size="13" lengthAdjust="spacingAndGlyphs" textLength="8" x="442.92" y="123.9422">n</text><!--MD5=[9d3739b63192c509939d9591bc6fc67f]
reverse link Organization to SwissInsurances--><path d="M585.47,79.52 C573.33,95.99 559.68,114.48 549.21,128.67 " fill="none" id="Organization&lt;-SwissInsurances" style="stroke: #A80036; stroke-width: 1.0;"/><polygon fill="#A80036" points="593.19,69.06,586.4108,71.5182,586.0725,78.7213,592.8517,76.2632,593.19,69.06" style="stroke: #A80036; stroke-width: 1.0;"/><text fill="#000000" font-family="sans-serif" font-size="13" lengthAdjust="spacingAndGlyphs" textLength="8" x="544.5951" y="118.1217">n</text><!--MD5=[eb194bc0658e9032cbb1b8fd7b562b22]
reverse link Organization to SwissPensionFunds--><path d="M644.88,79.52 C657.18,95.99 670.99,114.48 681.58,128.67 " fill="none" id="Organization&lt;-SwissPensionFunds" style="stroke: #A80036; stroke-width: 1.0;"/><polygon fill="#A80036" points="637.07,69.06,637.4589,76.2606,644.2552,78.6711,643.8663,71.4705,637.07,69.06" style="stroke: #A80036; stroke-width: 1.0;"/><text fill="#000000" font-family="sans-serif" font-size="13" lengthAdjust="spacingAndGlyphs" textLength="8" x="668.0911" y="118.1217">n</text><!--MD5=[cad5d3782c109eb7a1232c02c72cddb3]
reverse link Organization to SwissSocialInsurances--><path d="M692.51,72.16 C735.68,90.35 788.4,112.56 827.26,128.93 " fill="none" id="Organization&lt;-SwissSocialInsurances" style="stroke: #A80036; stroke-width: 1.0;"/><polygon fill="#A80036" points="680.32,67.02,684.2966,73.0355,691.3789,71.6785,687.4023,65.6629,680.32,67.02" style="stroke: #A80036; stroke-width: 1.0;"/><text fill="#000000" font-family="sans-serif" font-size="13" lengthAdjust="spacingAndGlyphs" textLength="8" x="804.2079" y="118.4483">n</text><!--MD5=[72273bff6ac45a578d0dd6dc7e8ffe1a]
@startuml

interface HasInterval {
  LocalDate fromDate();
  LocalDate toDate();
}

class SwissInsurancesYearlyCorrections {
  Year year();
}

class SwissWageCard {
  Year year();
}

class Collaborator {
  -long naturalEntityOid;
}
note left of Collaborator::naturalEntityOid
  Reference to the associated natural entity
  in the CRM bounded domain.
end note

Collaborator *- - "n" SwissInsurancesYearlyCorrections
Collaborator *- - "n" SwissWageCard


class Contract {}
Contract <|- - HasInterval
Contract *- - "1" Collaborator


class SwissInsurances {}
SwissInsurances <|- - HasInterval

class SwissPensionFunds {}
SwissPensionFunds <|- - HasInterval

class SwissSocialInsurances {}
SwissSocialInsurances <|- - HasInterval

class Organization {
   -long legalEntityOid;
}
note left of Organization::legalEntityOid
  Reference to the associated legal entity
  in the CRM bounded domain.
end note

Organization *- - "n" Contract
Organization *- - "n" SwissInsurances
Organization *- - "n" SwissPensionFunds
Organization *- - "n" SwissSocialInsurances

@enduml

PlantUML version 1.2020.06(Sun Apr 05 14:38:32 CEST 2020)
(APACHE source distribution)
Java Runtime: OpenJDK Runtime Environment
JVM: OpenJDK 64-Bit Server VM
Java Version: 19-ea+28-2110
Operating System: Mac OS X
Default Encoding: UTF-8
Language: en
Country: CH
--></g></svg>