<?xml version="1.0" encoding="UTF-8" standalone="no"?><svg xmlns="http://www.w3.org/2000/svg" xmlns:xlink="http://www.w3.org/1999/xlink" contentScriptType="application/ecmascript" contentStyleType="text/css" height="528px" preserveAspectRatio="none" style="width:1140px;height:528px;" version="1.1" viewBox="0 0 1140 528" width="1140px" zoomAndPan="magnify"><defs><filter height="300%" id="f1vzrkk2icwo8n" width="300%" x="-1" y="-1"><feGaussianBlur result="blurOut" stdDeviation="2.0"/><feColorMatrix in="blurOut" result="blurOut2" type="matrix" values="0 0 0 0 0 0 0 0 0 0 0 0 0 0 0 0 0 0 .4 0"/><feOffset dx="4.0" dy="4.0" in="blurOut2" result="blurOut3"/><feBlend in="SourceGraphic" in2="blurOut3" mode="normal"/></filter></defs><g><!--MD5=[3d8b1ae7933ec759d7a1bd764ba62fe5]
class HasInterval--><rect fill="#FEFECE" filter="url(#f1vzrkk2icwo8n)" height="73.9102" id="HasInterval" style="stroke: #A80036; stroke-width: 1.5;" width="128" x="653" y="290"/><ellipse cx="682.4" cy="306" fill="#B4A7E5" rx="11" ry="11" style="stroke: #A80036; stroke-width: 1.0;"/><path d="M678.8277,302.2651 L678.8277,300.1069 L686.2071,300.1069 L686.2071,302.2651 L683.7418,302.2651 L683.7418,310.3418 L686.2071,310.3418 L686.2071,312.5 L678.8277,312.5 L678.8277,310.3418 L681.2931,310.3418 L681.2931,302.2651 Z "/><text fill="#000000" font-family="sans-serif" font-size="12" font-style="italic" lengthAdjust="spacingAndGlyphs" textLength="64" x="699.6" y="310.5352">HasInterval</text><line style="stroke: #A80036; stroke-width: 1.5;" x1="654" x2="780" y1="322" y2="322"/><line style="stroke: #A80036; stroke-width: 1.5;" x1="654" x2="780" y1="330" y2="330"/><text fill="#000000" font-family="sans-serif" font-size="11" lengthAdjust="spacingAndGlyphs" textLength="116" x="659" y="344.6348">LocalDate fromDate();</text><text fill="#000000" font-family="sans-serif" font-size="11" lengthAdjust="spacingAndGlyphs" textLength="101" x="659" y="357.5898">LocalDate toDate();</text><!--MD5=[d4b4ee96f79293b862f9682772a2242f]
class SwissInsurancesYearlyCorrections--><rect fill="#FEFECE" filter="url(#f1vzrkk2icwo8n)" height="60.9551" id="SwissInsurancesYearlyCorrections" style="stroke: #A80036; stroke-width: 1.5;" width="223" x="180" y="457"/><ellipse cx="195" cy="473" fill="#ADD1B2" rx="11" ry="11" style="stroke: #A80036; stroke-width: 1.0;"/><path d="M197.4731,479.1431 Q196.8921,479.4419 196.2529,479.5913 Q195.6138,479.7407 194.9082,479.7407 Q192.4014,479.7407 191.0815,478.0889 Q189.7617,476.437 189.7617,473.3159 Q189.7617,470.1865 191.0815,468.5347 Q192.4014,466.8828 194.9082,466.8828 Q195.6138,466.8828 196.2612,467.0322 Q196.9087,467.1816 197.4731,467.4805 L197.4731,470.2031 Q196.8423,469.6221 196.2488,469.3523 Q195.6553,469.0825 195.0244,469.0825 Q193.6797,469.0825 192.9949,470.1492 Q192.3101,471.2158 192.3101,473.3159 Q192.3101,475.4077 192.9949,476.4744 Q193.6797,477.541 195.0244,477.541 Q195.6553,477.541 196.2488,477.2712 Q196.8423,477.0015 197.4731,476.4204 Z "/><text fill="#000000" font-family="sans-serif" font-size="12" lengthAdjust="spacingAndGlyphs" textLength="191" x="209" y="477.5352">SwissInsurancesYearlyCorrections</text><line style="stroke: #A80036; stroke-width: 1.5;" x1="181" x2="402" y1="489" y2="489"/><line style="stroke: #A80036; stroke-width: 1.5;" x1="181" x2="402" y1="497" y2="497"/><text fill="#000000" font-family="sans-serif" font-size="11" lengthAdjust="spacingAndGlyphs" textLength="61" x="186" y="511.6348">Year year();</text><!--MD5=[e32aee43ff1ea6d78022d7aa0dcdfe3d]
class SwissWageCard--><rect fill="#FEFECE" filter="url(#f1vzrkk2icwo8n)" height="60.9551" id="SwissWageCard" style="stroke: #A80036; stroke-width: 1.5;" width="121" x="486" y="457"/><ellipse cx="501" cy="473" fill="#ADD1B2" rx="11" ry="11" style="stroke: #A80036; stroke-width: 1.0;"/><path d="M503.4731,479.1431 Q502.8921,479.4419 502.2529,479.5913 Q501.6138,479.7407 500.9082,479.7407 Q498.4014,479.7407 497.0815,478.0889 Q495.7617,476.437 495.7617,473.3159 Q495.7617,470.1865 497.0815,468.5347 Q498.4014,466.8828 500.9082,466.8828 Q501.6138,466.8828 502.2612,467.0322 Q502.9087,467.1816 503.4731,467.4805 L503.4731,470.2031 Q502.8423,469.6221 502.2488,469.3523 Q501.6553,469.0825 501.0244,469.0825 Q499.6797,469.0825 498.9949,470.1492 Q498.3101,471.2158 498.3101,473.3159 Q498.3101,475.4077 498.9949,476.4744 Q499.6797,477.541 501.0244,477.541 Q501.6553,477.541 502.2488,477.2712 Q502.8423,477.0015 503.4731,476.4204 Z "/><text fill="#000000" font-family="sans-serif" font-size="12" lengthAdjust="spacingAndGlyphs" textLength="89" x="515" y="477.5352">SwissWageCard</text><line style="stroke: #A80036; stroke-width: 1.5;" x1="487" x2="606" y1="489" y2="489"/><line style="stroke: #A80036; stroke-width: 1.5;" x1="487" x2="606" y1="497" y2="497"/><text fill="#000000" font-family="sans-serif" font-size="11" lengthAdjust="spacingAndGlyphs" textLength="61" x="492" y="511.6348">Year year();</text><!--MD5=[f483d6e5de34a60207b28a5563be5e8b]
class Collaborator--><rect fill="#FEFECE" filter="url(#f1vzrkk2icwo8n)" height="60.9551" id="Collaborator" style="stroke: #A80036; stroke-width: 1.5;" width="143" x="348" y="297"/><ellipse cx="381" cy="313" fill="#ADD1B2" rx="11" ry="11" style="stroke: #A80036; stroke-width: 1.0;"/><path d="M383.4731,319.1431 Q382.8921,319.4419 382.2529,319.5913 Q381.6138,319.7407 380.9082,319.7407 Q378.4014,319.7407 377.0815,318.0889 Q375.7617,316.437 375.7617,313.3159 Q375.7617,310.1865 377.0815,308.5347 Q378.4014,306.8828 380.9082,306.8828 Q381.6138,306.8828 382.2612,307.0322 Q382.9087,307.1816 383.4731,307.4805 L383.4731,310.2031 Q382.8423,309.6221 382.2488,309.3523 Q381.6553,309.0825 381.0244,309.0825 Q379.6797,309.0825 378.9949,310.1492 Q378.3101,311.2158 378.3101,313.3159 Q378.3101,315.4077 378.9949,316.4744 Q379.6797,317.541 381.0244,317.541 Q381.6553,317.541 382.2488,317.2712 Q382.8423,317.0015 383.4731,316.4204 Z "/><text fill="#000000" font-family="sans-serif" font-size="12" lengthAdjust="spacingAndGlyphs" textLength="71" x="399" y="317.5352">Collaborator</text><line style="stroke: #A80036; stroke-width: 1.5;" x1="349" x2="490" y1="329" y2="329"/><rect fill="none" height="6" style="stroke: #C82930; stroke-width: 1.0;" width="6" x="356" y="337"/><text fill="#000000" font-family="sans-serif" font-size="11" lengthAdjust="spacingAndGlyphs" textLength="117" x="368" y="343.6348">long naturalEntityOid;</text><line style="stroke: #A80036; stroke-width: 1.5;" x1="349" x2="490" y1="349.9551" y2="349.9551"/><path d="M6,301.5 L6,342.1211 A0,0 0 0 0 6,342.1211 L288,342.1211 A0,0 0 0 0 288,342.1211 L288,325.8105 L352,339.4775 L288,317.8105 L288,311.5 L278,301.5 L6,301.5 A0,0 0 0 0 6,301.5 " fill="#FBFB77" filter="url(#f1vzrkk2icwo8n)" style="stroke: #A80036; stroke-width: 1.0;"/><path d="M278,301.5 L278,311.5 L288,311.5 L278,301.5 " fill="#FBFB77" style="stroke: #A80036; stroke-width: 1.0;"/><text fill="#000000" font-family="sans-serif" font-size="13" lengthAdjust="spacingAndGlyphs" textLength="261" x="12" y="319.0684">Reference to the associated natural entity</text><text fill="#000000" font-family="sans-serif" font-size="13" lengthAdjust="spacingAndGlyphs" textLength="182" x="12" y="334.3789">in the CRM bounded domain.</text><!--MD5=[461026a38b737c4ce5e8254b9a577e21]
class Contract--><rect fill="#FEFECE" filter="url(#f1vzrkk2icwo8n)" height="48" id="Contract" style="stroke: #A80036; stroke-width: 1.5;" width="80" x="380" y="149"/><ellipse cx="395" cy="165" fill="#ADD1B2" rx="11" ry="11" style="stroke: #A80036; stroke-width: 1.0;"/><path d="M397.4731,171.1431 Q396.8921,171.4419 396.2529,171.5913 Q395.6138,171.7407 394.9082,171.7407 Q392.4014,171.7407 391.0815,170.0889 Q389.7617,168.437 389.7617,165.3159 Q389.7617,162.1865 391.0815,160.5347 Q392.4014,158.8828 394.9082,158.8828 Q395.6138,158.8828 396.2612,159.0322 Q396.9087,159.1816 397.4731,159.4805 L397.4731,162.2031 Q396.8423,161.6221 396.2488,161.3523 Q395.6553,161.0825 395.0244,161.0825 Q393.6797,161.0825 392.9949,162.1492 Q392.3101,163.2158 392.3101,165.3159 Q392.3101,167.4077 392.9949,168.4744 Q393.6797,169.541 395.0244,169.541 Q395.6553,169.541 396.2488,169.2712 Q396.8423,169.0015 397.4731,168.4204 Z "/><text fill="#000000" font-family="sans-serif" font-size="12" lengthAdjust="spacingAndGlyphs" textLength="48" x="409" y="169.5352">Contract</text><line style="stroke: #A80036; stroke-width: 1.5;" x1="381" x2="459" y1="181" y2="181"/><line style="stroke: #A80036; stroke-width: 1.5;" x1="381" x2="459" y1="189" y2="189"/><!--MD5=[8bb24ca9a9d64e5aa366bbacb289931a]
class SwissInsurances--><rect fill="#FEFECE" filter="url(#f1vzrkk2icwo8n)" height="48" id="SwissInsurances" style="stroke: #A80036; stroke-width: 1.5;" width="123" x="544" y="149"/><ellipse cx="559" cy="165" fill="#ADD1B2" rx="11" ry="11" style="stroke: #A80036; stroke-width: 1.0;"/><path d="M561.4731,171.1431 Q560.8921,171.4419 560.2529,171.5913 Q559.6138,171.7407 558.9082,171.7407 Q556.4014,171.7407 555.0815,170.0889 Q553.7617,168.437 553.7617,165.3159 Q553.7617,162.1865 555.0815,160.5347 Q556.4014,158.8828 558.9082,158.8828 Q559.6138,158.8828 560.2612,159.0322 Q560.9087,159.1816 561.4731,159.4805 L561.4731,162.2031 Q560.8423,161.6221 560.2488,161.3523 Q559.6553,161.0825 559.0244,161.0825 Q557.6797,161.0825 556.9949,162.1492 Q556.3101,163.2158 556.3101,165.3159 Q556.3101,167.4077 556.9949,168.4744 Q557.6797,169.541 559.0244,169.541 Q559.6553,169.541 560.2488,169.2712 Q560.8423,169.0015 561.4731,168.4204 Z "/><text fill="#000000" font-family="sans-serif" font-size="12" lengthAdjust="spacingAndGlyphs" textLength="91" x="573" y="169.5352">SwissInsurances</text><line style="stroke: #A80036; stroke-width: 1.5;" x1="545" x2="666" y1="181" y2="181"/><line style="stroke: #A80036; stroke-width: 1.5;" x1="545" x2="666" y1="189" y2="189"/><!--MD5=[e94e8f277b2d4f1e0edb60fd61074a66]
class SwissPensionFunds--><rect fill="#FEFECE" filter="url(#f1vzrkk2icwo8n)" height="48" id="SwissPensionFunds" style="stroke: #A80036; stroke-width: 1.5;" width="140" x="750" y="149"/><ellipse cx="765" cy="165" fill="#ADD1B2" rx="11" ry="11" style="stroke: #A80036; stroke-width: 1.0;"/><path d="M767.4731,171.1431 Q766.8921,171.4419 766.2529,171.5913 Q765.6138,171.7407 764.9082,171.7407 Q762.4014,171.7407 761.0815,170.0889 Q759.7617,168.437 759.7617,165.3159 Q759.7617,162.1865 761.0815,160.5347 Q762.4014,158.8828 764.9082,158.8828 Q765.6138,158.8828 766.2612,159.0322 Q766.9087,159.1816 767.4731,159.4805 L767.4731,162.2031 Q766.8423,161.6221 766.2488,161.3523 Q765.6553,161.0825 765.0244,161.0825 Q763.6797,161.0825 762.9949,162.1492 Q762.3101,163.2158 762.3101,165.3159 Q762.3101,167.4077 762.9949,168.4744 Q763.6797,169.541 765.0244,169.541 Q765.6553,169.541 766.2488,169.2712 Q766.8423,169.0015 767.4731,168.4204 Z "/><text fill="#000000" font-family="sans-serif" font-size="12" lengthAdjust="spacingAndGlyphs" textLength="108" x="779" y="169.5352">SwissPensionFunds</text><line style="stroke: #A80036; stroke-width: 1.5;" x1="751" x2="889" y1="181" y2="181"/><line style="stroke: #A80036; stroke-width: 1.5;" x1="751" x2="889" y1="189" y2="189"/><!--MD5=[be89a52208b546c373d0fae740674809]
class SwissSocialInsurances--><rect fill="#FEFECE" filter="url(#f1vzrkk2icwo8n)" height="48" id="SwissSocialInsurances" style="stroke: #A80036; stroke-width: 1.5;" width="155" x="974" y="149"/><ellipse cx="989" cy="165" fill="#ADD1B2" rx="11" ry="11" style="stroke: #A80036; stroke-width: 1.0;"/><path d="M991.4731,171.1431 Q990.8921,171.4419 990.2529,171.5913 Q989.6138,171.7407 988.9082,171.7407 Q986.4014,171.7407 985.0815,170.0889 Q983.7617,168.437 983.7617,165.3159 Q983.7617,162.1865 985.0815,160.5347 Q986.4014,158.8828 988.9082,158.8828 Q989.6138,158.8828 990.2612,159.0322 Q990.9087,159.1816 991.4731,159.4805 L991.4731,162.2031 Q990.8423,161.6221 990.2488,161.3523 Q989.6553,161.0825 989.0244,161.0825 Q987.6797,161.0825 986.9949,162.1492 Q986.3101,163.2158 986.3101,165.3159 Q986.3101,167.4077 986.9949,168.4744 Q987.6797,169.541 989.0244,169.541 Q989.6553,169.541 990.2488,169.2712 Q990.8423,169.0015 991.4731,168.4204 Z "/><text fill="#000000" font-family="sans-serif" font-size="12" lengthAdjust="spacingAndGlyphs" textLength="123" x="1003" y="169.5352">SwissSocialInsurances</text><line style="stroke: #A80036; stroke-width: 1.5;" x1="975" x2="1128" y1="181" y2="181"/><line style="stroke: #A80036; stroke-width: 1.5;" x1="975" x2="1128" y1="189" y2="189"/><!--MD5=[86c7c362de55a38b660185a1328fe18d]
class Organization--><rect fill="#FEFECE" filter="url(#f1vzrkk2icwo8n)" height="60.9551" id="Organization" style="stroke: #A80036; stroke-width: 1.5;" width="130" x="648" y="8"/><ellipse cx="674.25" cy="24" fill="#ADD1B2" rx="11" ry="11" style="stroke: #A80036; stroke-width: 1.0;"/><path d="M676.7231,30.1431 Q676.1421,30.4419 675.5029,30.5913 Q674.8638,30.7407 674.1582,30.7407 Q671.6514,30.7407 670.3315,29.0889 Q669.0117,27.437 669.0117,24.3159 Q669.0117,21.1865 670.3315,19.5347 Q671.6514,17.8828 674.1582,17.8828 Q674.8638,17.8828 675.5112,18.0322 Q676.1587,18.1816 676.7231,18.4805 L676.7231,21.2031 Q676.0923,20.6221 675.4988,20.3523 Q674.9053,20.0825 674.2744,20.0825 Q672.9297,20.0825 672.2449,21.1492 Q671.5601,22.2158 671.5601,24.3159 Q671.5601,26.4077 672.2449,27.4744 Q672.9297,28.541 674.2744,28.541 Q674.9053,28.541 675.4988,28.2712 Q676.0923,28.0015 676.7231,27.4204 Z "/><text fill="#000000" font-family="sans-serif" font-size="12" lengthAdjust="spacingAndGlyphs" textLength="73" x="690.75" y="28.5352">Organization</text><line style="stroke: #A80036; stroke-width: 1.5;" x1="649" x2="777" y1="40" y2="40"/><rect fill="none" height="6" style="stroke: #C82930; stroke-width: 1.0;" width="6" x="656" y="48"/><text fill="#000000" font-family="sans-serif" font-size="11" lengthAdjust="spacingAndGlyphs" textLength="104" x="668" y="54.6348">long legalEntityOid;</text><line style="stroke: #A80036; stroke-width: 1.5;" x1="649" x2="777" y1="60.9551" y2="60.9551"/><path d="M345,13 L345,53.6211 A0,0 0 0 0 345,53.6211 L613,53.6211 A0,0 0 0 0 613,53.6211 L613,37.3105 L652,50.4775 L613,29.3105 L613,23 L603,13 L345,13 A0,0 0 0 0 345,13 " fill="#FBFB77" filter="url(#f1vzrkk2icwo8n)" style="stroke: #A80036; stroke-width: 1.0;"/><path d="M603,13 L603,23 L613,23 L603,13 " fill="#FBFB77" style="stroke: #A80036; stroke-width: 1.0;"/><text fill="#000000" font-family="sans-serif" font-size="13" lengthAdjust="spacingAndGlyphs" textLength="247" x="351" y="30.5684">Reference to the associated legal entity</text><text fill="#000000" font-family="sans-serif" font-size="13" lengthAdjust="spacingAndGlyphs" textLength="182" x="351" y="45.8789">in the CRM bounded domain.</text><!--MD5=[6e6e94bf1dd8e2935965af905c31ce02]
link Collaborator$$$LEFT to Collaborator--><!--MD5=[b3771b02d264f9778a767127cb2bfa8e]
reverse link Collaborator to SwissInsurancesYearlyCorrections--><path d="M388,367.5 C365.54,395.23 336,431.69 315.65,456.81 " fill="none" id="Collaborator&lt;-SwissInsurancesYearlyCorrections" style="stroke: #A80036; stroke-width: 1.0;"/><polygon fill="#A80036" points="396.22,357.35,389.3364,359.4986,388.6723,366.6791,395.5558,364.5305,396.22,357.35" style="stroke: #A80036; stroke-width: 1.0;"/><text fill="#000000" font-family="sans-serif" font-size="13" lengthAdjust="spacingAndGlyphs" textLength="8" x="312.0578" y="446.0632">n</text><!--MD5=[eae3ce3e5b6b27701293388ebc3fb3f1]
reverse link Collaborator to SwissWageCard--><path d="M451.75,367.5 C474.04,395.23 503.35,431.69 523.54,456.81 " fill="none" id="Collaborator&lt;-SwissWageCard" style="stroke: #A80036; stroke-width: 1.0;"/><polygon fill="#A80036" points="443.59,357.35,444.232,364.5325,451.1088,366.7024,450.4669,359.5199,443.59,357.35" style="stroke: #A80036; stroke-width: 1.0;"/><text fill="#000000" font-family="sans-serif" font-size="13" lengthAdjust="spacingAndGlyphs" textLength="8" x="509.6425" y="446.0632">n</text><!--MD5=[6fba7454eed3248176525232bf0c3757]
reverse link Contract to HasInterval--><path d="M478.43,204.77 C486.35,208.9 494.37,213.06 502,217 C552.59,243.08 610.1,272.22 652.91,293.8 " fill="none" id="Contract&lt;-HasInterval" style="stroke: #A80036; stroke-width: 1.0;"/><polygon fill="none" points="474.87,210.8,460.4,195.33,481.36,198.4,474.87,210.8" style="stroke: #A80036; stroke-width: 1.0;"/><!--MD5=[56c74acf13325d63165ae046ff3c9f59]
reverse link Contract to Collaborator--><path d="M420,210.4 C420,236.91 420,272.35 420,296.97 " fill="none" id="Contract&lt;-Collaborator" style="stroke: #A80036; stroke-width: 1.0;"/><polygon fill="#A80036" points="420,197.09,416,203.09,420,209.09,424,203.09,420,197.09" style="stroke: #A80036; stroke-width: 1.0;"/><text fill="#000000" font-family="sans-serif" font-size="13" lengthAdjust="spacingAndGlyphs" textLength="8" x="411.2344" y="286.2582">1</text><!--MD5=[bbfe29bd40ac03fd07c4f48ae5529a24]
reverse link SwissInsurances to HasInterval--><path d="M634.76,213.38 C652.03,237.04 673.85,266.91 690.67,289.94 " fill="none" id="SwissInsurances&lt;-HasInterval" style="stroke: #A80036; stroke-width: 1.0;"/><polygon fill="none" points="629,217.37,622.86,197.09,640.31,209.11,629,217.37" style="stroke: #A80036; stroke-width: 1.0;"/><!--MD5=[4f004f0d500d2d1e7350e40e0538527f]
reverse link SwissPensionFunds to HasInterval--><path d="M793.08,213.73 C777.09,237.33 756.97,267.02 741.43,289.94 " fill="none" id="SwissPensionFunds&lt;-HasInterval" style="stroke: #A80036; stroke-width: 1.0;"/><polygon fill="none" points="787.34,209.72,804.36,197.09,798.93,217.57,787.34,209.72" style="stroke: #A80036; stroke-width: 1.0;"/><!--MD5=[21e9e257ca5874f6e24bd0abce689d1f]
reverse link SwissSocialInsurances to HasInterval--><path d="M982.86,205.37 C923.65,232.24 839.05,270.62 781.29,296.83 " fill="none" id="SwissSocialInsurances&lt;-HasInterval" style="stroke: #A80036; stroke-width: 1.0;"/><polygon fill="none" points="980.02,198.97,1001.12,197.09,985.8,211.72,980.02,198.97" style="stroke: #A80036; stroke-width: 1.0;"/><!--MD5=[6a8ef45259af81568e69a4babaa18541]
link Organization$$$LEFT to Organization--><!--MD5=[f7e447c155972252b16c851d94d8a952]
reverse link Organization to Contract--><path d="M635.6,70.55 C595.4,87.13 545.68,108.33 502,129 C488.2,135.53 473.35,143.14 460.13,150.12 " fill="none" id="Organization&lt;-Contract" style="stroke: #A80036; stroke-width: 1.0;"/><polygon fill="#A80036" points="647.75,65.56,640.6814,64.1335,636.646,70.1098,643.7146,71.5362,647.75,65.56" style="stroke: #A80036; stroke-width: 1.0;"/><text fill="#000000" font-family="sans-serif" font-size="13" lengthAdjust="spacingAndGlyphs" textLength="8" x="463.1948" y="138.432">n</text><!--MD5=[9d3739b63192c509939d9591bc6fc67f]
reverse link Organization to SwissInsurances--><path d="M680.62,79.6 C662.29,102.29 640.03,129.86 624.61,148.95 " fill="none" id="Organization&lt;-SwissInsurances" style="stroke: #A80036; stroke-width: 1.0;"/><polygon fill="#A80036" points="688.99,69.24,682.1079,71.3934,681.4487,78.5743,688.3308,76.4209,688.99,69.24" style="stroke: #A80036; stroke-width: 1.0;"/><text fill="#000000" font-family="sans-serif" font-size="13" lengthAdjust="spacingAndGlyphs" textLength="8" x="620.6708" y="138.081">n</text><!--MD5=[eb194bc0658e9032cbb1b8fd7b562b22]
reverse link Organization to SwissPensionFunds--><path d="M745.38,79.6 C763.71,102.29 785.97,129.86 801.39,148.95 " fill="none" id="Organization&lt;-SwissPensionFunds" style="stroke: #A80036; stroke-width: 1.0;"/><polygon fill="#A80036" points="737.01,69.24,737.6692,76.4209,744.5513,78.5743,743.8921,71.3934,737.01,69.24" style="stroke: #A80036; stroke-width: 1.0;"/><text fill="#000000" font-family="sans-serif" font-size="13" lengthAdjust="spacingAndGlyphs" textLength="8" x="787.3136" y="138.081">n</text><!--MD5=[cad5d3782c109eb7a1232c02c72cddb3]
reverse link Organization to SwissSocialInsurances--><path d="M790.74,69.89 C852.31,93.95 937.01,127.06 993.07,148.97 " fill="none" id="Organization&lt;-SwissSocialInsurances" style="stroke: #A80036; stroke-width: 1.0;"/><polygon fill="#A80036" points="778.36,65.05,782.4888,70.9621,789.5341,69.4248,785.4053,63.5127,778.36,65.05" style="stroke: #A80036; stroke-width: 1.0;"/><text fill="#000000" font-family="sans-serif" font-size="13" lengthAdjust="spacingAndGlyphs" textLength="8" x="968.2919" y="138.1064">n</text><!--MD5=[10b960ea8fa969d20252f266baf97e8d]
@startuml

interface HasInterval {
  LocalDate fromDate();
  LocalDate toDate();
}

class SwissInsurancesYearlyCorrections {
  Year year();
}

class SwissWageCard {
  Year year();
}

class Collaborator {
  -long naturalEntityOid;
}
note left of Collaborator::naturalEntityOid
  Reference to the associated natural entity
  in the CRM bounded domain.
end note

Collaborator *- - "n" SwissInsurancesYearlyCorrections
Collaborator *- - "n" SwissWageCard


class Contract {}
Contract <|- - HasInterval
Contract *- - "1" Collaborator


class SwissInsurances {}
SwissInsurances <|- - HasInterval

class SwissPensionFunds {}
SwissPensionFunds <|- - HasInterval

class SwissSocialInsurances {}
SwissSocialInsurances <|- - HasInterval

class Organization {
   -long legalEntityOid;
}
note left of Organization::legalEntityOid
  Reference to the associated legal entity
  in the CRM bounded domain.
end note

Organization *- - "n" Contract
Organization *- - "n" SwissInsurances
Organization *- - "n" SwissPensionFunds
Organization *- - "n" SwissSocialInsurances

@enduml

PlantUML version 1.2020.06(Sun Apr 05 14:38:32 CEST 2020)
(APACHE source distribution)
Java Runtime: OpenJDK Runtime Environment
JVM: OpenJDK 64-Bit Server VM
Java Version: 19+36-2238
Operating System: Mac OS X
Default Encoding: UTF-8
Language: en
Country: CH
--></g></svg>